G04*
G04 #@! TF.GenerationSoftware,Altium Limited,Altium Designer,20.1.11 (218)*
G04*
G04 Layer_Color=3707366*
%FSAX42Y42*%
%MOMM*%
G71*
G04*
G04 #@! TF.SameCoordinates,E04DCB56-ABFB-4DF7-A6F1-084D64C497F4*
G04*
G04*
G04 #@! TF.FilePolarity,Positive*
G04*
G01*
G75*
%ADD10C,0.20*%
%ADD12C,0.25*%
%ADD14C,0.15*%
%ADD15C,0.05*%
%ADD16C,0.25*%
D10*
X019440Y002776D02*
Y003016D01*
X019124Y002736D02*
X019405D01*
X019085Y003016D02*
X019440D01*
X019085Y002776D02*
Y003016D01*
X019090Y002166D02*
X019445D01*
Y002406D01*
X019090Y002166D02*
Y002406D01*
X018680Y002166D02*
Y002406D01*
X018715Y002446D02*
X018997D01*
X018680Y002166D02*
X019035D01*
Y002406D01*
X018675Y003016D02*
X019030D01*
X018675Y002776D02*
Y003016D01*
X019030Y002776D02*
Y003016D01*
X020045Y002179D02*
Y002319D01*
X019705Y002179D02*
Y002319D01*
Y002179D02*
X020045D01*
X019705Y002662D02*
Y002802D01*
X020045Y002662D02*
Y002802D01*
X019705D02*
X020045D01*
X022753Y003432D02*
X022823D01*
X022753Y003722D02*
X022823D01*
X022753Y003432D02*
Y003722D01*
X022823Y003432D02*
Y003722D01*
X022589Y003150D02*
X022605Y003166D01*
X022639D01*
X022655Y003150D01*
Y003083D01*
X022639Y003066D01*
X022605D01*
X022589Y003083D01*
X022555D02*
X022539Y003066D01*
X022505D01*
X022489Y003083D01*
Y003150D01*
X022505Y003166D01*
X022539D01*
X022555Y003150D01*
Y003133D01*
X022539Y003116D01*
X022489D01*
X020575Y003256D02*
X020675D01*
Y003306D01*
X020659Y003323D01*
X020625D01*
X020609Y003306D01*
Y003256D01*
Y003290D02*
X020575Y003323D01*
Y003356D02*
Y003390D01*
Y003373D01*
X020675D01*
X020659Y003356D01*
X020592Y003440D02*
X020575Y003456D01*
Y003490D01*
X020592Y003506D01*
X020659D01*
X020675Y003490D01*
Y003456D01*
X020659Y003440D01*
X020642D01*
X020625Y003456D01*
Y003506D01*
X021115Y003666D02*
X021215D01*
Y003716D01*
X021199Y003733D01*
X021165D01*
X021149Y003716D01*
Y003666D01*
Y003700D02*
X021115Y003733D01*
Y003766D02*
Y003800D01*
Y003783D01*
X021215D01*
X021199Y003766D01*
Y003850D02*
X021215Y003866D01*
Y003900D01*
X021199Y003916D01*
X021182D01*
X021165Y003900D01*
X021149Y003916D01*
X021132D01*
X021115Y003900D01*
Y003866D01*
X021132Y003850D01*
X021149D01*
X021165Y003866D01*
X021182Y003850D01*
X021199D01*
X021165Y003866D02*
Y003900D01*
D12*
X022678Y003397D02*
G03*
X022678Y003397I-000012J000000D01*
G01*
D14*
X022591Y004479D02*
Y004543D01*
X022439Y004479D02*
Y004543D01*
X022452Y004352D02*
X022579D01*
X022452Y004670D02*
X022579D01*
X022452Y004723D02*
X022579D01*
X022452Y005040D02*
X022579D01*
X022591Y004850D02*
Y004913D01*
X022439Y004850D02*
Y004913D01*
X022938Y003939D02*
X023002D01*
X022938Y004092D02*
X023002D01*
X022811Y003952D02*
Y004079D01*
X023129Y003952D02*
Y004079D01*
Y004122D02*
Y004249D01*
X022811Y004122D02*
Y004249D01*
X022938Y004262D02*
X023002D01*
X022938Y004109D02*
X023002D01*
X021771Y004479D02*
Y004543D01*
X021619Y004479D02*
Y004543D01*
X021632Y004352D02*
X021759D01*
X021632Y004670D02*
X021759D01*
X021632Y004723D02*
X021759D01*
X021632Y005040D02*
X021759D01*
X021771Y004850D02*
Y004913D01*
X021619Y004850D02*
Y004913D01*
X022029Y004850D02*
Y004913D01*
X022181Y004850D02*
Y004913D01*
X022042Y005040D02*
X022169D01*
X022042Y004723D02*
X022169D01*
X022042Y004670D02*
X022169D01*
X022042Y004352D02*
X022169D01*
X022029Y004479D02*
Y004543D01*
X022181Y004479D02*
Y004543D01*
X018939Y004063D02*
X019002D01*
X018939Y003910D02*
X019002D01*
X019129Y003923D02*
Y004050D01*
X018812Y003923D02*
Y004050D01*
X019259Y005693D02*
Y005820D01*
X018941Y005693D02*
Y005820D01*
X019068Y005833D02*
X019132D01*
X019068Y005680D02*
X019132D01*
X019438D02*
X019502D01*
X019438Y005833D02*
X019502D01*
X019311Y005693D02*
Y005820D01*
X019629Y005693D02*
Y005820D01*
X020049Y005153D02*
Y005280D01*
X019731Y005153D02*
Y005280D01*
X019858Y005293D02*
X019922D01*
X019858Y005140D02*
X019922D01*
X022999Y003540D02*
Y003603D01*
X023151Y003540D02*
Y003603D01*
X023012Y003730D02*
X023139D01*
X023012Y003413D02*
X023139D01*
X022432Y003730D02*
X022559D01*
X022432Y003413D02*
X022559D01*
X022419Y003540D02*
Y003603D01*
X022571Y003540D02*
Y003603D01*
X022031Y003540D02*
Y003603D01*
X021879Y003540D02*
Y003603D01*
X021892Y003413D02*
X022019D01*
X021892Y003730D02*
X022019D01*
X021722D02*
X021849D01*
X021722Y003413D02*
X021849D01*
X021709Y003540D02*
Y003603D01*
X021861Y003540D02*
Y003603D01*
X020639Y003823D02*
X020702D01*
X020639Y003670D02*
X020702D01*
X020829Y003683D02*
Y003810D01*
X020512Y003683D02*
Y003810D01*
X020862Y006800D02*
X020989D01*
X020862Y006482D02*
X020989D01*
X020849Y006609D02*
Y006673D01*
X021001Y006609D02*
Y006673D01*
X021991Y005583D02*
X022054D01*
X021991Y005430D02*
X022054D01*
X022181Y005443D02*
Y005570D01*
X021864Y005443D02*
Y005570D01*
X020619Y005423D02*
X020682D01*
X020619Y005270D02*
X020682D01*
X020809Y005283D02*
Y005410D01*
X020492Y005283D02*
Y005410D01*
X022342Y003233D02*
Y003360D01*
X022659Y003233D02*
Y003360D01*
X022469Y003220D02*
X022532D01*
X022469Y003373D02*
X022532D01*
X021062Y006253D02*
Y006380D01*
X021379Y006253D02*
Y006380D01*
X021189Y006240D02*
X021252D01*
X021189Y006393D02*
X021252D01*
X020219Y005753D02*
X020282D01*
X020219Y005600D02*
X020282D01*
X020409Y005613D02*
Y005740D01*
X020092Y005613D02*
Y005740D01*
X020662Y005160D02*
X020789D01*
X020662Y004842D02*
X020789D01*
X020649Y004969D02*
Y005033D01*
X020801Y004969D02*
Y005033D01*
X020969Y004203D02*
Y004330D01*
X020651Y004203D02*
Y004330D01*
X020778Y004343D02*
X020842D01*
X020778Y004190D02*
X020842D01*
X021039Y006253D02*
Y006380D01*
X020721Y006253D02*
Y006380D01*
X020848Y006393D02*
X020912D01*
X020848Y006240D02*
X020912D01*
X020129Y002450D02*
Y002513D01*
X020281Y002450D02*
Y002513D01*
X020142Y002640D02*
X020269D01*
X020142Y002323D02*
X020269D01*
X023199Y005513D02*
X023262D01*
X023199Y005360D02*
X023262D01*
X023389Y005373D02*
Y005500D01*
X023072Y005373D02*
Y005500D01*
X022892Y005520D02*
X023019D01*
X022892Y005202D02*
X023019D01*
X022879Y005329D02*
Y005393D01*
X023031Y005329D02*
Y005393D01*
X022189Y003563D02*
X022252D01*
X022189Y003411D02*
X022252D01*
X022379Y003423D02*
Y003550D01*
X022062Y003423D02*
Y003550D01*
Y003603D02*
Y003730D01*
X022379Y003603D02*
Y003730D01*
X022189Y003591D02*
X022252D01*
X022189Y003743D02*
X022252D01*
X018939Y004253D02*
X019002D01*
X018939Y004100D02*
X019002D01*
X019129Y004113D02*
Y004240D01*
X018812Y004113D02*
Y004240D01*
X022622Y004353D02*
X022749D01*
X022622Y004670D02*
X022749D01*
X022761Y004480D02*
Y004543D01*
X022609Y004480D02*
Y004543D01*
X022761Y004849D02*
Y004913D01*
X022609Y004849D02*
Y004913D01*
X022622Y004722D02*
X022749D01*
X022622Y005040D02*
X022749D01*
X022812Y003782D02*
Y003909D01*
X023129Y003782D02*
Y003909D01*
X022939Y003769D02*
X023002D01*
X022939Y003922D02*
X023002D01*
X022939Y004433D02*
X023002D01*
X022939Y004280D02*
X023002D01*
X023129Y004293D02*
Y004420D01*
X022812Y004293D02*
Y004420D01*
X021802Y004353D02*
X021929D01*
X021802Y004670D02*
X021929D01*
X021941Y004480D02*
Y004543D01*
X021789Y004480D02*
Y004543D01*
X021931Y004849D02*
Y004913D01*
X021779Y004849D02*
Y004913D01*
X021792Y004722D02*
X021919D01*
X021792Y005040D02*
X021919D01*
X022212D02*
X022339D01*
X022212Y004722D02*
X022339D01*
X022199Y004849D02*
Y004913D01*
X022351Y004849D02*
Y004913D01*
X022199Y004480D02*
Y004543D01*
X022351Y004480D02*
Y004543D01*
X022212Y004670D02*
X022339D01*
X022212Y004353D02*
X022339D01*
X020122Y004890D02*
X020249D01*
X020122Y004572D02*
X020249D01*
X020109Y004699D02*
Y004763D01*
X020261Y004699D02*
Y004763D01*
X020275Y006396D02*
Y006446D01*
X020155Y006396D02*
Y006446D01*
X020165Y006274D02*
X020265D01*
X020164Y006570D02*
X020264D01*
X021155Y005886D02*
X021205D01*
X021155Y005766D02*
X021205D01*
X021328Y005776D02*
Y005876D01*
X021032Y005776D02*
Y005876D01*
Y005636D02*
Y005736D01*
X021328Y005636D02*
Y005736D01*
X021155Y005626D02*
X021205D01*
X021155Y005746D02*
X021205D01*
X020655Y005696D02*
X020705D01*
X020655Y005576D02*
X020705D01*
X020828Y005586D02*
Y005686D01*
X020532Y005586D02*
Y005686D01*
Y005456D02*
Y005556D01*
X020828Y005456D02*
Y005556D01*
X020655Y005446D02*
X020705D01*
X020655Y005566D02*
X020705D01*
Y003476D02*
Y003526D01*
X020825Y003476D02*
Y003526D01*
X020715Y003649D02*
X020815D01*
X020716Y003353D02*
X020816D01*
X020935Y003776D02*
Y003826D01*
X021055Y003776D02*
Y003826D01*
X020945Y003949D02*
X021045D01*
X020946Y003653D02*
X021046D01*
X021476Y004353D02*
X021576D01*
X021475Y004649D02*
X021575D01*
X021585Y004476D02*
Y004526D01*
X021465Y004476D02*
Y004526D01*
X020755Y006066D02*
Y006116D01*
X020875Y006066D02*
Y006116D01*
X020765Y006239D02*
X020865D01*
X020766Y005943D02*
X020866D01*
X020626D02*
X020726D01*
X020625Y006239D02*
X020725D01*
X020735Y006066D02*
Y006116D01*
X020615Y006066D02*
Y006116D01*
X020475Y006066D02*
Y006116D01*
X020595Y006066D02*
Y006116D01*
X020485Y006239D02*
X020585D01*
X020486Y005943D02*
X020586D01*
X021175Y004806D02*
X021225D01*
X021175Y004686D02*
X021225D01*
X021348Y004696D02*
Y004796D01*
X021052Y004696D02*
Y004796D01*
X021085Y004666D02*
X021135D01*
X021085Y004546D02*
X021135D01*
X021258Y004556D02*
Y004656D01*
X020962Y004556D02*
Y004656D01*
X020292Y002663D02*
Y002790D01*
X020609Y002663D02*
Y002790D01*
X020419Y002650D02*
X020482D01*
X020419Y002803D02*
X020482D01*
X020419Y003023D02*
X020482D01*
X020419Y002870D02*
X020482D01*
X020609Y002883D02*
Y003010D01*
X020292Y002883D02*
Y003010D01*
X021302Y002890D02*
X021429D01*
X021302Y002572D02*
X021429D01*
X021289Y002699D02*
Y002763D01*
X021441Y002699D02*
Y002763D01*
X021641Y002699D02*
Y002763D01*
X021489Y002699D02*
Y002763D01*
X021502Y002572D02*
X021629D01*
X021502Y002890D02*
X021629D01*
X023265Y005088D02*
Y005138D01*
X023385Y005088D02*
Y005138D01*
X023275Y005260D02*
X023375D01*
X023276Y004964D02*
X023376D01*
X023076D02*
X023176D01*
X023075Y005260D02*
X023175D01*
X023185Y005088D02*
Y005138D01*
X023065Y005088D02*
Y005138D01*
D15*
X019654Y006042D02*
X019684D01*
X019649Y006050D02*
X019677D01*
X019649Y006047D02*
X019679D01*
X019657Y006037D02*
X019700D01*
X019672Y006024D02*
X019743D01*
X019669Y006027D02*
X019745D01*
X019664Y006029D02*
X019751D01*
X019662Y006032D02*
X019753D01*
X019659Y006034D02*
X019756D01*
X019654Y006040D02*
X019692D01*
X019677Y006022D02*
X019738D01*
X019651Y006045D02*
X019682D01*
X019728Y006042D02*
X019761D01*
X019687Y006017D02*
X019728D01*
X019700Y006014D02*
X019715D01*
Y006037D02*
X019758D01*
X019723Y006040D02*
X019758D01*
X019682Y006019D02*
X019733D01*
X019781Y006070D02*
X019796D01*
X019738Y006050D02*
X019766D01*
X019735Y006047D02*
X019763D01*
X019733Y006045D02*
X019763D01*
X019748Y006067D02*
X019771D01*
X019748Y006065D02*
X019771D01*
X019748Y006062D02*
X019771D01*
X019745Y006060D02*
X019771D01*
X019745Y006057D02*
X019768D01*
X019743Y006055D02*
X019768D01*
X019740Y006052D02*
X019766D01*
X019781Y006073D02*
X019806D01*
X019748Y006070D02*
X019773D01*
X019751Y006073D02*
X019773D01*
X019641Y006070D02*
X019664D01*
X019641Y006067D02*
X019667D01*
X019644Y006065D02*
X019667D01*
X019644Y006062D02*
X019667D01*
X019641Y006073D02*
X019664D01*
X019644Y006060D02*
X019669D01*
X019646Y006057D02*
X019669D01*
X019646Y006055D02*
X019672D01*
X019646Y006052D02*
X019674D01*
X019852Y006570D02*
X019880D01*
X019458Y006167D02*
X019479D01*
X019461Y006164D02*
X019476D01*
X019469Y006370D02*
X019491D01*
X019469Y006367D02*
X019494D01*
X019669Y006570D02*
X019692D01*
X019456D02*
X019481D01*
X019458Y006573D02*
X019481D01*
X020126Y006370D02*
X020137D01*
X019974Y006167D02*
X020005D01*
X019977Y006164D02*
X020005D01*
X019977Y006370D02*
X020002D01*
X019974Y006367D02*
X019999D01*
X019989Y006573D02*
X019999D01*
X019989Y006570D02*
X019992D01*
X019824Y006370D02*
X019857D01*
X019819Y006367D02*
X019855D01*
X019850Y006573D02*
X019878D01*
X019773Y006570D02*
X019794D01*
X019613Y006370D02*
X019646D01*
X019616Y006367D02*
X019649D01*
X019590Y006570D02*
X019616D01*
X019590Y006573D02*
X019618D01*
X019329Y006370D02*
X019352D01*
X019331Y006367D02*
X019354D01*
X019324Y006573D02*
X019347D01*
X019321Y006570D02*
X019344D01*
X018917Y006167D02*
X018966D01*
X018912Y006164D02*
X018968D01*
X018905Y006573D02*
X018915D01*
X018905Y006570D02*
X018915D01*
X018872Y006573D02*
X018882D01*
X018872Y006570D02*
X018882D01*
X018953Y006573D02*
X018961D01*
X018953Y006570D02*
X018961D01*
X018795Y006573D02*
X018806D01*
X018798Y006570D02*
X018808D01*
X020007Y006776D02*
X020035D01*
X020010Y006774D02*
X020038D01*
X019715D02*
X019738D01*
X019728Y006776D02*
X019738D01*
X019758Y006774D02*
X019773D01*
X019430Y006776D02*
X019461D01*
X019428Y006774D02*
X019458D01*
X019629Y006215D02*
X019842D01*
X019634Y006212D02*
X019834D01*
X019641Y006210D02*
X019827D01*
X019649Y006207D02*
X019819D01*
X019659Y006205D02*
X019811D01*
X019669Y006202D02*
X019801D01*
X019679Y006327D02*
X019789D01*
X019651Y006339D02*
X019817D01*
X019657Y006337D02*
X019814D01*
X019662Y006334D02*
X019809D01*
X019667Y006332D02*
X019801D01*
X019672Y006329D02*
X019796D01*
X019679Y006644D02*
X019789D01*
X019672Y006642D02*
X019796D01*
X019667Y006639D02*
X019801D01*
X019662Y006636D02*
X019806D01*
X019657Y006634D02*
X019811D01*
X019651Y006631D02*
X019817D01*
X018816Y006845D02*
X019563D01*
X018816Y006842D02*
X019557D01*
X018818Y006840D02*
X019552D01*
X018818Y006837D02*
X019547D01*
X018818Y006835D02*
X019542D01*
X018818Y006832D02*
X019537D01*
X018818Y006829D02*
X019535D01*
X018816Y006827D02*
X019530D01*
X018816Y006824D02*
X019524D01*
X019621Y006890D02*
X019847D01*
X019639Y006896D02*
X019829D01*
X019629Y006893D02*
X019839D01*
X019611Y006888D02*
X019857D01*
X019603Y006885D02*
X019865D01*
X019667Y006901D02*
X019804D01*
X019651Y006898D02*
X019817D01*
X019880Y006116D02*
X019883D01*
X019872Y006113D02*
X019885D01*
X019865Y006111D02*
X019885D01*
X019862Y006108D02*
X019885D01*
X019862Y006106D02*
X019888D01*
X019865Y006103D02*
X019888D01*
X019865Y006100D02*
X019890D01*
X019865Y006098D02*
X019890D01*
X019867Y006095D02*
X019890D01*
X019867Y006093D02*
X019883D01*
X019649Y006111D02*
X019677D01*
Y006139D02*
X019735D01*
X019674Y006136D02*
X019740D01*
X019654Y006118D02*
X019687D01*
X019651Y006116D02*
X019684D01*
X019651Y006113D02*
X019679D01*
X019657Y006121D02*
X019695D01*
X019669Y006133D02*
X019745D01*
X019667Y006131D02*
X019748D01*
X019664Y006128D02*
X019751D01*
X019662Y006126D02*
X019753D01*
X019659Y006123D02*
X019756D01*
X019466Y006161D02*
X019474D01*
X019065Y006136D02*
X019088D01*
X019065Y006133D02*
X019088D01*
X019065Y006131D02*
X019088D01*
X019065Y006128D02*
X019088D01*
X019065Y006144D02*
X019088D01*
X019065Y006141D02*
X019088D01*
X019065Y006139D02*
X019088D01*
X019065Y006126D02*
X019088D01*
X019065Y006123D02*
X019088D01*
X019862Y006245D02*
X019890D01*
X019865Y006243D02*
X019890D01*
X019865Y006240D02*
X019890D01*
X019867Y006238D02*
X019885D01*
X019867Y006235D02*
X019883D01*
X020083Y006299D02*
X020109D01*
X020083Y006296D02*
X020109D01*
X020086Y006294D02*
X020106D01*
X020086Y006304D02*
X020111D01*
X020086Y006301D02*
X020111D01*
X020071Y006253D02*
X020083D01*
X020068Y006271D02*
X020086D01*
X020065Y006268D02*
X020088D01*
X020063Y006266D02*
X020091D01*
X020063Y006263D02*
X020088D01*
X020060Y006260D02*
X020088D01*
X020063Y006258D02*
X020086D01*
X020065Y006255D02*
X020086D01*
X019867Y006253D02*
X019885D01*
X019862Y006250D02*
X019885D01*
X019862Y006248D02*
X019888D01*
X019875Y006258D02*
X019880D01*
X019872Y006255D02*
X019883D01*
X019611Y006222D02*
X019682D01*
X019621Y006217D02*
X019733D01*
X019616Y006220D02*
X019697D01*
X019634Y006352D02*
X019677D01*
X019636Y006349D02*
X019682D01*
X019639Y006347D02*
X019690D01*
X019644Y006344D02*
X019697D01*
X019646Y006342D02*
X019710D01*
X019463Y006184D02*
X019474D01*
X019461Y006182D02*
X019476D01*
X019458Y006179D02*
X019479D01*
X019456Y006177D02*
X019481D01*
X019453Y006174D02*
X019484D01*
X019453Y006172D02*
X019481D01*
X019456Y006169D02*
X019479D01*
X019471Y006365D02*
X019494D01*
X019471Y006362D02*
X019497D01*
X019474Y006360D02*
X019497D01*
X019474Y006357D02*
X019499D01*
X019476Y006354D02*
X019502D01*
X019476Y006352D02*
X019502D01*
X019875Y006448D02*
X019898D01*
X019852Y006400D02*
X019880D01*
X019870Y006431D02*
X019893D01*
X019867Y006428D02*
X019893D01*
X019867Y006426D02*
X019890D01*
X019865Y006423D02*
X019890D01*
X019865Y006421D02*
X019890D01*
X019862Y006418D02*
X019888D01*
X019862Y006415D02*
X019888D01*
X019860Y006413D02*
X019885D01*
X019860Y006410D02*
X019885D01*
X019857Y006408D02*
X019883D01*
X019857Y006405D02*
X019883D01*
X019855Y006403D02*
X019880D01*
X019875Y006446D02*
X019898D01*
X019875Y006443D02*
X019898D01*
X019872Y006441D02*
X019895D01*
X019872Y006438D02*
X019895D01*
X019872Y006436D02*
X019895D01*
X019870Y006433D02*
X019895D01*
X019878Y006456D02*
X019900D01*
X019878Y006454D02*
X019900D01*
X019880Y006469D02*
X019903D01*
X019878Y006466D02*
X019900D01*
X019878Y006464D02*
X019900D01*
X019878Y006461D02*
X019900D01*
X019878Y006459D02*
X019900D01*
X019880Y006476D02*
X019903D01*
X019880Y006474D02*
X019903D01*
X019880Y006471D02*
X019903D01*
X019878Y006517D02*
X019900D01*
X019878Y006514D02*
X019900D01*
X019878Y006512D02*
X019900D01*
X019878Y006509D02*
X019900D01*
X019878Y006507D02*
X019900D01*
X019878Y006504D02*
X019900D01*
X019880Y006502D02*
X019900D01*
X019880Y006499D02*
X019903D01*
X019880Y006497D02*
X019903D01*
X019880Y006494D02*
X019903D01*
X019880Y006492D02*
X019903D01*
X019880Y006489D02*
X019903D01*
X019880Y006487D02*
X019903D01*
X019880Y006484D02*
X019903D01*
X019880Y006481D02*
X019903D01*
X019880Y006479D02*
X019903D01*
X019875Y006451D02*
X019898D01*
X019870Y006540D02*
X019893D01*
X019855Y006568D02*
X019880D01*
X019857Y006565D02*
X019883D01*
X019857Y006563D02*
X019883D01*
X019860Y006560D02*
X019885D01*
X019860Y006558D02*
X019885D01*
X019862Y006555D02*
X019888D01*
X019865Y006553D02*
X019888D01*
X019865Y006550D02*
X019890D01*
X019865Y006548D02*
X019890D01*
X019867Y006545D02*
X019890D01*
X019867Y006542D02*
X019893D01*
X019875Y006527D02*
X019898D01*
X019875Y006525D02*
X019898D01*
X019875Y006522D02*
X019898D01*
X019875Y006520D02*
X019898D01*
X019870Y006537D02*
X019895D01*
X019872Y006535D02*
X019895D01*
X019872Y006532D02*
X019895D01*
X019872Y006530D02*
X019895D01*
X019268Y006448D02*
X019286D01*
X019438Y006415D02*
X019484D01*
X019446Y006413D02*
X019476D01*
X019423Y006426D02*
X019499D01*
X019425Y006423D02*
X019497D01*
X019428Y006421D02*
X019494D01*
X019433Y006418D02*
X019489D01*
X019420Y006428D02*
X019502D01*
X018999D02*
X019080D01*
X019001Y006426D02*
X019077D01*
X019004Y006423D02*
X019075D01*
X019006Y006421D02*
X019072D01*
X019011Y006418D02*
X019067D01*
X019446Y006527D02*
X019474D01*
X019438Y006525D02*
X019481D01*
X019433Y006522D02*
X019486D01*
X019428Y006520D02*
X019491D01*
X019425Y006517D02*
X019497D01*
X019423Y006514D02*
X019499D01*
X019420Y006512D02*
X019502D01*
X019011Y006522D02*
X019067D01*
X019009Y006520D02*
X019070D01*
X019004Y006517D02*
X019075D01*
X019001Y006514D02*
X019077D01*
X018999Y006512D02*
X019080D01*
X019679Y006436D02*
X019700D01*
X019677Y006433D02*
X019700D01*
X019677Y006431D02*
X019697D01*
X019674Y006428D02*
X019697D01*
X019669Y006418D02*
X019690D01*
X019667Y006415D02*
X019687D01*
X019664Y006413D02*
X019687D01*
X019672Y006426D02*
X019695D01*
X019672Y006423D02*
X019692D01*
X019669Y006421D02*
X019692D01*
X019476Y006431D02*
X019504D01*
X019461Y006388D02*
X019484D01*
X019461Y006385D02*
X019486D01*
X019463Y006382D02*
X019486D01*
X019463Y006380D02*
X019489D01*
X019466Y006377D02*
X019489D01*
X019466Y006375D02*
X019491D01*
X019466Y006372D02*
X019491D01*
X019268Y006446D02*
X019286D01*
X019268Y006443D02*
X019286D01*
X019268Y006441D02*
X019286D01*
X019268Y006438D02*
X019286D01*
X019268Y006436D02*
X019286D01*
X019268Y006433D02*
X019286D01*
X019268Y006431D02*
X019286D01*
X019268Y006428D02*
X019286D01*
X019268Y006426D02*
X019286D01*
X019268Y006423D02*
X019286D01*
X019268Y006421D02*
X019286D01*
X019268Y006418D02*
X019286D01*
X019268Y006415D02*
X019286D01*
X019268Y006413D02*
X019286D01*
X019070Y006441D02*
X019090D01*
X019067Y006438D02*
X019090D01*
X019065Y006436D02*
X019088D01*
X019060Y006433D02*
X019085D01*
X019055Y006431D02*
X019082D01*
X019674Y006565D02*
X019695D01*
X019674Y006563D02*
X019697D01*
X019677Y006560D02*
X019697D01*
X019677Y006558D02*
X019700D01*
X019679Y006555D02*
X019702D01*
X019672Y006568D02*
X019692D01*
X019474Y006509D02*
X019504D01*
X019456Y006568D02*
X019479D01*
X019456Y006565D02*
X019479D01*
X019456Y006563D02*
X019479D01*
X019453Y006560D02*
X019476D01*
X019453Y006558D02*
X019476D01*
X019453Y006555D02*
X019476D01*
X019451Y006553D02*
X019476D01*
X019451Y006550D02*
X019474D01*
X019268Y006456D02*
X019286D01*
X019268Y006454D02*
X019286D01*
X019268Y006451D02*
X019286D01*
X019268Y006466D02*
X019286D01*
X019268Y006464D02*
X019286D01*
X019268Y006461D02*
X019286D01*
X019268Y006459D02*
X019286D01*
X019268Y006476D02*
X019286D01*
X019268Y006474D02*
X019286D01*
X019268Y006471D02*
X019286D01*
X019268Y006469D02*
X019286D01*
X019268Y006525D02*
X019281D01*
X019268Y006522D02*
X019283D01*
X019268Y006512D02*
X019293D01*
X019268Y006509D02*
X019296D01*
X019268Y006497D02*
X019286D01*
X019268Y006494D02*
X019286D01*
X019268Y006492D02*
X019286D01*
X019268Y006489D02*
X019286D01*
X019268Y006520D02*
X019286D01*
X019268Y006517D02*
X019288D01*
X019268Y006514D02*
X019291D01*
X019268Y006507D02*
X019298D01*
X019268Y006504D02*
X019298D01*
X019268Y006502D02*
X019301D01*
X019268Y006499D02*
X019303D01*
X019268Y006487D02*
X019286D01*
X019268Y006484D02*
X019286D01*
X019268Y006481D02*
X019286D01*
X019268Y006479D02*
X019286D01*
X019067Y006502D02*
X019090D01*
X019070Y006499D02*
X019090D01*
X019052Y006509D02*
X019082D01*
X019060Y006507D02*
X019085D01*
X019062Y006504D02*
X019088D01*
X018757Y006537D02*
X018961D01*
X018757Y006535D02*
X018961D01*
X018757Y006532D02*
X018961D01*
X018757Y006530D02*
X018961D01*
X020055Y006720D02*
X020083D01*
X020055Y006718D02*
X020083D01*
X020081Y006680D02*
X020106D01*
X020081Y006677D02*
X020109D01*
X020083Y006675D02*
X020109D01*
X020086Y006669D02*
X020106D01*
X020086Y006667D02*
X020101D01*
X020083Y006672D02*
X020111D01*
X020086Y006685D02*
X020104D01*
X020083Y006682D02*
X020106D01*
X020058Y006715D02*
X020086D01*
X020060Y006713D02*
X020086D01*
X020060Y006710D02*
X020088D01*
X020063Y006708D02*
X020086D01*
X019883Y006725D02*
X019900D01*
X019880Y006723D02*
X019903D01*
X019878Y006720D02*
X019905D01*
X019878Y006718D02*
X019905D01*
X019878Y006713D02*
X019900D01*
X019880Y006710D02*
X019898D01*
X019883Y006728D02*
X019895D01*
X019875Y006715D02*
X019903D01*
X019065Y006652D02*
X019103D01*
X019100Y006680D02*
X019387D01*
X019098Y006677D02*
X019385D01*
X019100Y006697D02*
X019397D01*
X019100Y006695D02*
X019395D01*
X019100Y006692D02*
X019395D01*
X019103Y006690D02*
X019392D01*
X019103Y006687D02*
X019390D01*
X019100Y006685D02*
X019390D01*
X019100Y006682D02*
X019387D01*
X019639Y006624D02*
X019690D01*
X019636Y006621D02*
X019682D01*
X019634Y006619D02*
X019677D01*
X019644Y006626D02*
X019700D01*
X019649Y006629D02*
X019712D01*
X019474Y006614D02*
X019499D01*
X019474Y006611D02*
X019499D01*
X019471Y006608D02*
X019497D01*
X019471Y006606D02*
X019497D01*
X019476Y006619D02*
X019502D01*
X019476Y006616D02*
X019502D01*
X019463Y006588D02*
X019486D01*
X019461Y006586D02*
X019486D01*
X019461Y006583D02*
X019486D01*
X019461Y006581D02*
X019484D01*
X019469Y006603D02*
X019494D01*
X019469Y006601D02*
X019494D01*
X019466Y006598D02*
X019491D01*
X019466Y006596D02*
X019491D01*
X019466Y006593D02*
X019489D01*
X019463Y006591D02*
X019489D01*
X019458Y006578D02*
X019484D01*
X019458Y006575D02*
X019481D01*
X019070Y006649D02*
X019095D01*
X019674Y006748D02*
X019682D01*
X019679Y006771D02*
X019692D01*
X019674Y006751D02*
X019697D01*
X019669Y006768D02*
X019695D01*
X019669Y006766D02*
X019695D01*
X019669Y006763D02*
X019695D01*
X019672Y006761D02*
X019695D01*
X019672Y006758D02*
X019695D01*
X019672Y006756D02*
X019695D01*
X019672Y006753D02*
X019695D01*
X019065Y006725D02*
X019100D01*
X019042Y006680D02*
X019067D01*
X019044Y006677D02*
X019067D01*
X019044Y006675D02*
X019070D01*
X019044Y006672D02*
X019072D01*
X019047Y006669D02*
X019121D01*
X019047Y006667D02*
X019118D01*
X019049Y006664D02*
X019116D01*
X019052Y006662D02*
X019116D01*
X019055Y006659D02*
X019113D01*
X019057Y006657D02*
X019110D01*
X019060Y006654D02*
X019105D01*
X019044Y006705D02*
X019075D01*
X019044Y006702D02*
X019070D01*
X019044Y006700D02*
X019067D01*
X019042Y006697D02*
X019067D01*
X019055Y006718D02*
X019113D01*
X019052Y006715D02*
X019113D01*
X019049Y006713D02*
X019116D01*
X019047Y006710D02*
X019118D01*
X019047Y006708D02*
X019121D01*
X019060Y006723D02*
X019105D01*
X019057Y006720D02*
X019108D01*
X018834Y006634D02*
X018882D01*
X018834Y006631D02*
X018882D01*
X018834Y006629D02*
X018882D01*
X019804Y006878D02*
X019885D01*
X019817Y006875D02*
X019890D01*
X019827Y006873D02*
X019898D01*
X019839Y006870D02*
X019903D01*
X019847Y006868D02*
X019908D01*
X019878Y006857D02*
X019928D01*
X019865Y006862D02*
X019918D01*
X019870Y006860D02*
X019923D01*
X019857Y006865D02*
X019913D01*
X019446Y006791D02*
X019479D01*
X019443Y006789D02*
X019476D01*
X019441Y006786D02*
X019474D01*
X019588Y006880D02*
X019682D01*
X019596Y006883D02*
X019707D01*
X019476Y006817D02*
X019514D01*
X019471Y006814D02*
X019509D01*
X019451Y006796D02*
X019486D01*
X019448Y006794D02*
X019481D01*
X019463Y006807D02*
X019499D01*
X019461Y006804D02*
X019497D01*
X019456Y006802D02*
X019491D01*
X019453Y006799D02*
X019489D01*
X019469Y006812D02*
X019507D01*
X019466Y006809D02*
X019502D01*
X019982Y006159D02*
X019997D01*
X019982Y006156D02*
X019994D01*
X019984Y006154D02*
X019992D01*
X019903Y006121D02*
X019928D01*
X019903Y006118D02*
X019931D01*
X019905Y006116D02*
X019931D01*
X019905Y006113D02*
X019928D01*
X019911Y006106D02*
X019913D01*
X019908Y006111D02*
X019923D01*
X019908Y006108D02*
X019918D01*
Y006133D02*
X019921D01*
X019913Y006131D02*
X019923D01*
X019908Y006128D02*
X019923D01*
X019951Y006154D02*
X019959D01*
X019949Y006151D02*
X019961D01*
X019944Y006149D02*
X019961D01*
X019941Y006146D02*
X019964D01*
X019938Y006144D02*
X019966D01*
X019941Y006141D02*
X019966D01*
X019941Y006139D02*
X019969D01*
X019944Y006136D02*
X019966D01*
X019946Y006133D02*
X019961D01*
X019946Y006131D02*
X019959D01*
X019949Y006128D02*
X019954D01*
X019903Y006126D02*
X019926D01*
X019903Y006123D02*
X019928D01*
X019949Y006126D02*
X019951D01*
X019979Y006161D02*
X019999D01*
X019824Y006083D02*
X019850D01*
X019867Y006090D02*
X019878D01*
X019832Y006100D02*
X019845D01*
X019822Y006098D02*
X019845D01*
X019822Y006095D02*
X019845D01*
X019822Y006093D02*
X019847D01*
X019794D02*
X019801D01*
X019824Y006090D02*
X019847D01*
X019778D02*
X019801D01*
X019824Y006088D02*
X019847D01*
X019781D02*
X019804D01*
X019824Y006085D02*
X019847D01*
X019781D02*
X019804D01*
X019781Y006083D02*
X019804D01*
X019824Y006080D02*
X019845D01*
X019781D02*
X019804D01*
X019827Y006078D02*
X019834D01*
X019781D02*
X019804D01*
X019720Y006121D02*
X019758D01*
X019728Y006118D02*
X019761D01*
X019730Y006116D02*
X019761D01*
X019735Y006113D02*
X019763D01*
X019738Y006111D02*
X019766D01*
X019740Y006108D02*
X019766D01*
X019743Y006106D02*
X019768D01*
X019743Y006103D02*
X019768D01*
X019745Y006100D02*
X019768D01*
X019745Y006098D02*
X019771D01*
X019748Y006095D02*
X019771D01*
X019748Y006093D02*
X019771D01*
X019748Y006090D02*
X019771D01*
X019692Y006144D02*
X019723D01*
X019684Y006141D02*
X019730D01*
X019781Y006075D02*
X019804D01*
X019751Y006088D02*
X019773D01*
X019751Y006085D02*
X019773D01*
X019751Y006083D02*
X019773D01*
X019751Y006080D02*
X019773D01*
X019751Y006078D02*
X019773D01*
X019751Y006075D02*
X019773D01*
X019644Y006095D02*
X019667D01*
X019644Y006093D02*
X019667D01*
X019641Y006090D02*
X019664D01*
X019641Y006088D02*
X019664D01*
X019641Y006085D02*
X019664D01*
X019641Y006083D02*
X019664D01*
X019641Y006080D02*
X019664D01*
X019641Y006078D02*
X019664D01*
X019641Y006075D02*
X019664D01*
X019649Y006108D02*
X019674D01*
X019646Y006106D02*
X019672D01*
X019646Y006103D02*
X019672D01*
X019644Y006100D02*
X019669D01*
X019644Y006098D02*
X019669D01*
X019613Y006106D02*
X019616D01*
X019611Y006103D02*
X019624D01*
X019611Y006100D02*
X019634D01*
X019611Y006098D02*
X019634D01*
X019608Y006095D02*
X019634D01*
X019575D02*
X019588D01*
X019608Y006093D02*
X019634D01*
X019583D02*
X019585D01*
X019608Y006090D02*
X019631D01*
X019608Y006088D02*
X019631D01*
X019606Y006085D02*
X019631D01*
X019613Y006083D02*
X019631D01*
X019621Y006080D02*
X019629D01*
X019524Y006121D02*
X019550D01*
X019527Y006118D02*
X019550D01*
X019532Y006116D02*
X019547D01*
X019537Y006113D02*
X019547D01*
X019542Y006111D02*
X019545D01*
X019504Y006133D02*
X019507D01*
X019499Y006161D02*
X019502D01*
X019497Y006159D02*
X019507D01*
X019497Y006156D02*
X019509D01*
X019494Y006154D02*
X019514D01*
X019497Y006139D02*
X019512D01*
X019499Y006136D02*
X019509D01*
X019535Y006139D02*
X019540D01*
X019535Y006136D02*
X019542D01*
X019532Y006133D02*
X019547D01*
X019530Y006131D02*
X019552D01*
X019530Y006128D02*
X019555D01*
X019491Y006151D02*
X019517D01*
X019491Y006149D02*
X019517D01*
X019489Y006146D02*
X019517D01*
X019489Y006144D02*
X019514D01*
X019491Y006141D02*
X019512D01*
X019527Y006126D02*
X019552D01*
X019527Y006123D02*
X019552D01*
X019573Y006118D02*
X019580D01*
X019570Y006116D02*
X019588D01*
X019570Y006113D02*
X019593D01*
X019568Y006111D02*
X019593D01*
X019568Y006108D02*
X019593D01*
X019568Y006106D02*
X019590D01*
X019565Y006103D02*
X019590D01*
X019565Y006100D02*
X019590D01*
X019573Y006121D02*
X019575D01*
X019570Y006098D02*
X019588D01*
X019469Y006159D02*
X019471D01*
X019448Y006144D02*
X019471D01*
X019448Y006141D02*
X019471D01*
X019448Y006139D02*
X019471D01*
X019448Y006136D02*
X019471D01*
X019448Y006133D02*
X019471D01*
X019448Y006131D02*
X019471D01*
X019448Y006128D02*
X019471D01*
X019448Y006126D02*
X019471D01*
X019448Y006123D02*
X019471D01*
X019405Y006144D02*
X019428D01*
X019405Y006141D02*
X019428D01*
X019405Y006139D02*
X019428D01*
X019405Y006136D02*
X019428D01*
X019405Y006133D02*
X019428D01*
X019405Y006131D02*
X019428D01*
X019405Y006128D02*
X019428D01*
X019405Y006123D02*
X019428D01*
X019405Y006126D02*
X019428D01*
X019321Y006144D02*
X019344D01*
X019321Y006141D02*
X019344D01*
X019321Y006139D02*
X019344D01*
X019321Y006136D02*
X019344D01*
X019321Y006133D02*
X019344D01*
X019321Y006131D02*
X019344D01*
X019321Y006128D02*
X019344D01*
X019278Y006144D02*
X019301D01*
X019278Y006141D02*
X019301D01*
X019278Y006139D02*
X019301D01*
X019278Y006136D02*
X019301D01*
X019278Y006133D02*
X019301D01*
X019278Y006131D02*
X019301D01*
X019278Y006128D02*
X019301D01*
X019321Y006123D02*
X019344D01*
X019321Y006126D02*
X019344D01*
X019278D02*
X019301D01*
X019278Y006123D02*
X019301D01*
X019364Y006144D02*
X019385D01*
X019364Y006141D02*
X019385D01*
X019364Y006139D02*
X019385D01*
X019364Y006136D02*
X019385D01*
X019364Y006133D02*
X019385D01*
X019364Y006131D02*
X019385D01*
X019364Y006128D02*
X019385D01*
X019364Y006123D02*
X019385D01*
X019364Y006126D02*
X019385D01*
X019235Y006144D02*
X019258D01*
X019235Y006141D02*
X019258D01*
X019235Y006139D02*
X019258D01*
X019235Y006136D02*
X019258D01*
X019235Y006133D02*
X019258D01*
X019235Y006131D02*
X019258D01*
X019235Y006128D02*
X019258D01*
X019235Y006123D02*
X019258D01*
X019235Y006126D02*
X019258D01*
X019192Y006144D02*
X019215D01*
X019192Y006141D02*
X019215D01*
X019192Y006139D02*
X019215D01*
X019192Y006136D02*
X019215D01*
X019192Y006133D02*
X019215D01*
X019192Y006131D02*
X019215D01*
X019192Y006128D02*
X019215D01*
X019192Y006126D02*
X019215D01*
X019192Y006123D02*
X019215D01*
X019108Y006144D02*
X019131D01*
X019108Y006141D02*
X019131D01*
X019108Y006139D02*
X019131D01*
X019108Y006136D02*
X019131D01*
X019108Y006133D02*
X019131D01*
X019108Y006131D02*
X019131D01*
X019108Y006128D02*
X019131D01*
X019108Y006126D02*
X019131D01*
X019108Y006123D02*
X019131D01*
X019151Y006144D02*
X019174D01*
X019151Y006141D02*
X019174D01*
X019151Y006139D02*
X019174D01*
X019151Y006136D02*
X019174D01*
X019151Y006133D02*
X019174D01*
X019151Y006131D02*
X019174D01*
X019151Y006128D02*
X019174D01*
X019151Y006126D02*
X019174D01*
X019151Y006123D02*
X019174D01*
X019022Y006136D02*
X019044D01*
X019022Y006133D02*
X019044D01*
X019022Y006131D02*
X019044D01*
X019022Y006128D02*
X019044D01*
X019022Y006144D02*
X019044D01*
X019022Y006141D02*
X019044D01*
X019022Y006139D02*
X019044D01*
X019022Y006126D02*
X019044D01*
X019022Y006123D02*
X019044D01*
X018902Y006121D02*
X018928D01*
X018902Y006118D02*
X018930D01*
X018905Y006116D02*
X018935D01*
X018925Y006095D02*
X018955D01*
X018938Y006093D02*
X018945D01*
X018905Y006151D02*
X018935D01*
X018902Y006149D02*
X018930D01*
X018902Y006146D02*
X018928D01*
X018902Y006144D02*
X018925D01*
X018900Y006141D02*
X018922D01*
X018900Y006139D02*
X018922D01*
X018900Y006136D02*
X018922D01*
X018900Y006133D02*
X018922D01*
X018900Y006131D02*
X018922D01*
X018900Y006128D02*
X018922D01*
X018900Y006126D02*
X018925D01*
X018902Y006123D02*
X018925D01*
X018905Y006113D02*
X018976D01*
X018907Y006111D02*
X018976D01*
X018910Y006108D02*
X018973D01*
X018955Y006121D02*
X018981D01*
X018953Y006118D02*
X018978D01*
X018945Y006116D02*
X018978D01*
X018912Y006106D02*
X018971D01*
X018915Y006103D02*
X018968D01*
X018917Y006100D02*
X018966D01*
X018920Y006098D02*
X018961D01*
X018910Y006159D02*
X018973D01*
X018907Y006156D02*
X018976D01*
X018905Y006154D02*
X018978D01*
X018910Y006161D02*
X018971D01*
X018961Y006139D02*
X019001D01*
X018961Y006136D02*
X019001D01*
X018961Y006133D02*
X019001D01*
X018961Y006131D02*
X019001D01*
X018958Y006128D02*
X019001D01*
X018948Y006151D02*
X018978D01*
X018953Y006149D02*
X018981D01*
X018955Y006146D02*
X018981D01*
X018958Y006144D02*
X019001D01*
X018958Y006141D02*
X019001D01*
X018958Y006126D02*
X019001D01*
X018958Y006123D02*
X019001D01*
X020091Y006314D02*
X020096D01*
X020104Y006344D02*
X020129D01*
X020104Y006342D02*
X020129D01*
X020106Y006347D02*
X020129D01*
X020109Y006352D02*
X020116D01*
X020106Y006349D02*
X020124D01*
X020104Y006339D02*
X020126D01*
X020106Y006332D02*
X020124D01*
X020091Y006311D02*
X020101D01*
X020088Y006309D02*
X020106D01*
X020091Y006291D02*
X020106D01*
X020096Y006288D02*
X020104D01*
X020101Y006286D02*
X020104D01*
X020088Y006306D02*
X020111D01*
X020101Y006337D02*
X020126D01*
X020101Y006334D02*
X020126D01*
X020119Y006327D02*
X020121D01*
X020111Y006329D02*
X020124D01*
X020050Y006212D02*
X020053D01*
X020045Y006240D02*
X020053D01*
X020043Y006238D02*
X020055D01*
X020043Y006235D02*
X020060D01*
X020040Y006233D02*
X020063D01*
X020038Y006230D02*
X020065D01*
X020035Y006227D02*
X020065D01*
X020035Y006225D02*
X020063D01*
X020040Y006222D02*
X020060D01*
X020043Y006220D02*
X020058D01*
X020045Y006217D02*
X020055D01*
X020048Y006215D02*
X020055D01*
X020048Y006243D02*
X020050D01*
X020020Y006210D02*
X020022D01*
X020017Y006207D02*
X020025D01*
X020015Y006205D02*
X020027D01*
X020012Y006202D02*
X020030D01*
X020010Y006200D02*
X020032D01*
X020007Y006197D02*
X020035D01*
X020007Y006194D02*
X020035D01*
X020010Y006192D02*
X020032D01*
X020012Y006189D02*
X020030D01*
X020015Y006187D02*
X020027D01*
X020017Y006184D02*
X020025D01*
X020020Y006182D02*
X020022D01*
X019989D02*
X019992D01*
X019987Y006179D02*
X019994D01*
X019984Y006177D02*
X019994D01*
X019979Y006174D02*
X019997D01*
X019977Y006172D02*
X019999D01*
X019974Y006169D02*
X020002D01*
X020073Y006250D02*
X020081D01*
X020078Y006248D02*
X020081D01*
X020068Y006273D02*
X020081D01*
X020071Y006276D02*
X020076D01*
X019984Y006362D02*
X019997D01*
X019989Y006360D02*
X019997D01*
X019994Y006357D02*
X019997D01*
X019900Y006266D02*
X019923D01*
X019903Y006263D02*
X019921D01*
X019905Y006260D02*
X019918D01*
X019905Y006258D02*
X019916D01*
X019908Y006255D02*
X019913D01*
X019898Y006271D02*
X019926D01*
X019898Y006268D02*
X019928D01*
X019898Y006273D02*
X019923D01*
X019911Y006283D02*
X019916D01*
X019908Y006281D02*
X019916D01*
X019941Y006314D02*
X019944D01*
X019938Y006311D02*
X019946D01*
X019936Y006309D02*
X019949D01*
X019933Y006306D02*
X019954D01*
X019931Y006304D02*
X019956D01*
X019928Y006301D02*
X019959D01*
X019928Y006299D02*
X019956D01*
X019931Y006296D02*
X019954D01*
X019933Y006294D02*
X019954D01*
X019936Y006291D02*
X019951D01*
X019938Y006288D02*
X019949D01*
X019941Y006286D02*
X019946D01*
X019966Y006321D02*
X019974D01*
X019971Y006319D02*
X019974D01*
X019964Y006347D02*
X019969D01*
X019961Y006344D02*
X019974D01*
X019905Y006278D02*
X019918D01*
X019900Y006276D02*
X019921D01*
X019964Y006324D02*
X019977D01*
X019979Y006365D02*
X019999D01*
X019961Y006342D02*
X019979D01*
X019959Y006339D02*
X019982D01*
X019956Y006337D02*
X019984D01*
X019956Y006334D02*
X019982D01*
X019954Y006332D02*
X019982D01*
X019956Y006329D02*
X019979D01*
X019961Y006327D02*
X019979D01*
X019845Y006240D02*
X019850D01*
X019837Y006238D02*
X019852D01*
X019832Y006235D02*
X019852D01*
X019824Y006233D02*
X019855D01*
X019817Y006230D02*
X019855D01*
X019809Y006227D02*
X019857D01*
X019799Y006225D02*
X019857D01*
X019789Y006222D02*
X019860D01*
X019773Y006220D02*
X019852D01*
X019817Y006365D02*
X019852D01*
X019811Y006362D02*
X019850D01*
X019870Y006233D02*
X019878D01*
X019870Y006230D02*
X019872D01*
X019697Y006197D02*
X019773D01*
X019748Y006217D02*
X019847D01*
X019682Y006200D02*
X019789D01*
X019809Y006360D02*
X019845D01*
X019804Y006357D02*
X019842D01*
X019799Y006354D02*
X019839D01*
X019794Y006352D02*
X019837D01*
X019786Y006349D02*
X019834D01*
X019778Y006347D02*
X019829D01*
X019697Y006321D02*
X019771D01*
X019710Y006319D02*
X019758D01*
X019771Y006344D02*
X019827D01*
X019758Y006342D02*
X019822D01*
X019687Y006324D02*
X019781D01*
X019570Y006245D02*
X019616D01*
X019596Y006230D02*
X019654D01*
X019601Y006227D02*
X019662D01*
X019606Y006225D02*
X019669D01*
X019618Y006365D02*
X019654D01*
X019621Y006362D02*
X019657D01*
X019624Y006360D02*
X019662D01*
X019626Y006357D02*
X019667D01*
X019629Y006354D02*
X019672D01*
X019575Y006243D02*
X019621D01*
X019578Y006240D02*
X019626D01*
X019583Y006238D02*
X019631D01*
X019585Y006235D02*
X019639D01*
X019590Y006233D02*
X019644D01*
X019504Y006309D02*
X019532D01*
X019507Y006306D02*
X019535D01*
X019507Y006304D02*
X019537D01*
X019509Y006301D02*
X019540D01*
X019512Y006299D02*
X019542D01*
X019514Y006296D02*
X019545D01*
X019517Y006294D02*
X019547D01*
X019519Y006291D02*
X019550D01*
X019494Y006324D02*
X019519D01*
X019494Y006321D02*
X019522D01*
X019497Y006319D02*
X019524D01*
X019499Y006316D02*
X019527D01*
X019499Y006314D02*
X019527D01*
X019502Y006311D02*
X019530D01*
X019522Y006288D02*
X019552D01*
X019524Y006286D02*
X019555D01*
X019524Y006283D02*
X019557D01*
X019527Y006281D02*
X019560D01*
X019479Y006349D02*
X019504D01*
X019479Y006347D02*
X019504D01*
X019481Y006344D02*
X019507D01*
X019481Y006342D02*
X019509D01*
X019484Y006339D02*
X019509D01*
X019484Y006337D02*
X019512D01*
X019486Y006334D02*
X019512D01*
X019489Y006332D02*
X019514D01*
X019491Y006327D02*
X019519D01*
X019489Y006329D02*
X019517D01*
X019530Y006278D02*
X019565D01*
X019532Y006276D02*
X019568D01*
X019560Y006253D02*
X019601D01*
X019563Y006250D02*
X019606D01*
X019568Y006248D02*
X019611D01*
X019537Y006273D02*
X019570D01*
X019540Y006271D02*
X019573D01*
X019542Y006268D02*
X019578D01*
X019545Y006266D02*
X019580D01*
X019547Y006263D02*
X019585D01*
X019550Y006260D02*
X019588D01*
X019552Y006258D02*
X019593D01*
X019557Y006255D02*
X019596D01*
X019390Y006245D02*
X019415D01*
X019425Y006200D02*
X019448D01*
X019428Y006197D02*
X019446D01*
X019430Y006194D02*
X019443D01*
X019430Y006212D02*
X019443D01*
X019428Y006210D02*
X019446D01*
X019425Y006207D02*
X019448D01*
X019423Y006205D02*
X019451D01*
X019423Y006202D02*
X019451D01*
X019466Y006187D02*
X019471D01*
X019390Y006243D02*
X019418D01*
X019433Y006192D02*
X019441D01*
X019436Y006189D02*
X019438D01*
X019392Y006240D02*
X019420D01*
X019395Y006238D02*
X019423D01*
X019395Y006235D02*
X019423D01*
X019397Y006233D02*
X019423D01*
X019400Y006230D02*
X019420D01*
X019403Y006227D02*
X019415D01*
X019403Y006225D02*
X019413D01*
X019405Y006222D02*
X019410D01*
X019436Y006217D02*
X019438D01*
X019433Y006215D02*
X019441D01*
X019382Y006253D02*
X019410D01*
X019385Y006250D02*
X019413D01*
X019387Y006248D02*
X019415D01*
X019372Y006271D02*
X019397D01*
X019375Y006268D02*
X019400D01*
X019375Y006266D02*
X019403D01*
X019377Y006263D02*
X019403D01*
X019380Y006260D02*
X019405D01*
X019380Y006258D02*
X019408D01*
X019382Y006255D02*
X019408D01*
X019331Y006365D02*
X019354D01*
X019331Y006362D02*
X019354D01*
X019331Y006360D02*
X019357D01*
X019334Y006357D02*
X019357D01*
X019334Y006354D02*
X019357D01*
X019334Y006352D02*
X019359D01*
X019337Y006349D02*
X019359D01*
X019337Y006347D02*
X019362D01*
X019337Y006344D02*
X019362D01*
X019339Y006342D02*
X019362D01*
X019339Y006339D02*
X019364D01*
X019342Y006337D02*
X019364D01*
X019342Y006334D02*
X019364D01*
X019370Y006273D02*
X019397D01*
X019359Y006294D02*
X019385D01*
X019362Y006291D02*
X019387D01*
X019362Y006288D02*
X019387D01*
X019364Y006286D02*
X019390D01*
X019364Y006283D02*
X019390D01*
X019367Y006281D02*
X019392D01*
X019347Y006324D02*
X019370D01*
X019347Y006321D02*
X019372D01*
X019347Y006319D02*
X019372D01*
X019349Y006316D02*
X019375D01*
X019349Y006314D02*
X019375D01*
X019352Y006311D02*
X019375D01*
X019352Y006309D02*
X019377D01*
X019354Y006306D02*
X019377D01*
X019354Y006304D02*
X019380D01*
X019357Y006301D02*
X019380D01*
X019357Y006299D02*
X019382D01*
X019359Y006296D02*
X019385D01*
X019342Y006332D02*
X019367D01*
X019344Y006329D02*
X019367D01*
X019344Y006327D02*
X019370D01*
X019367Y006278D02*
X019395D01*
X019370Y006276D02*
X019395D01*
X018933Y006174D02*
X018950D01*
X018925Y006172D02*
X018958D01*
X018920Y006169D02*
X018963D01*
X020126Y006436D02*
X020134D01*
X020126Y006433D02*
X020149D01*
X020126Y006431D02*
X020149D01*
X020126Y006428D02*
X020149D01*
X020126Y006426D02*
X020149D01*
X020126Y006423D02*
X020149D01*
X020124Y006421D02*
X020149D01*
X020124Y006418D02*
X020147D01*
X020124Y006415D02*
X020147D01*
X020119Y006393D02*
X020132D01*
X020119Y006390D02*
X020142D01*
X020119Y006388D02*
X020142D01*
X020119Y006385D02*
X020142D01*
X020116Y006382D02*
X020142D01*
X020116Y006380D02*
X020139D01*
X020116Y006377D02*
X020139D01*
X020134Y006413D02*
X020147D01*
X020114Y006375D02*
X020139D01*
X020119Y006372D02*
X020139D01*
X020129Y006459D02*
X020152D01*
X020129Y006471D02*
X020154D01*
X020129Y006469D02*
X020152D01*
X020129Y006466D02*
X020152D01*
X020129Y006464D02*
X020152D01*
X020129Y006461D02*
X020152D01*
X020132Y006456D02*
X020152D01*
X020132Y006476D02*
X020154D01*
X020132Y006474D02*
X020154D01*
X020129Y006520D02*
X020152D01*
X020129Y006517D02*
X020152D01*
X020129Y006514D02*
X020152D01*
X020129Y006512D02*
X020152D01*
X020129Y006509D02*
X020152D01*
X020129Y006507D02*
X020152D01*
X020129Y006504D02*
X020152D01*
X020129Y006502D02*
X020154D01*
X020132Y006499D02*
X020154D01*
X020124Y006563D02*
X020147D01*
X020124Y006560D02*
X020147D01*
X020124Y006558D02*
X020147D01*
X020124Y006555D02*
X020147D01*
X020124Y006553D02*
X020149D01*
X020126Y006550D02*
X020149D01*
X020126Y006548D02*
X020149D01*
X020126Y006545D02*
X020149D01*
X020126Y006542D02*
X020142D01*
X020137Y006565D02*
X020147D01*
X019999Y006448D02*
X020022D01*
X019999Y006446D02*
X020022D01*
X020017Y006443D02*
X020022D01*
X019997Y006426D02*
X020002D01*
X019994Y006423D02*
X020012D01*
X019994Y006421D02*
X020017D01*
X019994Y006418D02*
X020017D01*
X019994Y006415D02*
X020017D01*
X019992Y006413D02*
X020017D01*
X019992Y006410D02*
X020015D01*
X019992Y006408D02*
X020015D01*
X019989Y006405D02*
X020015D01*
X019999Y006403D02*
X020012D01*
X020007Y006400D02*
X020012D01*
X019984Y006385D02*
X019989D01*
X019982Y006382D02*
X019994D01*
X019982Y006380D02*
X020002D01*
X019979Y006377D02*
X020005D01*
X019979Y006375D02*
X020005D01*
X019977Y006372D02*
X020002D01*
X019999Y006451D02*
X020022D01*
X020002Y006456D02*
X020025D01*
X019999Y006454D02*
X020025D01*
X020002Y006466D02*
X020025D01*
X020002Y006464D02*
X020025D01*
X020002Y006461D02*
X020025D01*
X020002Y006459D02*
X020025D01*
X020002Y006509D02*
X020025D01*
X020002Y006507D02*
X020025D01*
X020002Y006504D02*
X020025D01*
X020002Y006502D02*
X020025D01*
X020002Y006499D02*
X020025D01*
X020002Y006497D02*
X020025D01*
X020002Y006494D02*
X020025D01*
X020002Y006492D02*
X020025D01*
X020002Y006489D02*
X020025D01*
X020015Y006555D02*
X020017D01*
X020005Y006553D02*
X020017D01*
X019994Y006550D02*
X020017D01*
X019994Y006548D02*
X020020D01*
X019997Y006545D02*
X020020D01*
X019997Y006542D02*
X020020D01*
X019997Y006540D02*
X020020D01*
X019997Y006537D02*
X020020D01*
X019997Y006535D02*
X020022D01*
X019999Y006532D02*
X020020D01*
X019999Y006530D02*
X020005D01*
X019687Y006448D02*
X019710D01*
X019773D02*
X019794D01*
X019842Y006388D02*
X019870D01*
X019839Y006385D02*
X019870D01*
X019837Y006382D02*
X019867D01*
X019834Y006380D02*
X019865D01*
X019832Y006377D02*
X019862D01*
X019850Y006398D02*
X019878D01*
X019850Y006395D02*
X019875D01*
X019847Y006393D02*
X019875D01*
X019845Y006390D02*
X019872D01*
X019829Y006375D02*
X019860D01*
X019827Y006372D02*
X019860D01*
X019687Y006446D02*
X019707D01*
X019682Y006438D02*
X019702D01*
X019684Y006443D02*
X019705D01*
X019682Y006441D02*
X019705D01*
X019773Y006446D02*
X019794D01*
X019773Y006443D02*
X019794D01*
X019773Y006441D02*
X019794D01*
X019773Y006438D02*
X019794D01*
X019773Y006436D02*
X019794D01*
X019773Y006433D02*
X019794D01*
X019773Y006431D02*
X019794D01*
X019773Y006428D02*
X019794D01*
X019773Y006426D02*
X019794D01*
X019773Y006423D02*
X019794D01*
X019773Y006421D02*
X019794D01*
X019773Y006418D02*
X019794D01*
X019773Y006415D02*
X019794D01*
X019773Y006413D02*
X019794D01*
X019705Y006476D02*
X019728D01*
X019705Y006474D02*
X019725D01*
X019702Y006471D02*
X019725D01*
X019700Y006469D02*
X019723D01*
X019700Y006466D02*
X019720D01*
X019697Y006464D02*
X019718D01*
X019695Y006461D02*
X019718D01*
X019695Y006459D02*
X019715D01*
X019692Y006456D02*
X019715D01*
X019692Y006454D02*
X019712D01*
X019690Y006451D02*
X019710D01*
X019707Y006514D02*
X019728D01*
X019707Y006512D02*
X019730D01*
X019710Y006509D02*
X019733D01*
X019712Y006507D02*
X019735D01*
X019715Y006504D02*
X019740D01*
X019712Y006484D02*
X019740D01*
X019702Y006522D02*
X019723D01*
X019702Y006520D02*
X019725D01*
X019705Y006517D02*
X019725D01*
X019697Y006527D02*
X019720D01*
X019700Y006525D02*
X019720D01*
X019682Y006553D02*
X019702D01*
X019682Y006550D02*
X019705D01*
X019684Y006548D02*
X019705D01*
X019687Y006545D02*
X019707D01*
X019687Y006542D02*
X019710D01*
X019690Y006540D02*
X019710D01*
X019692Y006537D02*
X019712D01*
X019692Y006535D02*
X019715D01*
X019697Y006530D02*
X019718D01*
X019695Y006532D02*
X019715D01*
X019710Y006481D02*
X019733D01*
X019707Y006479D02*
X019730D01*
X019773Y006456D02*
X019794D01*
X019773Y006454D02*
X019794D01*
X019773Y006451D02*
X019794D01*
X019773Y006469D02*
X019794D01*
X019773Y006466D02*
X019794D01*
X019773Y006464D02*
X019794D01*
X019773Y006461D02*
X019794D01*
X019773Y006459D02*
X019794D01*
X019773Y006476D02*
X019794D01*
X019773Y006474D02*
X019794D01*
X019773Y006471D02*
X019794D01*
X019715Y006502D02*
X019794D01*
X019718Y006499D02*
X019794D01*
X019720Y006497D02*
X019794D01*
X019720Y006492D02*
X019794D01*
X019718Y006489D02*
X019794D01*
X019712Y006487D02*
X019794D01*
X019773Y006527D02*
X019794D01*
X019773Y006525D02*
X019794D01*
X019773Y006522D02*
X019794D01*
X019773Y006520D02*
X019794D01*
X019773Y006517D02*
X019794D01*
X019773Y006514D02*
X019794D01*
X019773Y006512D02*
X019794D01*
X019773Y006509D02*
X019794D01*
X019773Y006507D02*
X019794D01*
X019773Y006504D02*
X019794D01*
X019725Y006494D02*
X019794D01*
X019773Y006484D02*
X019794D01*
X019773Y006540D02*
X019794D01*
X019773Y006537D02*
X019794D01*
X019773Y006535D02*
X019794D01*
X019773Y006568D02*
X019794D01*
X019773Y006565D02*
X019794D01*
X019773Y006563D02*
X019794D01*
X019773Y006560D02*
X019794D01*
X019773Y006558D02*
X019794D01*
X019773Y006555D02*
X019794D01*
X019773Y006553D02*
X019794D01*
X019773Y006550D02*
X019794D01*
X019773Y006548D02*
X019794D01*
X019773Y006545D02*
X019794D01*
X019773Y006542D02*
X019794D01*
X019773Y006532D02*
X019794D01*
X019773Y006530D02*
X019794D01*
X019773Y006481D02*
X019794D01*
X019773Y006479D02*
X019794D01*
X019540Y006448D02*
X019649D01*
X019497D02*
X019517D01*
X019542Y006446D02*
X019649D01*
X019542Y006443D02*
X019646D01*
X019545Y006441D02*
X019646D01*
X019537Y006456D02*
X019651D01*
X019540Y006454D02*
X019651D01*
X019540Y006451D02*
X019651D01*
X019537Y006476D02*
X019654D01*
X019537Y006474D02*
X019654D01*
X019537Y006471D02*
X019654D01*
X019537Y006469D02*
X019654D01*
X019537Y006466D02*
X019654D01*
X019537Y006464D02*
X019654D01*
X019537Y006461D02*
X019654D01*
X019537Y006459D02*
X019654D01*
X019545Y006499D02*
X019646D01*
X019542Y006497D02*
X019646D01*
X019542Y006494D02*
X019649D01*
X019540Y006492D02*
X019649D01*
X019540Y006489D02*
X019651D01*
X019540Y006487D02*
X019651D01*
X019537Y006484D02*
X019651D01*
X019537Y006481D02*
X019654D01*
X019537Y006479D02*
X019654D01*
X019580Y006413D02*
X019611D01*
X019598Y006388D02*
X019626D01*
X019601Y006385D02*
X019629D01*
X019603Y006382D02*
X019631D01*
X019603Y006380D02*
X019634D01*
X019606Y006377D02*
X019636D01*
X019494Y006446D02*
X019514D01*
X019494Y006443D02*
X019514D01*
X019491Y006441D02*
X019512D01*
X019489Y006438D02*
X019509D01*
X019484Y006436D02*
X019509D01*
X019481Y006433D02*
X019507D01*
X019545Y006438D02*
X019644D01*
X019547Y006436D02*
X019644D01*
X019550Y006433D02*
X019641D01*
X019552Y006431D02*
X019639D01*
X019552Y006428D02*
X019636D01*
X019557Y006426D02*
X019634D01*
X019560Y006423D02*
X019631D01*
X019563Y006421D02*
X019629D01*
X019568Y006418D02*
X019624D01*
X019573Y006415D02*
X019618D01*
X019608Y006375D02*
X019639D01*
X019611Y006372D02*
X019644D01*
X019583Y006527D02*
X019608D01*
X019588Y006568D02*
X019616D01*
X019588Y006565D02*
X019613D01*
X019585Y006563D02*
X019611D01*
X019585Y006560D02*
X019611D01*
X019583Y006558D02*
X019608D01*
X019583Y006555D02*
X019608D01*
X019580Y006553D02*
X019606D01*
X019580Y006550D02*
X019603D01*
X019502Y006476D02*
X019519D01*
X019502Y006474D02*
X019519D01*
X019502Y006471D02*
X019519D01*
X019502Y006469D02*
X019519D01*
X019502Y006466D02*
X019519D01*
X019502Y006464D02*
X019519D01*
X019502Y006461D02*
X019519D01*
X019499Y006459D02*
X019519D01*
X019499Y006456D02*
X019517D01*
X019499Y006454D02*
X019517D01*
X019497Y006451D02*
X019517D01*
X019494Y006494D02*
X019514D01*
X019497Y006492D02*
X019514D01*
X019497Y006489D02*
X019517D01*
X019499Y006487D02*
X019517D01*
X019499Y006484D02*
X019517D01*
X019479Y006507D02*
X019507D01*
X019484Y006504D02*
X019509D01*
X019486Y006502D02*
X019509D01*
X019491Y006499D02*
X019512D01*
X019491Y006497D02*
X019512D01*
X019499Y006481D02*
X019519D01*
X019502Y006479D02*
X019519D01*
X019573Y006525D02*
X019616D01*
X019568Y006522D02*
X019621D01*
X019563Y006520D02*
X019626D01*
X019560Y006517D02*
X019629D01*
X019557Y006514D02*
X019634D01*
X019555Y006512D02*
X019636D01*
X019552Y006509D02*
X019639D01*
X019550Y006507D02*
X019641D01*
X019547Y006504D02*
X019641D01*
X019545Y006502D02*
X019644D01*
X019370Y006448D02*
X019387D01*
X019418Y006431D02*
X019446D01*
X019418Y006509D02*
X019448D01*
X019423Y006441D02*
X019428D01*
X019420Y006438D02*
X019433D01*
X019418Y006436D02*
X019436D01*
X019415Y006433D02*
X019441D01*
X019324Y006388D02*
X019349D01*
X019326Y006385D02*
X019349D01*
X019326Y006382D02*
X019349D01*
X019326Y006380D02*
X019349D01*
X019326Y006377D02*
X019352D01*
X019370Y006446D02*
X019387D01*
X019370Y006443D02*
X019387D01*
X019370Y006441D02*
X019387D01*
X019370Y006438D02*
X019387D01*
X019370Y006436D02*
X019387D01*
X019370Y006433D02*
X019387D01*
X019370Y006431D02*
X019387D01*
X019370Y006428D02*
X019387D01*
X019370Y006426D02*
X019387D01*
X019370Y006423D02*
X019387D01*
X019370Y006421D02*
X019387D01*
X019370Y006418D02*
X019387D01*
X019370Y006415D02*
X019387D01*
X019370Y006413D02*
X019387D01*
X019329Y006375D02*
X019352D01*
X019329Y006372D02*
X019352D01*
X019375Y006525D02*
X019387D01*
X019372Y006522D02*
X019387D01*
X019415Y006507D02*
X019441D01*
X019418Y006504D02*
X019436D01*
X019420Y006502D02*
X019433D01*
X019423Y006499D02*
X019430D01*
X019425Y006497D02*
X019428D01*
X019306Y006476D02*
X019324D01*
X019306Y006474D02*
X019326D01*
X019309Y006471D02*
X019347D01*
X019311Y006469D02*
X019344D01*
X019314Y006466D02*
X019342D01*
X019316Y006464D02*
X019339D01*
X019324Y006456D02*
X019331D01*
X019324Y006454D02*
X019331D01*
X019326Y006451D02*
X019329D01*
X019331Y006476D02*
X019349D01*
X019329Y006474D02*
X019349D01*
X019319Y006461D02*
X019337D01*
X019321Y006459D02*
X019334D01*
X019296Y006487D02*
X019316D01*
X019298Y006484D02*
X019316D01*
X019291Y006492D02*
X019311D01*
X019293Y006489D02*
X019314D01*
X019339Y006487D02*
X019359D01*
X019339Y006484D02*
X019357D01*
X019344Y006492D02*
X019364D01*
X019342Y006489D02*
X019362D01*
X019321Y006568D02*
X019344D01*
X019321Y006565D02*
X019344D01*
X019321Y006563D02*
X019344D01*
X019321Y006560D02*
X019344D01*
X019319Y006558D02*
X019342D01*
X019319Y006555D02*
X019342D01*
X019319Y006553D02*
X019342D01*
X019319Y006550D02*
X019342D01*
X019288Y006497D02*
X019306D01*
X019288Y006494D02*
X019309D01*
X019301Y006481D02*
X019319D01*
X019303Y006479D02*
X019321D01*
X019337Y006481D02*
X019354D01*
X019334Y006479D02*
X019352D01*
X019370Y006456D02*
X019387D01*
X019370Y006454D02*
X019387D01*
X019370Y006451D02*
X019387D01*
X019370Y006476D02*
X019387D01*
X019370Y006474D02*
X019387D01*
X019370Y006471D02*
X019387D01*
X019370Y006469D02*
X019387D01*
X019370Y006466D02*
X019387D01*
X019370Y006464D02*
X019387D01*
X019370Y006461D02*
X019387D01*
X019370Y006459D02*
X019387D01*
X019370Y006487D02*
X019387D01*
X019370Y006484D02*
X019387D01*
X019370Y006520D02*
X019387D01*
X019367Y006517D02*
X019387D01*
X019364Y006514D02*
X019387D01*
X019362Y006512D02*
X019387D01*
X019359Y006509D02*
X019387D01*
X019359Y006507D02*
X019387D01*
X019357Y006504D02*
X019387D01*
X019354Y006502D02*
X019387D01*
X019352Y006499D02*
X019387D01*
X019370Y006497D02*
X019387D01*
X019349D02*
X019367D01*
X019370Y006494D02*
X019387D01*
X019347D02*
X019367D01*
X019370Y006492D02*
X019387D01*
X019370Y006489D02*
X019387D01*
X019370Y006481D02*
X019387D01*
X019370Y006479D02*
X019387D01*
X019217Y006448D02*
X019235D01*
X019126D02*
X019146D01*
X019075D02*
X019095D01*
X019222Y006471D02*
X019240D01*
X019222Y006469D02*
X019240D01*
X019215Y006446D02*
X019235D01*
X019212Y006443D02*
X019232D01*
X019210Y006441D02*
X019232D01*
X019207Y006438D02*
X019230D01*
X019204Y006436D02*
X019227D01*
X019199Y006433D02*
X019225D01*
X019194Y006431D02*
X019225D01*
X019182Y006428D02*
X019222D01*
X019126Y006446D02*
X019146D01*
X019128Y006443D02*
X019149D01*
X019128Y006441D02*
X019151D01*
X019131Y006438D02*
X019154D01*
X019133Y006436D02*
X019156D01*
X019133Y006433D02*
X019161D01*
X019075Y006446D02*
X019093D01*
X019072Y006443D02*
X019093D01*
X019136Y006431D02*
X019166D01*
X019138Y006428D02*
X019179D01*
X019141Y006426D02*
X019220D01*
X019146Y006423D02*
X019215D01*
X019149Y006421D02*
X019212D01*
X019154Y006418D02*
X019207D01*
X019156Y006415D02*
X019204D01*
X019166Y006413D02*
X019194D01*
X019220Y006456D02*
X019237D01*
X019220Y006454D02*
X019237D01*
X019217Y006451D02*
X019235D01*
X019222Y006466D02*
X019237D01*
X019220Y006464D02*
X019237D01*
X019220Y006461D02*
X019237D01*
X019220Y006459D02*
X019237D01*
X019220Y006476D02*
X019237D01*
X019222Y006474D02*
X019237D01*
X019194Y006509D02*
X019222D01*
X019199Y006507D02*
X019225D01*
X019204Y006504D02*
X019227D01*
X019207Y006502D02*
X019230D01*
X019210Y006499D02*
X019230D01*
X019212Y006497D02*
X019232D01*
X019215Y006494D02*
X019235D01*
X019215Y006492D02*
X019235D01*
X019217Y006489D02*
X019235D01*
X019217Y006487D02*
X019237D01*
X019220Y006484D02*
X019237D01*
X019123Y006456D02*
X019141D01*
X019123Y006454D02*
X019143D01*
X019123Y006451D02*
X019143D01*
X019121Y006466D02*
X019138D01*
X019121Y006464D02*
X019141D01*
X019123Y006461D02*
X019141D01*
X019123Y006459D02*
X019141D01*
X019121Y006476D02*
X019141D01*
X019121Y006474D02*
X019138D01*
X019121Y006471D02*
X019138D01*
X019121Y006469D02*
X019138D01*
X019080Y006476D02*
X019098D01*
X019080Y006474D02*
X019098D01*
X019080Y006471D02*
X019098D01*
X019080Y006469D02*
X019098D01*
X019080Y006466D02*
X019098D01*
X019080Y006464D02*
X019098D01*
X019080Y006461D02*
X019098D01*
X019080Y006459D02*
X019098D01*
X019077Y006456D02*
X019098D01*
X019077Y006454D02*
X019095D01*
X019077Y006451D02*
X019095D01*
X019136Y006507D02*
X019161D01*
X019133Y006504D02*
X019156D01*
X019131Y006502D02*
X019154D01*
X019128Y006499D02*
X019151D01*
X019128Y006497D02*
X019149D01*
X019126Y006494D02*
X019146D01*
X019126Y006492D02*
X019146D01*
X019126Y006489D02*
X019143D01*
X019123Y006487D02*
X019143D01*
X019123Y006484D02*
X019141D01*
X019075Y006492D02*
X019095D01*
X019075Y006489D02*
X019095D01*
X019077Y006487D02*
X019095D01*
X019077Y006484D02*
X019098D01*
X019072Y006497D02*
X019093D01*
X019072Y006494D02*
X019093D01*
X019220Y006481D02*
X019237D01*
X019220Y006479D02*
X019237D01*
X019123Y006481D02*
X019141D01*
X019123Y006479D02*
X019141D01*
X019080Y006481D02*
X019098D01*
X019080Y006479D02*
X019098D01*
X019143Y006514D02*
X019217D01*
X019138Y006512D02*
X019222D01*
X019136Y006509D02*
X019166D01*
Y006527D02*
X019194D01*
X019159Y006525D02*
X019202D01*
X019154Y006522D02*
X019207D01*
X019149Y006520D02*
X019212D01*
X019146Y006517D02*
X019215D01*
X019024Y006413D02*
X019055D01*
X019016Y006415D02*
X019062D01*
X019027Y006527D02*
X019052D01*
X019019Y006525D02*
X019062D01*
X019004Y006443D02*
X019006D01*
X019001Y006441D02*
X019009D01*
X018999Y006438D02*
X019011D01*
X018996Y006436D02*
X019014D01*
X018996Y006433D02*
X019019D01*
X018996Y006431D02*
X019024D01*
X018996Y006509D02*
X019027D01*
X018994Y006507D02*
X019019D01*
X018996Y006504D02*
X019016D01*
X018999Y006502D02*
X019011D01*
X019001Y006499D02*
X019009D01*
X019004Y006497D02*
X019006D01*
X018905Y006568D02*
X018915D01*
X018905Y006565D02*
X018915D01*
X018905Y006563D02*
X018915D01*
X018905Y006560D02*
X018915D01*
X018872Y006568D02*
X018882D01*
X018872Y006565D02*
X018882D01*
X018872Y006563D02*
X018882D01*
X018872Y006560D02*
X018882D01*
X018953Y006568D02*
X018961D01*
X018953Y006565D02*
X018961D01*
X018953Y006563D02*
X018961D01*
X018953Y006560D02*
X018961D01*
X018798Y006568D02*
X018808D01*
X018801Y006565D02*
X018811D01*
X018801Y006563D02*
X018811D01*
X018803Y006560D02*
X018813D01*
X020129Y006608D02*
X020134D01*
X020121Y006606D02*
X020137D01*
X020114Y006603D02*
X020137D01*
X020114Y006601D02*
X020137D01*
X020114Y006598D02*
X020139D01*
X020116Y006596D02*
X020139D01*
X020116Y006593D02*
X020139D01*
X020116Y006591D02*
X020139D01*
X020116Y006588D02*
X020142D01*
X020119Y006586D02*
X020134D01*
X020114Y006649D02*
X020121D01*
X020119Y006583D02*
X020124D01*
X020104Y006631D02*
X020126D01*
X020104Y006629D02*
X020124D01*
X020106Y006626D02*
X020116D01*
X020106Y006624D02*
X020111D01*
X020106Y006647D02*
X020121D01*
X020101Y006644D02*
X020121D01*
X020099Y006642D02*
X020124D01*
X020101Y006639D02*
X020124D01*
X020101Y006636D02*
X020126D01*
X020101Y006634D02*
X020126D01*
X020088Y006664D02*
X020096D01*
X020088Y006662D02*
X020091D01*
X020096Y006690D02*
X020101D01*
X020091Y006687D02*
X020101D01*
X019908Y006652D02*
X019979D01*
X020038Y006743D02*
X020065D01*
X020038Y006741D02*
X020068D01*
X020040Y006738D02*
X020068D01*
X020022Y006758D02*
X020053D01*
X020025Y006756D02*
X020055D01*
X020027Y006753D02*
X020058D01*
X020030Y006751D02*
X020058D01*
X020032Y006748D02*
X020060D01*
X020035Y006746D02*
X020063D01*
X020043Y006735D02*
X020071D01*
X020045Y006733D02*
X020073D01*
X020048Y006730D02*
X020076D01*
X020048Y006728D02*
X020076D01*
X020050Y006725D02*
X020078D01*
X020053Y006723D02*
X020081D01*
X019997Y006596D02*
X020005D01*
X019989Y006593D02*
X020005D01*
X019984Y006591D02*
X020007D01*
X019982Y006588D02*
X020007D01*
X019984Y006586D02*
X020007D01*
X019984Y006583D02*
X020010D01*
X019984Y006581D02*
X020010D01*
X019913Y006647D02*
X019974D01*
X019918Y006644D02*
X019971D01*
X019921Y006642D02*
X019966D01*
X019926Y006639D02*
X019964D01*
X019933Y006636D02*
X019956D01*
X019911Y006649D02*
X019977D01*
X019979Y006636D02*
X019984D01*
X019974Y006634D02*
X019984D01*
X019969Y006631D02*
X019987D01*
X019966Y006629D02*
X019987D01*
X019964Y006626D02*
X019989D01*
X019964Y006624D02*
X019989D01*
X019966Y006621D02*
X019992D01*
X019966Y006619D02*
X019994D01*
X019969Y006616D02*
X019989D01*
X019969Y006614D02*
X019984D01*
X019971Y006611D02*
X019979D01*
X019987Y006578D02*
X020010D01*
X019987Y006575D02*
X020007D01*
X020068Y006700D02*
X020073D01*
X020065Y006705D02*
X020081D01*
X020065Y006702D02*
X020076D01*
X020012Y006771D02*
X020040D01*
X020015Y006768D02*
X020043D01*
X020015Y006766D02*
X020045D01*
X020017Y006763D02*
X020048D01*
X020020Y006761D02*
X020050D01*
X019903Y006659D02*
X019936D01*
X019900Y006667D02*
X019926D01*
X019903Y006664D02*
X019928D01*
X019903Y006662D02*
X019931D01*
X019900Y006680D02*
X019921D01*
X019900Y006677D02*
X019921D01*
X019900Y006675D02*
X019923D01*
X019900Y006672D02*
X019923D01*
X019900Y006669D02*
X019923D01*
X019885Y006730D02*
X019890D01*
X019926Y006720D02*
X019964D01*
X019921Y006718D02*
X019969D01*
X019916Y006715D02*
X019971D01*
X019913Y006713D02*
X019974D01*
X019903Y006700D02*
X019933D01*
X019903Y006697D02*
X019931D01*
X019903Y006695D02*
X019928D01*
X019900Y006692D02*
X019926D01*
X019900Y006690D02*
X019923D01*
X019900Y006687D02*
X019923D01*
X019931Y006723D02*
X019956D01*
X019885Y006708D02*
X019898D01*
X019888Y006705D02*
X019895D01*
X019885Y006733D02*
X019888D01*
X019900Y006685D02*
X019923D01*
X019900Y006682D02*
X019921D01*
X019905Y006657D02*
X019982D01*
X019908Y006654D02*
X019982D01*
X019954Y006659D02*
X019984D01*
X019966Y006680D02*
X019989D01*
X019966Y006677D02*
X019989D01*
X019966Y006675D02*
X019989D01*
X019966Y006672D02*
X019989D01*
X019964Y006669D02*
X019987D01*
X019964Y006667D02*
X019987D01*
X019961Y006664D02*
X019987D01*
X019959Y006662D02*
X019984D01*
X019911Y006710D02*
X019977D01*
X019908Y006708D02*
X019979D01*
X019908Y006705D02*
X019982D01*
X019905Y006702D02*
X019982D01*
X019954Y006700D02*
X019984D01*
X019959Y006697D02*
X019984D01*
X019961Y006695D02*
X019987D01*
X019964Y006692D02*
X019987D01*
X019964Y006690D02*
X019987D01*
X019966Y006687D02*
X019989D01*
X019966Y006685D02*
X019989D01*
X019966Y006682D02*
X019989D01*
X019712Y006652D02*
X019758D01*
X019817Y006606D02*
X019852D01*
X019819Y006603D02*
X019855D01*
X019822Y006601D02*
X019857D01*
X019827Y006598D02*
X019857D01*
X019829Y006596D02*
X019860D01*
X019832Y006593D02*
X019862D01*
X019834Y006591D02*
X019865D01*
X019837Y006588D02*
X019867D01*
X019839Y006586D02*
X019870D01*
X019842Y006583D02*
X019870D01*
X019845Y006581D02*
X019872D01*
X019847Y006578D02*
X019875D01*
X019850Y006575D02*
X019875D01*
X019850Y006728D02*
X019860D01*
X019845Y006730D02*
X019862D01*
X019845Y006751D02*
X019855D01*
X019845Y006748D02*
X019860D01*
X019842Y006746D02*
X019865D01*
X019842Y006743D02*
X019867D01*
X019842Y006741D02*
X019867D01*
X019839Y006738D02*
X019865D01*
X019839Y006735D02*
X019865D01*
X019837Y006733D02*
X019862D01*
X019778Y006624D02*
X019829D01*
X019786Y006621D02*
X019832D01*
X019794Y006619D02*
X019837D01*
X019799Y006616D02*
X019839D01*
X019804Y006614D02*
X019842D01*
X019806Y006611D02*
X019845D01*
X019811Y006608D02*
X019847D01*
X019697Y006649D02*
X019771D01*
X019758Y006629D02*
X019822D01*
X019771Y006626D02*
X019824D01*
X019687Y006647D02*
X019781D01*
X019855Y006725D02*
X019860D01*
X019804Y006766D02*
X019811D01*
X019801Y006763D02*
X019819D01*
X019801Y006761D02*
X019827D01*
X019801Y006758D02*
X019824D01*
X019801Y006756D02*
X019824D01*
X019799Y006753D02*
X019824D01*
X019799Y006751D02*
X019824D01*
X019799Y006748D02*
X019822D01*
X019799Y006746D02*
X019822D01*
X019809Y006743D02*
X019822D01*
X019817Y006741D02*
X019819D01*
X019715Y006771D02*
X019738D01*
X019715Y006768D02*
X019738D01*
X019715Y006766D02*
X019738D01*
X019715Y006763D02*
X019738D01*
X019715Y006761D02*
X019738D01*
X019715Y006758D02*
X019738D01*
X019715Y006756D02*
X019738D01*
X019715Y006753D02*
X019735D01*
X019758Y006771D02*
X019784D01*
X019758Y006768D02*
X019781D01*
X019758Y006766D02*
X019781D01*
X019758Y006763D02*
X019781D01*
X019758Y006761D02*
X019781D01*
X019758Y006758D02*
X019781D01*
X019758Y006756D02*
X019781D01*
X019758Y006753D02*
X019778D01*
X019771Y006751D02*
X019778D01*
X019497Y006652D02*
X019524D01*
X019626Y006614D02*
X019667D01*
X019624Y006611D02*
X019662D01*
X019621Y006608D02*
X019657D01*
X019618Y006606D02*
X019654D01*
X019616Y006603D02*
X019649D01*
X019613Y006601D02*
X019646D01*
X019629Y006616D02*
X019672D01*
X019641Y006761D02*
X019649D01*
X019634Y006758D02*
X019649D01*
X019629Y006756D02*
X019651D01*
X019626Y006753D02*
X019651D01*
X019629Y006751D02*
X019651D01*
X019629Y006748D02*
X019654D01*
X019631Y006746D02*
X019654D01*
X019631Y006743D02*
X019654D01*
X019631Y006741D02*
X019654D01*
X019634Y006738D02*
X019646D01*
X019611Y006598D02*
X019644D01*
X019608Y006596D02*
X019639D01*
X019606Y006593D02*
X019636D01*
X019603Y006591D02*
X019634D01*
X019603Y006588D02*
X019631D01*
X019601Y006586D02*
X019629D01*
X019598Y006583D02*
X019626D01*
X019596Y006581D02*
X019624D01*
X019494Y006649D02*
X019522D01*
X019494Y006647D02*
X019519D01*
X019491Y006644D02*
X019519D01*
X019489Y006642D02*
X019517D01*
X019489Y006639D02*
X019514D01*
X019486Y006636D02*
X019514D01*
X019484Y006634D02*
X019512D01*
X019484Y006631D02*
X019509D01*
X019481Y006629D02*
X019509D01*
X019481Y006626D02*
X019507D01*
X019479Y006624D02*
X019504D01*
X019479Y006621D02*
X019504D01*
X019596Y006578D02*
X019624D01*
X019593Y006575D02*
X019621D01*
X019580Y006730D02*
X019618D01*
X019575Y006728D02*
X019621D01*
X019606Y006746D02*
X019613D01*
X019601Y006743D02*
X019613D01*
X019596Y006741D02*
X019616D01*
X019593Y006738D02*
X019616D01*
X019634Y006735D02*
X019639D01*
X019588D02*
X019618D01*
X019583Y006733D02*
X019618D01*
X019519Y006680D02*
X019550D01*
X019517Y006677D02*
X019547D01*
X019514Y006675D02*
X019545D01*
X019512Y006672D02*
X019542D01*
X019509Y006669D02*
X019540D01*
X019509Y006667D02*
X019537D01*
X019507Y006664D02*
X019535D01*
X019504Y006662D02*
X019532D01*
X019502Y006659D02*
X019532D01*
X019499Y006657D02*
X019530D01*
X019499Y006654D02*
X019527D01*
X019535Y006695D02*
X019568D01*
X019532Y006692D02*
X019565D01*
X019530Y006690D02*
X019563D01*
X019527Y006687D02*
X019557D01*
X019524Y006685D02*
X019555D01*
X019522Y006682D02*
X019552D01*
X019570Y006725D02*
X019616D01*
X019568Y006723D02*
X019611D01*
X019565Y006720D02*
X019606D01*
X019560Y006718D02*
X019601D01*
X019557Y006715D02*
X019598D01*
X019555Y006713D02*
X019593D01*
X019550Y006710D02*
X019588D01*
X019547Y006708D02*
X019585D01*
X019545Y006705D02*
X019580D01*
X019542Y006702D02*
X019578D01*
X019540Y006700D02*
X019575D01*
X019537Y006697D02*
X019570D01*
X019347Y006652D02*
X019372D01*
X019425Y006771D02*
X019456D01*
X019423Y006768D02*
X019453D01*
X019420Y006766D02*
X019451D01*
X019418Y006763D02*
X019448D01*
X019415Y006761D02*
X019446D01*
X019415Y006758D02*
X019443D01*
X019342Y006634D02*
X019364D01*
X019339Y006631D02*
X019364D01*
X019339Y006629D02*
X019362D01*
X019339Y006626D02*
X019362D01*
X019337Y006624D02*
X019362D01*
X019337Y006621D02*
X019359D01*
X019334Y006619D02*
X019359D01*
X019334Y006616D02*
X019359D01*
X019334Y006614D02*
X019357D01*
X019334Y006611D02*
X019357D01*
X019331Y006608D02*
X019354D01*
X019331Y006606D02*
X019354D01*
X019331Y006603D02*
X019354D01*
X019329Y006601D02*
X019354D01*
X019329Y006598D02*
X019352D01*
X019329Y006596D02*
X019352D01*
X019326Y006593D02*
X019352D01*
X019326Y006591D02*
X019349D01*
X019326Y006588D02*
X019349D01*
X019326Y006586D02*
X019349D01*
X019324Y006583D02*
X019349D01*
X019324Y006581D02*
X019347D01*
Y006649D02*
X019372D01*
X019347Y006647D02*
X019370D01*
X019344Y006644D02*
X019370D01*
X019344Y006642D02*
X019367D01*
X019342Y006639D02*
X019367D01*
X019342Y006636D02*
X019367D01*
X019324Y006578D02*
X019347D01*
X019324Y006575D02*
X019347D01*
X019390Y006725D02*
X019415D01*
X019387Y006723D02*
X019415D01*
X019385Y006720D02*
X019413D01*
X019382Y006718D02*
X019410D01*
X019382Y006715D02*
X019410D01*
X019380Y006713D02*
X019408D01*
X019380Y006710D02*
X019405D01*
X019377Y006708D02*
X019403D01*
X019375Y006705D02*
X019403D01*
X019375Y006702D02*
X019400D01*
X019372Y006700D02*
X019397D01*
X019392Y006730D02*
X019420D01*
X019390Y006728D02*
X019418D01*
X019413Y006756D02*
X019441D01*
X019410Y006753D02*
X019438D01*
X019408Y006751D02*
X019438D01*
X019405Y006748D02*
X019436D01*
X019403Y006746D02*
X019433D01*
X019403Y006743D02*
X019430D01*
X019400Y006741D02*
X019428D01*
X019397Y006738D02*
X019425D01*
X019395Y006735D02*
X019425D01*
X019395Y006733D02*
X019423D01*
X019352Y006659D02*
X019377D01*
X019349Y006657D02*
X019375D01*
X019349Y006654D02*
X019375D01*
X019359Y006675D02*
X019385D01*
X019357Y006672D02*
X019382D01*
X019357Y006669D02*
X019382D01*
X019354Y006667D02*
X019380D01*
X019354Y006664D02*
X019380D01*
X019352Y006662D02*
X019377D01*
X019095Y006675D02*
X019121D01*
X019093Y006672D02*
X019121D01*
X019093Y006705D02*
X019121D01*
X019095Y006702D02*
X019121D01*
X019098Y006700D02*
X019123D01*
X019072Y006728D02*
X019095D01*
X018905Y006586D02*
X018915D01*
X018905Y006583D02*
X018915D01*
X018905Y006581D02*
X018915D01*
X018905Y006634D02*
X018915D01*
X018905Y006631D02*
X018915D01*
X018905Y006629D02*
X018915D01*
X018905Y006626D02*
X018915D01*
X018905Y006624D02*
X018915D01*
X018905Y006621D02*
X018915D01*
X018905Y006619D02*
X018915D01*
X018905Y006616D02*
X018915D01*
X018905Y006614D02*
X018915D01*
X018905Y006611D02*
X018915D01*
X018905Y006608D02*
X018915D01*
X018905Y006606D02*
X018915D01*
X018905Y006603D02*
X018915D01*
X018905Y006593D02*
X018915D01*
X018905Y006591D02*
X018915D01*
X018905Y006588D02*
X018915D01*
X018872Y006626D02*
X018882D01*
X018872Y006624D02*
X018882D01*
X018872Y006621D02*
X018882D01*
X018872Y006619D02*
X018882D01*
X018872Y006593D02*
X018882D01*
X018872Y006591D02*
X018882D01*
X018872Y006588D02*
X018882D01*
X018872Y006586D02*
X018882D01*
X018872Y006583D02*
X018882D01*
X018872Y006581D02*
X018882D01*
X018872Y006616D02*
X018882D01*
X018872Y006614D02*
X018882D01*
X018872Y006611D02*
X018882D01*
X018872Y006608D02*
X018882D01*
X018872Y006606D02*
X018882D01*
X018872Y006603D02*
X018882D01*
X018872Y006601D02*
X018882D01*
X018872Y006598D02*
X018882D01*
X018872Y006596D02*
X018882D01*
X018905Y006601D02*
X018961D01*
X018905Y006598D02*
X018961D01*
X018905Y006596D02*
X018961D01*
X018953Y006634D02*
X018961D01*
X018953Y006631D02*
X018961D01*
X018953Y006629D02*
X018961D01*
X018953Y006626D02*
X018961D01*
X018953Y006624D02*
X018961D01*
X018953Y006621D02*
X018961D01*
X018953Y006619D02*
X018961D01*
X018953Y006616D02*
X018961D01*
X018953Y006614D02*
X018961D01*
X018953Y006611D02*
X018961D01*
X018953Y006608D02*
X018961D01*
X018953Y006606D02*
X018961D01*
X018953Y006603D02*
X018961D01*
X018953Y006593D02*
X018961D01*
X018953Y006591D02*
X018961D01*
X018953Y006588D02*
X018961D01*
X018953Y006586D02*
X018961D01*
X018953Y006583D02*
X018961D01*
X018953Y006581D02*
X018961D01*
X018905Y006578D02*
X018915D01*
X018905Y006575D02*
X018915D01*
X018872Y006578D02*
X018882D01*
X018872Y006575D02*
X018882D01*
X018953Y006578D02*
X018961D01*
X018953Y006575D02*
X018961D01*
X019042Y006695D02*
X019065D01*
X019042Y006692D02*
X019065D01*
X019042Y006690D02*
X019065D01*
X019042Y006687D02*
X019065D01*
X019042Y006685D02*
X019065D01*
X019042Y006682D02*
X019065D01*
X018813Y006634D02*
X018826D01*
X018813Y006631D02*
X018823D01*
X018811Y006629D02*
X018821D01*
X018762D02*
X018773D01*
X018811Y006626D02*
X018821D01*
X018762D02*
X018775D01*
X018808Y006624D02*
X018818D01*
X018765D02*
X018775D01*
X018806Y006621D02*
X018818D01*
X018768D02*
X018778D01*
X018806Y006619D02*
X018816D01*
X018768D02*
X018778D01*
X018783Y006596D02*
X018803D01*
X018783Y006593D02*
X018801D01*
X018785Y006591D02*
X018801D01*
X018785Y006588D02*
X018798D01*
X018788Y006586D02*
X018798D01*
X018790Y006583D02*
X018801D01*
X018790Y006581D02*
X018801D01*
X018803Y006616D02*
X018813D01*
X018770D02*
X018780D01*
X018803Y006614D02*
X018813D01*
X018770D02*
X018783D01*
X018801Y006611D02*
X018811D01*
X018773D02*
X018783D01*
X018798Y006608D02*
X018811D01*
X018775D02*
X018785D01*
X018798Y006606D02*
X018808D01*
X018775D02*
X018785D01*
X018795Y006603D02*
X018806D01*
X018778D02*
X018788D01*
X018795Y006601D02*
X018806D01*
X018778D02*
X018790D01*
X018793Y006598D02*
X018803D01*
X018780D02*
X018790D01*
X018760Y006634D02*
X018770D01*
X018760Y006631D02*
X018770D01*
X018793Y006578D02*
X018803D01*
X018793Y006575D02*
X018806D01*
X019885Y006855D02*
X019933D01*
X019984Y006796D02*
X020015D01*
X019987Y006794D02*
X020017D01*
X019989Y006791D02*
X020020D01*
X019992Y006789D02*
X020022D01*
X019994Y006786D02*
X020025D01*
X019997Y006784D02*
X020027D01*
X019913Y006842D02*
X019954D01*
X019918Y006840D02*
X019959D01*
X019923Y006837D02*
X019964D01*
X019903Y006847D02*
X019946D01*
X019908Y006845D02*
X019951D01*
X019928Y006835D02*
X019966D01*
X019931Y006832D02*
X019971D01*
X019936Y006829D02*
X019974D01*
X019890Y006852D02*
X019938D01*
X019898Y006850D02*
X019941D01*
Y006827D02*
X019977D01*
X019944Y006824D02*
X019982D01*
X019949Y006822D02*
X019984D01*
X019951Y006819D02*
X019987D01*
X019956Y006817D02*
X019992D01*
X019959Y006814D02*
X019994D01*
X019964Y006812D02*
X019997D01*
X019966Y006809D02*
X019999D01*
X019969Y006807D02*
X020005D01*
X019974Y006804D02*
X020007D01*
X019977Y006802D02*
X020010D01*
X019979Y006799D02*
X020012D01*
X019999Y006781D02*
X020030D01*
X020002Y006779D02*
X020032D01*
X019786Y006880D02*
X019878D01*
X019761Y006883D02*
X019872D01*
X019712Y006906D02*
X019756D01*
X019684Y006903D02*
X019786D01*
X019532Y006855D02*
X019585D01*
X019583Y006878D02*
X019664D01*
X019575Y006875D02*
X019651D01*
X019519Y006847D02*
X019568D01*
X019481Y006822D02*
X019522D01*
X019479Y006819D02*
X019517D01*
X019530Y006852D02*
X019580D01*
X019524Y006850D02*
X019573D01*
X019547Y006862D02*
X019606D01*
X019542Y006860D02*
X019598D01*
X019537Y006857D02*
X019593D01*
X019570Y006873D02*
X019641D01*
X019563Y006870D02*
X019631D01*
X019557Y006868D02*
X019621D01*
X019552Y006865D02*
X019613D01*
X019438Y006784D02*
X019471D01*
X019433Y006779D02*
X019463D01*
X019436Y006781D02*
X019469D01*
X018765Y006855D02*
X018836D01*
X018803Y006852D02*
X018836D01*
X018811Y006850D02*
X018839D01*
X018813Y006847D02*
X018839D01*
X018813Y006822D02*
X018839D01*
X018811Y006819D02*
X018839D01*
X018808Y006817D02*
X018836D01*
X018762Y006814D02*
X018836D01*
X018765Y006812D02*
X018834D01*
X018768Y006809D02*
X018834D01*
X018765Y006857D02*
X018834D01*
X018762Y006852D02*
X018795D01*
X018775Y006802D02*
X018823D01*
X018778Y006799D02*
X018821D01*
X018783Y006796D02*
X018816D01*
X018790Y006794D02*
X018808D01*
X018762Y006850D02*
X018788D01*
X018762Y006817D02*
X018790D01*
X018768Y006807D02*
X018831D01*
X018770Y006804D02*
X018829D01*
X018760Y006847D02*
X018785D01*
X018760Y006845D02*
X018783D01*
X018760Y006842D02*
X018783D01*
X018757Y006840D02*
X018780D01*
X018757Y006837D02*
X018780D01*
X018757Y006835D02*
X018780D01*
X018757Y006832D02*
X018780D01*
X018757Y006829D02*
X018780D01*
X018760Y006827D02*
X018783D01*
X018760Y006824D02*
X018783D01*
X018760Y006822D02*
X018785D01*
X018760Y006819D02*
X018788D01*
X018770Y006862D02*
X018829D01*
X018768Y006860D02*
X018831D01*
X018798Y006875D02*
X018801D01*
X018785Y006873D02*
X018813D01*
X018780Y006870D02*
X018818D01*
X018775Y006868D02*
X018823D01*
X018773Y006865D02*
X018826D01*
X022593Y003407D02*
X022983D01*
X022593D02*
Y003747D01*
X022983D01*
Y003407D02*
Y003747D01*
D16*
X020962Y005209D02*
G03*
X020962Y005209I-000015J000000D01*
G01*
X019748Y002548D02*
X020002D01*
X021100Y004884D02*
X021362D01*
X021100Y005429D02*
X021362D01*
X021610Y005021D02*
Y005284D01*
X020855Y005021D02*
Y005284D01*
X021508Y005716D02*
X022978D01*
Y007096D01*
X021508Y005716D02*
Y007096D01*
X021508D02*
X022978D01*
M02*
