M48
;Layer_Color=9474304
;FILE_FORMAT=4:2
METRIC
;TYPE=PLATED
T1F00S00C0.30
T2F00S00C0.60
T3F00S00C0.76
T4F00S00C0.80
T5F00S00C0.85
T6F00S00C0.86
T7F00S00C0.90
T8F00S00C0.95
T9F00S00C1.00
%
T01
X020775Y002416
Y002496
X021335Y002516
Y002396
X021245Y002326
X021695Y002266
X022455Y002396
X022815
X022825Y002596
X022815Y002796
X022569Y002691
X022485Y002876
X022585Y003146
X022665
X022725Y003296
X022955Y003346
X023015
X023075
Y003196
X023015
X023145
X023165Y003576
X023495Y003596
X023485Y003796
X023705
Y003596
X022795Y003556
X022763Y003796
X022745Y003926
X022665Y003856
X022565Y003945
X022465
X022505Y003736
X022045Y003796
Y003876
X021895Y003896
X021785Y003736
X021666Y003537
X021635Y003336
Y003276
X021575
Y003336
X021325Y003296
X021255
Y003226
X021325
X021225Y003056
X021035Y003256
X020935
X020775Y003276
X020875Y003406
Y003716
X020865Y003864
X021135Y003676
X020385Y003586
X020485Y003486
X022315Y003296
X022865Y002196
X023098Y002196
X024105Y002496
X024215
Y002696
X024105
Y002896
X024215
Y003086
X024105
X025695Y002386
X029675Y002236
X024025Y004212
Y005593
X024035Y005796
X024025Y006596
X024035Y007011
X024525Y006406
X024925
X024725Y005456
X024525
X023689Y005393
X023685Y005196
X023495
X023505Y004996
X023685
X023695Y004796
X023585Y004756
X023635Y004596
X023495Y004596
X023155Y004716
X023155Y004836
X023075Y004902
X022993
X023005Y005126
X023135Y005316
X023055Y005456
X023147Y005593
X023150Y005796
X023035Y005736
X023185Y005996
X023165Y006196
X022855Y006209
X022655Y006108
X022427Y006106
X022335Y006066
X022235Y006056
X022154Y006168
X022065Y006169
X022010Y005918
X021915Y005836
X022414Y005876
X022465Y005976
X022525Y005916
X022585Y005856
X022603Y005774
X022585Y005686
X022695Y005656
X022655Y005446
X022525
X022435
X022334Y005357
X022255Y005290
X022085Y005276
X021925
X022025Y005166
X022137Y005106
X022189Y005046
X021985Y004986
X021945Y004866
X022105Y004696
X021695
Y004341
X021985Y004396
X022185Y004332
X022265Y004326
X022405Y004406
X022515Y004686
X022395Y004966
X022545Y005106
X022655
X022195Y005456
X021655Y005366
X021345Y005656
X021353Y005747
X021408Y005871
X021341Y005929
X021115Y005956
X021025Y006044
X020955Y006106
X021045Y006169
X020955Y006456
X020675Y006416
Y006316
Y006516
X020285Y006616
X020365Y006226
X020535Y005888
X020465Y005716
X020455Y005626
X020485Y005506
X020405Y005466
X020292Y005460
X020145Y005476
X020085Y005556
X020225Y005577
X020205Y005306
X020075Y005206
X020085Y005106
X020315Y005116
X020325Y005196
X020445Y004996
X020555Y005046
X020517Y004855
X020457Y004788
X020315Y004756
X020325Y004876
X020185Y004916
Y004506
X020405Y004566
X020555Y004466
X020585Y004266
X020815Y004216
X020755Y004056
Y003996
X020675
Y004056
X020895Y004046
X020995
X021149Y003970
X021215Y004016
X021325
X021665
X021765
X021874
X021965
X022045
X022745Y004116
X022785Y004246
X023155Y004106
X023485Y003996
X023705
X023696Y006000
X023675Y006826
X023165Y006796
X023181Y006579
X022465Y006596
X022205Y006546
X022085Y006546
X022035Y006686
X021915Y006726
X021895Y006816
X021855Y006556
X021775Y006536
X021625
X021605Y006456
X021585Y006686
X021595Y006876
X021594Y006958
X022175Y006786
X022195Y006666
X022265Y006846
X022345
X021675Y006169
X021575
X020995Y005826
Y005686
X020893Y005724
X021015Y004746
X020925Y004606
Y004398
X021045
X021135Y004466
X021265
X021345Y004506
X021355Y004406
X021295Y004606
X021375Y004746
X020555Y004706
X020015Y005446
X021055Y006736
X019825Y006216
X019375Y006126
X019285
X019195
X019224Y006437
X018965Y006416
X018815Y006336
X018685Y006316
X019092Y005603
X019475Y005616
X019575Y005526
X019645
Y005456
X019575
X019685Y004826
X019625Y004446
X019075Y004726
X019075Y004816
Y004896
T02
X019285Y005936
T03
X018865Y003776
X019185Y003676
T04
X018995Y002036
X019105
X019215
X019325
X019435
X025645
X025755
X025865
X025975
X026085
X025895Y002546
X027045
X027395
X026625Y003836
X026365
X027865
X028125
X029365
X029625
X030865
X031125
X031545Y002546
X030395
X030045
X028895
X028545
X032855Y002386
Y002186
X032845Y002036
X032955
X033065
X033175
X032735
X032855Y003586
Y003786
Y003986
Y004186
Y004386
Y004586
Y004786
Y004986
Y005186
Y005386
Y005586
Y005786
Y005986
Y006186
Y006386
Y006586
Y006986
X032845Y007136
X032955
X033065
X033175
X032735
X031125Y006566
X030865
X029629Y006570
X029369
X028125Y006576
X027865
X028545Y005286
X028899Y005280
X030049
X030395Y005276
X031545
X027395Y005286
X027045
X025895
X026365Y006576
X026625
X026085Y007136
X025975
X025865
X025755
X025645
X025335Y006666
X024535Y006916
X019895Y004956
X019285Y004856
X019335Y007136
X019225
X019115
X019005
X019445
T05
X023595Y002296
Y002896
Y003296
Y003896
X023595Y004296
Y004896
X023595Y005296
Y005896
Y006296
Y006896
T06
X033135Y002186
Y002386
Y002586
Y002786
Y002986
Y003186
X033335Y003186
Y002986
Y002786
Y002586
Y002386
Y002186
Y003386
Y003586
Y003786
X033135Y003786
Y003586
Y003386
Y003986
Y004186
Y004386
Y004586
Y004786
X033335
Y004586
Y004386
Y004186
Y003986
Y004986
Y005186
X033135
Y004986
Y005386
Y005586
Y005786
Y005986
Y006186
Y006386
Y006586
Y006786
Y006986
X033335
Y006786
Y006586
Y006386
Y006186
Y005986
Y005786
Y005586
Y005386
T07
X026111Y002790
X026365
X026619
X026873
X027611
Y003552
X026873
X026619
X026365
X026111
X027865
X028119
X028373
X029111
X029365
X029619
X029873
X030611
X030865
X031119
X031373
Y002790
X031119
X030865
X030611
X029873
X029619
X029365
X029111
X028373
X028119
X027865
Y005530
X028119
X028373
X029115Y005524
X029369
X029623
X029877
X030611Y005520
X030865
X031119
X031373
Y006282
X031119
X030865
X030611
X029877Y006286
X029623
X029369
X029115
X028373Y006292
X028119
X027865
X027611
Y005530
X026873Y005566
X026619
X026365
X026111
Y006328
X026365
X026619
X026873
T08
X018856Y003239
Y003493
X019110
Y003239
X019364
Y003493
X019618
Y003239
X019872
Y003493
X020126
Y003239
X020125Y003746
Y003946
X019865
Y003746
X024183Y003504
Y003250
X024437
X024691
X024945
Y003504
X024691
X024437
X025199
X025453
Y003250
X025199
X032311
Y003504
X032565
Y003250
T09
X021745Y006736
X022543
M30
