G04*
G04 #@! TF.GenerationSoftware,Altium Limited,Altium Designer,20.1.11 (218)*
G04*
G04 Layer_Physical_Order=1*
G04 Layer_Color=5064179*
%FSAX42Y42*%
%MOMM*%
G71*
G04*
G04 #@! TF.SameCoordinates,36681182-F833-4A46-B70D-823A07E8D0DF*
G04*
G04*
G04 #@! TF.FilePolarity,Positive*
G04*
G01*
G75*
%ADD11C,0.60*%
%ADD13C,0.20*%
%ADD56R,1.10X1.90*%
%ADD57R,0.50X0.40*%
G04:AMPARAMS|DCode=58|XSize=0.4mm|YSize=0.5mm|CornerRadius=0.1mm|HoleSize=0mm|Usage=FLASHONLY|Rotation=90.000|XOffset=0mm|YOffset=0mm|HoleType=Round|Shape=RoundedRectangle|*
%AMROUNDEDRECTD58*
21,1,0.40,0.30,0,0,90.0*
21,1,0.20,0.50,0,0,90.0*
1,1,0.20,0.15,0.10*
1,1,0.20,0.15,-0.10*
1,1,0.20,-0.15,-0.10*
1,1,0.20,-0.15,0.10*
%
%ADD58ROUNDEDRECTD58*%
G04:AMPARAMS|DCode=59|XSize=6mm|YSize=1.2mm|CornerRadius=0.3mm|HoleSize=0mm|Usage=FLASHONLY|Rotation=270.000|XOffset=0mm|YOffset=0mm|HoleType=Round|Shape=RoundedRectangle|*
%AMROUNDEDRECTD59*
21,1,6.00,0.60,0,0,270.0*
21,1,5.40,1.20,0,0,270.0*
1,1,0.60,-0.30,-2.70*
1,1,0.60,-0.30,2.70*
1,1,0.60,0.30,2.70*
1,1,0.60,0.30,-2.70*
%
%ADD59ROUNDEDRECTD59*%
%ADD60R,1.20X6.00*%
%ADD61R,2.10X0.89*%
%ADD62R,2.50X2.30*%
%ADD63R,2.30X2.50*%
%ADD64R,2.80X2.00*%
G04:AMPARAMS|DCode=65|XSize=0.8mm|YSize=1.3mm|CornerRadius=0.2mm|HoleSize=0mm|Usage=FLASHONLY|Rotation=180.000|XOffset=0mm|YOffset=0mm|HoleType=Round|Shape=RoundedRectangle|*
%AMROUNDEDRECTD65*
21,1,0.80,0.90,0,0,180.0*
21,1,0.40,1.30,0,0,180.0*
1,1,0.40,-0.20,0.45*
1,1,0.40,0.20,0.45*
1,1,0.40,0.20,-0.45*
1,1,0.40,-0.20,-0.45*
%
%ADD65ROUNDEDRECTD65*%
G04:AMPARAMS|DCode=66|XSize=0.8mm|YSize=1.3mm|CornerRadius=0.2mm|HoleSize=0mm|Usage=FLASHONLY|Rotation=90.000|XOffset=0mm|YOffset=0mm|HoleType=Round|Shape=RoundedRectangle|*
%AMROUNDEDRECTD66*
21,1,0.80,0.90,0,0,90.0*
21,1,0.40,1.30,0,0,90.0*
1,1,0.40,0.45,0.20*
1,1,0.40,0.45,-0.20*
1,1,0.40,-0.45,-0.20*
1,1,0.40,-0.45,0.20*
%
%ADD66ROUNDEDRECTD66*%
%ADD67R,0.89X1.27*%
G04:AMPARAMS|DCode=68|XSize=0.8mm|YSize=1mm|CornerRadius=0.2mm|HoleSize=0mm|Usage=FLASHONLY|Rotation=270.000|XOffset=0mm|YOffset=0mm|HoleType=Round|Shape=RoundedRectangle|*
%AMROUNDEDRECTD68*
21,1,0.80,0.60,0,0,270.0*
21,1,0.40,1.00,0,0,270.0*
1,1,0.40,-0.30,-0.20*
1,1,0.40,-0.30,0.20*
1,1,0.40,0.30,0.20*
1,1,0.40,0.30,-0.20*
%
%ADD68ROUNDEDRECTD68*%
G04:AMPARAMS|DCode=69|XSize=0.8mm|YSize=1mm|CornerRadius=0.2mm|HoleSize=0mm|Usage=FLASHONLY|Rotation=180.000|XOffset=0mm|YOffset=0mm|HoleType=Round|Shape=RoundedRectangle|*
%AMROUNDEDRECTD69*
21,1,0.80,0.60,0,0,180.0*
21,1,0.40,1.00,0,0,180.0*
1,1,0.40,-0.20,0.30*
1,1,0.40,0.20,0.30*
1,1,0.40,0.20,-0.30*
1,1,0.40,-0.20,-0.30*
%
%ADD69ROUNDEDRECTD69*%
%ADD70R,0.30X1.45*%
G04:AMPARAMS|DCode=71|XSize=0.3mm|YSize=1.45mm|CornerRadius=0.08mm|HoleSize=0mm|Usage=FLASHONLY|Rotation=0.000|XOffset=0mm|YOffset=0mm|HoleType=Round|Shape=RoundedRectangle|*
%AMROUNDEDRECTD71*
21,1,0.30,1.30,0,0,0.0*
21,1,0.15,1.45,0,0,0.0*
1,1,0.15,0.08,-0.65*
1,1,0.15,-0.08,-0.65*
1,1,0.15,-0.08,0.65*
1,1,0.15,0.08,0.65*
%
%ADD71ROUNDEDRECTD71*%
%ADD72R,0.35X1.60*%
%ADD73R,1.60X0.35*%
%ADD74O,0.35X1.60*%
%ADD75O,2.30X0.60*%
G04:AMPARAMS|DCode=76|XSize=2.54mm|YSize=0.91mm|CornerRadius=0mm|HoleSize=0mm|Usage=FLASHONLY|Rotation=90.000|XOffset=0mm|YOffset=0mm|HoleType=Round|Shape=Octagon|*
%AMOCTAGOND76*
4,1,8,0.23,1.27,-0.23,1.27,-0.46,1.04,-0.46,-1.04,-0.23,-1.27,0.23,-1.27,0.46,-1.04,0.46,1.04,0.23,1.27,0.0*
%
%ADD76OCTAGOND76*%

%ADD77R,2.40X3.00*%
%ADD78R,0.40X1.75*%
%ADD79C,1.00*%
%ADD80C,0.50*%
%ADD81C,1.00*%
%ADD82C,0.80*%
%ADD83C,0.40*%
%ADD84C,0.30*%
%ADD85C,0.22*%
%ADD86C,0.38*%
%ADD87R,1.50X1.50*%
%ADD88C,1.50*%
%ADD89C,2.00*%
%ADD90C,1.37*%
%ADD91R,1.37X1.37*%
%ADD92R,1.37X1.37*%
%ADD93C,1.52*%
%ADD94C,1.10*%
%ADD95C,1.20*%
%ADD96C,1.30*%
%ADD97C,0.60*%
%ADD98C,0.80*%
G36*
X018685Y006496D02*
Y006696D01*
X018885D01*
Y006496D01*
X018685D01*
D02*
G37*
G36*
X019245D02*
Y006696D01*
X019445D01*
Y006496D01*
X019245D01*
D02*
G37*
G36*
X019295Y006796D02*
D01*
D02*
G37*
G36*
X031920Y003858D02*
X031846D01*
X031846Y003858D01*
X031847Y003857D01*
X031847Y003857D01*
X031848Y003856D01*
X031849Y003855D01*
X031850Y003854D01*
X031851Y003852D01*
X031852Y003851D01*
X031853Y003849D01*
X031854Y003847D01*
X031855Y003845D01*
X031857Y003843D01*
X031858Y003840D01*
X031859Y003838D01*
X031860Y003835D01*
X031861Y003833D01*
X031843D01*
Y003833D01*
X031843Y003833D01*
X031843Y003833D01*
X031843Y003834D01*
X031842Y003835D01*
X031842Y003835D01*
X031842Y003836D01*
X031841Y003838D01*
X031840Y003840D01*
X031838Y003843D01*
X031836Y003846D01*
X031834Y003849D01*
X031834Y003849D01*
X031833Y003850D01*
X031833Y003850D01*
X031832Y003851D01*
X031832Y003851D01*
X031831Y003852D01*
X031830Y003853D01*
X031829Y003854D01*
X031826Y003856D01*
X031824Y003858D01*
X031821Y003860D01*
X031819Y003861D01*
X031817Y003862D01*
Y003878D01*
X031920D01*
Y003858D01*
D02*
G37*
G36*
X031895Y003799D02*
X031922Y003794D01*
Y003778D01*
X031895Y003784D01*
Y003768D01*
X031922Y003763D01*
Y003747D01*
X031895Y003752D01*
Y003743D01*
X031879D01*
Y003756D01*
X031858Y003760D01*
Y003743D01*
X031843D01*
Y003763D01*
X031816Y003768D01*
Y003784D01*
X031843Y003779D01*
Y003794D01*
X031816Y003799D01*
Y003815D01*
X031843Y003810D01*
Y003820D01*
X031858D01*
Y003807D01*
X031879Y003803D01*
Y003820D01*
X031895D01*
Y003799D01*
D02*
G37*
G36*
X031900Y003736D02*
X031901Y003736D01*
X031902Y003736D01*
X031905Y003735D01*
X031907Y003734D01*
X031908Y003734D01*
X031910Y003733D01*
X031911Y003732D01*
X031912Y003731D01*
X031914Y003730D01*
X031915Y003729D01*
X031915Y003728D01*
X031915Y003728D01*
X031915Y003728D01*
X031915Y003727D01*
X031916Y003726D01*
X031916Y003725D01*
X031917Y003724D01*
X031917Y003723D01*
X031918Y003722D01*
X031918Y003720D01*
X031919Y003718D01*
X031919Y003716D01*
X031920Y003714D01*
X031920Y003712D01*
X031920Y003709D01*
X031920Y003706D01*
Y003664D01*
X031846D01*
Y003684D01*
X031877D01*
Y003707D01*
X031877Y003708D01*
Y003709D01*
X031877Y003710D01*
X031877Y003713D01*
X031877Y003716D01*
X031878Y003719D01*
X031878Y003720D01*
X031878Y003721D01*
Y003722D01*
X031878Y003722D01*
X031879Y003722D01*
X031879Y003722D01*
X031879Y003724D01*
X031880Y003725D01*
X031881Y003727D01*
X031882Y003728D01*
X031884Y003730D01*
X031886Y003732D01*
X031886D01*
X031886Y003732D01*
X031886Y003732D01*
X031887Y003732D01*
X031888Y003733D01*
X031889Y003734D01*
X031891Y003735D01*
X031893Y003735D01*
X031896Y003736D01*
X031898Y003736D01*
X031899D01*
X031899D01*
X031899D01*
X031900Y003736D01*
D02*
G37*
G36*
X031920Y003625D02*
X031862D01*
Y003598D01*
X031895D01*
X031895D01*
X031896D01*
X031896D01*
X031897D01*
X031898Y003598D01*
X031899D01*
X031901Y003598D01*
X031902Y003598D01*
X031905Y003597D01*
X031908Y003597D01*
X031909Y003596D01*
X031911Y003596D01*
X031912Y003596D01*
X031913Y003595D01*
X031913Y003595D01*
X031914Y003594D01*
X031915Y003594D01*
X031916Y003593D01*
X031917Y003592D01*
X031918Y003591D01*
X031919Y003590D01*
X031920Y003588D01*
X031920Y003588D01*
X031920Y003588D01*
X031920Y003587D01*
X031920Y003586D01*
X031921Y003584D01*
X031921Y003582D01*
X031921Y003580D01*
X031921Y003577D01*
Y003576D01*
X031921Y003575D01*
Y003574D01*
X031921Y003572D01*
X031921Y003570D01*
X031920Y003567D01*
X031920Y003565D01*
X031906D01*
Y003566D01*
X031906Y003566D01*
Y003567D01*
X031906Y003568D01*
Y003570D01*
X031906Y003571D01*
Y003573D01*
X031906Y003574D01*
X031906Y003575D01*
X031905Y003576D01*
X031905Y003576D01*
X031904Y003577D01*
X031903Y003578D01*
X031903D01*
X031903Y003578D01*
X031902Y003578D01*
X031902Y003578D01*
X031901Y003578D01*
X031900Y003578D01*
X031900D01*
X031899Y003578D01*
X031897Y003578D01*
X031896Y003578D01*
X031894D01*
X031893Y003579D01*
X031891D01*
X031889D01*
X031846D01*
Y003644D01*
X031920D01*
Y003625D01*
D02*
G37*
G36*
X031917Y003534D02*
X031930Y003530D01*
X031930D01*
X031930Y003529D01*
X031931Y003529D01*
X031931Y003529D01*
X031932Y003529D01*
X031934Y003528D01*
X031935Y003527D01*
X031937Y003526D01*
X031938Y003526D01*
X031940Y003525D01*
X031940Y003525D01*
X031940Y003524D01*
X031941Y003524D01*
X031942Y003523D01*
X031943Y003522D01*
X031944Y003521D01*
X031945Y003520D01*
X031945Y003519D01*
X031946Y003519D01*
X031946Y003519D01*
X031946Y003518D01*
X031947Y003517D01*
X031947Y003516D01*
X031948Y003515D01*
X031948Y003513D01*
X031949Y003512D01*
Y003512D01*
X031949Y003511D01*
X031949Y003510D01*
X031949Y003509D01*
X031950Y003507D01*
X031950Y003506D01*
X031950Y003504D01*
X031950Y003502D01*
Y003501D01*
X031950Y003500D01*
Y003498D01*
X031950Y003497D01*
X031949Y003495D01*
X031949Y003493D01*
X031949Y003491D01*
X031933Y003489D01*
Y003489D01*
X031933Y003490D01*
X031934Y003491D01*
X031934Y003492D01*
X031934Y003493D01*
X031934Y003494D01*
X031934Y003497D01*
Y003498D01*
X031934Y003498D01*
X031934Y003500D01*
X031934Y003501D01*
X031933Y003503D01*
X031933Y003504D01*
X031932Y003506D01*
X031930Y003507D01*
X031930Y003507D01*
X031930Y003508D01*
X031929Y003508D01*
X031928Y003509D01*
X031926Y003510D01*
X031924Y003511D01*
X031922Y003512D01*
X031920Y003512D01*
X031846Y003484D01*
Y003505D01*
X031899Y003523D01*
X031846Y003540D01*
Y003561D01*
X031917Y003534D01*
D02*
G37*
G36*
X031939Y003464D02*
X031920D01*
Y003408D01*
X031939D01*
Y003392D01*
X031904D01*
Y003400D01*
X031904Y003400D01*
X031904Y003400D01*
X031903Y003400D01*
X031903Y003401D01*
X031902Y003401D01*
X031902Y003402D01*
X031901Y003402D01*
X031900Y003403D01*
X031898Y003404D01*
X031897Y003404D01*
X031896Y003405D01*
X031894Y003406D01*
X031892Y003406D01*
X031891Y003407D01*
X031889Y003408D01*
X031886Y003408D01*
X031886D01*
X031886Y003408D01*
X031885Y003409D01*
X031884Y003409D01*
X031883Y003409D01*
X031881Y003409D01*
X031879Y003410D01*
X031877Y003410D01*
X031874Y003410D01*
X031871Y003411D01*
X031868Y003411D01*
X031864Y003411D01*
X031860Y003412D01*
X031856Y003412D01*
X031851Y003412D01*
X031846Y003412D01*
Y003472D01*
X031904D01*
Y003480D01*
X031939D01*
Y003464D01*
D02*
G37*
G36*
X031884Y003387D02*
X031885D01*
X031887Y003387D01*
X031889Y003387D01*
X031890Y003386D01*
X031892Y003386D01*
X031895Y003385D01*
X031897Y003385D01*
X031899Y003384D01*
X031902Y003383D01*
X031904Y003381D01*
X031906Y003380D01*
X031909Y003378D01*
X031911Y003376D01*
X031911Y003376D01*
X031911Y003376D01*
X031912Y003375D01*
X031912Y003374D01*
X031913Y003373D01*
X031914Y003372D01*
X031915Y003371D01*
X031916Y003369D01*
X031917Y003367D01*
X031918Y003365D01*
X031919Y003363D01*
X031920Y003360D01*
X031921Y003358D01*
X031921Y003355D01*
X031922Y003352D01*
X031922Y003349D01*
Y003348D01*
X031922Y003347D01*
Y003346D01*
X031921Y003345D01*
X031921Y003344D01*
X031921Y003343D01*
X031921Y003340D01*
X031920Y003337D01*
X031919Y003333D01*
X031917Y003330D01*
X031917Y003330D01*
X031917Y003329D01*
X031917Y003329D01*
X031916Y003328D01*
X031916Y003327D01*
X031915Y003327D01*
X031914Y003324D01*
X031912Y003322D01*
X031909Y003320D01*
X031907Y003318D01*
X031904Y003316D01*
X031903D01*
X031903Y003315D01*
X031903Y003315D01*
X031902Y003315D01*
X031901Y003315D01*
X031900Y003314D01*
X031899Y003314D01*
X031898Y003313D01*
X031896Y003313D01*
X031894Y003312D01*
X031893Y003312D01*
X031891Y003312D01*
X031889Y003311D01*
X031886Y003311D01*
X031884Y003311D01*
X031882Y003311D01*
X031882D01*
X031881D01*
X031881D01*
X031880Y003311D01*
X031879D01*
X031878Y003311D01*
X031877Y003311D01*
X031876Y003311D01*
X031873Y003312D01*
X031870Y003313D01*
X031866Y003314D01*
X031865Y003315D01*
X031863Y003316D01*
X031863Y003316D01*
X031862Y003316D01*
X031862Y003316D01*
X031861Y003317D01*
X031861Y003317D01*
X031860Y003318D01*
X031858Y003319D01*
X031855Y003321D01*
X031853Y003323D01*
X031851Y003326D01*
X031849Y003329D01*
X031849Y003329D01*
X031849Y003330D01*
X031848Y003330D01*
X031848Y003331D01*
X031848Y003332D01*
X031847Y003333D01*
X031847Y003334D01*
X031846Y003335D01*
X031846Y003336D01*
X031846Y003338D01*
X031845Y003341D01*
X031844Y003345D01*
X031844Y003347D01*
Y003350D01*
X031844Y003351D01*
X031844Y003352D01*
X031844Y003353D01*
X031845Y003355D01*
X031845Y003357D01*
X031845Y003359D01*
X031846Y003361D01*
X031847Y003363D01*
X031848Y003365D01*
X031849Y003368D01*
X031850Y003370D01*
X031851Y003372D01*
X031853Y003374D01*
X031855Y003376D01*
X031855Y003377D01*
X031856Y003377D01*
X031856Y003377D01*
X031857Y003378D01*
X031858Y003379D01*
X031859Y003380D01*
X031861Y003381D01*
X031863Y003382D01*
X031864Y003383D01*
X031867Y003384D01*
X031869Y003385D01*
X031871Y003386D01*
X031874Y003386D01*
X031877Y003387D01*
X031880Y003387D01*
X031883Y003387D01*
X031883D01*
X031883D01*
X031884Y003387D01*
D02*
G37*
G36*
X031920Y003276D02*
X031839Y003276D01*
X031920Y003255D01*
Y003235D01*
X031839Y003215D01*
X031920D01*
Y003196D01*
X031818D01*
Y003227D01*
X031887Y003246D01*
X031818Y003264D01*
Y003295D01*
X031920D01*
Y003276D01*
D02*
G37*
G36*
X031895Y003112D02*
X031896Y003111D01*
X031896Y003111D01*
X031897Y003111D01*
X031898Y003111D01*
X031899Y003110D01*
X031900Y003109D01*
X031901Y003109D01*
X031903Y003108D01*
X031906Y003106D01*
X031909Y003104D01*
X031912Y003102D01*
X031913Y003101D01*
X031915Y003100D01*
X031915Y003100D01*
X031915Y003100D01*
X031915Y003099D01*
X031916Y003099D01*
X031916Y003098D01*
X031917Y003098D01*
X031917Y003097D01*
X031918Y003096D01*
X031919Y003094D01*
X031920Y003091D01*
X031921Y003090D01*
X031921Y003088D01*
X031921Y003087D01*
X031921Y003085D01*
Y003083D01*
X031921Y003082D01*
Y003080D01*
X031921Y003077D01*
X031921Y003075D01*
X031920Y003073D01*
X031920Y003071D01*
X031905D01*
Y003071D01*
X031905Y003072D01*
Y003074D01*
X031905Y003076D01*
Y003080D01*
X031905Y003081D01*
X031905Y003082D01*
X031904Y003084D01*
X031904Y003086D01*
X031903Y003087D01*
X031902Y003089D01*
X031902Y003089D01*
X031902Y003089D01*
X031901Y003090D01*
X031900Y003091D01*
X031899Y003091D01*
X031898Y003092D01*
X031897Y003092D01*
X031896Y003093D01*
X031895Y003093D01*
X031894Y003094D01*
X031893Y003094D01*
X031891Y003095D01*
X031818Y003057D01*
Y003080D01*
X031871Y003104D01*
X031818Y003125D01*
Y003146D01*
X031895Y003112D01*
D02*
G37*
G36*
X031920Y003032D02*
X031894Y003019D01*
X031893Y003019D01*
X031893Y003019D01*
X031892Y003019D01*
X031891Y003018D01*
X031891Y003018D01*
X031891Y003018D01*
X031891Y003018D01*
X031890Y003017D01*
X031889Y003017D01*
X031888Y003016D01*
X031887Y003016D01*
X031886D01*
X031886Y003015D01*
X031886Y003015D01*
X031885Y003015D01*
X031884Y003014D01*
X031883Y003013D01*
X031881Y003012D01*
X031879Y003011D01*
X031878Y003010D01*
X031878Y003009D01*
X031877Y003009D01*
X031877Y003009D01*
X031877Y003009D01*
X031877Y003008D01*
X031876Y003007D01*
X031876Y003006D01*
X031875Y003005D01*
X031875Y003003D01*
X031875Y003001D01*
X031920D01*
Y002981D01*
X031818D01*
Y003001D01*
X031861D01*
Y003002D01*
X031861Y003002D01*
Y003002D01*
X031861Y003004D01*
X031860Y003005D01*
X031860Y003007D01*
X031859Y003008D01*
X031859Y003009D01*
X031858Y003011D01*
X031858Y003011D01*
X031857Y003011D01*
X031857Y003011D01*
X031856Y003012D01*
X031855Y003012D01*
X031855Y003012D01*
X031854Y003013D01*
X031852Y003013D01*
X031851Y003014D01*
X031850Y003015D01*
X031848Y003016D01*
X031846Y003016D01*
X031844Y003017D01*
X031842Y003018D01*
X031841Y003018D01*
X031841Y003018D01*
X031840Y003019D01*
X031839Y003019D01*
X031838Y003020D01*
X031836Y003020D01*
X031835Y003021D01*
X031833Y003022D01*
X031829Y003024D01*
X031828Y003025D01*
X031826Y003026D01*
X031824Y003027D01*
X031823Y003029D01*
X031822Y003030D01*
X031821Y003031D01*
Y003031D01*
X031821Y003031D01*
X031821Y003032D01*
X031820Y003032D01*
X031820Y003033D01*
X031820Y003034D01*
X031819Y003035D01*
X031819Y003036D01*
X031819Y003037D01*
X031818Y003039D01*
X031818Y003041D01*
X031818Y003043D01*
X031817Y003045D01*
X031817Y003047D01*
X031817Y003049D01*
Y003053D01*
X031817Y003054D01*
Y003055D01*
X031832D01*
Y003051D01*
X031832Y003050D01*
X031832Y003048D01*
X031832Y003047D01*
X031833Y003045D01*
X031833Y003044D01*
X031834Y003043D01*
X031834Y003043D01*
X031834Y003042D01*
X031834Y003042D01*
X031835Y003041D01*
X031836Y003040D01*
X031836Y003039D01*
X031837Y003039D01*
X031838Y003038D01*
X031839Y003038D01*
X031839Y003038D01*
X031840Y003037D01*
X031841Y003037D01*
X031841Y003037D01*
X031842Y003036D01*
X031843Y003036D01*
X031844Y003035D01*
X031845Y003035D01*
X031847Y003034D01*
X031848Y003034D01*
X031850Y003033D01*
X031852Y003033D01*
X031852D01*
X031852Y003032D01*
X031853Y003032D01*
X031854Y003032D01*
X031855Y003031D01*
X031856Y003031D01*
X031858Y003030D01*
X031859Y003029D01*
X031861Y003028D01*
X031861Y003028D01*
X031861Y003028D01*
X031862Y003027D01*
X031863Y003027D01*
X031864Y003026D01*
X031865Y003024D01*
X031866Y003023D01*
X031867Y003021D01*
Y003021D01*
X031867Y003021D01*
X031867Y003021D01*
X031868Y003022D01*
X031868Y003023D01*
X031869Y003025D01*
X031870Y003026D01*
X031871Y003028D01*
X031873Y003030D01*
X031875Y003032D01*
X031875Y003032D01*
X031875Y003032D01*
X031876Y003032D01*
X031876Y003033D01*
X031877Y003033D01*
X031878Y003034D01*
X031879Y003034D01*
X031880Y003035D01*
X031881Y003036D01*
X031882Y003036D01*
X031883Y003037D01*
X031885Y003038D01*
X031886Y003039D01*
X031888Y003040D01*
X031890Y003041D01*
X031892Y003042D01*
X031920Y003056D01*
Y003032D01*
D02*
G37*
G36*
Y002940D02*
X031839Y002940D01*
X031920Y002920D01*
Y002900D01*
X031839Y002880D01*
X031920D01*
Y002861D01*
X031818D01*
Y002892D01*
X031887Y002910D01*
X031818Y002928D01*
Y002959D01*
X031920D01*
Y002940D01*
D02*
G37*
G36*
X032026Y002864D02*
X032027D01*
X032028D01*
X032030Y002864D01*
X032033Y002864D01*
X032036Y002863D01*
X032039Y002863D01*
X032042Y002862D01*
X032046Y002862D01*
X032049Y002861D01*
X032053Y002860D01*
X032056Y002859D01*
X032059Y002857D01*
X032062Y002856D01*
X032065Y002854D01*
X032065Y002854D01*
X032065Y002854D01*
X032066Y002853D01*
X032066Y002852D01*
X032067Y002852D01*
X032068Y002851D01*
X032069Y002849D01*
X032070Y002848D01*
X032071Y002846D01*
X032072Y002845D01*
X032073Y002843D01*
X032074Y002841D01*
X032074Y002838D01*
X032075Y002836D01*
X032075Y002833D01*
X032075Y002831D01*
Y002830D01*
X032075Y002829D01*
X032075Y002828D01*
X032075Y002827D01*
X032075Y002826D01*
X032074Y002824D01*
X032074Y002822D01*
X032073Y002820D01*
X032072Y002818D01*
X032071Y002816D01*
X032070Y002814D01*
X032069Y002812D01*
X032068Y002810D01*
X032066Y002809D01*
X032064Y002807D01*
X032064Y002807D01*
X032063Y002806D01*
X032063Y002806D01*
X032062Y002805D01*
X032060Y002805D01*
X032059Y002804D01*
X032057Y002803D01*
X032054Y002802D01*
X032052Y002801D01*
X032049Y002801D01*
X032045Y002800D01*
X032042Y002799D01*
X032037Y002799D01*
X032033Y002798D01*
X032028Y002798D01*
X032023Y002798D01*
X032023D01*
X032022D01*
X032022D01*
X032021D01*
X032021D01*
X032020Y002798D01*
X032019D01*
X032018D01*
X032016Y002798D01*
X032013Y002798D01*
X032010Y002799D01*
X032007Y002799D01*
X032003Y002799D01*
X032000Y002800D01*
X031996Y002801D01*
X031993Y002802D01*
X031990Y002803D01*
X031987Y002804D01*
X031984Y002806D01*
X031981Y002808D01*
X031981Y002808D01*
X031981Y002808D01*
X031980Y002809D01*
X031979Y002809D01*
X031979Y002810D01*
X031978Y002811D01*
X031977Y002812D01*
X031976Y002814D01*
X031975Y002815D01*
X031974Y002817D01*
X031973Y002819D01*
X031972Y002821D01*
X031972Y002823D01*
X031971Y002826D01*
X031971Y002828D01*
X031971Y002831D01*
Y002832D01*
X031971Y002832D01*
Y002833D01*
X031971Y002834D01*
X031971Y002836D01*
X031971Y002838D01*
X031972Y002839D01*
X031972Y002841D01*
X031973Y002843D01*
X031974Y002845D01*
X031975Y002847D01*
X031976Y002849D01*
X031978Y002851D01*
X031979Y002852D01*
X031981Y002854D01*
X031981Y002854D01*
X031982Y002855D01*
X031983Y002855D01*
X031984Y002856D01*
X031985Y002856D01*
X031987Y002857D01*
X031989Y002858D01*
X031991Y002859D01*
X031994Y002860D01*
X031997Y002861D01*
X032000Y002862D01*
X032004Y002863D01*
X032008Y002863D01*
X032013Y002864D01*
X032018Y002864D01*
X032023Y002864D01*
X032023D01*
X032023D01*
X032024D01*
X032024D01*
X032025D01*
X032026Y002864D01*
D02*
G37*
G36*
X032073Y002716D02*
X032073D01*
X032073Y002716D01*
X032072D01*
X032072Y002716D01*
X032071Y002716D01*
X032070Y002716D01*
X032068Y002717D01*
X032067Y002717D01*
X032064Y002718D01*
X032061Y002719D01*
X032057Y002720D01*
X032054Y002722D01*
X032054Y002722D01*
X032053Y002723D01*
X032053Y002723D01*
X032052Y002723D01*
X032051Y002724D01*
X032050Y002725D01*
X032049Y002726D01*
X032047Y002727D01*
X032046Y002728D01*
X032044Y002730D01*
X032042Y002732D01*
X032040Y002734D01*
X032037Y002736D01*
X032035Y002739D01*
X032032Y002741D01*
X032029Y002744D01*
X032029Y002744D01*
X032029Y002745D01*
X032028Y002746D01*
X032027Y002746D01*
X032026Y002748D01*
X032025Y002749D01*
X032024Y002750D01*
X032022Y002751D01*
X032020Y002754D01*
X032017Y002757D01*
X032016Y002758D01*
X032014Y002759D01*
X032013Y002760D01*
X032012Y002761D01*
X032012D01*
X032012Y002761D01*
X032012Y002761D01*
X032011Y002761D01*
X032010Y002762D01*
X032009Y002763D01*
X032007Y002763D01*
X032005Y002764D01*
X032003Y002765D01*
X032000Y002765D01*
X032000D01*
X032000D01*
X032000D01*
X031999D01*
X031998Y002765D01*
X031997Y002764D01*
X031995Y002764D01*
X031994Y002763D01*
X031992Y002762D01*
X031990Y002761D01*
X031990Y002761D01*
X031990Y002761D01*
X031989Y002760D01*
X031989Y002759D01*
X031988Y002757D01*
X031987Y002756D01*
X031987Y002754D01*
X031987Y002751D01*
Y002750D01*
X031987Y002749D01*
X031987Y002748D01*
X031988Y002746D01*
X031988Y002745D01*
X031989Y002743D01*
X031991Y002742D01*
X031991Y002741D01*
X031991Y002741D01*
X031992Y002740D01*
X031994Y002740D01*
X031995Y002739D01*
X031997Y002738D01*
X032000Y002738D01*
X032001Y002738D01*
X032003Y002737D01*
X032001Y002718D01*
X032001D01*
X032000Y002718D01*
X031999Y002718D01*
X031998Y002718D01*
X031997Y002719D01*
X031995Y002719D01*
X031994Y002719D01*
X031992Y002720D01*
X031990Y002721D01*
X031988Y002721D01*
X031986Y002722D01*
X031984Y002723D01*
X031982Y002724D01*
X031981Y002726D01*
X031979Y002727D01*
X031978Y002729D01*
X031978Y002729D01*
X031977Y002729D01*
X031977Y002730D01*
X031977Y002730D01*
X031976Y002731D01*
X031975Y002732D01*
X031975Y002734D01*
X031974Y002735D01*
X031973Y002737D01*
X031973Y002738D01*
X031972Y002740D01*
X031972Y002742D01*
X031971Y002745D01*
X031971Y002747D01*
X031971Y002749D01*
X031971Y002752D01*
Y002753D01*
X031971Y002754D01*
X031971Y002756D01*
X031971Y002757D01*
X031971Y002759D01*
X031972Y002761D01*
X031972Y002762D01*
X031973Y002764D01*
X031973Y002766D01*
X031974Y002768D01*
X031975Y002770D01*
X031976Y002772D01*
X031977Y002774D01*
X031979Y002776D01*
X031979Y002776D01*
X031979Y002776D01*
X031980Y002776D01*
X031980Y002777D01*
X031981Y002778D01*
X031982Y002778D01*
X031983Y002779D01*
X031984Y002780D01*
X031986Y002781D01*
X031987Y002782D01*
X031989Y002782D01*
X031991Y002783D01*
X031993Y002784D01*
X031995Y002784D01*
X031997Y002784D01*
X031999Y002784D01*
X031999D01*
X031999D01*
X032000D01*
X032000D01*
X032001Y002784D01*
X032002D01*
X032003Y002784D01*
X032005Y002784D01*
X032008Y002783D01*
X032010Y002783D01*
X032012Y002782D01*
X032012D01*
X032012Y002782D01*
X032013Y002782D01*
X032013Y002781D01*
X032014Y002781D01*
X032015Y002781D01*
X032016Y002780D01*
X032018Y002779D01*
X032020Y002778D01*
X032023Y002776D01*
X032025Y002774D01*
X032026Y002774D01*
X032026Y002773D01*
X032027Y002772D01*
X032029Y002771D01*
X032030Y002770D01*
X032031Y002769D01*
X032032Y002768D01*
X032033Y002767D01*
X032034Y002766D01*
X032035Y002764D01*
X032037Y002763D01*
X032038Y002761D01*
X032039Y002761D01*
X032039Y002761D01*
X032039Y002760D01*
X032040Y002760D01*
X032040Y002759D01*
X032041Y002758D01*
X032043Y002756D01*
X032045Y002754D01*
X032047Y002752D01*
X032048Y002751D01*
X032048Y002751D01*
X032049Y002750D01*
X032050Y002749D01*
X032050Y002749D01*
X032050Y002749D01*
X032051Y002748D01*
X032051Y002748D01*
X032052Y002747D01*
X032053Y002747D01*
X032055Y002745D01*
Y002784D01*
X032073D01*
Y002716D01*
D02*
G37*
G36*
X031920Y002788D02*
X031897Y002779D01*
Y002738D01*
X031920Y002729D01*
Y002708D01*
X031818Y002747D01*
Y002769D01*
X031920Y002810D01*
Y002788D01*
D02*
G37*
G36*
X032026Y002705D02*
X032027D01*
X032028D01*
X032030Y002705D01*
X032033Y002704D01*
X032036Y002704D01*
X032039Y002704D01*
X032042Y002703D01*
X032046Y002703D01*
X032049Y002702D01*
X032053Y002701D01*
X032056Y002700D01*
X032059Y002698D01*
X032062Y002697D01*
X032065Y002695D01*
X032065Y002695D01*
X032065Y002695D01*
X032066Y002694D01*
X032066Y002693D01*
X032067Y002693D01*
X032068Y002691D01*
X032069Y002690D01*
X032070Y002689D01*
X032071Y002687D01*
X032072Y002686D01*
X032073Y002684D01*
X032074Y002682D01*
X032074Y002679D01*
X032075Y002677D01*
X032075Y002674D01*
X032075Y002672D01*
Y002671D01*
X032075Y002670D01*
X032075Y002669D01*
X032075Y002668D01*
X032075Y002666D01*
X032074Y002665D01*
X032074Y002663D01*
X032073Y002661D01*
X032072Y002659D01*
X032071Y002657D01*
X032070Y002655D01*
X032069Y002653D01*
X032068Y002651D01*
X032066Y002649D01*
X032064Y002648D01*
X032064Y002647D01*
X032063Y002647D01*
X032063Y002647D01*
X032062Y002646D01*
X032060Y002645D01*
X032059Y002645D01*
X032057Y002644D01*
X032054Y002643D01*
X032052Y002642D01*
X032049Y002641D01*
X032045Y002641D01*
X032042Y002640D01*
X032037Y002639D01*
X032033Y002639D01*
X032028Y002639D01*
X032023Y002638D01*
X032023D01*
X032022D01*
X032022D01*
X032021D01*
X032021D01*
X032020Y002639D01*
X032019D01*
X032018D01*
X032016Y002639D01*
X032013Y002639D01*
X032010Y002639D01*
X032007Y002640D01*
X032003Y002640D01*
X032000Y002641D01*
X031996Y002642D01*
X031993Y002643D01*
X031990Y002644D01*
X031987Y002645D01*
X031984Y002647D01*
X031981Y002648D01*
X031981Y002649D01*
X031981Y002649D01*
X031980Y002649D01*
X031979Y002650D01*
X031979Y002651D01*
X031978Y002652D01*
X031977Y002653D01*
X031976Y002654D01*
X031975Y002656D01*
X031974Y002658D01*
X031973Y002660D01*
X031972Y002662D01*
X031972Y002664D01*
X031971Y002666D01*
X031971Y002669D01*
X031971Y002672D01*
Y002672D01*
X031971Y002673D01*
Y002674D01*
X031971Y002675D01*
X031971Y002677D01*
X031971Y002678D01*
X031972Y002680D01*
X031972Y002682D01*
X031973Y002684D01*
X031974Y002686D01*
X031975Y002688D01*
X031976Y002690D01*
X031978Y002692D01*
X031979Y002693D01*
X031981Y002695D01*
X031981Y002695D01*
X031982Y002695D01*
X031983Y002696D01*
X031984Y002697D01*
X031985Y002697D01*
X031987Y002698D01*
X031989Y002699D01*
X031991Y002700D01*
X031994Y002701D01*
X031997Y002702D01*
X032000Y002703D01*
X032004Y002703D01*
X032008Y002704D01*
X032013Y002705D01*
X032018Y002705D01*
X032023Y002705D01*
X032023D01*
X032023D01*
X032024D01*
X032024D01*
X032025D01*
X032026Y002705D01*
D02*
G37*
G36*
X031920Y002676D02*
X031835D01*
Y002636D01*
X031920D01*
Y002615D01*
X031818D01*
Y002697D01*
X031920D01*
Y002676D01*
D02*
G37*
G36*
X032073Y002556D02*
X032073D01*
X032073Y002557D01*
X032072D01*
X032072Y002557D01*
X032071Y002557D01*
X032070Y002557D01*
X032068Y002557D01*
X032067Y002558D01*
X032064Y002559D01*
X032061Y002560D01*
X032057Y002561D01*
X032054Y002563D01*
X032054Y002563D01*
X032053Y002563D01*
X032053Y002564D01*
X032052Y002564D01*
X032051Y002565D01*
X032050Y002566D01*
X032049Y002567D01*
X032047Y002568D01*
X032046Y002569D01*
X032044Y002571D01*
X032042Y002573D01*
X032040Y002575D01*
X032037Y002577D01*
X032035Y002580D01*
X032032Y002582D01*
X032029Y002585D01*
X032029Y002585D01*
X032029Y002586D01*
X032028Y002586D01*
X032027Y002587D01*
X032026Y002588D01*
X032025Y002590D01*
X032024Y002591D01*
X032022Y002592D01*
X032020Y002595D01*
X032017Y002598D01*
X032016Y002599D01*
X032014Y002600D01*
X032013Y002601D01*
X032012Y002602D01*
X032012D01*
X032012Y002602D01*
X032012Y002602D01*
X032011Y002602D01*
X032010Y002603D01*
X032009Y002604D01*
X032007Y002604D01*
X032005Y002605D01*
X032003Y002605D01*
X032000Y002606D01*
X032000D01*
X032000D01*
X032000D01*
X031999D01*
X031998Y002605D01*
X031997Y002605D01*
X031995Y002605D01*
X031994Y002604D01*
X031992Y002603D01*
X031990Y002602D01*
X031990Y002602D01*
X031990Y002601D01*
X031989Y002601D01*
X031989Y002600D01*
X031988Y002598D01*
X031987Y002596D01*
X031987Y002595D01*
X031987Y002592D01*
Y002591D01*
X031987Y002590D01*
X031987Y002589D01*
X031988Y002587D01*
X031988Y002586D01*
X031989Y002584D01*
X031991Y002582D01*
X031991Y002582D01*
X031991Y002582D01*
X031992Y002581D01*
X031994Y002581D01*
X031995Y002580D01*
X031997Y002579D01*
X032000Y002579D01*
X032001Y002578D01*
X032003Y002578D01*
X032001Y002559D01*
X032001D01*
X032000Y002559D01*
X031999Y002559D01*
X031998Y002559D01*
X031997Y002559D01*
X031995Y002560D01*
X031994Y002560D01*
X031992Y002561D01*
X031990Y002561D01*
X031988Y002562D01*
X031986Y002563D01*
X031984Y002564D01*
X031982Y002565D01*
X031981Y002567D01*
X031979Y002568D01*
X031978Y002570D01*
X031978Y002570D01*
X031977Y002570D01*
X031977Y002571D01*
X031977Y002571D01*
X031976Y002572D01*
X031975Y002573D01*
X031975Y002575D01*
X031974Y002576D01*
X031973Y002578D01*
X031973Y002579D01*
X031972Y002581D01*
X031972Y002583D01*
X031971Y002585D01*
X031971Y002588D01*
X031971Y002590D01*
X031971Y002593D01*
Y002594D01*
X031971Y002595D01*
X031971Y002597D01*
X031971Y002598D01*
X031971Y002600D01*
X031972Y002601D01*
X031972Y002603D01*
X031973Y002605D01*
X031973Y002607D01*
X031974Y002609D01*
X031975Y002611D01*
X031976Y002613D01*
X031977Y002615D01*
X031979Y002616D01*
X031979Y002617D01*
X031979Y002617D01*
X031980Y002617D01*
X031980Y002618D01*
X031981Y002618D01*
X031982Y002619D01*
X031983Y002620D01*
X031984Y002621D01*
X031986Y002622D01*
X031987Y002622D01*
X031989Y002623D01*
X031991Y002624D01*
X031993Y002624D01*
X031995Y002625D01*
X031997Y002625D01*
X031999Y002625D01*
X031999D01*
X031999D01*
X032000D01*
X032000D01*
X032001Y002625D01*
X032002D01*
X032003Y002625D01*
X032005Y002625D01*
X032008Y002624D01*
X032010Y002624D01*
X032012Y002623D01*
X032012D01*
X032012Y002623D01*
X032013Y002622D01*
X032013Y002622D01*
X032014Y002622D01*
X032015Y002622D01*
X032016Y002621D01*
X032018Y002620D01*
X032020Y002618D01*
X032023Y002617D01*
X032025Y002615D01*
X032026Y002615D01*
X032026Y002614D01*
X032027Y002613D01*
X032029Y002612D01*
X032030Y002611D01*
X032031Y002610D01*
X032032Y002609D01*
X032033Y002608D01*
X032034Y002607D01*
X032035Y002605D01*
X032037Y002604D01*
X032038Y002602D01*
X032039Y002602D01*
X032039Y002602D01*
X032039Y002601D01*
X032040Y002601D01*
X032040Y002600D01*
X032041Y002599D01*
X032043Y002597D01*
X032045Y002595D01*
X032047Y002593D01*
X032048Y002592D01*
X032048Y002591D01*
X032049Y002591D01*
X032050Y002590D01*
X032050Y002590D01*
X032050Y002590D01*
X032051Y002589D01*
X032051Y002589D01*
X032052Y002588D01*
X032053Y002588D01*
X032055Y002586D01*
Y002625D01*
X032073D01*
Y002556D01*
D02*
G37*
G36*
X031920Y002579D02*
X031894Y002567D01*
X031893Y002567D01*
X031893Y002567D01*
X031892Y002566D01*
X031891Y002566D01*
X031891Y002566D01*
X031891Y002565D01*
X031891Y002565D01*
X031890Y002565D01*
X031889Y002564D01*
X031888Y002564D01*
X031887Y002563D01*
X031886D01*
X031886Y002563D01*
X031886Y002563D01*
X031885Y002562D01*
X031884Y002562D01*
X031883Y002561D01*
X031881Y002560D01*
X031879Y002559D01*
X031878Y002558D01*
X031878Y002557D01*
X031877Y002557D01*
X031877Y002556D01*
X031877Y002556D01*
X031877Y002555D01*
X031876Y002555D01*
X031876Y002554D01*
X031875Y002552D01*
X031875Y002551D01*
X031875Y002549D01*
X031920D01*
Y002528D01*
X031818D01*
Y002549D01*
X031861D01*
Y002549D01*
X031861Y002549D01*
Y002550D01*
X031861Y002551D01*
X031860Y002553D01*
X031860Y002554D01*
X031859Y002556D01*
X031859Y002557D01*
X031858Y002558D01*
X031858Y002558D01*
X031857Y002559D01*
X031857Y002559D01*
X031856Y002559D01*
X031855Y002560D01*
X031855Y002560D01*
X031854Y002560D01*
X031852Y002561D01*
X031851Y002562D01*
X031850Y002562D01*
X031848Y002563D01*
X031846Y002564D01*
X031844Y002565D01*
X031842Y002566D01*
X031841Y002566D01*
X031841Y002566D01*
X031840Y002566D01*
X031839Y002567D01*
X031838Y002567D01*
X031836Y002568D01*
X031835Y002569D01*
X031833Y002570D01*
X031829Y002572D01*
X031828Y002573D01*
X031826Y002574D01*
X031824Y002575D01*
X031823Y002576D01*
X031822Y002577D01*
X031821Y002579D01*
Y002579D01*
X031821Y002579D01*
X031821Y002579D01*
X031820Y002580D01*
X031820Y002581D01*
X031820Y002581D01*
X031819Y002582D01*
X031819Y002584D01*
X031819Y002585D01*
X031818Y002587D01*
X031818Y002588D01*
X031818Y002590D01*
X031817Y002592D01*
X031817Y002594D01*
X031817Y002597D01*
Y002601D01*
X031817Y002602D01*
Y002603D01*
X031832D01*
Y002599D01*
X031832Y002597D01*
X031832Y002596D01*
X031832Y002594D01*
X031833Y002593D01*
X031833Y002591D01*
X031834Y002590D01*
X031834Y002590D01*
X031834Y002590D01*
X031834Y002589D01*
X031835Y002589D01*
X031836Y002588D01*
X031836Y002587D01*
X031837Y002586D01*
X031838Y002585D01*
X031839Y002585D01*
X031839Y002585D01*
X031840Y002585D01*
X031841Y002584D01*
X031841Y002584D01*
X031842Y002584D01*
X031843Y002583D01*
X031844Y002583D01*
X031845Y002582D01*
X031847Y002582D01*
X031848Y002581D01*
X031850Y002581D01*
X031852Y002580D01*
X031852D01*
X031852Y002580D01*
X031853Y002580D01*
X031854Y002579D01*
X031855Y002579D01*
X031856Y002578D01*
X031858Y002578D01*
X031859Y002577D01*
X031861Y002576D01*
X031861Y002576D01*
X031861Y002576D01*
X031862Y002575D01*
X031863Y002574D01*
X031864Y002573D01*
X031865Y002572D01*
X031866Y002570D01*
X031867Y002568D01*
Y002568D01*
X031867Y002568D01*
X031867Y002569D01*
X031868Y002569D01*
X031868Y002571D01*
X031869Y002572D01*
X031870Y002574D01*
X031871Y002576D01*
X031873Y002578D01*
X031875Y002580D01*
X031875Y002580D01*
X031875Y002580D01*
X031876Y002580D01*
X031876Y002580D01*
X031877Y002581D01*
X031878Y002581D01*
X031879Y002582D01*
X031880Y002583D01*
X031881Y002583D01*
X031882Y002584D01*
X031883Y002585D01*
X031885Y002586D01*
X031886Y002587D01*
X031888Y002587D01*
X031890Y002588D01*
X031892Y002589D01*
X031920Y002604D01*
Y002579D01*
D02*
G37*
G36*
X032073Y002523D02*
X032054D01*
Y002543D01*
X032073D01*
Y002523D01*
D02*
G37*
G36*
Y002470D02*
X031999D01*
X032000Y002470D01*
X032000Y002470D01*
X032000Y002469D01*
X032001Y002468D01*
X032002Y002467D01*
X032003Y002466D01*
X032004Y002465D01*
X032005Y002463D01*
X032006Y002461D01*
X032008Y002459D01*
X032009Y002457D01*
X032010Y002455D01*
X032011Y002453D01*
X032012Y002450D01*
X032013Y002448D01*
X032014Y002445D01*
X031997D01*
Y002445D01*
X031996Y002445D01*
X031996Y002446D01*
X031996Y002446D01*
X031996Y002447D01*
X031995Y002448D01*
X031995Y002449D01*
X031994Y002450D01*
X031993Y002452D01*
X031992Y002455D01*
X031990Y002458D01*
X031987Y002462D01*
X031987Y002462D01*
X031987Y002462D01*
X031986Y002462D01*
X031986Y002463D01*
X031985Y002464D01*
X031984Y002465D01*
X031983Y002465D01*
X031982Y002466D01*
X031980Y002469D01*
X031977Y002471D01*
X031974Y002472D01*
X031972Y002473D01*
X031971Y002474D01*
Y002490D01*
X032073D01*
Y002470D01*
D02*
G37*
G36*
X031920Y002448D02*
X031853D01*
X031920Y002406D01*
Y002386D01*
X031818D01*
Y002405D01*
X031886D01*
X031818Y002446D01*
Y002467D01*
X031920D01*
Y002448D01*
D02*
G37*
G36*
X032073Y002391D02*
X031999D01*
X032000Y002391D01*
X032000Y002390D01*
X032000Y002390D01*
X032001Y002389D01*
X032002Y002388D01*
X032003Y002386D01*
X032004Y002385D01*
X032005Y002383D01*
X032006Y002382D01*
X032008Y002380D01*
X032009Y002378D01*
X032010Y002375D01*
X032011Y002373D01*
X032012Y002371D01*
X032013Y002368D01*
X032014Y002365D01*
X031997D01*
Y002365D01*
X031996Y002366D01*
X031996Y002366D01*
X031996Y002367D01*
X031996Y002367D01*
X031995Y002368D01*
X031995Y002369D01*
X031994Y002370D01*
X031993Y002373D01*
X031992Y002376D01*
X031990Y002379D01*
X031987Y002382D01*
X031987Y002382D01*
X031987Y002382D01*
X031986Y002383D01*
X031986Y002383D01*
X031985Y002384D01*
X031984Y002385D01*
X031983Y002386D01*
X031982Y002387D01*
X031980Y002389D01*
X031977Y002391D01*
X031974Y002393D01*
X031972Y002394D01*
X031971Y002394D01*
Y002410D01*
X032073D01*
Y002391D01*
D02*
G37*
G36*
Y002324D02*
X032054D01*
Y002344D01*
X032073D01*
Y002324D01*
D02*
G37*
G36*
X031920Y002352D02*
X031897Y002343D01*
Y002302D01*
X031920Y002293D01*
Y002272D01*
X031818Y002311D01*
Y002333D01*
X031920Y002374D01*
Y002352D01*
D02*
G37*
G36*
X032042Y002309D02*
X032043D01*
X032044Y002309D01*
X032046Y002309D01*
X032048Y002308D01*
X032050Y002308D01*
X032052Y002307D01*
X032054Y002307D01*
X032056Y002306D01*
X032058Y002305D01*
X032060Y002304D01*
X032062Y002303D01*
X032064Y002301D01*
X032066Y002300D01*
X032066Y002300D01*
X032066Y002299D01*
X032067Y002299D01*
X032067Y002298D01*
X032068Y002297D01*
X032069Y002296D01*
X032070Y002295D01*
X032070Y002293D01*
X032071Y002292D01*
X032072Y002290D01*
X032073Y002288D01*
X032074Y002286D01*
X032074Y002284D01*
X032075Y002281D01*
X032075Y002279D01*
X032075Y002276D01*
Y002276D01*
X032075Y002275D01*
X032075Y002274D01*
X032075Y002272D01*
X032075Y002271D01*
X032074Y002269D01*
X032074Y002267D01*
X032073Y002265D01*
X032072Y002263D01*
X032071Y002261D01*
X032070Y002259D01*
X032069Y002257D01*
X032067Y002255D01*
X032065Y002253D01*
X032063Y002251D01*
X032063Y002251D01*
X032063Y002250D01*
X032062Y002250D01*
X032061Y002249D01*
X032060Y002248D01*
X032058Y002248D01*
X032056Y002247D01*
X032054Y002246D01*
X032051Y002245D01*
X032048Y002244D01*
X032045Y002243D01*
X032041Y002242D01*
X032038Y002242D01*
X032033Y002241D01*
X032029Y002241D01*
X032024Y002241D01*
X032024D01*
X032023D01*
X032023D01*
X032022D01*
X032022D01*
X032021Y002241D01*
X032020D01*
X032019D01*
X032017Y002241D01*
X032014Y002241D01*
X032011Y002242D01*
X032008Y002242D01*
X032005Y002243D01*
X032001Y002243D01*
X031998Y002244D01*
X031995Y002245D01*
X031991Y002246D01*
X031988Y002248D01*
X031986Y002249D01*
X031983Y002251D01*
X031983Y002251D01*
X031983Y002252D01*
X031982Y002252D01*
X031981Y002253D01*
X031980Y002254D01*
X031979Y002255D01*
X031978Y002257D01*
X031977Y002258D01*
X031976Y002260D01*
X031975Y002262D01*
X031973Y002265D01*
X031973Y002267D01*
X031972Y002270D01*
X031971Y002272D01*
X031971Y002275D01*
X031971Y002278D01*
Y002279D01*
X031971Y002280D01*
X031971Y002281D01*
X031971Y002282D01*
X031971Y002284D01*
X031971Y002285D01*
X031972Y002288D01*
X031973Y002290D01*
X031973Y002291D01*
X031974Y002293D01*
X031975Y002294D01*
X031976Y002296D01*
X031977Y002297D01*
X031977Y002298D01*
X031978Y002298D01*
X031978Y002298D01*
X031978Y002299D01*
X031979Y002299D01*
X031980Y002300D01*
X031981Y002301D01*
X031982Y002302D01*
X031983Y002302D01*
X031985Y002303D01*
X031986Y002304D01*
X031988Y002305D01*
X031990Y002306D01*
X031992Y002306D01*
X031994Y002307D01*
X031996Y002307D01*
X031998Y002288D01*
X031998D01*
X031998D01*
X031997Y002288D01*
X031996Y002288D01*
X031995Y002287D01*
X031994Y002287D01*
X031992Y002286D01*
X031991Y002286D01*
X031990Y002285D01*
X031990Y002284D01*
X031989Y002284D01*
X031989Y002283D01*
X031988Y002283D01*
X031988Y002281D01*
X031987Y002280D01*
X031987Y002279D01*
X031987Y002277D01*
Y002276D01*
X031987Y002276D01*
X031987Y002275D01*
X031988Y002273D01*
X031988Y002272D01*
X031989Y002270D01*
X031990Y002269D01*
X031991Y002268D01*
X031992Y002267D01*
X031993Y002266D01*
X031993D01*
X031993Y002266D01*
X031993Y002266D01*
X031994Y002266D01*
X031994Y002265D01*
X031995Y002265D01*
X031996Y002265D01*
X031998Y002264D01*
X031999Y002264D01*
X032001Y002263D01*
X032002Y002263D01*
X032005Y002262D01*
X032007Y002262D01*
X032010Y002262D01*
X032013Y002261D01*
X032016Y002261D01*
X032016Y002261D01*
X032015Y002261D01*
X032015Y002262D01*
X032014Y002262D01*
X032014Y002263D01*
X032013Y002264D01*
X032012Y002265D01*
X032011Y002266D01*
X032011Y002267D01*
X032010Y002269D01*
X032009Y002270D01*
X032008Y002272D01*
X032008Y002274D01*
X032007Y002275D01*
X032007Y002277D01*
X032007Y002279D01*
Y002280D01*
X032007Y002281D01*
Y002281D01*
X032007Y002282D01*
X032007Y002284D01*
X032008Y002285D01*
X032008Y002286D01*
X032009Y002288D01*
X032009Y002290D01*
X032010Y002292D01*
X032011Y002293D01*
X032012Y002295D01*
X032013Y002297D01*
X032015Y002299D01*
X032016Y002300D01*
X032017Y002300D01*
X032017Y002301D01*
X032017Y002301D01*
X032018Y002302D01*
X032019Y002302D01*
X032020Y002303D01*
X032021Y002304D01*
X032023Y002305D01*
X032025Y002306D01*
X032026Y002306D01*
X032028Y002307D01*
X032031Y002308D01*
X032033Y002308D01*
X032035Y002309D01*
X032038Y002309D01*
X032041Y002309D01*
X032041D01*
X032041D01*
X032042Y002309D01*
D02*
G37*
G36*
X031871Y002266D02*
X031873Y002266D01*
X031875Y002265D01*
X031878Y002265D01*
X031880Y002265D01*
X031883Y002264D01*
X031886Y002263D01*
X031889Y002262D01*
X031893Y002261D01*
X031896Y002260D01*
X031899Y002259D01*
X031902Y002257D01*
X031905Y002255D01*
X031908Y002252D01*
X031908Y002252D01*
X031908Y002252D01*
X031909Y002251D01*
X031910Y002250D01*
X031911Y002248D01*
X031912Y002247D01*
X031914Y002245D01*
X031915Y002243D01*
X031916Y002240D01*
X031917Y002238D01*
X031919Y002235D01*
X031920Y002231D01*
X031921Y002228D01*
X031921Y002224D01*
X031922Y002220D01*
X031922Y002216D01*
Y002215D01*
X031922Y002214D01*
X031922Y002212D01*
X031921Y002210D01*
X031921Y002208D01*
X031921Y002206D01*
X031920Y002203D01*
X031919Y002200D01*
X031918Y002197D01*
X031917Y002194D01*
X031916Y002191D01*
X031914Y002188D01*
X031913Y002185D01*
X031910Y002182D01*
X031908Y002180D01*
X031908Y002180D01*
X031907Y002179D01*
X031907Y002179D01*
X031905Y002178D01*
X031904Y002177D01*
X031902Y002176D01*
X031900Y002174D01*
X031898Y002173D01*
X031895Y002172D01*
X031892Y002171D01*
X031889Y002170D01*
X031886Y002169D01*
X031882Y002168D01*
X031878Y002167D01*
X031874Y002167D01*
X031870Y002166D01*
X031869D01*
X031869D01*
X031868D01*
X031867Y002167D01*
X031866D01*
X031864Y002167D01*
X031862Y002167D01*
X031860Y002167D01*
X031858Y002167D01*
X031856Y002168D01*
X031852Y002168D01*
X031847Y002170D01*
X031845Y002170D01*
X031843Y002171D01*
X031843D01*
X031843Y002171D01*
X031842Y002171D01*
X031842Y002172D01*
X031841Y002172D01*
X031840Y002173D01*
X031838Y002174D01*
X031836Y002175D01*
X031834Y002177D01*
X031832Y002178D01*
X031829Y002180D01*
X031829Y002181D01*
X031829Y002181D01*
X031829Y002181D01*
X031828Y002182D01*
X031828Y002182D01*
X031827Y002183D01*
X031826Y002184D01*
X031824Y002186D01*
X031823Y002189D01*
X031821Y002191D01*
X031820Y002194D01*
Y002194D01*
X031820Y002194D01*
X031820Y002195D01*
X031819Y002195D01*
X031819Y002196D01*
X031819Y002197D01*
X031818Y002199D01*
X031818Y002200D01*
X031818Y002202D01*
X031817Y002203D01*
X031817Y002205D01*
X031817Y002207D01*
X031816Y002211D01*
X031816Y002216D01*
Y002217D01*
X031816Y002218D01*
X031816Y002220D01*
X031816Y002222D01*
X031817Y002224D01*
X031817Y002226D01*
X031818Y002229D01*
X031818Y002232D01*
X031819Y002235D01*
X031820Y002238D01*
X031822Y002241D01*
X031823Y002244D01*
X031825Y002247D01*
X031827Y002249D01*
X031830Y002252D01*
X031830Y002252D01*
X031831Y002253D01*
X031831Y002253D01*
X031832Y002254D01*
X031834Y002255D01*
X031836Y002256D01*
X031838Y002258D01*
X031840Y002259D01*
X031843Y002260D01*
X031846Y002261D01*
X031849Y002263D01*
X031852Y002264D01*
X031856Y002265D01*
X031860Y002265D01*
X031864Y002266D01*
X031869Y002266D01*
X031869D01*
X031869D01*
X031870D01*
X031870D01*
X031871D01*
X031871Y002266D01*
D02*
G37*
G36*
X032073Y002192D02*
X031999D01*
X032000Y002192D01*
X032000Y002191D01*
X032000Y002191D01*
X032001Y002190D01*
X032002Y002189D01*
X032003Y002187D01*
X032004Y002186D01*
X032005Y002184D01*
X032006Y002183D01*
X032008Y002181D01*
X032009Y002179D01*
X032010Y002177D01*
X032011Y002174D01*
X032012Y002172D01*
X032013Y002169D01*
X032014Y002166D01*
X031997D01*
Y002167D01*
X031996Y002167D01*
X031996Y002167D01*
X031996Y002168D01*
X031996Y002169D01*
X031995Y002169D01*
X031995Y002170D01*
X031994Y002171D01*
X031993Y002174D01*
X031992Y002177D01*
X031990Y002180D01*
X031987Y002183D01*
X031987Y002183D01*
X031987Y002183D01*
X031986Y002184D01*
X031986Y002184D01*
X031985Y002185D01*
X031984Y002186D01*
X031983Y002187D01*
X031982Y002188D01*
X031980Y002190D01*
X031977Y002192D01*
X031974Y002194D01*
X031972Y002195D01*
X031971Y002195D01*
Y002211D01*
X032073D01*
Y002192D01*
D02*
G37*
%LPC*%
G36*
X031858Y003791D02*
Y003776D01*
X031879Y003771D01*
Y003787D01*
X031858Y003791D01*
D02*
G37*
G36*
X031898Y003716D02*
X031898D01*
X031898D01*
X031897Y003716D01*
X031896Y003716D01*
X031895Y003715D01*
X031894Y003715D01*
X031893Y003714D01*
X031892Y003713D01*
X031891Y003712D01*
X031891Y003711D01*
X031891Y003711D01*
X031890Y003711D01*
X031890Y003710D01*
X031890Y003710D01*
X031890Y003709D01*
X031890Y003708D01*
X031890Y003707D01*
X031889Y003706D01*
X031889Y003705D01*
X031889Y003704D01*
X031889Y003702D01*
X031889Y003701D01*
X031889Y003699D01*
Y003684D01*
X031907D01*
Y003704D01*
X031907Y003704D01*
Y003705D01*
X031907Y003707D01*
X031907Y003709D01*
X031906Y003711D01*
X031906Y003712D01*
X031905Y003713D01*
X031905Y003713D01*
X031905Y003714D01*
X031904Y003714D01*
X031904Y003714D01*
X031903Y003715D01*
X031902Y003715D01*
X031901Y003716D01*
X031899Y003716D01*
X031898Y003716D01*
D02*
G37*
G36*
X031904Y003453D02*
X031862D01*
Y003429D01*
X031862D01*
X031862D01*
X031863D01*
X031863Y003429D01*
X031864D01*
X031865D01*
X031866Y003429D01*
X031867Y003429D01*
X031869Y003428D01*
X031872Y003428D01*
X031875Y003428D01*
X031879Y003427D01*
X031882Y003427D01*
X031886Y003426D01*
X031889Y003425D01*
X031893Y003424D01*
X031896Y003423D01*
X031899Y003422D01*
X031902Y003421D01*
X031903Y003420D01*
X031904Y003419D01*
Y003453D01*
D02*
G37*
G36*
X031885Y003367D02*
X031883D01*
X031883D01*
X031882D01*
X031882D01*
X031881Y003367D01*
X031880D01*
X031879Y003367D01*
X031878Y003367D01*
X031877Y003366D01*
X031874Y003366D01*
X031871Y003365D01*
X031868Y003364D01*
X031867Y003363D01*
X031866Y003362D01*
X031866Y003362D01*
X031866Y003362D01*
X031865Y003361D01*
X031865Y003361D01*
X031864Y003360D01*
X031863Y003358D01*
X031862Y003356D01*
X031861Y003354D01*
X031860Y003352D01*
X031860Y003350D01*
X031860Y003349D01*
Y003348D01*
X031860Y003348D01*
X031860Y003347D01*
X031860Y003346D01*
X031861Y003345D01*
X031861Y003342D01*
X031862Y003340D01*
X031863Y003339D01*
X031864Y003338D01*
X031865Y003337D01*
X031866Y003336D01*
X031866D01*
X031866Y003336D01*
X031867Y003336D01*
X031867Y003335D01*
X031868Y003335D01*
X031868Y003334D01*
X031869Y003334D01*
X031870Y003334D01*
X031871Y003333D01*
X031873Y003333D01*
X031874Y003332D01*
X031876Y003332D01*
X031877Y003331D01*
X031879Y003331D01*
X031881Y003331D01*
X031883Y003331D01*
X031883D01*
X031883D01*
X031884D01*
X031885Y003331D01*
X031886D01*
X031887Y003331D01*
X031888Y003331D01*
X031889Y003332D01*
X031892Y003332D01*
X031895Y003333D01*
X031897Y003334D01*
X031899Y003335D01*
X031900Y003336D01*
X031900Y003336D01*
X031900Y003336D01*
X031900Y003337D01*
X031901Y003337D01*
X031902Y003338D01*
X031903Y003340D01*
X031904Y003342D01*
X031905Y003344D01*
X031905Y003346D01*
X031906Y003348D01*
X031906Y003349D01*
Y003350D01*
X031906Y003350D01*
X031905Y003351D01*
X031905Y003352D01*
X031905Y003353D01*
X031904Y003356D01*
X031903Y003358D01*
X031903Y003359D01*
X031902Y003360D01*
X031901Y003361D01*
X031900Y003362D01*
X031900Y003362D01*
X031900Y003362D01*
X031899Y003362D01*
X031899Y003363D01*
X031898Y003363D01*
X031897Y003364D01*
X031897Y003364D01*
X031896Y003365D01*
X031894Y003365D01*
X031893Y003365D01*
X031892Y003366D01*
X031890Y003366D01*
X031889Y003367D01*
X031887Y003367D01*
X031885Y003367D01*
D02*
G37*
G36*
X032026Y002844D02*
X032023D01*
X032023D01*
X032022D01*
X032021D01*
X032020D01*
X032019D01*
X032017Y002843D01*
X032015D01*
X032013Y002843D01*
X032009Y002843D01*
X032005Y002843D01*
X032003Y002843D01*
X032001Y002842D01*
X032000Y002842D01*
X031998Y002842D01*
X031998D01*
X031998Y002842D01*
X031998Y002841D01*
X031997Y002841D01*
X031996Y002841D01*
X031995Y002840D01*
X031993Y002840D01*
X031992Y002839D01*
X031990Y002838D01*
X031989Y002837D01*
X031989Y002837D01*
X031989Y002837D01*
X031988Y002836D01*
X031988Y002835D01*
X031988Y002834D01*
X031987Y002833D01*
X031987Y002832D01*
X031987Y002831D01*
Y002830D01*
X031987Y002830D01*
X031987Y002829D01*
X031987Y002828D01*
X031988Y002827D01*
X031988Y002826D01*
X031989Y002825D01*
X031989Y002824D01*
X031990Y002824D01*
X031990Y002824D01*
X031991Y002823D01*
X031992Y002822D01*
X031994Y002822D01*
X031995Y002821D01*
X031997Y002820D01*
X031997D01*
X031998Y002820D01*
X031998Y002820D01*
X031999Y002820D01*
X032000Y002820D01*
X032001Y002820D01*
X032002Y002819D01*
X032003Y002819D01*
X032005Y002819D01*
X032007Y002819D01*
X032009Y002819D01*
X032011Y002819D01*
X032014Y002818D01*
X032017Y002818D01*
X032020Y002818D01*
X032023D01*
X032023D01*
X032024D01*
X032025D01*
X032026D01*
X032027Y002818D01*
X032029D01*
X032031D01*
X032033Y002818D01*
X032037Y002819D01*
X032041Y002819D01*
X032043Y002819D01*
X032045Y002819D01*
X032046Y002820D01*
X032048Y002820D01*
X032048D01*
X032048Y002820D01*
X032048Y002820D01*
X032049Y002820D01*
X032050Y002821D01*
X032051Y002821D01*
X032053Y002822D01*
X032054Y002823D01*
X032056Y002824D01*
X032057Y002825D01*
X032057Y002825D01*
X032057Y002825D01*
X032057Y002826D01*
X032058Y002826D01*
X032058Y002827D01*
X032059Y002828D01*
X032059Y002830D01*
X032059Y002831D01*
Y002831D01*
X032059Y002832D01*
X032059Y002833D01*
X032058Y002834D01*
X032058Y002835D01*
X032057Y002836D01*
X032057Y002837D01*
X032057Y002837D01*
X032056Y002838D01*
X032056Y002838D01*
X032055Y002839D01*
X032054Y002839D01*
X032052Y002840D01*
X032051Y002841D01*
X032049Y002841D01*
X032048D01*
X032048Y002842D01*
X032048Y002842D01*
X032047Y002842D01*
X032046Y002842D01*
X032045Y002842D01*
X032044Y002842D01*
X032043Y002843D01*
X032041Y002843D01*
X032039Y002843D01*
X032037Y002843D01*
X032035Y002843D01*
X032032Y002843D01*
X032029Y002843D01*
X032026Y002844D01*
D02*
G37*
G36*
X031879Y002772D02*
X031841Y002758D01*
X031879Y002744D01*
Y002772D01*
D02*
G37*
G36*
X032026Y002684D02*
X032023D01*
X032023D01*
X032022D01*
X032021D01*
X032020D01*
X032019D01*
X032017Y002684D01*
X032015D01*
X032013Y002684D01*
X032009Y002684D01*
X032005Y002684D01*
X032003Y002683D01*
X032001Y002683D01*
X032000Y002683D01*
X031998Y002683D01*
X031998D01*
X031998Y002682D01*
X031998Y002682D01*
X031997Y002682D01*
X031996Y002682D01*
X031995Y002681D01*
X031993Y002681D01*
X031992Y002680D01*
X031990Y002679D01*
X031989Y002678D01*
X031989Y002678D01*
X031989Y002678D01*
X031988Y002677D01*
X031988Y002676D01*
X031988Y002675D01*
X031987Y002674D01*
X031987Y002673D01*
X031987Y002672D01*
Y002671D01*
X031987Y002670D01*
X031987Y002670D01*
X031987Y002669D01*
X031988Y002667D01*
X031988Y002666D01*
X031989Y002665D01*
X031989Y002665D01*
X031990Y002665D01*
X031990Y002664D01*
X031991Y002664D01*
X031992Y002663D01*
X031994Y002662D01*
X031995Y002662D01*
X031997Y002661D01*
X031997D01*
X031998Y002661D01*
X031998Y002661D01*
X031999Y002661D01*
X032000Y002661D01*
X032001Y002660D01*
X032002Y002660D01*
X032003Y002660D01*
X032005Y002660D01*
X032007Y002660D01*
X032009Y002659D01*
X032011Y002659D01*
X032014Y002659D01*
X032017Y002659D01*
X032020Y002659D01*
X032023D01*
X032023D01*
X032024D01*
X032025D01*
X032026D01*
X032027Y002659D01*
X032029D01*
X032031D01*
X032033Y002659D01*
X032037Y002659D01*
X032041Y002660D01*
X032043Y002660D01*
X032045Y002660D01*
X032046Y002660D01*
X032048Y002661D01*
X032048D01*
X032048Y002661D01*
X032048Y002661D01*
X032049Y002661D01*
X032050Y002661D01*
X032051Y002662D01*
X032053Y002663D01*
X032054Y002663D01*
X032056Y002664D01*
X032057Y002665D01*
X032057Y002665D01*
X032057Y002666D01*
X032057Y002666D01*
X032058Y002667D01*
X032058Y002668D01*
X032059Y002669D01*
X032059Y002670D01*
X032059Y002672D01*
Y002672D01*
X032059Y002673D01*
X032059Y002674D01*
X032058Y002675D01*
X032058Y002676D01*
X032057Y002677D01*
X032057Y002678D01*
X032057Y002678D01*
X032056Y002678D01*
X032056Y002679D01*
X032055Y002680D01*
X032054Y002680D01*
X032052Y002681D01*
X032051Y002682D01*
X032049Y002682D01*
X032048D01*
X032048Y002682D01*
X032048Y002683D01*
X032047Y002683D01*
X032046Y002683D01*
X032045Y002683D01*
X032044Y002683D01*
X032043Y002683D01*
X032041Y002684D01*
X032039Y002684D01*
X032037Y002684D01*
X032035Y002684D01*
X032032Y002684D01*
X032029Y002684D01*
X032026Y002684D01*
D02*
G37*
G36*
X031879Y002336D02*
X031841Y002322D01*
X031879Y002308D01*
Y002336D01*
D02*
G37*
G36*
X032043Y002290D02*
X032041D01*
X032041D01*
X032040D01*
X032040D01*
X032039Y002290D01*
X032038D01*
X032037Y002290D01*
X032035Y002289D01*
X032033Y002289D01*
X032030Y002288D01*
X032028Y002287D01*
X032027Y002287D01*
X032026Y002286D01*
X032026Y002286D01*
X032025Y002285D01*
X032025Y002284D01*
X032024Y002283D01*
X032023Y002282D01*
X032022Y002280D01*
X032022Y002278D01*
X032021Y002276D01*
Y002276D01*
X032022Y002275D01*
X032022Y002274D01*
X032022Y002273D01*
X032023Y002271D01*
X032023Y002270D01*
X032024Y002268D01*
X032026Y002267D01*
X032026Y002267D01*
X032027Y002266D01*
X032028Y002265D01*
X032029Y002265D01*
X032031Y002264D01*
X032033Y002263D01*
X032036Y002263D01*
X032039Y002263D01*
X032039D01*
X032039D01*
X032040D01*
X032041Y002263D01*
X032041D01*
X032042Y002263D01*
X032044Y002263D01*
X032047Y002264D01*
X032049Y002265D01*
X032052Y002266D01*
X032054Y002267D01*
X032054Y002267D01*
X032055Y002268D01*
X032055Y002269D01*
X032056Y002270D01*
X032057Y002272D01*
X032058Y002273D01*
X032059Y002275D01*
X032059Y002276D01*
X032059Y002277D01*
Y002277D01*
X032059Y002278D01*
X032059Y002279D01*
X032058Y002280D01*
X032058Y002282D01*
X032057Y002283D01*
X032056Y002285D01*
X032055Y002286D01*
X032054Y002286D01*
X032054Y002287D01*
X032053Y002287D01*
X032052Y002288D01*
X032051Y002288D01*
X032050Y002288D01*
X032049Y002289D01*
X032048Y002289D01*
X032047Y002289D01*
X032046Y002290D01*
X032044Y002290D01*
X032043Y002290D01*
D02*
G37*
G36*
X031869Y002244D02*
X031868D01*
X031868D01*
X031867D01*
X031866Y002244D01*
X031864Y002244D01*
X031863Y002244D01*
X031861Y002244D01*
X031859Y002243D01*
X031857Y002243D01*
X031854Y002243D01*
X031852Y002242D01*
X031850Y002241D01*
X031848Y002240D01*
X031846Y002239D01*
X031844Y002238D01*
X031842Y002237D01*
X031842Y002237D01*
X031842Y002236D01*
X031841Y002236D01*
X031841Y002235D01*
X031840Y002234D01*
X031839Y002234D01*
X031839Y002232D01*
X031838Y002231D01*
X031837Y002230D01*
X031836Y002228D01*
X031835Y002227D01*
X031835Y002225D01*
X031834Y002223D01*
X031834Y002221D01*
X031834Y002218D01*
X031833Y002216D01*
Y002215D01*
X031834Y002214D01*
X031834Y002213D01*
X031834Y002212D01*
X031834Y002210D01*
X031835Y002209D01*
X031835Y002207D01*
X031836Y002205D01*
X031836Y002204D01*
X031837Y002202D01*
X031838Y002200D01*
X031839Y002199D01*
X031841Y002197D01*
X031842Y002195D01*
X031842Y002195D01*
X031843Y002195D01*
X031843Y002195D01*
X031844Y002194D01*
X031845Y002194D01*
X031846Y002193D01*
X031847Y002192D01*
X031849Y002192D01*
X031851Y002191D01*
X031853Y002190D01*
X031855Y002189D01*
X031857Y002189D01*
X031860Y002188D01*
X031863Y002188D01*
X031866Y002188D01*
X031869Y002188D01*
X031869D01*
X031870D01*
X031870Y002188D01*
X031872D01*
X031873Y002188D01*
X031875Y002188D01*
X031877Y002188D01*
X031879Y002189D01*
X031881Y002189D01*
X031883Y002190D01*
X031885Y002190D01*
X031887Y002191D01*
X031889Y002192D01*
X031891Y002193D01*
X031893Y002194D01*
X031895Y002196D01*
X031895Y002196D01*
X031896Y002196D01*
X031896Y002196D01*
X031897Y002197D01*
X031897Y002198D01*
X031898Y002199D01*
X031899Y002200D01*
X031900Y002201D01*
X031901Y002203D01*
X031901Y002204D01*
X031902Y002206D01*
X031903Y002208D01*
X031903Y002210D01*
X031904Y002212D01*
X031904Y002214D01*
X031904Y002216D01*
Y002217D01*
X031904Y002217D01*
Y002218D01*
X031904Y002219D01*
X031904Y002220D01*
X031903Y002222D01*
X031903Y002223D01*
X031903Y002225D01*
X031902Y002226D01*
X031901Y002228D01*
X031900Y002230D01*
X031899Y002232D01*
X031898Y002233D01*
X031897Y002235D01*
X031895Y002236D01*
X031895Y002237D01*
X031895Y002237D01*
X031894Y002237D01*
X031894Y002238D01*
X031893Y002238D01*
X031892Y002239D01*
X031890Y002240D01*
X031889Y002240D01*
X031887Y002241D01*
X031885Y002242D01*
X031883Y002243D01*
X031880Y002243D01*
X031878Y002244D01*
X031875Y002244D01*
X031872Y002244D01*
X031869Y002244D01*
D02*
G37*
%LPD*%
D11*
X023330Y003796D02*
X023485D01*
X023705D02*
X023860D01*
X023165Y006796D02*
X023330D01*
X023330Y006796D01*
X019785Y004316D02*
Y004342D01*
Y004316D02*
X019855Y004246D01*
X019895D01*
X019680Y004446D02*
X019785Y004342D01*
X019625Y004446D02*
X019680D01*
D13*
X023330Y002796D02*
X023615D01*
X023715Y002896D01*
X024105D01*
X023860Y002796D02*
X024115D01*
X024215Y002896D01*
X023330Y002596D02*
X023625D01*
X023725Y002696D02*
X024105D01*
X023625Y002596D02*
X023725Y002696D01*
X023860Y002596D02*
X024115D01*
X024215Y002696D01*
X023330Y002396D02*
X023455D01*
X023515Y002456D01*
X023675D01*
X023715Y002496D01*
X024105D01*
X023860Y002396D02*
X024115D01*
X024215Y002496D01*
X020555Y004466D02*
X020563Y004474D01*
X020718D01*
X020720Y004476D01*
X020718Y004529D02*
X020720Y004526D01*
X020442Y004566D02*
X020479Y004529D01*
X020718D01*
X020405Y004566D02*
X020442D01*
X020895Y004046D02*
X020910D01*
X020958Y004094D01*
Y004189D01*
X020891Y004146D02*
X020908Y004163D01*
Y004189D01*
X020821Y004216D02*
X020891Y004146D01*
X020815Y004216D02*
X020821D01*
X021149Y003970D02*
Y003973D01*
X021058Y004064D02*
Y004189D01*
Y004064D02*
X021149Y003973D01*
X020995Y004046D02*
X021006Y004058D01*
Y004188D01*
X021008Y004189D01*
X022655Y005446D02*
X022666D01*
X022686Y005426D01*
X022845D01*
X021108Y004091D02*
X021119Y004079D01*
X021143D01*
X021108Y004091D02*
Y004189D01*
X021205Y004016D02*
X021215D01*
X021143Y004079D02*
X021205Y004016D01*
X023653Y002536D02*
X023713Y002596D01*
X022835Y002496D02*
X023455D01*
X023495Y002536D02*
X023653D01*
X023455Y002496D02*
X023495Y002536D01*
X022865Y002896D02*
X023455D01*
X023555Y002996D02*
X023860D01*
X023455Y002896D02*
X023555Y002996D01*
X023860D02*
X023860Y002996D01*
X024125D02*
X024215Y003086D01*
X023860Y002996D02*
X024125D01*
X023545Y003086D02*
X024105D01*
X023485Y003807D02*
X023495Y003817D01*
X023330Y002996D02*
X023455D01*
X023485Y003796D02*
Y003807D01*
X023330Y003796D02*
X023330Y003796D01*
X023455Y002996D02*
X023545Y003086D01*
X022783Y002978D02*
X022865Y002896D01*
X022725Y002996D02*
X022743Y002978D01*
X022783D01*
X020485Y003846D02*
X020585D01*
X020395Y003936D02*
X020485Y003846D01*
X020395Y003936D02*
Y004026D01*
X020078Y005099D02*
X020085Y005106D01*
X020050Y005099D02*
X020078D01*
X020005Y005054D02*
X020050Y005099D01*
X020000Y005054D02*
X020005D01*
X021005Y006316D02*
X021008Y006314D01*
X021005Y006316D02*
Y006406D01*
X020955Y006456D02*
X021005Y006406D01*
X023025Y006366D02*
X023025Y006366D01*
X023025Y006312D02*
Y006366D01*
X022978Y006265D02*
X023025Y006312D01*
X022978Y006106D02*
Y006265D01*
X022948Y006076D02*
X022978Y006106D01*
X022845Y006076D02*
X022948D01*
X019790Y005054D02*
Y005211D01*
X019795Y005216D01*
X019925Y006506D02*
X019925Y006506D01*
X020075D01*
X021195Y006755D02*
X021257Y006816D01*
X021315D02*
X021315Y006816D01*
X021210Y006464D02*
X021248Y006427D01*
X021255Y006419D01*
X021195Y006479D02*
X021210Y006464D01*
X021257Y006816D02*
X021315D01*
X021195Y006479D02*
Y006755D01*
X021255Y006316D02*
X021258Y006314D01*
X021255Y006316D02*
Y006419D01*
X021305Y006966D02*
X021315Y006956D01*
X021245Y006966D02*
X021305D01*
X021155Y006876D02*
X021245Y006966D01*
X021155Y006696D02*
X021155Y006696D01*
Y006876D01*
X021155Y006456D02*
Y006696D01*
X021205Y006316D02*
X021208Y006314D01*
X021205Y006316D02*
Y006406D01*
X021155Y006456D02*
X021205Y006406D01*
X022845Y005976D02*
X022965D01*
X023045Y005896D01*
X023055D01*
X023076Y005917D01*
X022845Y005976D02*
X022848Y005979D01*
X022558Y006314D02*
Y006469D01*
X022718Y006630D01*
Y006808D01*
X022746Y006836D01*
X022865D01*
X022508Y006500D02*
X022676Y006669D01*
X022508Y006314D02*
Y006500D01*
X022775Y006976D02*
X022865D01*
X022676Y006687D02*
Y006877D01*
X022775Y006976D01*
X022676Y006669D02*
Y006687D01*
X022676Y006687D01*
X020957Y005876D02*
X021007Y005826D01*
X020720Y005876D02*
X020957D01*
X021007Y005826D02*
X021015D01*
X020720Y005826D02*
X020875D01*
X021015Y005686D01*
Y005686D02*
Y005686D01*
X020718Y005629D02*
X020720Y005626D01*
X020586Y005629D02*
X020718D01*
X020499Y005717D02*
X020586Y005629D01*
X020485Y005717D02*
X020499D01*
X020497Y005506D02*
X020526Y005476D01*
X020720D01*
X020485Y005506D02*
X020497D01*
X022008Y004064D02*
Y004189D01*
X021970Y004026D02*
X022008Y004064D01*
X021965Y004026D02*
X021970D01*
X021965D02*
Y004031D01*
X021008Y004754D02*
X021015Y004746D01*
X021002Y004749D02*
X021008Y004754D01*
X020895Y004676D02*
X020968Y004749D01*
X020720Y004676D02*
X020895D01*
X020968Y004749D02*
X021002D01*
X020924Y004605D02*
X020925Y004606D01*
X020924Y004537D02*
Y004605D01*
X020720Y004426D02*
X020723Y004429D01*
X020815D02*
X020924Y004537D01*
X020723Y004429D02*
X020815D01*
X021145Y003401D02*
Y003406D01*
Y003401D02*
X021150Y003396D01*
X021295D01*
X019985Y005216D02*
Y005305D01*
X019973Y005316D02*
X019985Y005305D01*
X019725Y005316D02*
X019973D01*
X019677Y005268D02*
X019725Y005316D01*
X019677Y004969D02*
Y005268D01*
X021485Y003396D02*
Y003506D01*
X021465Y003526D02*
X021485Y003506D01*
X021135Y003526D02*
X021465D01*
X021100Y003491D02*
X021135Y003526D01*
X021075D02*
X021135D01*
X021100Y003411D02*
Y003491D01*
X021050Y003501D02*
X021075Y003526D01*
X021095Y003406D02*
X021100Y003411D01*
X021050D02*
Y003501D01*
X021045Y003406D02*
X021050Y003411D01*
X022458Y004074D02*
Y004189D01*
X022526Y003991D02*
X022565Y003953D01*
Y003945D02*
Y003953D01*
X022458Y004074D02*
X022526Y004005D01*
Y003991D02*
Y004005D01*
X021555Y006316D02*
X021558Y006314D01*
X021485Y006676D02*
X021486Y006676D01*
X021941Y006901D02*
X021941D01*
X021907Y006935D02*
X021941Y006901D01*
X022845Y005126D02*
X022845Y005126D01*
X023015D02*
X023085Y005196D01*
X023115D01*
X020585Y004326D02*
X020635Y004376D01*
X020585Y004266D02*
Y004326D01*
X020635Y004376D02*
X020720D01*
X020720Y004376D01*
X021045Y004396D02*
X021158Y004284D01*
Y004189D02*
Y004284D01*
X022848Y006126D02*
X022855Y006134D01*
X022845Y006126D02*
X022848D01*
X022855Y006134D02*
Y006209D01*
X020635Y003506D02*
X020785Y003656D01*
X020635Y003406D02*
Y003506D01*
X020785Y003656D02*
Y003846D01*
X020785Y003846D01*
X022108Y006314D02*
Y006459D01*
X022995Y004476D02*
X023065Y004406D01*
X022845Y004476D02*
X022995D01*
X021486Y006476D02*
X021555Y006407D01*
Y006316D02*
Y006407D01*
X021941Y006901D02*
X022135Y006707D01*
X022108Y006209D02*
Y006314D01*
Y006459D02*
X022145Y006496D01*
X022135Y006581D02*
Y006707D01*
Y006581D02*
X022145Y006571D01*
Y006496D02*
Y006571D01*
X022068Y006169D02*
X022108Y006209D01*
X022065Y006169D02*
X022068D01*
X020445Y004996D02*
X020520D01*
X020530Y004986D01*
X020580D01*
X020615Y005022D01*
Y005026D01*
X020720D01*
X021045Y004396D02*
Y004398D01*
X021575Y006169D02*
Y006180D01*
X021558Y006197D02*
X021575Y006180D01*
X021558Y006197D02*
Y006314D01*
X022358Y004189D02*
X022359Y004187D01*
Y003785D02*
X022725Y003419D01*
Y003296D02*
Y003419D01*
X022359Y003785D02*
Y004187D01*
X021665Y003536D02*
X021785Y003416D01*
Y003346D02*
Y003416D01*
X020945Y003406D02*
Y003516D01*
X020995Y003566D01*
X021482D02*
X021512Y003536D01*
X021665D01*
X021666Y003537D01*
X020995Y003566D02*
X021482D01*
X020585Y003999D02*
Y004026D01*
Y003999D02*
X020635Y003949D01*
Y003846D02*
Y003949D01*
X020648Y003936D01*
X020653D01*
X020685Y003904D01*
Y003846D02*
Y003904D01*
X023400Y004322D02*
X023545Y004176D01*
X023070Y004322D02*
X023400D01*
X023065Y004326D02*
X023070Y004322D01*
X023545Y003972D02*
Y004176D01*
X023495Y003922D02*
X023545Y003972D01*
X023495Y003817D02*
Y003922D01*
X023065Y004186D02*
Y004326D01*
Y004406D01*
X021486Y006476D02*
Y006676D01*
X022845Y005126D02*
X023005D01*
X023015D01*
X022720Y005596D02*
X022748Y005624D01*
X022843D01*
X022845Y005626D01*
X022195Y005456D02*
X022335Y005596D01*
X022720D01*
X022855Y006209D02*
Y006366D01*
X021708Y004074D02*
Y004189D01*
Y004074D02*
X021765Y004016D01*
X020345Y005606D02*
X020386Y005566D01*
X020345Y005606D02*
Y005676D01*
X020386Y005566D02*
X020459D01*
X020460D02*
X020522D01*
X020561Y005526D01*
X020720D01*
X022510Y004091D02*
Y004186D01*
X022508Y004189D02*
X022510Y004186D01*
X022635Y003911D02*
Y003966D01*
X022510Y004091D02*
X022635Y003966D01*
X022795Y003556D02*
Y003573D01*
X022575Y003851D02*
X022635Y003911D01*
X022575Y003793D02*
X022795Y003573D01*
X022575Y003793D02*
Y003851D01*
X022465Y003945D02*
Y003996D01*
X022408Y004054D02*
Y004189D01*
Y004054D02*
X022465Y003996D01*
X023860Y004996D02*
X023860Y004996D01*
X023685Y004996D02*
X023860D01*
X023330Y004996D02*
X023330Y004996D01*
X023505D01*
X023695Y004796D02*
X023860D01*
X023860Y004796D01*
X023546Y004796D02*
X023585Y004756D01*
X023331Y004796D02*
X023546D01*
X023330Y004796D02*
X023331Y004796D01*
X023860Y004596D02*
X023860Y004596D01*
X023635Y004596D02*
X023860D01*
X023095Y004692D02*
Y004741D01*
X023095Y004741D01*
Y004776D01*
Y004666D02*
X023165Y004596D01*
X023095Y004666D02*
Y004692D01*
X023095Y004692D02*
X023095Y004692D01*
Y004776D02*
X023155Y004836D01*
X023165Y004596D02*
X023330D01*
X023215Y004696D02*
X023515D01*
X023213Y004695D02*
X023215Y004696D01*
X023197Y004695D02*
X023213D01*
X023155Y004736D02*
X023197Y004695D01*
X023567Y004565D02*
Y004645D01*
X023735Y004396D02*
X023860D01*
X023155Y004736D02*
X023155Y004736D01*
X023155Y004716D02*
Y004736D01*
X023567Y004565D02*
X023735Y004396D01*
X023515Y004696D02*
X023567Y004645D01*
X023465Y004396D02*
X023495Y004426D01*
X023330Y004396D02*
X023465D01*
X023495Y004426D02*
Y004596D01*
X022405Y004360D02*
Y004406D01*
Y004360D02*
X022444Y004321D01*
X022515D01*
X022555Y004281D01*
Y004191D02*
Y004281D01*
Y004191D02*
X022558Y004189D01*
X022395Y004506D02*
Y004966D01*
Y004506D02*
X022608Y004294D01*
Y004189D02*
Y004294D01*
X022695Y004176D02*
X022745Y004126D01*
Y004106D02*
Y004116D01*
Y004126D01*
X022665Y004176D02*
X022695D01*
X022658Y004189D02*
X022660Y004186D01*
X022658Y004184D02*
X022665Y004176D01*
X022658Y004184D02*
Y004189D01*
X022785Y004230D02*
X022785Y004230D01*
X022785Y004230D02*
X022785Y004230D01*
X022785Y004230D02*
Y004246D01*
X022785Y004230D02*
X022805Y004250D01*
Y004252D01*
X022813Y004260D01*
Y004369D01*
X022820Y004376D02*
X022845D01*
X022813Y004369D02*
X022820Y004376D01*
X021707Y004329D02*
Y004329D01*
X021695Y004341D02*
X021707Y004329D01*
Y004329D02*
X021743D01*
X021758Y004314D01*
Y004189D02*
Y004314D01*
X021924Y004986D02*
X021985D01*
X021808Y004870D02*
X021924Y004986D01*
X021808Y004189D02*
Y004870D01*
X022189Y005045D02*
X022189Y005046D01*
X022184Y005045D02*
X022189D01*
X022065Y004926D02*
X022184Y005045D01*
X021920Y004926D02*
X022065D01*
X021858Y004864D02*
X021920Y004926D01*
X021858Y004189D02*
Y004864D01*
X021908Y004319D02*
X021985Y004396D01*
X021908Y004189D02*
Y004319D01*
X022658Y006314D02*
Y006376D01*
X022728Y006446D01*
X023091D01*
X023188D02*
X023213Y006471D01*
X023358D01*
X023448D01*
X023091Y006446D02*
X023188D01*
X023696Y006000D02*
X023696Y006000D01*
X023700Y006004D02*
X023853D01*
X023860Y005996D01*
X022608Y006314D02*
X022610Y006316D01*
Y006411D01*
X022685Y006486D01*
X023172D01*
X023204Y006518D01*
X023200Y006515D02*
X023204Y006518D01*
X023457D01*
X023185Y005996D02*
X023330D01*
X023330Y005996D01*
X020720Y005926D02*
X021085D01*
X021115Y005956D01*
X020628Y005779D02*
X020718D01*
X020720Y005776D01*
X020535Y005871D02*
Y005888D01*
Y005871D02*
X020628Y005779D01*
X021315Y006526D02*
X021408Y006434D01*
X021315Y006526D02*
Y006536D01*
X021408Y005871D02*
X021408Y005871D01*
Y006314D02*
Y006434D01*
Y005871D02*
Y006314D01*
X021314Y006677D02*
X021315Y006676D01*
X021325Y006456D02*
X021358Y006424D01*
X021341Y005940D02*
X021358Y005957D01*
X021256Y006677D02*
X021314D01*
X021274Y006456D02*
X021325D01*
X021241Y006504D02*
X021241D01*
X021245Y006486D02*
X021274Y006456D01*
X021245Y006486D02*
Y006500D01*
X021241Y006504D02*
X021245Y006500D01*
X021241Y006504D02*
Y006662D01*
X021256Y006677D01*
X021358Y005957D02*
Y006424D01*
X021341Y005929D02*
Y005940D01*
X020720Y006026D02*
X020875D01*
X020955Y006106D01*
X020720Y005976D02*
X020955D01*
X021023Y006044D02*
X021025D01*
X020955Y005976D02*
X021023Y006044D01*
X021335Y002516D02*
X021337Y002518D01*
X021514D01*
X021515Y002519D01*
X021335Y002396D02*
X021337Y002394D01*
X021513D02*
X021515Y002392D01*
X021337Y002394D02*
X021513D01*
X021223Y004509D02*
Y005997D01*
X021155Y006065D02*
X021223Y005997D01*
X021155Y006311D02*
X021158Y006314D01*
X021155Y006221D02*
Y006311D01*
X021155Y006065D02*
Y006221D01*
X021155Y006221D01*
X021223Y004509D02*
X021265Y004466D01*
X021135D02*
X021178Y004509D01*
X021110Y006046D02*
X021178Y005979D01*
Y004509D02*
Y005979D01*
X021110Y006046D02*
Y006311D01*
X021108Y006314D02*
X021110Y006311D01*
X022845Y004526D02*
X022957D01*
X023046Y004615D02*
Y004862D01*
X022957Y004526D02*
X023046Y004615D01*
Y004862D02*
X023075Y004891D01*
Y004902D01*
X022845Y004576D02*
X022848Y004579D01*
X022995Y004636D02*
Y004900D01*
X022848Y004579D02*
X022938D01*
X022995Y004636D01*
X022993Y004902D02*
X022995Y004900D01*
X023860Y005396D02*
X023860Y005396D01*
X023692Y005396D02*
X023860D01*
X023689Y005393D02*
X023692Y005396D01*
X023330D02*
X023330Y005396D01*
X023135Y005316D02*
Y005316D01*
X023215Y005396D02*
X023330D01*
X023135Y005316D02*
X023215Y005396D01*
X023075Y002996D02*
X023330D01*
X023330Y002996D01*
X022759Y002763D02*
X022825Y002696D01*
X022754Y002763D02*
X022759D01*
X022725Y002792D02*
X022754Y002763D01*
X022725Y002792D02*
Y002796D01*
X022825Y002696D02*
X023636D01*
X023736Y002796D01*
X023860D01*
X023330Y002796D02*
X023330Y002796D01*
X023075Y002796D02*
X023330D01*
X023713Y002596D02*
X023860D01*
X022769Y002563D02*
X022835Y002496D01*
X022764Y002563D02*
X022769D01*
X022735Y002592D02*
X022764Y002563D01*
X022735Y002592D02*
Y002596D01*
X023330D02*
X023330Y002596D01*
X023075Y002596D02*
X023330D01*
X022795Y002316D02*
X023465D01*
X022725Y002386D02*
X022795Y002316D01*
X022725Y002386D02*
Y002396D01*
X023465Y002316D02*
X023545Y002396D01*
X023860D01*
X023330Y002396D02*
X023330Y002396D01*
X023075Y002396D02*
X023330D01*
X022525Y005446D02*
X022585Y005506D01*
X022688D01*
X022718Y005476D01*
X022845D01*
X022435Y005446D02*
X022535Y005546D01*
X022715D01*
X022735Y005526D01*
X022845D01*
X022845Y005526D01*
X022695Y005656D02*
X022706D01*
X022726Y005676D01*
X022845D01*
X022585Y005686D02*
X022600D01*
X022640Y005726D01*
X022845D01*
X022843Y005774D02*
X022845Y005776D01*
X022603Y005774D02*
X022843D01*
X022636Y005826D02*
X022845D01*
X022585Y005876D02*
X022585Y005876D01*
X022585Y005856D02*
Y005876D01*
X022585Y005876D02*
X022587D01*
X022636Y005826D01*
X022650Y005876D02*
X022845D01*
X022465Y005976D02*
X022469Y005981D01*
X022546D02*
X022650Y005876D01*
X022469Y005981D02*
X022546D01*
X022427Y006106D02*
X022506Y006027D01*
X022556D02*
X022657Y005926D01*
X022845D01*
X022506Y006027D02*
X022556D01*
X022843Y005329D02*
X022845Y005326D01*
X022259Y005286D02*
X022348D01*
X022368Y005306D01*
X022368D01*
X022391Y005329D01*
X022843D01*
X022255Y005290D02*
X022259Y005286D01*
X022347Y005357D02*
X022366Y005376D01*
X022845D01*
X022334Y005357D02*
X022347D01*
X021955Y006396D02*
X021955Y006396D01*
Y006671D01*
X021895Y006816D02*
X021910D01*
X021955Y006671D02*
X021975Y006691D01*
Y006751D01*
X021910Y006816D02*
X021975Y006751D01*
X021908Y006314D02*
Y006479D01*
X021915Y006486D01*
Y006726D01*
X021856Y006315D02*
Y006555D01*
Y006315D02*
X021858Y006314D01*
X021855Y006556D02*
X021856Y006555D01*
X021808Y006314D02*
Y006499D01*
X021775Y006531D02*
X021808Y006499D01*
X021775Y006531D02*
Y006536D01*
X021758Y006314D02*
Y006464D01*
X021685Y006536D02*
Y006571D01*
Y006536D02*
X021758Y006464D01*
X021585Y006671D02*
Y006686D01*
Y006671D02*
X021685Y006571D01*
X021594Y006547D02*
X021599D01*
X021708Y006439D01*
Y006314D02*
Y006439D01*
X021592Y006545D02*
X021617D01*
X021625Y006536D01*
X021593Y006449D02*
X021613D01*
X021655Y006316D02*
X021658Y006314D01*
X021585Y006456D02*
X021593Y006449D01*
X021613D02*
X021655Y006406D01*
Y006316D02*
Y006406D01*
X020405Y005466D02*
X020495Y005376D01*
X020720D01*
X020425Y005326D02*
X020720D01*
X020292Y005460D02*
X020425Y005326D01*
X020145Y005476D02*
X020187D01*
X020377Y005286D02*
X020463D01*
X020473Y005276D01*
X020720D01*
X020187Y005476D02*
X020377Y005286D01*
X020205Y005306D02*
X020300D01*
X020467Y005226D02*
X020720D01*
X020447Y005246D02*
X020467Y005226D01*
X020300Y005306D02*
X020360Y005246D01*
X020447D01*
X020460Y005176D02*
X020720D01*
X020430Y005206D02*
X020460Y005176D01*
X020325Y005196D02*
X020335Y005206D01*
X020430D01*
X020718Y005124D02*
X020720Y005126D01*
X020315Y005116D02*
X020323Y005124D01*
X020718D01*
X020627Y004976D02*
X020720D01*
X020517Y004866D02*
X020627Y004976D01*
X020517Y004855D02*
Y004866D01*
X022465Y006596D02*
X022468D01*
X022458Y006586D02*
X022468Y006596D01*
X022458Y006314D02*
Y006586D01*
X022408Y006314D02*
X022408Y006314D01*
X022408Y006314D02*
Y006569D01*
X022405Y006572D02*
X022408Y006569D01*
X022345Y006846D02*
X022405Y006786D01*
Y006572D02*
Y006786D01*
X022358Y006314D02*
Y006684D01*
X022265Y006776D02*
Y006846D01*
Y006776D02*
X022358Y006684D01*
X022175Y006786D02*
X022308Y006654D01*
Y006314D02*
Y006654D01*
X022258Y006314D02*
Y006494D01*
X022195Y006641D02*
Y006666D01*
X022258Y006494D02*
X022265Y006502D01*
Y006571D01*
X022195Y006641D02*
X022265Y006571D01*
X022206Y006315D02*
X022208Y006314D01*
X022206Y006315D02*
Y006547D01*
X022058Y006314D02*
Y006508D01*
X022085Y006536D01*
Y006546D01*
X022008Y006314D02*
X022010Y006316D01*
Y006641D01*
X022035Y006666D01*
Y006686D01*
X021955Y004183D02*
X021958Y004189D01*
X021936Y004079D02*
X021946D01*
X021958Y004091D01*
Y004189D01*
X021874Y004016D02*
X021936Y004079D01*
X022745Y003926D02*
X022835D01*
X022925Y003836D01*
X023052D01*
X023172Y003716D01*
X023975D01*
X022582Y004976D02*
X022845D01*
X022137Y005106D02*
X022137Y005106D01*
X022535Y005023D02*
Y005024D01*
Y005023D02*
X022582Y004976D01*
X022453Y005106D02*
X022535Y005024D01*
X022137Y005106D02*
X022453D01*
X022545Y005106D02*
X022625Y005026D01*
X022845D01*
X022177Y005166D02*
X022197Y005146D01*
X022386D01*
X022416Y005176D01*
X022845D01*
X022025Y005166D02*
X022177D01*
X021925Y005276D02*
X022000D01*
X022070Y005206D01*
X022194D01*
X022401Y005226D02*
X022845D01*
X022194Y005206D02*
X022214Y005186D01*
X022361D01*
X022401Y005226D01*
X022227Y005230D02*
X022348D01*
X022180Y005276D02*
X022227Y005230D01*
X022348D02*
X022385Y005266D01*
X022085Y005276D02*
X022180D01*
X022385Y005266D02*
X022385D01*
X022395Y005276D01*
X022845D01*
X020327Y004833D02*
X020533Y004626D01*
X020327Y004833D02*
Y004875D01*
X020533Y004626D02*
X020720D01*
X020325Y004876D02*
X020327Y004875D01*
X020321Y004756D02*
X020501Y004576D01*
X020720D01*
X020315Y004756D02*
X020321D01*
X021700Y003896D02*
X021895D01*
X021558Y004039D02*
X021700Y003896D01*
X021558Y004039D02*
Y004189D01*
X022735Y006026D02*
X022845D01*
X022655Y006106D02*
X022735Y006026D01*
X022655Y006106D02*
Y006108D01*
X022763Y003796D02*
X023035D01*
X023157Y003675D01*
X023975D01*
X021458Y003982D02*
X021644Y003796D01*
X021458Y003982D02*
Y004189D01*
X021644Y003796D02*
X022045D01*
X022665Y003809D02*
X022968Y003506D01*
X022665Y003809D02*
Y003856D01*
X022968Y003506D02*
X023975D01*
X021994Y003836D02*
X022034Y003876D01*
X022045D01*
X021510Y004030D02*
Y004106D01*
Y004030D02*
X021704Y003836D01*
X021994D01*
X022158Y003712D02*
Y004189D01*
X022465Y003016D02*
X022485Y002996D01*
X022555D01*
X022465Y003016D02*
Y003404D01*
X022158Y003712D02*
X022465Y003404D01*
X022208Y003732D02*
Y004189D01*
X022514Y003108D02*
X022535Y003086D01*
X022815D01*
X022871Y003030D01*
X022876D01*
X022905Y003001D01*
Y002996D02*
Y003001D01*
X022208Y003732D02*
X022514Y003426D01*
Y003108D02*
Y003426D01*
X022258Y003744D02*
Y004189D01*
Y003744D02*
X022585Y003416D01*
Y003146D02*
Y003416D01*
X022485Y002866D02*
Y002876D01*
Y002866D02*
X022555Y002796D01*
X022308Y003774D02*
Y004189D01*
Y003774D02*
X022665Y003416D01*
X022815Y002796D02*
X022905D01*
X022665Y003146D02*
Y003416D01*
X022420Y005026D02*
X022455Y004991D01*
Y004990D02*
Y004991D01*
Y004990D02*
X022719Y004726D01*
X022845D01*
X022315Y004386D02*
Y005015D01*
X022327Y005026D01*
X022420D01*
X022565Y002596D02*
X022567Y002599D01*
X022265Y004336D02*
X022315Y004386D01*
X022265Y004336D02*
X022275Y004326D01*
X022265Y004326D02*
Y004336D01*
X022567Y002689D02*
X022569Y002691D01*
X022567Y002599D02*
Y002689D01*
X022265Y005046D02*
X022285Y005066D01*
X022725Y004776D02*
X022845D01*
X022437Y005066D02*
X022495Y005008D01*
Y005006D02*
Y005008D01*
Y005006D02*
X022725Y004776D01*
X022265Y004456D02*
Y005046D01*
X022285Y005066D02*
X022437D01*
X022185Y004376D02*
X022265Y004456D01*
X022825Y002596D02*
X022905D01*
X022185Y004376D02*
X022185Y004376D01*
Y004332D02*
Y004376D01*
X021354Y004405D02*
X021508Y004558D01*
X022455Y002396D02*
X022555D01*
X021508Y005940D02*
X021535Y005912D01*
X021508Y005940D02*
Y006314D01*
Y004558D02*
Y005802D01*
X021535Y005829D01*
Y005912D01*
X022815Y002396D02*
X022905D01*
X021458Y005933D02*
X021495Y005896D01*
X021458Y005933D02*
Y006314D01*
X021345Y004506D02*
X021468Y004629D01*
Y005818D01*
X021495Y005846D01*
Y005896D01*
X021600Y004784D02*
X021865Y005050D01*
X023330Y005796D02*
X023330Y005796D01*
X021865Y005348D02*
X021992Y005475D01*
X022120D01*
X023150Y005796D02*
X023330D01*
X021408Y004189D02*
Y004289D01*
X021600Y004481D01*
Y004784D01*
X021865Y005050D02*
Y005348D01*
X022120Y005475D02*
X022525Y005880D01*
Y005916D01*
X021560Y004801D02*
X021824Y005066D01*
Y005364D01*
X023860Y005796D02*
X024035D01*
X023860Y005796D02*
X023860Y005796D01*
X021358Y004189D02*
Y004295D01*
X021560Y004498D01*
Y004801D01*
X021824Y005364D02*
X021975Y005515D01*
X022104D01*
X022394Y005805D01*
Y005855D01*
X022414Y005876D01*
X020718Y004779D02*
X020720Y004776D01*
X020466Y004779D02*
X020718D01*
X020457Y004788D02*
X020466Y004779D01*
X020945Y003789D02*
Y003846D01*
X020875Y003716D02*
Y003719D01*
X020945Y003789D01*
X020785Y003406D02*
X020875D01*
X020785Y003406D02*
X020785Y003406D01*
X020555Y004706D02*
X020566D01*
X020586Y004726D01*
X020720D01*
X020735Y003326D02*
Y003336D01*
X020740Y003411D02*
Y003491D01*
X020735Y003406D02*
X020740Y003411D01*
X020995Y003746D02*
Y003846D01*
X020740Y003491D02*
X020995Y003746D01*
X020735Y003326D02*
X020775Y003286D01*
Y003276D02*
Y003286D01*
X020505Y006286D02*
Y006336D01*
Y006286D02*
X020585Y006206D01*
X020835D01*
X020875Y006166D01*
Y006116D02*
Y006166D01*
X020835Y006076D02*
X020875Y006116D01*
X020720Y006076D02*
X020835D01*
X020595Y005676D02*
X020720D01*
X020345Y005856D02*
X020415D01*
X020595Y005676D01*
X020346Y006036D02*
X020426D01*
X020345Y006036D02*
X020346Y006036D01*
X020426D02*
X020475Y005986D01*
Y005853D02*
Y005986D01*
Y005853D02*
X020602Y005726D01*
X020720D01*
X021955Y003346D02*
Y003476D01*
X022105Y004186D02*
X022108Y004189D01*
X021985Y004706D02*
X022108Y004584D01*
Y004189D02*
Y004584D01*
X021955Y003476D02*
X022075D01*
X022105Y003506D01*
Y004186D01*
X021985Y004706D02*
Y004806D01*
X021945Y004846D02*
Y004866D01*
Y004846D02*
X021985Y004806D01*
X019130Y006616D02*
X019133Y006614D01*
X020355Y003286D02*
X020685D01*
X020685D02*
Y003406D01*
X020685Y003286D02*
X020685Y003286D01*
X020685D02*
X020685Y003286D01*
Y003282D02*
Y003286D01*
Y003282D02*
X020750Y003216D01*
X020895D01*
X020935Y003256D01*
X021265Y003956D02*
X021315Y004006D01*
Y004016D01*
X021253Y004079D02*
X021315Y004016D01*
X021265Y003627D02*
Y003956D01*
X021219Y004079D02*
X021253D01*
X021253Y003615D02*
X021265Y003627D01*
X021062Y003615D02*
X021253D01*
X021208Y004091D02*
X021219Y004079D01*
X021208Y004091D02*
Y004189D01*
X021050Y003627D02*
X021062Y003615D01*
X021050Y003627D02*
Y003841D01*
X021045Y003846D02*
X021050Y003841D01*
X023055Y006066D02*
Y006196D01*
X023135Y006276D01*
Y006366D01*
X023165Y006396D01*
X023330D01*
X023645D01*
X023669Y006373D01*
Y006173D02*
Y006373D01*
Y006173D02*
X023735Y006106D01*
X024015D01*
X024055Y006146D01*
Y006206D01*
X024235Y006386D01*
X023005Y006836D02*
X023085D01*
X023120Y006871D01*
X023448D01*
X023555Y006763D01*
Y006551D02*
Y006763D01*
Y006551D02*
X023709Y006397D01*
Y006310D02*
Y006397D01*
Y006310D02*
X023823Y006196D01*
X023860D01*
X023945D01*
X024295Y006546D01*
X023025Y006956D02*
X023075D01*
X023005Y006976D02*
X023025Y006956D01*
X023075D02*
X023118Y006914D01*
X023460D01*
X023463Y006911D01*
X023464D01*
X023595Y006780D01*
Y006576D02*
Y006780D01*
Y006576D02*
X023668Y006504D01*
X023668D01*
X023742Y006430D01*
X023827D01*
X023860Y006396D01*
X024065D01*
X024175Y006506D01*
X020215Y006246D02*
Y006336D01*
Y006246D02*
X020335Y006126D01*
X020720D01*
X020075Y006336D02*
X020085D01*
X020168Y006419D01*
X020568D01*
X020595Y006446D01*
Y006546D01*
X020695Y006646D01*
X021009D01*
X021058Y006598D01*
Y006314D02*
Y006598D01*
X020365Y006226D02*
Y006336D01*
X020893Y005724D02*
X020895Y005722D01*
Y004976D02*
Y005722D01*
X020845Y004926D02*
X020895Y004976D01*
X020720Y004926D02*
X020845D01*
X021485Y006956D02*
X021593D01*
X021594Y006958D01*
X023686Y006826D02*
X023716Y006796D01*
X023675Y006826D02*
X023686D01*
X023716Y006796D02*
X023860D01*
X023860Y006796D02*
X023876Y006780D01*
X023860Y006796D02*
X023860Y006796D01*
X023876Y006780D02*
X023892Y006796D01*
X021485Y006816D02*
X021535D01*
X021595Y006876D01*
X023860Y006596D02*
X024025D01*
X023860Y006596D02*
X023860Y006596D01*
X023864Y005593D02*
X024025D01*
X023860Y005596D02*
X023864Y005593D01*
X023147D02*
X023327D01*
X023330Y005596D01*
X021715Y006956D02*
X021730Y006941D01*
Y006751D02*
Y006941D01*
Y006751D02*
X021745Y006736D01*
X022848Y004424D02*
X022938D01*
X022845Y004426D02*
X022848Y004424D01*
X022938D02*
X022955Y004406D01*
Y004291D02*
Y004406D01*
X022875Y004211D02*
X022955Y004291D01*
X022875Y004186D02*
Y004211D01*
X021608Y006314D02*
X021610Y006311D01*
Y006221D02*
Y006311D01*
Y006221D02*
X021655Y006176D01*
X021668D02*
X021675Y006169D01*
X021655Y006176D02*
X021668D01*
X020582Y005576D02*
X020720D01*
X020532Y005626D02*
X020582Y005576D01*
X020455Y005626D02*
X020532D01*
X021565Y003726D02*
X021575Y003736D01*
X021785D01*
X020155Y005186D02*
X020185D01*
X020137Y005205D02*
X020155Y005186D01*
X020077Y005205D02*
X020137D01*
X020075Y005206D02*
X020077Y005205D01*
X021145Y003697D02*
Y003846D01*
X021135Y003676D02*
Y003681D01*
X021095Y003721D02*
X021135Y003681D01*
X021095Y003721D02*
Y003846D01*
X020995Y003301D02*
Y003406D01*
Y003301D02*
X021035Y003261D01*
Y003256D02*
Y003261D01*
X022836Y006566D02*
X022855D01*
X021658Y004189D02*
X021660Y004186D01*
Y004021D02*
Y004186D01*
Y004021D02*
X021665Y004016D01*
X020576Y005076D02*
X020720D01*
X020555Y005056D02*
X020576Y005076D01*
X020555Y005046D02*
Y005056D01*
X022716Y005076D02*
X022845D01*
X022965D01*
X022686Y005106D02*
X022716Y005076D01*
X022965D02*
X023035Y005006D01*
X022655Y005106D02*
X022686D01*
X023035Y005006D02*
X023115D01*
X023035Y005588D02*
Y005736D01*
X023023Y005576D02*
X023035Y005588D01*
X022845Y005576D02*
X023023D01*
X019895Y004246D02*
X019955Y004186D01*
X020185D01*
X020958Y006204D02*
Y006314D01*
Y006204D02*
X020995Y006166D01*
X021043D01*
X021045Y006169D01*
X022058Y004050D02*
Y004189D01*
X022045Y004026D02*
Y004037D01*
X022058Y004050D01*
X022156Y006313D02*
X022158Y006314D01*
X022156Y006171D02*
Y006313D01*
X022154Y006168D02*
X022156Y006171D01*
X019915Y006306D02*
Y006326D01*
X019925Y006336D01*
X019825Y006216D02*
X019825D01*
X019915Y006306D01*
D56*
X019895Y004956D02*
D03*
D57*
X020000Y004859D02*
D03*
Y004924D02*
D03*
Y004989D02*
D03*
Y005054D02*
D03*
X019790Y004859D02*
D03*
Y004924D02*
D03*
Y004989D02*
D03*
D58*
Y005054D02*
D03*
D59*
X019485Y005226D02*
D03*
X025125Y006046D02*
D03*
D60*
X019285Y005226D02*
D03*
X019085D02*
D03*
X018885D02*
D03*
X019485Y004276D02*
D03*
X019285D02*
D03*
X019085D02*
D03*
X018885D02*
D03*
X024925Y006046D02*
D03*
X024725D02*
D03*
X024525D02*
D03*
X025125Y005096D02*
D03*
X024925D02*
D03*
X024725D02*
D03*
X024525D02*
D03*
D61*
X023330Y002396D02*
D03*
X023860D02*
D03*
X023330Y002596D02*
D03*
X023860D02*
D03*
X023330Y002796D02*
D03*
X023860D02*
D03*
X023330Y002996D02*
D03*
X023860D02*
D03*
X023330Y003796D02*
D03*
X023860D02*
D03*
X023330Y003196D02*
D03*
X023860D02*
D03*
X023330Y003396D02*
D03*
X023860D02*
D03*
X023330Y002196D02*
D03*
X023860D02*
D03*
X023330Y003596D02*
D03*
X023860D02*
D03*
X023330Y003996D02*
D03*
X023860D02*
D03*
X023860Y004196D02*
D03*
X023330D02*
D03*
X023860Y004996D02*
D03*
X023330D02*
D03*
X023860Y004796D02*
D03*
X023330D02*
D03*
X023860Y004596D02*
D03*
X023330D02*
D03*
X023860Y004396D02*
D03*
X023330D02*
D03*
X023860Y006996D02*
D03*
X023330D02*
D03*
Y006596D02*
D03*
Y006196D02*
D03*
Y006796D02*
D03*
X023860Y005196D02*
D03*
X023330D02*
D03*
X023860Y005996D02*
D03*
X023330D02*
D03*
X023860Y005396D02*
D03*
X023330D02*
D03*
Y005796D02*
D03*
X023860D02*
D03*
X023330Y006396D02*
D03*
X023860Y006196D02*
D03*
Y006396D02*
D03*
Y006796D02*
D03*
Y006596D02*
D03*
Y005596D02*
D03*
X023330D02*
D03*
D62*
X024555Y003886D02*
D03*
Y004456D02*
D03*
X025125Y003886D02*
D03*
Y004456D02*
D03*
D63*
X025115Y006666D02*
D03*
X024545D02*
D03*
D64*
X018995Y005756D02*
D03*
Y006125D02*
D03*
X019575Y005756D02*
D03*
Y006125D02*
D03*
X019895Y004615D02*
D03*
Y004246D02*
D03*
X021885Y002306D02*
D03*
Y002675D02*
D03*
D65*
X021375Y003726D02*
D03*
X021565D02*
D03*
X023065Y004186D02*
D03*
X022875D02*
D03*
X021905Y006956D02*
D03*
X021715D02*
D03*
X019645Y006356D02*
D03*
X019455D02*
D03*
X021295Y003396D02*
D03*
X021485D02*
D03*
X019795Y005216D02*
D03*
X019985D02*
D03*
X020395Y004026D02*
D03*
X020585D02*
D03*
D66*
X020185Y004376D02*
D03*
Y004186D02*
D03*
X023025Y006366D02*
D03*
Y006556D02*
D03*
X021955Y003476D02*
D03*
Y003666D02*
D03*
X023115Y005196D02*
D03*
Y005006D02*
D03*
X022855Y006366D02*
D03*
Y006556D02*
D03*
X022165Y002266D02*
D03*
Y002456D02*
D03*
X020325Y002456D02*
D03*
Y002266D02*
D03*
X020185Y004826D02*
D03*
Y004636D02*
D03*
Y005186D02*
D03*
Y004996D02*
D03*
X020355Y003286D02*
D03*
Y003476D02*
D03*
D67*
X019822Y005676D02*
D03*
X020025D02*
D03*
X019825Y006036D02*
D03*
X020028D02*
D03*
X019825Y005856D02*
D03*
X020028D02*
D03*
D68*
X019935Y006506D02*
D03*
Y006336D02*
D03*
X020075Y006336D02*
D03*
Y006506D02*
D03*
X020215Y006336D02*
D03*
Y006506D02*
D03*
X020365Y006506D02*
D03*
Y006336D02*
D03*
X020505Y006506D02*
D03*
Y006336D02*
D03*
X023055Y005896D02*
D03*
Y006066D02*
D03*
D69*
X021315Y006816D02*
D03*
X021485D02*
D03*
X021315Y006956D02*
D03*
X021485D02*
D03*
X023005Y006836D02*
D03*
X022835D02*
D03*
Y006976D02*
D03*
X023005D02*
D03*
X020175Y005676D02*
D03*
X020345D02*
D03*
X020175Y006036D02*
D03*
X020345D02*
D03*
X020175Y005856D02*
D03*
X020345D02*
D03*
X021315Y006676D02*
D03*
X021485D02*
D03*
X021315Y006536D02*
D03*
X021485D02*
D03*
X021955Y003346D02*
D03*
X021785D02*
D03*
X022725Y002996D02*
D03*
X022555D02*
D03*
X023075D02*
D03*
X022905D02*
D03*
X022725Y002796D02*
D03*
X022555D02*
D03*
X023075D02*
D03*
X022905D02*
D03*
X022735Y002596D02*
D03*
X022565D02*
D03*
X023075D02*
D03*
X022905D02*
D03*
X022725Y002396D02*
D03*
X022555D02*
D03*
X023075D02*
D03*
X022905D02*
D03*
D70*
X021045Y003846D02*
D03*
X021145Y003406D02*
D03*
X020995Y003846D02*
D03*
X020945D02*
D03*
Y003406D02*
D03*
X021045D02*
D03*
X021095D02*
D03*
X020995D02*
D03*
X021095Y003846D02*
D03*
X020685Y003406D02*
D03*
X020585Y003846D02*
D03*
X020735Y003406D02*
D03*
X020785D02*
D03*
Y003846D02*
D03*
X020685D02*
D03*
X020635D02*
D03*
Y003406D02*
D03*
X020735Y003846D02*
D03*
D71*
X021145D02*
D03*
X020585Y003406D02*
D03*
D72*
X021258Y004189D02*
D03*
X021308D02*
D03*
X021608D02*
D03*
X021308Y006314D02*
D03*
X021058D02*
D03*
X021208Y004189D02*
D03*
X022108D02*
D03*
X022008D02*
D03*
X022558Y006314D02*
D03*
X021008D02*
D03*
X021358Y004189D02*
D03*
X021408D02*
D03*
X021458Y006314D02*
D03*
X021508D02*
D03*
X022308Y004189D02*
D03*
X022258D02*
D03*
X022208D02*
D03*
X022158D02*
D03*
X021508D02*
D03*
X021458D02*
D03*
X021558D02*
D03*
X021958D02*
D03*
X022008Y006314D02*
D03*
X022058D02*
D03*
X022208D02*
D03*
X022258D02*
D03*
X022308D02*
D03*
X022358D02*
D03*
X022408D02*
D03*
X022458D02*
D03*
X021658D02*
D03*
X021708D02*
D03*
X021758D02*
D03*
X021808D02*
D03*
X021858D02*
D03*
X021908D02*
D03*
X021958D02*
D03*
X021108Y004189D02*
D03*
X021058D02*
D03*
X021008D02*
D03*
X020958D02*
D03*
X021108Y006314D02*
D03*
X021158D02*
D03*
X021358D02*
D03*
X021408D02*
D03*
X022608D02*
D03*
X022658D02*
D03*
X021908Y004189D02*
D03*
X021858D02*
D03*
X021808D02*
D03*
X021758D02*
D03*
X022658D02*
D03*
X022608D02*
D03*
X022558D02*
D03*
X022408D02*
D03*
X022508D02*
D03*
X021158D02*
D03*
X021708D02*
D03*
X022358D02*
D03*
X022108Y006314D02*
D03*
X021558D02*
D03*
X020908D02*
D03*
X022458Y004189D02*
D03*
X020958Y006314D02*
D03*
X021208D02*
D03*
X021258D02*
D03*
X021608D02*
D03*
X022158D02*
D03*
X022508D02*
D03*
X022058Y004189D02*
D03*
X021658D02*
D03*
D73*
X022845Y004626D02*
D03*
Y004676D02*
D03*
Y004826D02*
D03*
Y004876D02*
D03*
Y004926D02*
D03*
X020720Y005426D02*
D03*
Y004876D02*
D03*
Y004826D02*
D03*
Y004926D02*
D03*
Y006126D02*
D03*
Y004426D02*
D03*
Y004676D02*
D03*
Y005626D02*
D03*
Y005826D02*
D03*
X022845Y006076D02*
D03*
X020720Y005726D02*
D03*
Y005676D02*
D03*
Y006076D02*
D03*
Y004726D02*
D03*
Y004776D02*
D03*
X022845D02*
D03*
Y004726D02*
D03*
Y006026D02*
D03*
X020720Y004576D02*
D03*
Y004626D02*
D03*
X022845Y005276D02*
D03*
Y005226D02*
D03*
Y005176D02*
D03*
Y005026D02*
D03*
Y004976D02*
D03*
X020720D02*
D03*
Y005126D02*
D03*
Y005176D02*
D03*
Y005226D02*
D03*
Y005276D02*
D03*
Y005326D02*
D03*
Y005376D02*
D03*
X022845D02*
D03*
Y005326D02*
D03*
Y005926D02*
D03*
Y005876D02*
D03*
Y005826D02*
D03*
Y005776D02*
D03*
Y005726D02*
D03*
Y005676D02*
D03*
Y005526D02*
D03*
Y005476D02*
D03*
Y005426D02*
D03*
X020720Y004476D02*
D03*
Y004526D02*
D03*
X022845Y004576D02*
D03*
Y004526D02*
D03*
X020720Y005976D02*
D03*
Y006026D02*
D03*
Y005776D02*
D03*
Y005926D02*
D03*
X022845Y004376D02*
D03*
Y004476D02*
D03*
Y005126D02*
D03*
Y005626D02*
D03*
Y006126D02*
D03*
X020720Y005526D02*
D03*
Y005026D02*
D03*
Y004376D02*
D03*
Y005076D02*
D03*
Y005476D02*
D03*
Y005576D02*
D03*
Y005876D02*
D03*
X022845Y005976D02*
D03*
Y005576D02*
D03*
Y005076D02*
D03*
Y004426D02*
D03*
D74*
X020908Y004189D02*
D03*
D75*
X021515Y002265D02*
D03*
Y003027D02*
D03*
Y003154D02*
D03*
Y002900D02*
D03*
Y002773D02*
D03*
Y002646D02*
D03*
Y002519D02*
D03*
Y002392D02*
D03*
X020600Y002900D02*
D03*
Y002773D02*
D03*
Y002646D02*
D03*
Y002519D02*
D03*
Y002392D02*
D03*
Y003027D02*
D03*
Y002265D02*
D03*
Y003154D02*
D03*
D76*
X020228Y006807D02*
D03*
X020355D02*
D03*
X020482D02*
D03*
X020101D02*
D03*
D77*
X019065Y006909D02*
D03*
X018768D02*
D03*
X019363D02*
D03*
D78*
X019130Y006596D02*
D03*
X019065D02*
D03*
X018935D02*
D03*
X019195D02*
D03*
X019000D02*
D03*
D79*
X019775Y006766D02*
D03*
X019045Y002686D02*
D03*
X032425Y002566D02*
D03*
D80*
X031595Y004226D02*
X032165D01*
X032605Y003786D02*
X032855D01*
X032165Y004226D02*
X032605Y003786D01*
X032205Y004086D02*
X032595Y003696D01*
X031785Y004086D02*
X032205D01*
X032595Y003696D02*
X032725D01*
X032304Y004386D02*
X032855D01*
X028935Y004536D02*
X032154D01*
X032304Y004386D01*
X032405Y004186D02*
X032855D01*
X030335Y004466D02*
X032125D01*
X032405Y004186D01*
X030364Y004396D02*
X032095D01*
X032505Y003986D02*
X032855D01*
X032095Y004396D02*
X032505Y003986D01*
X032835Y003586D02*
X032855D01*
X032725Y003696D02*
X032835Y003586D01*
X031595Y003256D02*
Y003896D01*
X031785Y004086D01*
X030250Y004282D02*
X030364Y004396D01*
X030250Y003856D02*
Y004282D01*
X030095Y003256D02*
Y003701D01*
X030250Y003856D01*
X030095Y004226D02*
X030335Y004466D01*
X028775Y004606D02*
X032204D01*
X028595Y004426D02*
X028775Y004606D01*
X027644Y004676D02*
X032185D01*
X032185Y004676D01*
X032194D01*
X032304Y004786D02*
X032855D01*
X032194Y004676D02*
X032304Y004786D01*
X032224Y004586D02*
X032855D01*
X032204Y004606D02*
X032224Y004586D01*
X028742Y004343D02*
X028935Y004536D01*
X028742Y003403D02*
Y004343D01*
X028595Y004226D02*
Y004426D01*
X027245Y004277D02*
X027644Y004676D01*
X028595Y003256D02*
X028742Y003403D01*
X027245Y004176D02*
Y004277D01*
X027095Y003256D02*
Y004026D01*
X027245Y004176D01*
X032845Y004976D02*
X032855Y004986D01*
X032395Y004976D02*
X032845D01*
X027615Y004746D02*
X032165D01*
X032395Y004976D01*
X027095Y004226D02*
X027615Y004746D01*
X032431Y006411D02*
X032855Y005986D01*
X032431Y006411D02*
Y006612D01*
X028955Y006776D02*
X032266D01*
X032431Y006612D01*
X028595Y006416D02*
X028955Y006776D01*
X027445Y006986D02*
X032455D01*
X032855Y006586D01*
X028765Y006846D02*
X032295D01*
X032543Y006499D02*
Y006599D01*
X032295Y006846D02*
X032543Y006599D01*
X027505Y006916D02*
X032325D01*
X032633Y006609D02*
Y006609D01*
X032325Y006916D02*
X032633Y006609D01*
X031595Y006646D02*
Y006686D01*
X030095Y006646D02*
Y006686D01*
X030095Y006686D02*
X030095Y006686D01*
X028595Y005706D02*
Y006416D01*
X032543Y006499D02*
X032855Y006186D01*
X028595Y006676D02*
X028765Y006846D01*
X032633Y006609D02*
X032855Y006386D01*
X027245Y006656D02*
X027505Y006916D01*
X027245Y006246D02*
Y006656D01*
X027095Y005666D02*
Y006096D01*
X027245Y006246D01*
X027095Y006636D02*
X027445Y006986D01*
X031354Y004220D02*
X031356Y004218D01*
X030591Y004219D02*
X030592Y004220D01*
X029854D02*
X029856Y004218D01*
X029091Y004219D02*
X029092Y004220D01*
X028354D02*
X028356Y004218D01*
X027591Y004219D02*
X027592Y004220D01*
X027095Y004226D02*
Y004236D01*
X026854Y004220D02*
X026856Y004218D01*
X026091Y004219D02*
X026092Y004220D01*
X031354Y006670D02*
X031356Y006668D01*
X030591Y006669D02*
X030592Y006670D01*
X029854D02*
X029856Y006668D01*
X029091Y006669D02*
X029092Y006670D01*
X028354D02*
X028356Y006668D01*
X027591Y006669D02*
X027592Y006670D01*
X026091Y006629D02*
X026092Y006630D01*
X026854D02*
X026856Y006628D01*
X022865Y002196D02*
X023330D01*
X022865Y002196D02*
X022865Y002196D01*
X023330D02*
X023860D01*
X020185Y004506D02*
Y004636D01*
Y004376D02*
Y004506D01*
X020000Y004690D02*
Y004849D01*
X019925Y004615D02*
X020000Y004690D01*
X019865Y004615D02*
X019895D01*
X019790Y004690D02*
X019865Y004615D01*
X019790Y004680D02*
Y004849D01*
X020325Y002681D02*
Y002796D01*
Y002566D02*
Y002681D01*
X020417Y002773D02*
X020600D01*
X020325Y002681D02*
X020417Y002773D01*
X020325Y002796D02*
X020429Y002900D01*
X020600D01*
X020405Y002646D02*
X020600D01*
X020325Y002456D02*
Y002566D01*
X020405Y002646D01*
X020025Y005676D02*
X020175D01*
X020028Y006036D02*
X020175D01*
X020028Y005856D02*
X020175D01*
X020175Y005856D01*
X023873Y004210D02*
X024023D01*
X023860Y004196D02*
X023873Y004210D01*
X024023D02*
X024025Y004212D01*
X021575Y006166D02*
X021580Y006161D01*
Y006158D02*
X021773Y005965D01*
X021575Y006166D02*
Y006169D01*
X021580Y006158D02*
Y006161D01*
X021773Y005965D02*
X021967D01*
X022004Y005925D02*
Y005928D01*
X021967Y005965D02*
X022004Y005928D01*
Y005925D02*
X022010Y005918D01*
X021857Y002646D02*
X021885Y002675D01*
X021515Y002646D02*
X021857D01*
X022165Y002456D02*
Y002645D01*
X021885Y002675D02*
X022136D01*
X022165Y002645D01*
X021845Y002675D02*
X021885D01*
X021515Y002773D02*
X021746D01*
X021845Y002675D01*
X021515Y002900D02*
X021841D01*
X021875Y002866D01*
Y002685D02*
Y002866D01*
Y002685D02*
X021885Y002675D01*
X021515Y003154D02*
X021797D01*
X021875Y002866D02*
Y003076D01*
X021797Y003154D02*
X021875Y003076D01*
X025453Y003250D02*
Y003504D01*
X025199D02*
X025453D01*
X025199Y003250D02*
Y003504D01*
X020224Y002266D02*
X020325D01*
X020326Y002266D02*
X020600D01*
X020600Y002265D01*
X019391Y002896D02*
X020053D01*
X020426Y003027D02*
X020600D01*
X020295Y002896D02*
X020426Y003027D01*
X019362Y002926D02*
X019391Y002896D01*
X020192Y002298D02*
Y002758D01*
Y002298D02*
X020224Y002266D01*
X020053Y002896D02*
X020192Y002758D01*
X020053Y002896D02*
X020295D01*
X019362Y003051D02*
Y003237D01*
X019364Y003239D01*
X019362Y002926D02*
Y003051D01*
X020403Y003154D02*
X020600D01*
X019618Y003063D02*
Y003239D01*
Y003063D02*
X019685Y002996D01*
X020245D01*
X020403Y003154D01*
X021785Y003736D02*
X021787Y003734D01*
X021862D01*
X021930Y003666D01*
X021955D01*
X023311Y007016D02*
X023330Y006996D01*
X023860D01*
X024018D01*
X024032Y007011D01*
X024035D01*
X023181Y006579D02*
X023184Y006583D01*
X023316D01*
X023330Y006596D01*
X021515Y002265D02*
X021844D01*
X021306D02*
X021515D01*
X021844D02*
X021885Y002306D01*
X021185Y002386D02*
X021306Y002265D01*
X021885Y002306D02*
X021925Y002266D01*
X021185Y002386D02*
Y002956D01*
X021925Y002266D02*
X022165D01*
X021185Y002957D02*
X021185Y002956D01*
X021185Y002957D02*
Y002998D01*
X021214Y003027D01*
X021515D01*
X023330Y006196D02*
X023330Y006196D01*
X023165Y006196D02*
X023330D01*
X019822Y005676D02*
X019824Y005678D01*
Y006035D02*
X019825Y006036D01*
X019824Y005678D02*
Y006035D01*
X024183Y003504D02*
X024185Y003503D01*
X024437Y003504D02*
X024438D01*
X024185Y003503D02*
X024187D01*
X024183Y003504D02*
Y003507D01*
X024177Y003514D02*
X024183Y003507D01*
Y003250D02*
X024187Y003255D01*
X024438Y003504D02*
X024441Y003507D01*
X024437Y003504D02*
Y003511D01*
X024435Y003514D02*
X024437Y003511D01*
Y003250D02*
X024441Y003254D01*
X019825Y006036D02*
Y006216D01*
D81*
X033135Y003586D02*
X033335D01*
X032855D02*
X033135D01*
Y003786D02*
X033335D01*
X032855D02*
X033135D01*
Y004186D02*
X033335D01*
X032855D02*
X033135D01*
Y003986D02*
X033335D01*
X032855D02*
X033135D01*
Y004386D02*
X033335D01*
X032855D02*
X033135D01*
Y004586D02*
X033335D01*
X032855D02*
X033135D01*
X032855Y003186D02*
X033135D01*
X033335D01*
X032855Y003386D02*
X033135D01*
X033335D01*
X032855Y004786D02*
X033135D01*
X033335D01*
X032855Y004986D02*
X033335D01*
X032855Y005186D02*
X033135D01*
X033335D01*
X032855Y005386D02*
X033135D01*
X033335D01*
X032855Y005586D02*
X033135D01*
X033335D01*
X032855Y005786D02*
X033135D01*
X033335D01*
X032855Y005986D02*
X033135D01*
X033335D01*
X032855Y006186D02*
X033135D01*
X033335D01*
X032855Y006386D02*
X033135D01*
X033335D01*
X032855Y006586D02*
X033135D01*
X033335D01*
X032855Y006786D02*
X033135D01*
X033335D01*
X033135Y006986D02*
X033335D01*
X032855D02*
X033135D01*
X024545Y006656D02*
Y006666D01*
X024535Y006676D02*
Y006916D01*
X024387Y003886D02*
X024555D01*
X024305Y003969D02*
X024387Y003886D01*
X024305Y003969D02*
Y004639D01*
X025125Y004456D02*
X025365D01*
X025453Y003504D02*
Y004368D01*
X025365Y004456D02*
X025453Y004368D01*
X025125Y004456D02*
Y005096D01*
X025125Y005096D01*
X024535Y006676D02*
X024545Y006666D01*
X025115D02*
X025335D01*
X024925Y006046D02*
Y006406D01*
X024525Y006046D02*
Y006406D01*
X024725Y005096D02*
Y005456D01*
X024525Y005096D02*
Y005456D01*
X024515Y005106D02*
X024525Y005116D01*
X024515Y005106D02*
X024525Y005096D01*
X025120Y006051D02*
X025125Y006046D01*
X025120Y006051D02*
Y006661D01*
X025115Y006666D02*
X025120Y006661D01*
X024725Y006046D02*
Y006476D01*
X024545Y006656D02*
X024725Y006476D01*
X024684Y003512D02*
X024691Y003504D01*
X024684Y003512D02*
Y003578D01*
X024552Y003710D02*
X024684Y003578D01*
X024552Y003710D02*
Y003910D01*
X024364Y004698D02*
X024857D01*
X024305Y004639D02*
X024364Y004698D01*
X024915Y004756D02*
Y005086D01*
X024857Y004698D02*
X024915Y004756D01*
Y005086D02*
X024925Y005096D01*
X025105Y003916D02*
X025115D01*
X024620Y004401D02*
X025105Y003916D01*
X024620Y004401D02*
Y004421D01*
X024555Y004486D02*
X024620Y004421D01*
X024545Y004486D02*
X024555D01*
X019575Y005496D02*
X019665D01*
X019485Y005596D02*
Y005726D01*
X019575Y005496D02*
X019665D01*
X019495Y005596D02*
Y005706D01*
X019285Y006125D02*
X019575D01*
X020263Y004506D02*
X020396Y004373D01*
Y004098D02*
Y004373D01*
X020185Y004506D02*
X020263D01*
X019925Y004615D02*
X019935D01*
X019895D02*
X019925D01*
X019935D02*
X020043Y004506D01*
X020185D01*
X021295Y003206D02*
X021295Y003206D01*
Y003396D01*
X019035Y005764D02*
X019085Y005714D01*
X019075Y004816D02*
Y004896D01*
Y004726D02*
Y004816D01*
X019085Y005596D02*
Y005714D01*
Y005603D02*
X019092D01*
X019075Y004896D02*
Y005246D01*
X019085Y005226D02*
Y005596D01*
X021485Y003391D02*
Y003396D01*
Y003391D02*
X021570Y003306D01*
X021645D01*
X019475Y005246D02*
X019485Y005256D01*
X019475Y005486D02*
X019485Y005496D01*
X019475Y005246D02*
Y005486D01*
X019485Y005256D02*
Y005496D01*
X019485Y005496D02*
Y005596D01*
X019485Y005496D02*
X019665D01*
X019495Y005706D02*
X019545Y005756D01*
X019575D01*
X020585Y004026D02*
X020745D01*
X024691Y003250D02*
Y003504D01*
X024945D01*
Y003250D02*
Y003504D01*
X019285Y003895D02*
Y004276D01*
X018915Y003836D02*
X019227D01*
X019285Y003895D01*
X018856Y003778D02*
X018915Y003836D01*
X018856Y003493D02*
Y003778D01*
X018856Y003493D02*
X018856Y003493D01*
X018856Y003239D02*
Y003493D01*
X019484Y004275D02*
X019485Y004276D01*
X019484Y003828D02*
Y004275D01*
X019343Y003686D02*
X019484Y003828D01*
X019185Y003686D02*
X019343D01*
X019115Y003498D02*
Y003616D01*
X019185Y003686D01*
X019110Y003493D02*
X019115Y003498D01*
X019110Y003239D02*
Y003493D01*
X019364Y003239D02*
Y003493D01*
X019618Y003239D02*
Y003493D01*
X019285Y005936D02*
Y006125D01*
Y005226D02*
Y005936D01*
Y006125D02*
X019285Y006125D01*
X018995D02*
X019285D01*
X019275Y005246D02*
X019275Y005246D01*
X019265Y005236D02*
X019275Y005246D01*
X019265Y004876D02*
Y005236D01*
Y004876D02*
X019285Y004856D01*
D82*
X023333Y003194D02*
X023858D01*
X023333Y003399D02*
X023858D01*
X023135Y003346D02*
X023181Y003392D01*
X023330Y003196D02*
X023333Y003194D01*
X022955Y003346D02*
X023135D01*
X023858Y003399D02*
X023860Y003396D01*
X023015Y003196D02*
X023015Y003196D01*
X023326Y003392D02*
X023330Y003396D01*
Y003596D02*
X023860D01*
X023330Y003396D02*
X023333Y003399D01*
X023015Y003196D02*
X023330D01*
X023858Y003194D02*
X023860Y003196D01*
X023181Y003392D02*
X023326D01*
X019364Y004655D02*
X019677Y004969D01*
X019085Y004706D02*
X019137Y004655D01*
X019364D01*
D83*
X023330Y003796D02*
X023330Y003796D01*
X023705Y003796D02*
X023705Y003796D01*
X023330Y003996D02*
X023485D01*
X023705D02*
X023860D01*
X023860Y003796D02*
X023860Y003796D01*
X018768Y006929D02*
X019065D01*
X019645Y006356D02*
Y006381D01*
X019489Y006538D02*
Y006713D01*
X019363Y006909D02*
X019463Y006809D01*
X019489Y006538D02*
X019645Y006381D01*
X019463Y006739D02*
Y006809D01*
X019065Y006929D02*
X019363D01*
X019463Y006739D02*
X019489Y006713D01*
X020282Y006613D02*
X020285Y006616D01*
X020226Y006613D02*
X020282D01*
X020226D02*
Y006806D01*
Y006508D02*
Y006613D01*
Y006806D02*
X020228Y006807D01*
X020225Y006506D02*
X020226Y006508D01*
X020101Y006526D02*
Y006807D01*
X020081Y006506D02*
X020101Y006526D01*
X020075Y006506D02*
X020081D01*
X020360Y006512D02*
Y006802D01*
X020355Y006807D02*
X020360Y006802D01*
Y006512D02*
X020365Y006506D01*
X020482Y006530D02*
Y006807D01*
Y006530D02*
X020505Y006506D01*
X020515D01*
X019698Y004989D02*
X019790D01*
X019677Y004969D02*
X019698Y004989D01*
X020316Y005577D02*
X020345Y005606D01*
X020225Y005577D02*
X020316D01*
X023155Y004106D02*
X023159Y004110D01*
X023183D01*
X023270Y004196D01*
X023330D01*
X023330Y005196D02*
X023330Y005196D01*
X023860D02*
X023860Y005196D01*
X023685Y005196D02*
X023860D01*
X023330D02*
X023495D01*
X023495Y005196D01*
X023685D02*
X023685Y005196D01*
X018685Y006316D02*
X018691D01*
X018741Y006266D01*
X019070D01*
X019160Y006356D01*
X019455D01*
X022875Y004106D02*
Y004186D01*
Y004106D02*
X022985Y003996D01*
X023330D01*
X019754Y004924D02*
X019790D01*
X019695Y004865D02*
X019754Y004924D01*
X019685Y004826D02*
X019695Y004836D01*
Y004865D01*
D84*
X020185Y004911D02*
Y004996D01*
X020173Y004924D02*
X020185Y004911D01*
Y004826D02*
Y004911D01*
X020000Y004924D02*
X020173D01*
X020355Y003476D02*
X020385Y003506D01*
Y003586D01*
X020785Y003846D02*
X020865D01*
X020675Y006316D02*
X020885D01*
X019125Y006426D02*
Y006474D01*
X019036Y006337D02*
X019125Y006426D01*
Y006474D02*
X019125Y006474D01*
Y006591D01*
X019130Y006596D01*
X018847Y006337D02*
X019036D01*
X018968Y006419D02*
X019040D01*
X019070Y006449D01*
X019065Y006596D02*
X019070Y006591D01*
Y006449D02*
Y006591D01*
X018965Y006416D02*
X018968Y006419D01*
X023856Y006600D02*
X023860Y006596D01*
X019325Y003087D02*
X019362Y003051D01*
X018861Y003087D02*
X019325D01*
X018751Y003198D02*
X018861Y003087D01*
X018741Y006266D02*
X018751Y006256D01*
Y003198D02*
Y006256D01*
X018691Y006382D02*
X018748Y006439D01*
X018877D01*
X018930Y006492D01*
Y006591D01*
X018935Y006596D01*
X018691Y006322D02*
Y006382D01*
X018685Y006316D02*
X018691Y006322D01*
X019224Y006437D02*
Y006445D01*
X019200Y006470D02*
X019224Y006445D01*
X019200Y006470D02*
Y006591D01*
X019195Y006596D02*
X019200Y006591D01*
X022855Y006556D02*
X022940D01*
Y006611D01*
Y006556D02*
X023025D01*
X022940Y006611D02*
X022965Y006636D01*
X023124D01*
X023181Y006579D01*
X020585Y003406D02*
Y003406D01*
Y003526D01*
X020515Y003406D02*
X020585D01*
Y003526D02*
X020735Y003676D01*
X020491Y003431D02*
X020515Y003406D01*
X020735Y003676D02*
Y003846D01*
X020491Y003431D02*
Y003481D01*
X020485Y003486D02*
X020491Y003481D01*
D85*
X021375Y003576D02*
Y003726D01*
D86*
X019872Y003493D02*
X019874Y003495D01*
X020600Y002519D02*
X020679D01*
X020756Y002492D02*
X020771D01*
X020679Y002519D02*
X020706Y002493D01*
X020771Y002492D02*
X020775Y002496D01*
X020706Y002488D02*
X020751D01*
X020756Y002492D01*
X020706Y002488D02*
Y002493D01*
X020679Y002392D02*
X020706Y002419D01*
X020600Y002392D02*
X020679D01*
X020706Y002419D02*
Y002425D01*
X020771Y002421D02*
X020775Y002416D01*
X020706Y002425D02*
X020751D01*
X020756Y002421D02*
X020771D01*
X020751Y002425D02*
X020756Y002421D01*
D87*
X027594Y004935D02*
D03*
X027594Y005885D02*
D03*
X029094Y004935D02*
D03*
X029094Y005885D02*
D03*
X030594Y004935D02*
D03*
X030594Y005885D02*
D03*
X026094Y002485D02*
D03*
X026094Y003435D02*
D03*
X027594Y002485D02*
D03*
X027594Y003435D02*
D03*
X029094Y002485D02*
D03*
X029094Y003435D02*
D03*
X030594Y002485D02*
D03*
X030594Y003435D02*
D03*
X026094Y005845D02*
D03*
Y004895D02*
D03*
D88*
X027848Y004935D02*
D03*
X028102D02*
D03*
X028356D02*
D03*
X027594Y005697D02*
D03*
X027848D02*
D03*
X028102D02*
D03*
X028356D02*
D03*
X027848Y005885D02*
D03*
X028102D02*
D03*
X028356D02*
D03*
X027594Y006647D02*
D03*
X027848D02*
D03*
X028102D02*
D03*
X028356D02*
D03*
X029348Y004935D02*
D03*
X029602D02*
D03*
X029856D02*
D03*
X029094Y005697D02*
D03*
X029348D02*
D03*
X029602D02*
D03*
X029856D02*
D03*
X029348Y005885D02*
D03*
X029602D02*
D03*
X029856D02*
D03*
X029094Y006647D02*
D03*
X029348D02*
D03*
X029602D02*
D03*
X029856D02*
D03*
X031356Y005697D02*
D03*
X031102D02*
D03*
X030848D02*
D03*
X030594D02*
D03*
X031356Y004935D02*
D03*
X031102D02*
D03*
X030848D02*
D03*
X031356Y006647D02*
D03*
X031102D02*
D03*
X030848D02*
D03*
X030594D02*
D03*
X031356Y005885D02*
D03*
X031102D02*
D03*
X030848D02*
D03*
X026856Y003247D02*
D03*
X026602D02*
D03*
X026348D02*
D03*
X026094D02*
D03*
X026856Y002485D02*
D03*
X026602D02*
D03*
X026348D02*
D03*
X026856Y004197D02*
D03*
X026602D02*
D03*
X026348D02*
D03*
X026094D02*
D03*
X026856Y003435D02*
D03*
X026602D02*
D03*
X026348D02*
D03*
X028356Y003247D02*
D03*
X028102D02*
D03*
X027848D02*
D03*
X027594D02*
D03*
X028356Y002485D02*
D03*
X028102D02*
D03*
X027848D02*
D03*
X028356Y004197D02*
D03*
X028102D02*
D03*
X027848D02*
D03*
X027594D02*
D03*
X028356Y003435D02*
D03*
X028102D02*
D03*
X027848D02*
D03*
X029348Y002485D02*
D03*
X029602D02*
D03*
X029856D02*
D03*
X029094Y003247D02*
D03*
X029348D02*
D03*
X029602D02*
D03*
X029856D02*
D03*
X029348Y003435D02*
D03*
X029602D02*
D03*
X029856D02*
D03*
X029094Y004197D02*
D03*
X029348D02*
D03*
X029602D02*
D03*
X029856D02*
D03*
X031356Y003247D02*
D03*
X031102D02*
D03*
X030848D02*
D03*
X030594D02*
D03*
X031356Y002485D02*
D03*
X031102D02*
D03*
X030848D02*
D03*
X031356Y004197D02*
D03*
X031102D02*
D03*
X030848D02*
D03*
X030594D02*
D03*
X031356Y003435D02*
D03*
X031102D02*
D03*
X030848D02*
D03*
X026856Y006607D02*
D03*
X026602D02*
D03*
X026348D02*
D03*
X026094D02*
D03*
X026856Y005845D02*
D03*
X026602D02*
D03*
X026348D02*
D03*
X026856Y005657D02*
D03*
X026602D02*
D03*
X026348D02*
D03*
X026094D02*
D03*
X026856Y004895D02*
D03*
X026602D02*
D03*
X026348D02*
D03*
X019285Y004856D02*
D03*
D89*
X022543Y006736D02*
D03*
X021745D02*
D03*
D90*
X018856Y003493D02*
D03*
Y003239D02*
D03*
X019872Y003493D02*
D03*
Y003239D02*
D03*
X020126D02*
D03*
X019110Y003493D02*
D03*
Y003239D02*
D03*
X019364Y003493D02*
D03*
Y003239D02*
D03*
X019618Y003493D02*
D03*
Y003239D02*
D03*
X019865Y003746D02*
D03*
X020125D02*
D03*
X024945Y003504D02*
D03*
Y003250D02*
D03*
X024691Y003504D02*
D03*
Y003250D02*
D03*
X025453D02*
D03*
X025199Y003504D02*
D03*
Y003250D02*
D03*
X024183Y003504D02*
D03*
Y003250D02*
D03*
X024437Y003504D02*
D03*
Y003250D02*
D03*
X032311D02*
D03*
Y003504D02*
D03*
X032565Y003250D02*
D03*
X033135Y003186D02*
D03*
X033335Y003186D02*
D03*
Y002986D02*
D03*
X033135Y002786D02*
D03*
X033335Y002786D02*
D03*
Y002586D02*
D03*
Y002386D02*
D03*
X033135Y002186D02*
D03*
X033335Y002186D02*
D03*
X033135Y002586D02*
D03*
Y002386D02*
D03*
Y002986D02*
D03*
Y003786D02*
D03*
X033335Y003786D02*
D03*
X033135Y003586D02*
D03*
X033335Y003586D02*
D03*
X033135Y003386D02*
D03*
X033335Y003386D02*
D03*
Y006986D02*
D03*
X033135Y006586D02*
D03*
X033335D02*
D03*
X033135Y006186D02*
D03*
X033335D02*
D03*
X033135Y005786D02*
D03*
X033335D02*
D03*
X033135Y005386D02*
D03*
X033335D02*
D03*
X033135Y004986D02*
D03*
X033335Y004986D02*
D03*
X033135Y004586D02*
D03*
X033335Y004586D02*
D03*
X033135Y004186D02*
D03*
X033335Y004186D02*
D03*
X033135Y006786D02*
D03*
X033335D02*
D03*
X033135Y006386D02*
D03*
X033335D02*
D03*
X033135Y005986D02*
D03*
X033335D02*
D03*
X033135Y005586D02*
D03*
X033335D02*
D03*
X033135Y005186D02*
D03*
X033335D02*
D03*
X033135Y004786D02*
D03*
X033335D02*
D03*
X033135Y004386D02*
D03*
X033335Y004386D02*
D03*
X033135Y003986D02*
D03*
X033335Y003986D02*
D03*
D91*
X020126Y003493D02*
D03*
X019865Y003946D02*
D03*
X020125D02*
D03*
X025453Y003504D02*
D03*
X032565D02*
D03*
D92*
X033135Y006986D02*
D03*
D93*
X018865Y003776D02*
D03*
X019185Y003676D02*
D03*
D94*
X019895Y004956D02*
D03*
D95*
X031595Y006646D02*
D03*
X030095D02*
D03*
X030372Y002717D02*
D03*
X031595Y003256D02*
D03*
Y004226D02*
D03*
X030375Y003696D02*
D03*
X028872Y002717D02*
D03*
X030095Y003256D02*
D03*
Y004226D02*
D03*
X028875Y003696D02*
D03*
X027372Y002717D02*
D03*
X028595Y003256D02*
D03*
Y004226D02*
D03*
X027375Y003696D02*
D03*
X025872Y002717D02*
D03*
X027095Y003256D02*
D03*
Y004226D02*
D03*
X025875Y003696D02*
D03*
X030372Y005167D02*
D03*
X031595Y005706D02*
D03*
X030375Y006146D02*
D03*
X028872Y005167D02*
D03*
X030095Y005706D02*
D03*
X028875Y006146D02*
D03*
X027372Y005167D02*
D03*
X028595Y005706D02*
D03*
Y006676D02*
D03*
X027375Y006146D02*
D03*
X027095Y005666D02*
D03*
Y006636D02*
D03*
X025872Y005127D02*
D03*
X025875Y006106D02*
D03*
X024535Y006916D02*
D03*
X025335Y006666D02*
D03*
X019285Y005936D02*
D03*
D96*
X032855Y003186D02*
D03*
Y003386D02*
D03*
Y003586D02*
D03*
Y003786D02*
D03*
Y003986D02*
D03*
Y004186D02*
D03*
Y004386D02*
D03*
Y004586D02*
D03*
Y004786D02*
D03*
Y004986D02*
D03*
Y005186D02*
D03*
Y005386D02*
D03*
Y005586D02*
D03*
Y005786D02*
D03*
Y005986D02*
D03*
Y006186D02*
D03*
Y006386D02*
D03*
Y006586D02*
D03*
Y006786D02*
D03*
Y006986D02*
D03*
D97*
X024105Y002896D02*
D03*
X024215D02*
D03*
X024105Y002696D02*
D03*
X024215D02*
D03*
X024105Y002496D02*
D03*
X024215D02*
D03*
X020555Y004466D02*
D03*
X020405Y004566D02*
D03*
X020895Y004046D02*
D03*
X020815Y004216D02*
D03*
X021149Y003970D02*
D03*
X020995Y004046D02*
D03*
X022655Y005446D02*
D03*
X021215Y004016D02*
D03*
X024215Y003086D02*
D03*
X024105D02*
D03*
X023075Y003196D02*
D03*
X023485Y003996D02*
D03*
Y003796D02*
D03*
X022955Y003346D02*
D03*
X023495Y003596D02*
D03*
X022865Y002196D02*
D03*
X023145Y003196D02*
D03*
X023098Y002196D02*
D03*
X023705Y003796D02*
D03*
Y003596D02*
D03*
X023015Y003196D02*
D03*
Y003346D02*
D03*
X023705Y003996D02*
D03*
X023075Y003346D02*
D03*
X024925Y006406D02*
D03*
X024525D02*
D03*
X024725Y005456D02*
D03*
X024525D02*
D03*
X020185Y004506D02*
D03*
X020085Y005106D02*
D03*
X020955Y006456D02*
D03*
X020185Y004916D02*
D03*
X020285Y006616D02*
D03*
X020995Y005826D02*
D03*
Y005686D02*
D03*
X020465Y005716D02*
D03*
X020485Y005506D02*
D03*
X021965Y004016D02*
D03*
X021015Y004746D02*
D03*
X020925Y004606D02*
D03*
X021325Y003226D02*
D03*
Y003296D02*
D03*
X021255Y003226D02*
D03*
Y003296D02*
D03*
X019075Y004726D02*
D03*
X019075Y004816D02*
D03*
Y004896D02*
D03*
X019092Y005603D02*
D03*
X021635Y003336D02*
D03*
Y003276D02*
D03*
X021575Y003336D02*
D03*
Y003276D02*
D03*
X019475Y005616D02*
D03*
X019575Y005456D02*
D03*
X019645D02*
D03*
X019575Y005526D02*
D03*
X019645D02*
D03*
X022565Y003945D02*
D03*
X024025Y004212D02*
D03*
X020865Y003864D02*
D03*
X020445Y004996D02*
D03*
X020585Y004266D02*
D03*
X020675Y004056D02*
D03*
X020755D02*
D03*
X020675Y003996D02*
D03*
Y006416D02*
D03*
X021295Y004606D02*
D03*
X022855Y006209D02*
D03*
X022065Y006169D02*
D03*
X021045Y004398D02*
D03*
X023165Y006796D02*
D03*
X021575Y006169D02*
D03*
X022725Y003296D02*
D03*
X020385Y003586D02*
D03*
X020755Y003996D02*
D03*
X021666Y003537D02*
D03*
X022010Y005918D02*
D03*
X023005Y005126D02*
D03*
X022195Y005456D02*
D03*
X021765Y004016D02*
D03*
X020675Y006316D02*
D03*
X020225Y005577D02*
D03*
X022795Y003556D02*
D03*
X021695Y004696D02*
D03*
X022105D02*
D03*
X022515Y004686D02*
D03*
X023155Y004106D02*
D03*
X023055Y005456D02*
D03*
X022465Y003945D02*
D03*
X023165Y003576D02*
D03*
X023495Y005196D02*
D03*
X023685D02*
D03*
X022505Y003736D02*
D03*
X023685Y004996D02*
D03*
X023505D02*
D03*
X023695Y004796D02*
D03*
X023585Y004756D02*
D03*
X023635Y004596D02*
D03*
X023155Y004836D02*
D03*
X023155Y004716D02*
D03*
X023495Y004596D02*
D03*
X022405Y004406D02*
D03*
X022395Y004966D02*
D03*
X022745Y004116D02*
D03*
X022785Y004246D02*
D03*
X021695Y004341D02*
D03*
X021985Y004986D02*
D03*
X022189Y005046D02*
D03*
X021985Y004396D02*
D03*
X022235Y006056D02*
D03*
X021353Y005747D02*
D03*
X023696Y006000D02*
D03*
X021345Y005656D02*
D03*
X023185Y005996D02*
D03*
X022335Y006066D02*
D03*
X021115Y005956D02*
D03*
X020535Y005888D02*
D03*
X021408Y005871D02*
D03*
X021341Y005929D02*
D03*
X020955Y006106D02*
D03*
X021025Y006044D02*
D03*
X021335Y002516D02*
D03*
Y002396D02*
D03*
X021265Y004466D02*
D03*
X021135D02*
D03*
X023075Y004902D02*
D03*
X022993D02*
D03*
X023689Y005393D02*
D03*
X023135Y005316D02*
D03*
X022525Y005446D02*
D03*
X022435D02*
D03*
X022695Y005656D02*
D03*
X022585Y005686D02*
D03*
X022603Y005774D02*
D03*
X022585Y005856D02*
D03*
X022465Y005976D02*
D03*
X022427Y006106D02*
D03*
X022255Y005290D02*
D03*
X022334Y005357D02*
D03*
X021895Y006816D02*
D03*
X021915Y006726D02*
D03*
X021855Y006556D02*
D03*
X021775Y006536D02*
D03*
X021585Y006686D02*
D03*
X021625Y006536D02*
D03*
X021605Y006456D02*
D03*
X020405Y005466D02*
D03*
X020292Y005460D02*
D03*
X020145Y005476D02*
D03*
X020205Y005306D02*
D03*
X020325Y005196D02*
D03*
X020315Y005116D02*
D03*
X020517Y004855D02*
D03*
X022465Y006596D02*
D03*
X022345Y006846D02*
D03*
X022265D02*
D03*
X022175Y006786D02*
D03*
X022195Y006666D02*
D03*
X022205Y006546D02*
D03*
X022085Y006546D02*
D03*
X022035Y006686D02*
D03*
X021874Y004016D02*
D03*
X022745Y003926D02*
D03*
X022137Y005106D02*
D03*
X022545D02*
D03*
X022025Y005166D02*
D03*
X021925Y005276D02*
D03*
X022085D02*
D03*
X020325Y004876D02*
D03*
X020315Y004756D02*
D03*
X021895Y003896D02*
D03*
X022655Y006108D02*
D03*
X022763Y003796D02*
D03*
X022045D02*
D03*
X022665Y003856D02*
D03*
X022045Y003876D02*
D03*
X022585Y003146D02*
D03*
X022485Y002876D02*
D03*
X022665Y003146D02*
D03*
X022815Y002796D02*
D03*
X022265Y004326D02*
D03*
X022569Y002691D02*
D03*
X022825Y002596D02*
D03*
X022185Y004332D02*
D03*
X022455Y002396D02*
D03*
X021355Y004406D02*
D03*
X022815Y002396D02*
D03*
X021345Y004506D02*
D03*
X023150Y005796D02*
D03*
X022525Y005916D02*
D03*
X024035Y005796D02*
D03*
X022414Y005876D02*
D03*
X020457Y004788D02*
D03*
X020875Y003716D02*
D03*
Y003406D02*
D03*
X020555Y004706D02*
D03*
X020775Y003276D02*
D03*
X020015Y005446D02*
D03*
X021945Y004866D02*
D03*
X018815Y006336D02*
D03*
X018965Y006416D02*
D03*
X020775Y002496D02*
D03*
Y002416D02*
D03*
X020935Y003256D02*
D03*
X021325Y004016D02*
D03*
X020365Y006226D02*
D03*
X020893Y005724D02*
D03*
X021594Y006958D02*
D03*
X023675Y006826D02*
D03*
X021595Y006876D02*
D03*
X024025Y006596D02*
D03*
Y005593D02*
D03*
X023147D02*
D03*
X018685Y006316D02*
D03*
X019224Y006437D02*
D03*
X019285Y006126D02*
D03*
X019195D02*
D03*
X019375D02*
D03*
X021675Y006169D02*
D03*
X020455Y005626D02*
D03*
X021915Y005836D02*
D03*
X021785Y003736D02*
D03*
X020925Y004398D02*
D03*
X019685Y004826D02*
D03*
X021655Y005366D02*
D03*
X020075Y005206D02*
D03*
X021135Y003676D02*
D03*
X021035Y003256D02*
D03*
X024035Y007011D02*
D03*
X020085Y005556D02*
D03*
X023181Y006579D02*
D03*
X021665Y004016D02*
D03*
X020555Y005046D02*
D03*
X021695Y002266D02*
D03*
X021245Y002326D02*
D03*
X021225Y003056D02*
D03*
X021055Y006736D02*
D03*
X020485Y003486D02*
D03*
X022655Y005106D02*
D03*
X023035Y005736D02*
D03*
X023165Y006196D02*
D03*
X019625Y004446D02*
D03*
X021045Y006169D02*
D03*
X020675Y006516D02*
D03*
X021375Y004746D02*
D03*
X022045Y004016D02*
D03*
X022315Y003296D02*
D03*
X022154Y006168D02*
D03*
X019825Y006216D02*
D03*
D98*
X019005Y007136D02*
D03*
X019115D02*
D03*
X019225D02*
D03*
X019335D02*
D03*
X019445D02*
D03*
X026085D02*
D03*
X025975D02*
D03*
X025865D02*
D03*
X025755D02*
D03*
X025645D02*
D03*
X033175D02*
D03*
X033065D02*
D03*
X032955D02*
D03*
X032845D02*
D03*
X032735D02*
D03*
X019435Y002036D02*
D03*
X019325D02*
D03*
X019215D02*
D03*
X019105D02*
D03*
X018995D02*
D03*
X026085D02*
D03*
X025975D02*
D03*
X025865D02*
D03*
X025755D02*
D03*
X025645D02*
D03*
X033175D02*
D03*
X033065D02*
D03*
X032955D02*
D03*
X032845D02*
D03*
X032735D02*
D03*
M02*
