G04*
G04 #@! TF.GenerationSoftware,Altium Limited,Altium Designer,20.1.11 (218)*
G04*
G04 Layer_Physical_Order=2*
G04 Layer_Color=36540*
%FSAX42Y42*%
%MOMM*%
G71*
G04*
G04 #@! TF.SameCoordinates,E04DCB56-ABFB-4DF7-A6F1-084D64C497F4*
G04*
G04*
G04 #@! TF.FilePolarity,Positive*
G04*
G01*
G75*
%ADD10C,0.20*%
%ADD85C,1.00*%
%ADD99C,0.60*%
%ADD100C,1.20*%
%ADD101C,1.30*%
G36*
X023265Y006750D02*
X023207D01*
X023203Y006763D01*
X023212Y006777D01*
X023216Y006796D01*
X023212Y006816D01*
X023207Y006824D01*
X023172Y006789D01*
X023165Y006796D01*
X023158Y006789D01*
X023123Y006824D01*
X023118Y006816D01*
X023114Y006796D01*
X023118Y006777D01*
X023128Y006763D01*
X023123Y006750D01*
X023120D01*
X023109Y006748D01*
X023105Y006745D01*
X022723D01*
X022712Y006743D01*
X022702Y006736D01*
X022702Y006736D01*
X022673Y006708D01*
X022661Y006714D01*
X022664Y006736D01*
X022660Y006768D01*
X022648Y006797D01*
X022629Y006822D01*
X022604Y006841D01*
X022575Y006853D01*
X022543Y006857D01*
X022512Y006853D01*
X022483Y006841D01*
X022458Y006822D01*
X022438Y006797D01*
X022426Y006768D01*
X022422Y006736D01*
X022426Y006705D01*
X022438Y006676D01*
X022452Y006658D01*
X022447Y006644D01*
X022446Y006643D01*
X022429Y006632D01*
X022418Y006616D01*
X022414Y006596D01*
X022418Y006577D01*
X022429Y006560D01*
X022446Y006549D01*
X022465Y006545D01*
X022485Y006549D01*
X022501Y006560D01*
X022512Y006577D01*
X022516Y006596D01*
X022514Y006606D01*
X022525Y006618D01*
X022543Y006615D01*
X022566Y006618D01*
X022572Y006606D01*
X022477Y006511D01*
X022257D01*
X022250Y006524D01*
X022252Y006527D01*
X022256Y006546D01*
X022252Y006566D01*
X022241Y006582D01*
X022225Y006593D01*
X022205Y006597D01*
X022186Y006593D01*
X022169Y006582D01*
X022158Y006566D01*
X022154Y006546D01*
X022158Y006527D01*
X022161Y006522D01*
X022155Y006511D01*
X022135D01*
X022129Y006522D01*
X022132Y006527D01*
X022136Y006546D01*
X022132Y006566D01*
X022121Y006582D01*
X022105Y006593D01*
X022085Y006597D01*
X022066Y006593D01*
X022049Y006582D01*
X022038Y006566D01*
X022034Y006546D01*
X022038Y006527D01*
X022041Y006522D01*
X022035Y006511D01*
X021944D01*
X021905Y006550D01*
X021906Y006556D01*
X021902Y006576D01*
X021891Y006592D01*
X021875Y006603D01*
X021855Y006607D01*
X021836Y006603D01*
X021819Y006592D01*
X021814Y006585D01*
X021797Y006582D01*
X021795Y006583D01*
X021775Y006587D01*
X021756Y006583D01*
X021739Y006572D01*
X021728Y006556D01*
X021726Y006547D01*
X021712Y006542D01*
X021697Y006558D01*
X021687Y006565D01*
X021675Y006567D01*
X021675Y006567D01*
X021665D01*
X021661Y006572D01*
X021645Y006583D01*
X021625Y006587D01*
X021606Y006583D01*
X021589Y006572D01*
X021578Y006556D01*
X021574Y006536D01*
X021578Y006517D01*
X021581Y006513D01*
X021578Y006499D01*
X021569Y006492D01*
X021558Y006476D01*
X021554Y006456D01*
X021558Y006440D01*
X021465Y006347D01*
X020878D01*
X020873Y006346D01*
X020868Y006345D01*
X020867Y006345D01*
X020867Y006345D01*
X020862Y006342D01*
X020858Y006339D01*
X020383Y005904D01*
X020382Y005903D01*
X020382Y005903D01*
X020379Y005899D01*
X020376Y005894D01*
X020376Y005894D01*
X020375Y005893D01*
X020374Y005888D01*
X020373Y005883D01*
X020373Y005882D01*
X020373Y005881D01*
Y005709D01*
X020292Y005628D01*
X020285Y005618D01*
X020283Y005606D01*
X020283Y005606D01*
Y005603D01*
X020270Y005599D01*
X020267Y005604D01*
X020232Y005570D01*
X020198Y005535D01*
X020206Y005530D01*
X020213Y005528D01*
X020217Y005517D01*
X020209Y005507D01*
X020185D01*
X020181Y005512D01*
X020165Y005523D01*
X020145Y005527D01*
X020141Y005526D01*
X020132Y005537D01*
X020136Y005556D01*
X020132Y005576D01*
X020121Y005592D01*
X020105Y005603D01*
X020085Y005607D01*
X020066Y005603D01*
X020049Y005592D01*
X020038Y005576D01*
X020034Y005556D01*
X020038Y005537D01*
X020049Y005520D01*
X020066Y005509D01*
X020085Y005505D01*
X020090Y005506D01*
X020098Y005496D01*
X020094Y005476D01*
X020098Y005457D01*
X020109Y005440D01*
X020126Y005429D01*
X020145Y005425D01*
X020165Y005429D01*
X020181Y005440D01*
X020185Y005446D01*
X020223D01*
X020223Y005446D01*
X020230Y005447D01*
X020245Y005440D01*
X020245Y005440D01*
X020256Y005424D01*
X020272Y005413D01*
X020292Y005409D01*
X020311Y005413D01*
X020328Y005424D01*
X020339Y005440D01*
X020351Y005447D01*
X020360Y005445D01*
X020369Y005430D01*
X020386Y005419D01*
X020405Y005415D01*
X020425Y005419D01*
X020427Y005421D01*
X020439Y005424D01*
X020449Y005417D01*
X020460Y005415D01*
X020460Y005415D01*
X020555D01*
X020555Y005415D01*
X020566Y005417D01*
X020576Y005424D01*
X020774Y005622D01*
X020780Y005632D01*
X020783Y005643D01*
X020783Y005643D01*
Y005809D01*
X020982Y006009D01*
X020989Y006008D01*
X021006Y005997D01*
X021025Y005993D01*
X021045Y005997D01*
X021061Y006008D01*
X021072Y006025D01*
X021076Y006044D01*
X021072Y006064D01*
X021061Y006080D01*
X021061Y006087D01*
X021172Y006199D01*
X021522D01*
X021528Y006186D01*
X021524Y006169D01*
X021528Y006149D01*
X021533Y006141D01*
X021568Y006176D01*
X021575Y006169D01*
X021582Y006176D01*
X021617Y006141D01*
X021618Y006142D01*
X021633D01*
X021639Y006133D01*
X021656Y006122D01*
X021675Y006118D01*
X021695Y006122D01*
X021711Y006133D01*
X021722Y006149D01*
X021726Y006169D01*
X021723Y006186D01*
X021729Y006199D01*
X022012D01*
X022018Y006186D01*
X022014Y006169D01*
X022018Y006149D01*
X022023Y006141D01*
X022058Y006176D01*
X022065Y006169D01*
X022072Y006176D01*
X022113Y006135D01*
X022115D01*
X022118Y006132D01*
X022134Y006121D01*
X022154Y006117D01*
X022173Y006121D01*
X022190Y006132D01*
X022201Y006148D01*
X022205Y006168D01*
X022201Y006186D01*
X022201Y006190D01*
X022207Y006199D01*
X022675D01*
X022675Y006199D01*
X022677Y006199D01*
X022720D01*
X022720Y006199D01*
X022732Y006202D01*
X022742Y006208D01*
X022818Y006284D01*
X023119D01*
X023147Y006257D01*
X023146Y006250D01*
X023145Y006243D01*
X023129Y006232D01*
X023118Y006216D01*
X023114Y006196D01*
X023118Y006177D01*
X023129Y006160D01*
X023141Y006152D01*
X023137Y006140D01*
X022694D01*
X022691Y006144D01*
X022675Y006155D01*
X022655Y006159D01*
X022636Y006155D01*
X022619Y006144D01*
X022608Y006127D01*
X022604Y006108D01*
X022596Y006098D01*
X022584Y006098D01*
X022577Y006106D01*
X022574Y006118D01*
X022568Y006128D01*
X022558Y006135D01*
X022546Y006137D01*
X022535D01*
X022523Y006135D01*
X022514Y006128D01*
X022507Y006118D01*
X022505Y006106D01*
X022500Y006100D01*
X022485Y006099D01*
X022478Y006106D01*
X022474Y006126D01*
X022463Y006142D01*
X022446Y006153D01*
X022427Y006157D01*
X022407Y006153D01*
X022391Y006142D01*
X022380Y006126D01*
X022377Y006114D01*
X022363Y006108D01*
X022355Y006113D01*
X022335Y006117D01*
X022316Y006113D01*
X022299Y006102D01*
X022293Y006094D01*
X022270Y006094D01*
X022255Y006103D01*
X022235Y006107D01*
X022216Y006103D01*
X022199Y006092D01*
X022188Y006076D01*
X022184Y006056D01*
X022173Y006048D01*
X021902D01*
X021902Y006048D01*
X021891Y006046D01*
X021881Y006039D01*
X021617Y005775D01*
X021395D01*
X021389Y005783D01*
X021373Y005794D01*
X021353Y005798D01*
X021334Y005794D01*
X021317Y005783D01*
X021306Y005767D01*
X021302Y005747D01*
X021306Y005728D01*
X021317Y005711D01*
X021317Y005710D01*
X021234Y005627D01*
X021189D01*
X021178Y005625D01*
X021168Y005618D01*
X021168Y005618D01*
X020887Y005337D01*
X020245D01*
X020241Y005342D01*
X020225Y005353D01*
X020205Y005357D01*
X020186Y005353D01*
X020169Y005342D01*
X020158Y005326D01*
X020157Y005320D01*
X020145Y005317D01*
X020051Y005410D01*
X020062Y005427D01*
X020066Y005446D01*
X020062Y005466D01*
X020051Y005482D01*
X020035Y005493D01*
X020015Y005497D01*
X019996Y005493D01*
X019979Y005482D01*
X019968Y005466D01*
X019964Y005446D01*
X019968Y005427D01*
X019979Y005410D01*
X019985Y005407D01*
Y005376D01*
X019985Y005376D01*
X019987Y005365D01*
X019994Y005355D01*
X020079Y005270D01*
X020077Y005263D01*
X020073Y005257D01*
X020056Y005253D01*
X020039Y005242D01*
X020028Y005226D01*
X020024Y005206D01*
X020028Y005187D01*
X020039Y005170D01*
X020054Y005161D01*
X020055Y005152D01*
X020055Y005146D01*
X020049Y005142D01*
X020038Y005126D01*
X020034Y005106D01*
X020038Y005087D01*
X020049Y005070D01*
X020066Y005059D01*
X020085Y005055D01*
X020105Y005059D01*
X020121Y005070D01*
X020132Y005087D01*
X020136Y005106D01*
X020132Y005126D01*
X020121Y005142D01*
X020107Y005152D01*
X020105Y005161D01*
X020105Y005166D01*
X020111Y005170D01*
X020122Y005187D01*
X020126Y005205D01*
X020132Y005208D01*
X020138Y005210D01*
X020165Y005184D01*
Y005152D01*
X020165Y005152D01*
X020167Y005140D01*
X020174Y005130D01*
X020269Y005035D01*
X020269Y005035D01*
X020279Y005028D01*
X020290Y005026D01*
X020340D01*
X020340Y005026D01*
X020340Y005026D01*
X020351D01*
X020351Y005026D01*
X020363Y005028D01*
X020373Y005035D01*
X020486Y005148D01*
X021599D01*
X021898Y004849D01*
X021898Y004847D01*
X021909Y004830D01*
X021926Y004819D01*
X021945Y004815D01*
X021965Y004819D01*
X021981Y004830D01*
X021992Y004846D01*
X021995D01*
X021993Y004849D01*
X021996Y004866D01*
X021992Y004886D01*
X021981Y004902D01*
X021965Y004913D01*
X021945Y004917D01*
X021928Y004914D01*
X021715Y005126D01*
Y005466D01*
X022136D01*
X022144Y005457D01*
X022144Y005456D01*
X022148Y005437D01*
X022153Y005429D01*
X022188Y005463D01*
X022195Y005456D01*
X022202Y005463D01*
X022237Y005429D01*
X022242Y005437D01*
X022246Y005456D01*
X022246Y005457D01*
X022254Y005466D01*
X022375D01*
X022386Y005454D01*
X022384Y005446D01*
X022388Y005427D01*
X022399Y005410D01*
X022416Y005399D01*
X022435Y005395D01*
X022442Y005397D01*
X022518Y005321D01*
X022528Y005314D01*
X022539Y005312D01*
X022539Y005312D01*
X022861D01*
X022987Y005186D01*
X022983Y005172D01*
X022978Y005168D01*
X023012Y005133D01*
X023005Y005126D01*
X023012Y005119D01*
X022975Y005083D01*
X022973Y005073D01*
X022922D01*
X022797Y005198D01*
X022787Y005205D01*
X022775Y005207D01*
X022775Y005207D01*
X022528D01*
X022384Y005351D01*
X022385Y005357D01*
X022382Y005377D01*
X022370Y005393D01*
X022354Y005404D01*
X022334Y005408D01*
X022315Y005404D01*
X022298Y005393D01*
X022287Y005377D01*
X022283Y005357D01*
X022286Y005345D01*
X022275Y005337D01*
X022255Y005341D01*
X022236Y005337D01*
X022219Y005326D01*
X022208Y005309D01*
X022196Y005305D01*
X022194Y005305D01*
X022184Y005307D01*
X022184Y005307D01*
X022125D01*
X022121Y005312D01*
X022105Y005323D01*
X022085Y005327D01*
X022066Y005323D01*
X022049Y005312D01*
X022040Y005298D01*
X022026Y005294D01*
X022022Y005298D01*
X022012Y005305D01*
X022000Y005307D01*
X022000Y005307D01*
X021965D01*
X021961Y005312D01*
X021945Y005323D01*
X021925Y005327D01*
X021906Y005323D01*
X021889Y005312D01*
X021878Y005296D01*
X021874Y005276D01*
X021878Y005257D01*
X021889Y005240D01*
X021906Y005229D01*
X021925Y005225D01*
Y005165D01*
X022047Y005043D01*
Y005016D01*
X022047Y005016D01*
X022049Y005004D01*
X022056Y004994D01*
X022169Y004882D01*
X022168Y004869D01*
X021964Y004674D01*
X021670Y004968D01*
X021660Y004975D01*
X021658Y004975D01*
X021655Y004978D01*
X021645Y004985D01*
X021633Y004987D01*
X021633Y004987D01*
X020580D01*
X020575Y004999D01*
X020575Y005000D01*
X020591Y005010D01*
X020602Y005027D01*
X020606Y005046D01*
X020602Y005066D01*
X020591Y005082D01*
X020575Y005093D01*
X020555Y005097D01*
X020536Y005093D01*
X020519Y005082D01*
X020508Y005066D01*
X020504Y005046D01*
X020508Y005027D01*
X020519Y005010D01*
X020535Y005000D01*
X020535Y004998D01*
X020533Y004987D01*
X020521Y004985D01*
X020512Y004978D01*
X020502Y004968D01*
X020492Y004976D01*
X020492Y004977D01*
X020496Y004996D01*
X020492Y005016D01*
X020487Y005024D01*
X020452Y004989D01*
X020418Y004955D01*
X020426Y004949D01*
X020445Y004945D01*
X020465Y004949D01*
X020465Y004950D01*
X020473Y004940D01*
X020440Y004907D01*
X020365D01*
X020361Y004912D01*
X020345Y004923D01*
X020325Y004927D01*
X020306Y004923D01*
X020289Y004912D01*
X020278Y004896D01*
X020274Y004876D01*
X020278Y004857D01*
X020289Y004840D01*
X020306Y004829D01*
X020321Y004826D01*
X020322Y004817D01*
X020315Y004807D01*
X020296Y004803D01*
X020279Y004792D01*
X020268Y004776D01*
X020264Y004756D01*
X020268Y004737D01*
X020279Y004720D01*
X020296Y004709D01*
X020315Y004705D01*
X020322Y004707D01*
X020344Y004685D01*
X020353Y004678D01*
X020365Y004676D01*
X020365Y004676D01*
X020396D01*
X020405Y004666D01*
Y004617D01*
X020386Y004613D01*
X020369Y004602D01*
X020358Y004586D01*
X020354Y004566D01*
X020358Y004547D01*
X020369Y004530D01*
X020386Y004519D01*
X020405Y004515D01*
X020425Y004519D01*
X020441Y004530D01*
X020452Y004547D01*
X020456Y004566D01*
X020455Y004573D01*
X020476Y004594D01*
X020595D01*
X020595Y004594D01*
X020606Y004597D01*
X020616Y004603D01*
X020659Y004646D01*
X020876D01*
X020883Y004633D01*
X020878Y004626D01*
X020874Y004606D01*
X020878Y004587D01*
X020889Y004570D01*
X020906Y004559D01*
X020925Y004555D01*
X020945Y004559D01*
X020961Y004570D01*
X020972Y004587D01*
X020976Y004606D01*
X020972Y004626D01*
X020967Y004633D01*
X020974Y004646D01*
X021246D01*
X021253Y004633D01*
X021248Y004626D01*
X021244Y004606D01*
X021248Y004587D01*
X021253Y004579D01*
X021288Y004613D01*
X021302Y004599D01*
X021268Y004565D01*
X021276Y004559D01*
X021295Y004555D01*
X021310Y004558D01*
X021315Y004546D01*
X021309Y004542D01*
X021298Y004526D01*
X021297Y004518D01*
X021285Y004513D01*
X021285Y004513D01*
X021265Y004517D01*
X021246Y004513D01*
X021229Y004502D01*
X021218Y004486D01*
X021214Y004466D01*
X021218Y004447D01*
X021229Y004430D01*
X021246Y004419D01*
X021265Y004415D01*
X021285Y004419D01*
X021295Y004426D01*
X021307Y004419D01*
X021304Y004406D01*
X021308Y004387D01*
X021312Y004381D01*
X021305Y004368D01*
X021100D01*
X021093Y004381D01*
X021096Y004398D01*
X021092Y004417D01*
X021087Y004425D01*
X021052Y004391D01*
X021045Y004398D01*
X021038Y004391D01*
X021003Y004425D01*
X020998Y004417D01*
X020994Y004398D01*
X020998Y004381D01*
X020991Y004370D01*
X020979D01*
X020973Y004381D01*
X020976Y004398D01*
X020972Y004417D01*
X020961Y004434D01*
X020945Y004445D01*
X020925Y004449D01*
X020906Y004445D01*
X020889Y004434D01*
X020878Y004417D01*
X020875Y004400D01*
X020863Y004394D01*
X020769Y004488D01*
X020759Y004495D01*
X020747Y004497D01*
X020747Y004497D01*
X020595D01*
X020591Y004502D01*
X020575Y004513D01*
X020555Y004517D01*
X020536Y004513D01*
X020519Y004502D01*
X020508Y004486D01*
X020504Y004466D01*
X020508Y004447D01*
X020519Y004430D01*
X020515Y004426D01*
X020860Y004091D01*
X020859Y004082D01*
X020848Y004066D01*
X020844Y004046D01*
X020848Y004027D01*
X020859Y004010D01*
X020876Y003999D01*
X020895Y003995D01*
X020915Y003999D01*
X020931Y004010D01*
X020938Y004020D01*
X020953D01*
X020959Y004010D01*
X020976Y003999D01*
X020995Y003995D01*
X021015Y003999D01*
X021031Y004010D01*
X021042Y004027D01*
X021046Y004046D01*
X021045Y004053D01*
X021118Y004126D01*
X021803D01*
X021852Y004077D01*
X021853Y004076D01*
X021854Y004071D01*
X021852Y004062D01*
X021838Y004052D01*
X021827Y004036D01*
X021826Y004032D01*
X021813D01*
X021812Y004036D01*
X021807Y004044D01*
X021779Y004016D01*
X021807Y003989D01*
X021812Y003997D01*
X021813Y004000D01*
X021826D01*
X021827Y003997D01*
X021838Y003980D01*
X021854Y003969D01*
X021874Y003965D01*
Y003942D01*
X021859Y003932D01*
X021848Y003916D01*
X021844Y003896D01*
X021547D01*
X021485Y003958D01*
X021475Y003965D01*
X021464Y003967D01*
X021464Y003967D01*
X021364D01*
X021360Y003980D01*
X021361Y003980D01*
X021372Y003997D01*
X021376Y004016D01*
X021372Y004036D01*
X021361Y004052D01*
X021345Y004063D01*
X021325Y004067D01*
X021306Y004063D01*
X021289Y004052D01*
X021278Y004036D01*
X021277Y004029D01*
X021264D01*
X021262Y004036D01*
X021251Y004052D01*
X021235Y004063D01*
X021215Y004067D01*
X021196Y004063D01*
X021179Y004052D01*
X021168Y004036D01*
X021164Y004018D01*
X021149Y004021D01*
X021129Y004017D01*
X021113Y004006D01*
X021102Y003989D01*
X021098Y003970D01*
X021102Y003950D01*
X021113Y003934D01*
X021129Y003923D01*
X021149Y003919D01*
X021158Y003921D01*
X021183Y003895D01*
X021183Y003895D01*
X021193Y003888D01*
X021205Y003886D01*
X021242D01*
X021254Y003875D01*
X021254Y003875D01*
X021263Y003868D01*
X021275Y003866D01*
X021275Y003866D01*
X021435D01*
X021736Y003565D01*
X021736Y003565D01*
X021746Y003558D01*
X021757Y003556D01*
X021757Y003556D01*
X022658D01*
X022658Y003556D01*
X022670Y003558D01*
X022680Y003565D01*
X022701Y003586D01*
X022741D01*
X022748Y003573D01*
X022744Y003556D01*
X022748Y003537D01*
X022759Y003520D01*
X022776Y003509D01*
X022795Y003505D01*
X022815Y003509D01*
X022831Y003520D01*
X022842Y003537D01*
X022846Y003556D01*
X022842Y003576D01*
X022836Y003585D01*
X022831Y003593D01*
X022838Y003604D01*
X023100Y003866D01*
X023457D01*
X023467Y003856D01*
X023463Y003842D01*
X023458Y003838D01*
X023492Y003803D01*
X023527Y003769D01*
X023532Y003777D01*
X023534Y003788D01*
X023543Y003793D01*
X023648D01*
X023648Y003793D01*
X023656Y003788D01*
X023658Y003777D01*
X023663Y003769D01*
X023698Y003803D01*
X023733Y003838D01*
X023727Y003842D01*
X023723Y003856D01*
X023733Y003866D01*
X023975D01*
Y003696D01*
X023165D01*
X022882Y003413D01*
X022854Y003385D01*
X022854Y003385D01*
X022795Y003326D01*
X022795Y003256D01*
X022765Y003226D01*
X022165D01*
X021945Y003446D01*
X021645D01*
X021616Y003475D01*
X021407Y003706D01*
X021175D01*
X021171Y003712D01*
X021155Y003723D01*
X021135Y003727D01*
X021116Y003723D01*
X021099Y003712D01*
X021095Y003706D01*
X020934D01*
X020926Y003716D01*
X020926Y003716D01*
X020922Y003736D01*
X020911Y003752D01*
X020895Y003763D01*
X020875Y003767D01*
X020856Y003763D01*
X020839Y003752D01*
X020834Y003745D01*
X020818Y003743D01*
X020075Y004486D01*
X020075Y004976D01*
X019815Y005236D01*
Y005836D01*
X020665Y006686D01*
X021031Y006692D01*
X021036Y006689D01*
X021055Y006685D01*
X021075Y006689D01*
X021080Y006693D01*
X021527Y006700D01*
X021535Y006690D01*
X021534Y006686D01*
X021538Y006667D01*
X021549Y006650D01*
X021566Y006639D01*
X021585Y006635D01*
X021605Y006639D01*
X021621Y006650D01*
X021632Y006666D01*
X021633Y006667D01*
X021646Y006669D01*
X021660Y006651D01*
X021685Y006632D01*
X021714Y006619D01*
X021745Y006615D01*
X021777Y006619D01*
X021806Y006632D01*
X021831Y006651D01*
X021850Y006676D01*
X021859Y006698D01*
X021873Y006699D01*
X021879Y006690D01*
X021896Y006679D01*
X021915Y006675D01*
X021935Y006679D01*
X021951Y006690D01*
X021962Y006707D01*
X021966Y006724D01*
X021998Y006752D01*
X022007Y006743D01*
X022007Y006743D01*
X022005Y006731D01*
X022005Y006731D01*
Y006726D01*
X021999Y006722D01*
X021988Y006706D01*
X021984Y006686D01*
X021988Y006667D01*
X021999Y006650D01*
X022016Y006639D01*
X022035Y006635D01*
X022055Y006639D01*
X022071Y006650D01*
X022082Y006667D01*
X022086Y006686D01*
X022082Y006706D01*
X022071Y006722D01*
X022071Y006724D01*
X022116Y006769D01*
X022130Y006765D01*
X022139Y006750D01*
X022156Y006739D01*
X022175Y006735D01*
X022195Y006739D01*
X022211Y006750D01*
X022222Y006767D01*
X022226Y006786D01*
X022224Y006799D01*
X022235Y006806D01*
X022246Y006799D01*
X022265Y006795D01*
X022285Y006799D01*
X022296Y006807D01*
X022305Y006809D01*
X022314Y006807D01*
X022326Y006799D01*
X022345Y006795D01*
X022365Y006799D01*
X022381Y006810D01*
X022392Y006827D01*
X022396Y006846D01*
X022393Y006863D01*
X022400Y006876D01*
X023265D01*
Y006750D01*
D02*
G37*
G36*
X019765Y005286D02*
X019405D01*
X019155Y005036D01*
X018925D01*
Y004636D01*
X019145Y004416D01*
X019455D01*
X019825Y004047D01*
X019820Y004035D01*
X019777D01*
Y003858D01*
X019954D01*
Y003901D01*
X019966Y003906D01*
X020062Y003810D01*
X020048Y003791D01*
X020039Y003770D01*
X020036Y003746D01*
X020039Y003723D01*
X020048Y003702D01*
X020062Y003683D01*
X020081Y003669D01*
X020102Y003660D01*
X020125Y003657D01*
X020148Y003660D01*
X020170Y003669D01*
X020188Y003683D01*
X020875Y002996D01*
X022745D01*
X022951Y003224D01*
X022959Y003224D01*
X022961Y003222D01*
X022967Y003212D01*
X022964Y003196D01*
X022968Y003177D01*
X022973Y003169D01*
X023008Y003203D01*
X023022Y003189D01*
X022988Y003155D01*
X022996Y003149D01*
X023015Y003145D01*
X023035Y003149D01*
X023045Y003156D01*
X023056Y003149D01*
X023075Y003145D01*
X023095Y003149D01*
X023110Y003160D01*
X023126Y003149D01*
X023145Y003145D01*
X023165Y003149D01*
X023173Y003155D01*
X023138Y003189D01*
X023152Y003203D01*
X023187Y003169D01*
X023192Y003177D01*
X023196Y003196D01*
X023192Y003216D01*
X023187Y003224D01*
X023194Y003236D01*
X023255D01*
X023255Y002686D01*
X022624D01*
X022620Y002691D01*
X022617Y002710D01*
X022605Y002727D01*
X022589Y002738D01*
X022569Y002742D01*
X022550Y002738D01*
X022533Y002727D01*
X022522Y002710D01*
X022518Y002691D01*
X022515Y002686D01*
X020455D01*
X019949Y003193D01*
X019950Y003194D01*
X019959Y003216D01*
X019962Y003239D01*
X019959Y003262D01*
X019950Y003284D01*
X019935Y003302D01*
X019917Y003316D01*
X019895Y003325D01*
X019872Y003328D01*
X019849Y003325D01*
X019828Y003316D01*
X019826Y003315D01*
X019695Y003447D01*
X019696Y003448D01*
X019704Y003470D01*
X019708Y003493D01*
X019704Y003516D01*
X019696Y003538D01*
X019681Y003556D01*
X019663Y003570D01*
X019641Y003579D01*
X019618Y003582D01*
X019595Y003579D01*
X019574Y003570D01*
X019572Y003569D01*
X018685Y004456D01*
X018685Y005086D01*
X019275Y005676D01*
X019455D01*
X019457Y005664D01*
X019456Y005663D01*
X019448Y005658D01*
X019475Y005631D01*
X019503Y005658D01*
X019495Y005663D01*
X019494Y005664D01*
X019495Y005676D01*
X019765D01*
Y005286D01*
D02*
G37*
G36*
X019205Y004908D02*
X019202Y004904D01*
X019193Y004881D01*
X019189Y004856D01*
X019193Y004832D01*
X019202Y004808D01*
X019205Y004805D01*
Y004726D01*
X019755D01*
X020035Y004446D01*
X020875Y003606D01*
X021215Y003606D01*
X021395Y003426D01*
Y003126D01*
X021185D01*
X021075Y003316D01*
X020895D01*
X020868Y003344D01*
X020874Y003356D01*
X020875Y003355D01*
X020895Y003359D01*
X020911Y003370D01*
X020922Y003387D01*
X020926Y003406D01*
X020922Y003426D01*
X020911Y003442D01*
X020895Y003453D01*
X020875Y003457D01*
X020856Y003453D01*
X020839Y003442D01*
X020828Y003426D01*
X020824Y003406D01*
X020824Y003405D01*
X020813Y003399D01*
X020214Y003998D01*
Y004035D01*
X020177D01*
X019659Y004552D01*
X019049D01*
X018955Y004646D01*
Y004956D01*
X019055D01*
X019057Y004944D01*
X019056Y004943D01*
X019048Y004938D01*
X019075Y004911D01*
X019103Y004938D01*
X019095Y004943D01*
X019094Y004944D01*
X019095Y004956D01*
X019205D01*
Y004908D01*
D02*
G37*
G36*
X021655Y003396D02*
X021649Y003385D01*
X021635Y003387D01*
X021616Y003383D01*
X021605Y003376D01*
X021595Y003383D01*
X021575Y003387D01*
X021556Y003383D01*
X021548Y003378D01*
X021582Y003343D01*
X021568Y003329D01*
X021533Y003364D01*
X021528Y003356D01*
X021524Y003336D01*
X021528Y003317D01*
X021535Y003306D01*
X021528Y003296D01*
X021524Y003276D01*
X021528Y003257D01*
X021533Y003249D01*
X021568Y003283D01*
X021582Y003269D01*
X021548Y003235D01*
X021556Y003229D01*
X021575Y003225D01*
X021595Y003229D01*
X021605Y003236D01*
X021616Y003229D01*
X021635Y003225D01*
X021655Y003229D01*
X021663Y003235D01*
X021628Y003269D01*
X021642Y003283D01*
X021677Y003249D01*
X021682Y003257D01*
X021686Y003276D01*
X021682Y003296D01*
X021675Y003306D01*
X021682Y003317D01*
X021686Y003336D01*
X021683Y003350D01*
X021695Y003356D01*
X021816Y003235D01*
X021908Y003144D01*
X022533Y003148D01*
X022534Y003146D01*
X022538Y003127D01*
X022549Y003110D01*
X022566Y003099D01*
X022585Y003095D01*
X022605Y003099D01*
X022616Y003107D01*
X022625Y003109D01*
X022634Y003107D01*
X022646Y003099D01*
X022665Y003095D01*
X022685Y003099D01*
X022701Y003110D01*
X022712Y003127D01*
X022716Y003146D01*
X022718Y003149D01*
X022756Y003149D01*
X022869Y003277D01*
X022869Y003371D01*
X022896Y003399D01*
X022896Y003399D01*
X022924Y003426D01*
X023098Y003426D01*
X023139Y003385D01*
X023139Y003277D01*
X022986Y003277D01*
X022957Y003245D01*
X022951Y003245D01*
X022950Y003245D01*
X022950Y003245D01*
X022946Y003244D01*
X022943Y003243D01*
X022943Y003243D01*
X022942Y003243D01*
X022939Y003240D01*
X022936Y003238D01*
X022936Y003238D01*
X022936Y003238D01*
X022754Y003036D01*
X021695Y003036D01*
X021459Y003273D01*
X021459Y003365D01*
X021536Y003443D01*
X021609D01*
X021655Y003396D01*
D02*
G37*
%LPC*%
G36*
X023165Y006847D02*
X023146Y006843D01*
X023138Y006838D01*
X023165Y006811D01*
X023193Y006838D01*
X023185Y006843D01*
X023165Y006847D01*
D02*
G37*
G36*
X022195Y006717D02*
X022176Y006713D01*
X022159Y006702D01*
X022148Y006686D01*
X022144Y006666D01*
X022148Y006647D01*
X022159Y006630D01*
X022176Y006619D01*
X022195Y006615D01*
X022215Y006619D01*
X022231Y006630D01*
X022242Y006647D01*
X022246Y006666D01*
X022242Y006686D01*
X022231Y006702D01*
X022215Y006713D01*
X022195Y006717D01*
D02*
G37*
G36*
X020675Y006567D02*
X020656Y006563D01*
X020639Y006552D01*
X020628Y006536D01*
X020624Y006516D01*
X020628Y006497D01*
X020639Y006480D01*
X020649Y006474D01*
Y006459D01*
X020648Y006458D01*
X020675Y006431D01*
X020703Y006458D01*
X020702Y006459D01*
Y006474D01*
X020711Y006480D01*
X020722Y006497D01*
X020726Y006516D01*
X020722Y006536D01*
X020711Y006552D01*
X020695Y006563D01*
X020675Y006567D01*
D02*
G37*
G36*
X020955Y006507D02*
X020936Y006503D01*
X020919Y006492D01*
X020908Y006476D01*
X020904Y006456D01*
X020908Y006437D01*
X020919Y006420D01*
X020936Y006409D01*
X020955Y006405D01*
X020975Y006409D01*
X020991Y006420D01*
X021002Y006437D01*
X021006Y006456D01*
X021002Y006476D01*
X020991Y006492D01*
X020975Y006503D01*
X020955Y006507D01*
D02*
G37*
G36*
X020717Y006444D02*
X020689Y006416D01*
X020717Y006389D01*
X020722Y006397D01*
X020726Y006416D01*
X020722Y006436D01*
X020717Y006444D01*
D02*
G37*
G36*
X020633D02*
X020628Y006436D01*
X020624Y006416D01*
X020628Y006397D01*
X020633Y006389D01*
X020661Y006416D01*
X020633Y006444D01*
D02*
G37*
G36*
X020675Y006402D02*
X020648Y006375D01*
X020649Y006374D01*
Y006359D01*
X020648Y006358D01*
X020675Y006331D01*
X020703Y006358D01*
X020702Y006359D01*
Y006374D01*
X020703Y006375D01*
X020675Y006402D01*
D02*
G37*
G36*
X020717Y006344D02*
X020689Y006316D01*
X020717Y006289D01*
X020722Y006297D01*
X020726Y006316D01*
X020722Y006336D01*
X020717Y006344D01*
D02*
G37*
G36*
X020633D02*
X020628Y006336D01*
X020624Y006316D01*
X020628Y006297D01*
X020633Y006289D01*
X020661Y006316D01*
X020633Y006344D01*
D02*
G37*
G36*
X020675Y006302D02*
X020648Y006275D01*
X020656Y006269D01*
X020675Y006265D01*
X020695Y006269D01*
X020703Y006275D01*
X020675Y006302D01*
D02*
G37*
G36*
X022855Y006260D02*
X022836Y006256D01*
X022828Y006251D01*
X022855Y006224D01*
X022883Y006251D01*
X022875Y006256D01*
X022855Y006260D01*
D02*
G37*
G36*
X022897Y006237D02*
X022869Y006209D01*
X022897Y006182D01*
X022902Y006190D01*
X022906Y006209D01*
X022902Y006229D01*
X022897Y006237D01*
D02*
G37*
G36*
X022813D02*
X022808Y006229D01*
X022804Y006209D01*
X022808Y006190D01*
X022813Y006182D01*
X022841Y006209D01*
X022813Y006237D01*
D02*
G37*
G36*
X020365Y006277D02*
X020346Y006273D01*
X020329Y006262D01*
X020318Y006246D01*
X020314Y006226D01*
X020318Y006207D01*
X020329Y006190D01*
X020346Y006179D01*
X020365Y006175D01*
X020385Y006179D01*
X020401Y006190D01*
X020412Y006207D01*
X020416Y006226D01*
X020412Y006246D01*
X020401Y006262D01*
X020385Y006273D01*
X020365Y006277D01*
D02*
G37*
G36*
X022855Y006195D02*
X022828Y006168D01*
X022836Y006162D01*
X022855Y006158D01*
X022875Y006162D01*
X022883Y006168D01*
X022855Y006195D01*
D02*
G37*
G36*
X022065Y006155D02*
X022038Y006127D01*
X022046Y006122D01*
X022065Y006118D01*
X022085Y006122D01*
X022093Y006127D01*
X022065Y006155D01*
D02*
G37*
G36*
X021575D02*
X021548Y006127D01*
X021556Y006122D01*
X021575Y006118D01*
X021595Y006122D01*
X021603Y006127D01*
X021575Y006155D01*
D02*
G37*
G36*
X021115Y006007D02*
X021096Y006003D01*
X021079Y005992D01*
X021068Y005976D01*
X021064Y005956D01*
X021068Y005937D01*
X021079Y005920D01*
X021096Y005909D01*
X021115Y005905D01*
X021135Y005909D01*
X021151Y005920D01*
X021162Y005937D01*
X021166Y005956D01*
X021162Y005976D01*
X021151Y005992D01*
X021135Y006003D01*
X021115Y006007D01*
D02*
G37*
G36*
X021341Y005980D02*
X021321Y005976D01*
X021305Y005965D01*
X021294Y005948D01*
X021290Y005929D01*
X021294Y005909D01*
X021305Y005893D01*
X021321Y005882D01*
X021341Y005878D01*
X021348Y005879D01*
X021357Y005871D01*
X021360Y005851D01*
X021372Y005835D01*
X021388Y005824D01*
X021408Y005820D01*
X021427Y005824D01*
X021444Y005835D01*
X021455Y005851D01*
X021459Y005871D01*
X021455Y005890D01*
X021444Y005907D01*
X021427Y005918D01*
X021408Y005922D01*
X021400Y005920D01*
X021392Y005929D01*
X021388Y005948D01*
X021377Y005965D01*
X021360Y005976D01*
X021341Y005980D01*
D02*
G37*
G36*
X020995Y005877D02*
X020976Y005873D01*
X020959Y005862D01*
X020948Y005846D01*
X020944Y005826D01*
X020948Y005807D01*
X020959Y005790D01*
X020976Y005779D01*
X020995Y005775D01*
X021015Y005779D01*
X021031Y005790D01*
X021042Y005807D01*
X021046Y005826D01*
X021042Y005846D01*
X021031Y005862D01*
X021015Y005873D01*
X020995Y005877D01*
D02*
G37*
G36*
X020893Y005775D02*
X020873Y005771D01*
X020857Y005760D01*
X020846Y005743D01*
X020842Y005724D01*
X020846Y005704D01*
X020857Y005688D01*
X020873Y005677D01*
X020893Y005673D01*
X020912Y005677D01*
X020929Y005688D01*
X020933Y005694D01*
X020945Y005689D01*
X020944Y005686D01*
X020948Y005667D01*
X020959Y005650D01*
X020976Y005639D01*
X020995Y005635D01*
X021015Y005639D01*
X021031Y005650D01*
X021042Y005667D01*
X021046Y005686D01*
X021042Y005706D01*
X021031Y005722D01*
X021015Y005733D01*
X020995Y005737D01*
X020976Y005733D01*
X020959Y005722D01*
X020955Y005717D01*
X020943Y005722D01*
X020944Y005724D01*
X020940Y005743D01*
X020929Y005760D01*
X020912Y005771D01*
X020893Y005775D01*
D02*
G37*
G36*
X020225Y005628D02*
X020206Y005624D01*
X020198Y005618D01*
X020225Y005591D01*
X020253Y005618D01*
X020245Y005624D01*
X020225Y005628D01*
D02*
G37*
G36*
X020183Y005604D02*
X020178Y005596D01*
X020174Y005577D01*
X020178Y005557D01*
X020183Y005549D01*
X020211Y005577D01*
X020183Y005604D01*
D02*
G37*
G36*
X022195Y005442D02*
X022168Y005415D01*
X022176Y005409D01*
X022195Y005405D01*
X022215Y005409D01*
X022223Y005415D01*
X022195Y005442D01*
D02*
G37*
G36*
X022963Y005154D02*
X022958Y005146D01*
X022954Y005126D01*
X022958Y005107D01*
X022963Y005099D01*
X022991Y005126D01*
X022963Y005154D01*
D02*
G37*
G36*
X020445Y005047D02*
X020426Y005043D01*
X020418Y005038D01*
X020445Y005011D01*
X020473Y005038D01*
X020465Y005043D01*
X020445Y005047D01*
D02*
G37*
G36*
X020403Y005024D02*
X020398Y005016D01*
X020394Y004996D01*
X020398Y004977D01*
X020403Y004969D01*
X020431Y004996D01*
X020403Y005024D01*
D02*
G37*
G36*
X021985Y005037D02*
X021966Y005033D01*
X021949Y005022D01*
X021938Y005006D01*
X021934Y004986D01*
X021938Y004967D01*
X021949Y004950D01*
X021966Y004939D01*
X021985Y004935D01*
X022005Y004939D01*
X022021Y004950D01*
X022032Y004967D01*
X022036Y004986D01*
X022032Y005006D01*
X022021Y005022D01*
X022005Y005033D01*
X021985Y005037D01*
D02*
G37*
G36*
X020185Y004967D02*
X020166Y004963D01*
X020149Y004952D01*
X020138Y004936D01*
X020134Y004916D01*
X020138Y004897D01*
X020149Y004880D01*
X020166Y004869D01*
X020185Y004865D01*
X020205Y004869D01*
X020221Y004880D01*
X020232Y004897D01*
X020236Y004916D01*
X020232Y004936D01*
X020221Y004952D01*
X020205Y004963D01*
X020185Y004967D01*
D02*
G37*
G36*
Y004557D02*
X020166Y004553D01*
X020149Y004542D01*
X020138Y004526D01*
X020134Y004506D01*
X020138Y004487D01*
X020149Y004470D01*
X020166Y004459D01*
X020185Y004455D01*
X020205Y004459D01*
X020221Y004470D01*
X020232Y004487D01*
X020236Y004506D01*
X020232Y004526D01*
X020221Y004542D01*
X020205Y004553D01*
X020185Y004557D01*
D02*
G37*
G36*
X021135Y004517D02*
X021116Y004513D01*
X021099Y004502D01*
X021088Y004486D01*
X021084Y004466D01*
X021088Y004447D01*
X021099Y004430D01*
X021116Y004419D01*
X021135Y004415D01*
X021155Y004419D01*
X021171Y004430D01*
X021182Y004447D01*
X021186Y004466D01*
X021182Y004486D01*
X021171Y004502D01*
X021155Y004513D01*
X021135Y004517D01*
D02*
G37*
G36*
X021045Y004449D02*
X021026Y004445D01*
X021018Y004439D01*
X021045Y004412D01*
X021073Y004439D01*
X021065Y004445D01*
X021045Y004449D01*
D02*
G37*
G36*
X020585Y004317D02*
X020566Y004313D01*
X020558Y004308D01*
X020585Y004281D01*
X020613Y004308D01*
X020605Y004313D01*
X020585Y004317D01*
D02*
G37*
G36*
X020627Y004294D02*
X020599Y004266D01*
X020627Y004239D01*
X020632Y004247D01*
X020636Y004266D01*
X020632Y004286D01*
X020627Y004294D01*
D02*
G37*
G36*
X020543D02*
X020538Y004286D01*
X020534Y004266D01*
X020538Y004247D01*
X020543Y004239D01*
X020571Y004266D01*
X020543Y004294D01*
D02*
G37*
G36*
X020585Y004252D02*
X020558Y004225D01*
X020566Y004219D01*
X020585Y004215D01*
X020605Y004219D01*
X020613Y004225D01*
X020585Y004252D01*
D02*
G37*
G36*
X020755Y004107D02*
X020736Y004103D01*
X020719Y004092D01*
X020711D01*
X020695Y004103D01*
X020675Y004107D01*
X020656Y004103D01*
X020648Y004098D01*
X020682Y004063D01*
X020668Y004049D01*
X020633Y004084D01*
X020628Y004076D01*
X020624Y004056D01*
X020628Y004037D01*
X020635Y004026D01*
X020628Y004016D01*
X020624Y003996D01*
X020628Y003977D01*
X020633Y003969D01*
X020668Y004003D01*
X020682Y003989D01*
X020648Y003955D01*
X020656Y003949D01*
X020675Y003945D01*
X020695Y003949D01*
X020706Y003957D01*
X020715Y003959D01*
X020724Y003957D01*
X020736Y003949D01*
X020755Y003945D01*
X020775Y003949D01*
X020783Y003955D01*
X020748Y003989D01*
X020762Y004003D01*
X020797Y003969D01*
X020802Y003977D01*
X020806Y003996D01*
X020802Y004016D01*
X020795Y004026D01*
X020802Y004037D01*
X020806Y004056D01*
X020802Y004076D01*
X020797Y004084D01*
X020762Y004049D01*
X020748Y004063D01*
X020783Y004098D01*
X020775Y004103D01*
X020755Y004107D01*
D02*
G37*
G36*
X021765Y004067D02*
X021746Y004063D01*
X021738Y004058D01*
X021765Y004031D01*
X021793Y004058D01*
X021785Y004063D01*
X021765Y004067D01*
D02*
G37*
G36*
X021665D02*
X021646Y004063D01*
X021629Y004052D01*
X021618Y004036D01*
X021614Y004016D01*
X021618Y003997D01*
X021629Y003980D01*
X021646Y003969D01*
X021665Y003965D01*
X021685Y003969D01*
X021701Y003980D01*
X021708Y003990D01*
X021723D01*
X021723Y003989D01*
X021751Y004016D01*
X021723Y004044D01*
X021723Y004043D01*
X021708D01*
X021701Y004052D01*
X021685Y004063D01*
X021665Y004067D01*
D02*
G37*
G36*
X021765Y004002D02*
X021738Y003975D01*
X021746Y003969D01*
X021765Y003965D01*
X021785Y003969D01*
X021793Y003975D01*
X021765Y004002D01*
D02*
G37*
G36*
X020865Y003915D02*
X020846Y003911D01*
X020838Y003906D01*
X020865Y003878D01*
X020893Y003906D01*
X020885Y003911D01*
X020865Y003915D01*
D02*
G37*
G36*
X020907Y003891D02*
X020879Y003864D01*
X020907Y003836D01*
X020912Y003844D01*
X020916Y003864D01*
X020912Y003883D01*
X020907Y003891D01*
D02*
G37*
G36*
X020823D02*
X020818Y003883D01*
X020814Y003864D01*
X020818Y003844D01*
X020823Y003836D01*
X020851Y003864D01*
X020823Y003891D01*
D02*
G37*
G36*
X020865Y003850D02*
X020838Y003822D01*
X020846Y003817D01*
X020865Y003813D01*
X020885Y003817D01*
X020893Y003822D01*
X020865Y003850D01*
D02*
G37*
G36*
X023747Y003824D02*
X023719Y003796D01*
X023747Y003769D01*
X023752Y003777D01*
X023756Y003796D01*
X023752Y003816D01*
X023747Y003824D01*
D02*
G37*
G36*
X023443D02*
X023438Y003816D01*
X023434Y003796D01*
X023438Y003777D01*
X023443Y003769D01*
X023471Y003796D01*
X023443Y003824D01*
D02*
G37*
G36*
X023705Y003782D02*
X023678Y003755D01*
X023686Y003749D01*
X023705Y003745D01*
X023725Y003749D01*
X023733Y003755D01*
X023705Y003782D01*
D02*
G37*
G36*
X023485D02*
X023458Y003755D01*
X023466Y003749D01*
X023485Y003745D01*
X023505Y003749D01*
X023513Y003755D01*
X023485Y003782D01*
D02*
G37*
G36*
X021666Y003588D02*
X021647Y003584D01*
X021639Y003579D01*
X021666Y003552D01*
X021694Y003579D01*
X021686Y003584D01*
X021666Y003588D01*
D02*
G37*
G36*
X021708Y003565D02*
X021680Y003537D01*
X021708Y003510D01*
X021713Y003518D01*
X021717Y003537D01*
X021713Y003557D01*
X021708Y003565D01*
D02*
G37*
G36*
X021624D02*
X021619Y003557D01*
X021615Y003537D01*
X021619Y003518D01*
X021624Y003510D01*
X021652Y003537D01*
X021624Y003565D01*
D02*
G37*
G36*
X021666Y003523D02*
X021639Y003496D01*
X021647Y003490D01*
X021666Y003486D01*
X021686Y003490D01*
X021694Y003496D01*
X021666Y003523D01*
D02*
G37*
G36*
X022725Y003347D02*
X022706Y003343D01*
X022698Y003338D01*
X022725Y003311D01*
X022753Y003338D01*
X022745Y003343D01*
X022725Y003347D01*
D02*
G37*
G36*
X022767Y003324D02*
X022739Y003296D01*
X022767Y003269D01*
X022772Y003277D01*
X022776Y003296D01*
X022772Y003316D01*
X022767Y003324D01*
D02*
G37*
G36*
X022683D02*
X022678Y003316D01*
X022674Y003296D01*
X022678Y003277D01*
X022683Y003269D01*
X022711Y003296D01*
X022683Y003324D01*
D02*
G37*
G36*
X022725Y003282D02*
X022698Y003255D01*
X022706Y003249D01*
X022725Y003245D01*
X022745Y003249D01*
X022753Y003255D01*
X022725Y003282D01*
D02*
G37*
G36*
X022315Y003347D02*
X022296Y003343D01*
X022279Y003332D01*
X022268Y003316D01*
X022264Y003296D01*
X022268Y003277D01*
X022279Y003260D01*
X022296Y003249D01*
X022315Y003245D01*
X022335Y003249D01*
X022351Y003260D01*
X022362Y003277D01*
X022366Y003296D01*
X022362Y003316D01*
X022351Y003332D01*
X022335Y003343D01*
X022315Y003347D01*
D02*
G37*
G36*
X019517Y005644D02*
X019489Y005616D01*
X019517Y005589D01*
X019522Y005597D01*
X019526Y005616D01*
X019522Y005636D01*
X019517Y005644D01*
D02*
G37*
G36*
X019433D02*
X019428Y005636D01*
X019424Y005616D01*
X019428Y005597D01*
X019433Y005589D01*
X019461Y005616D01*
X019433Y005644D01*
D02*
G37*
G36*
X019475Y005602D02*
X019448Y005575D01*
X019456Y005569D01*
X019475Y005565D01*
X019495Y005569D01*
X019503Y005575D01*
X019475Y005602D01*
D02*
G37*
G36*
X019645Y005577D02*
X019626Y005573D01*
X019610Y005563D01*
X019595Y005573D01*
X019575Y005577D01*
X019556Y005573D01*
X019548Y005568D01*
X019582Y005533D01*
X019568Y005519D01*
X019533Y005554D01*
X019528Y005546D01*
X019524Y005526D01*
X019528Y005507D01*
X019538Y005491D01*
X019528Y005476D01*
X019524Y005456D01*
X019528Y005437D01*
X019533Y005429D01*
X019568Y005463D01*
X019582Y005449D01*
X019548Y005415D01*
X019556Y005409D01*
X019575Y005405D01*
X019595Y005409D01*
X019610Y005420D01*
X019626Y005409D01*
X019645Y005405D01*
X019665Y005409D01*
X019673Y005415D01*
X019638Y005449D01*
X019652Y005463D01*
X019687Y005429D01*
X019692Y005437D01*
X019696Y005456D01*
X019692Y005476D01*
X019682Y005491D01*
X019692Y005507D01*
X019696Y005526D01*
X019692Y005546D01*
X019687Y005554D01*
X019652Y005519D01*
X019638Y005533D01*
X019673Y005568D01*
X019665Y005573D01*
X019645Y005577D01*
D02*
G37*
G36*
X019865Y003836D02*
X019842Y003833D01*
X019821Y003824D01*
X019802Y003810D01*
X019788Y003791D01*
X019779Y003770D01*
X019776Y003746D01*
X019779Y003723D01*
X019788Y003702D01*
X019802Y003683D01*
X019821Y003669D01*
X019842Y003660D01*
X019865Y003657D01*
X019888Y003660D01*
X019910Y003669D01*
X019928Y003683D01*
X019943Y003702D01*
X019951Y003723D01*
X019955Y003746D01*
X019951Y003770D01*
X019943Y003791D01*
X019928Y003810D01*
X019910Y003824D01*
X019888Y003833D01*
X019865Y003836D01*
D02*
G37*
G36*
X020215Y003581D02*
X020038D01*
Y003404D01*
X020215D01*
Y003581D01*
D02*
G37*
G36*
X019872Y003582D02*
X019849Y003579D01*
X019828Y003570D01*
X019809Y003556D01*
X019795Y003538D01*
X019786Y003516D01*
X019783Y003493D01*
X019786Y003470D01*
X019795Y003448D01*
X019809Y003430D01*
X019828Y003416D01*
X019849Y003407D01*
X019872Y003404D01*
X019895Y003407D01*
X019917Y003416D01*
X019935Y003430D01*
X019950Y003448D01*
X019959Y003470D01*
X019962Y003493D01*
X019959Y003516D01*
X019950Y003538D01*
X019935Y003556D01*
X019917Y003570D01*
X019895Y003579D01*
X019872Y003582D01*
D02*
G37*
G36*
X020126Y003328D02*
X020103Y003325D01*
X020082Y003316D01*
X020063Y003302D01*
X020049Y003284D01*
X020040Y003262D01*
X020037Y003239D01*
X020040Y003216D01*
X020049Y003194D01*
X020063Y003176D01*
X020082Y003162D01*
X020103Y003153D01*
X020126Y003150D01*
X020149Y003153D01*
X020171Y003162D01*
X020189Y003176D01*
X020204Y003194D01*
X020212Y003216D01*
X020216Y003239D01*
X020212Y003262D01*
X020204Y003284D01*
X020189Y003302D01*
X020171Y003316D01*
X020149Y003325D01*
X020126Y003328D01*
D02*
G37*
G36*
X022485Y002927D02*
X022466Y002923D01*
X022449Y002912D01*
X022438Y002896D01*
X022434Y002876D01*
X022438Y002857D01*
X022449Y002840D01*
X022466Y002829D01*
X022485Y002825D01*
X022505Y002829D01*
X022521Y002840D01*
X022532Y002857D01*
X022536Y002876D01*
X022532Y002896D01*
X022521Y002912D01*
X022505Y002923D01*
X022485Y002927D01*
D02*
G37*
G36*
X022815Y002847D02*
X022796Y002843D01*
X022779Y002832D01*
X022768Y002816D01*
X022764Y002796D01*
X022768Y002777D01*
X022779Y002760D01*
X022796Y002749D01*
X022815Y002745D01*
X022835Y002749D01*
X022851Y002760D01*
X022862Y002777D01*
X022866Y002796D01*
X022862Y002816D01*
X022851Y002832D01*
X022835Y002843D01*
X022815Y002847D01*
D02*
G37*
G36*
X019033Y004924D02*
X019028Y004916D01*
X019024Y004896D01*
X019028Y004877D01*
X019036Y004865D01*
X019038Y004856D01*
X019036Y004847D01*
X019028Y004836D01*
X019024Y004816D01*
X019028Y004797D01*
X019033Y004789D01*
X019068Y004823D01*
X019075Y004816D01*
X019082Y004823D01*
X019117Y004789D01*
X019122Y004797D01*
X019126Y004816D01*
X019122Y004836D01*
X019115Y004847D01*
X019112Y004856D01*
X019115Y004865D01*
X019122Y004877D01*
X019126Y004896D01*
X019122Y004916D01*
X019117Y004924D01*
X019082Y004889D01*
X019075Y004896D01*
X019068Y004889D01*
X019033Y004924D01*
D02*
G37*
G36*
X019075Y004802D02*
X019044Y004771D01*
X019075Y004741D01*
X019106Y004771D01*
X019075Y004802D01*
D02*
G37*
G36*
X019117Y004754D02*
X019089Y004726D01*
X019117Y004699D01*
X019122Y004707D01*
X019126Y004726D01*
X019122Y004746D01*
X019117Y004754D01*
D02*
G37*
G36*
X019033D02*
X019028Y004746D01*
X019024Y004726D01*
X019028Y004707D01*
X019033Y004699D01*
X019061Y004726D01*
X019033Y004754D01*
D02*
G37*
G36*
X019075Y004712D02*
X019048Y004685D01*
X019056Y004679D01*
X019075Y004675D01*
X019095Y004679D01*
X019103Y004685D01*
X019075Y004712D01*
D02*
G37*
G36*
X021325Y003347D02*
X021306Y003343D01*
X021290Y003333D01*
X021275Y003343D01*
X021255Y003347D01*
X021236Y003343D01*
X021228Y003338D01*
X021262Y003303D01*
X021248Y003289D01*
X021213Y003324D01*
X021208Y003316D01*
X021204Y003296D01*
X021208Y003277D01*
X021218Y003261D01*
X021208Y003246D01*
X021204Y003226D01*
X021208Y003207D01*
X021213Y003199D01*
X021248Y003233D01*
X021262Y003219D01*
X021228Y003185D01*
X021236Y003179D01*
X021255Y003175D01*
X021275Y003179D01*
X021290Y003190D01*
X021306Y003179D01*
X021325Y003175D01*
X021345Y003179D01*
X021353Y003185D01*
X021318Y003219D01*
X021332Y003233D01*
X021367Y003199D01*
X021372Y003207D01*
X021376Y003226D01*
X021372Y003246D01*
X021362Y003261D01*
X021372Y003277D01*
X021376Y003296D01*
X021372Y003316D01*
X021367Y003324D01*
X021332Y003289D01*
X021318Y003303D01*
X021353Y003338D01*
X021345Y003343D01*
X021325Y003347D01*
D02*
G37*
G36*
X023075Y003397D02*
X023056Y003393D01*
X023045Y003386D01*
X023035Y003393D01*
X023015Y003397D01*
X022996Y003393D01*
X022985Y003386D01*
X022975Y003393D01*
X022955Y003397D01*
X022936Y003393D01*
X022928Y003388D01*
X022962Y003353D01*
X022955Y003346D01*
X022962Y003339D01*
X022928Y003305D01*
X022936Y003299D01*
X022955Y003295D01*
X022975Y003299D01*
X022985Y003306D01*
X022996Y003299D01*
X023015Y003295D01*
X023035Y003299D01*
X023045Y003306D01*
X023056Y003299D01*
X023075Y003295D01*
X023095Y003299D01*
X023103Y003305D01*
X023068Y003339D01*
X023075Y003346D01*
X023068Y003353D01*
X023103Y003388D01*
X023095Y003393D01*
X023075Y003397D01*
D02*
G37*
G36*
X023117Y003374D02*
X023089Y003346D01*
X023117Y003319D01*
X023122Y003327D01*
X023126Y003346D01*
X023122Y003366D01*
X023117Y003374D01*
D02*
G37*
G36*
X022913D02*
X022908Y003366D01*
X022904Y003346D01*
X022908Y003327D01*
X022913Y003319D01*
X022941Y003346D01*
X022913Y003374D01*
D02*
G37*
%LPD*%
D10*
X025645Y002636D02*
Y003636D01*
X025735Y002546D02*
X025895D01*
X025645Y002636D02*
X025735Y002546D01*
X029625Y002186D02*
X029675Y002236D01*
X025659Y002350D02*
X025695Y002386D01*
X025507Y002306D02*
X027365D01*
X025490Y002266D02*
X028495D01*
X025474Y002226D02*
X028835D01*
X025457Y002186D02*
X029625D01*
X025439Y002146D02*
X029855D01*
X025530Y002350D02*
X025659D01*
X027395Y002336D02*
Y002546D01*
X027365Y002306D02*
X027395Y002336D01*
X028545Y002316D02*
Y002546D01*
X028495Y002266D02*
X028545Y002316D01*
X028895Y002286D02*
Y002546D01*
X028835Y002226D02*
X028895Y002286D01*
X030045Y002336D02*
Y002546D01*
X029855Y002146D02*
X030045Y002336D01*
X031545D02*
Y002546D01*
Y002336D02*
X031595Y002286D01*
X031755D01*
X031825Y002356D01*
Y003996D01*
X031765Y004056D02*
X031825Y003996D01*
X025282Y004056D02*
X031765Y004056D01*
X024845Y002796D02*
X025155Y002486D01*
X025157D01*
X025457Y002186D01*
X025340Y002540D02*
X025530Y002350D01*
X021666Y004281D02*
X021881D01*
X021935Y004226D01*
X020747Y004466D02*
X020876Y004338D01*
X021609D02*
X021666Y004281D01*
X021935Y004226D02*
X022614D01*
X023015Y004326D02*
X023455D01*
X022614Y004226D02*
X022754Y004366D01*
X022975D02*
X023015Y004326D01*
X020876Y004338D02*
X021609D01*
X022754Y004366D02*
X022975D01*
X020555Y004466D02*
X020747D01*
X025340Y002540D02*
Y003570D01*
X023455Y004326D02*
X023558Y004224D01*
X023625D01*
X023728Y004326D01*
X024052D01*
X024814Y004096D02*
X025340Y003570D01*
X024052Y004326D02*
X024282Y004096D01*
X024814D01*
X021953Y004266D02*
X022595D01*
X021543Y004676D02*
X021953Y004266D01*
X020405Y004566D02*
X020464Y004625D01*
X020595D01*
X020646Y004676D01*
X021543D01*
X025145Y004136D02*
X025645Y003636D01*
X022995Y004406D02*
X023027Y004374D01*
X022595Y004266D02*
X022735Y004406D01*
X022995D01*
X024298Y004136D02*
X025145D01*
X023027Y004374D02*
X024061D01*
X024298Y004136D01*
X020895Y004046D02*
Y004056D01*
X021086Y004246D01*
X021624Y004201D02*
X021841D01*
X021899Y004143D01*
X021086Y004246D02*
X021579D01*
X021624Y004201D01*
X021899Y004143D02*
X022668D01*
X022702Y004176D01*
X022945D01*
X023005Y004236D01*
X025090Y002667D02*
X025490Y002266D01*
X025090Y002667D02*
Y003620D01*
X023532Y004137D02*
X024105D01*
X024105Y004136D01*
X023005Y004236D02*
X023432D01*
X023532Y004137D01*
X024248Y004016D02*
X024694D01*
X025090Y003620D01*
X024105Y004136D02*
X024128D01*
X024248Y004016D01*
X021861Y004241D02*
X021915Y004186D01*
X022631D01*
X022751Y004306D01*
X020815Y004216D02*
X020884D01*
X020964Y004296D01*
X021585D01*
X021641Y004241D01*
X021861D01*
X022751Y004306D02*
X022965D01*
X022995Y004276D01*
X025300Y002514D02*
X025507Y002306D01*
X024794Y004056D02*
X025300Y003550D01*
Y002514D02*
Y003550D01*
X022995Y004276D02*
X023449D01*
X023548Y004177D02*
X023703D01*
X023449Y004276D02*
X023548Y004177D01*
X023703D02*
X023812Y004286D01*
X024035D01*
X024265Y004056D02*
X024794D01*
X024035Y004286D02*
X024265Y004056D01*
X021275Y003896D02*
X021447D01*
X021152Y003970D02*
X021205Y003917D01*
X021255D02*
X021275Y003896D01*
X021757Y003586D02*
X022658D01*
X022688Y003616D01*
X021447Y003896D02*
X021757Y003586D01*
X022688Y003616D02*
X022807D01*
X021149Y003970D02*
X021152D01*
X021205Y003917D02*
X021255D01*
X024805Y002780D02*
X025439Y002146D01*
X023470Y003896D02*
X023543Y003824D01*
X023648D01*
X022807Y003616D02*
X023087Y003896D01*
X023470D01*
X023648Y003824D02*
X023720Y003896D01*
X024805Y002780D02*
Y003540D01*
X023720Y003896D02*
X024449D01*
X024805Y003540D01*
X022665Y004099D02*
X022707Y004056D01*
X022915D01*
X020995Y004046D02*
X021105Y004156D01*
X022915Y004056D02*
X023055Y004196D01*
X021105Y004156D02*
X021816D01*
X021874Y004099D01*
X022665D01*
X023055Y004196D02*
X023395D01*
X023495Y004097D01*
X025045Y002655D02*
Y003606D01*
Y002655D02*
X025474Y002226D01*
X024085Y004096D02*
X024112D01*
X024232Y003976D01*
X023495Y004097D02*
X024085D01*
X024085Y004096D01*
X024232Y003976D02*
X024675D01*
X025045Y003606D01*
X023078Y005256D02*
X023408D01*
X022888Y005446D02*
X023078Y005256D01*
X023408D02*
X023520Y005369D01*
X024135Y005316D02*
X024195Y005256D01*
X023628Y005369D02*
X023680Y005316D01*
X024135D01*
X023520Y005369D02*
X023628D01*
X022655Y005446D02*
X022888D01*
X024315Y004176D02*
X025162D01*
X024195Y004296D02*
Y005256D01*
Y004296D02*
X024315Y004176D01*
X025162D02*
X025282Y004056D01*
X021464Y003936D02*
X021774Y003626D01*
X022642D01*
X021215Y004016D02*
X021295Y003936D01*
X021464D01*
X022642Y003626D02*
X022672Y003656D01*
X022785D01*
X023065Y003936D01*
X023510D02*
X023543Y003969D01*
X023065Y003936D02*
X023510D01*
X024845Y002796D02*
Y003556D01*
X023680Y003936D02*
X024465D01*
X024845Y003556D01*
X023543Y003969D02*
X023648D01*
X023680Y003936D01*
X021629Y005745D02*
X021902Y006018D01*
X022197D01*
X021373Y005745D02*
X021629D01*
X022197Y006018D02*
X022235Y006056D01*
X022330Y006066D02*
X022335D01*
X021345Y005656D02*
X021608D01*
X021929Y005978D01*
X022241D02*
X022330Y006066D01*
X021929Y005978D02*
X022241D01*
X022525Y005446D02*
X022533Y005439D01*
X022557D02*
X022610Y005386D01*
X022533Y005439D02*
X022557D01*
X022610Y005386D02*
X022889D01*
X023058Y005216D01*
X023424D01*
X023464Y005256D01*
X023520D01*
X023553Y005224D01*
X023628D01*
X023660Y005256D01*
X023675D01*
X023675Y005256D01*
X024095D01*
X022435Y005446D02*
X022539Y005342D01*
X022874D01*
X023029Y005186D01*
X023030D01*
X023080Y005136D01*
X024095D01*
X022695Y005656D02*
X022705Y005646D01*
X022984D01*
X022994Y005636D01*
X023105D01*
X023122Y005653D01*
X024095D01*
X022585Y005686D02*
X022590Y005691D01*
X022645D01*
X022670Y005716D01*
X022970D01*
X023010Y005676D01*
X023060D01*
X023077Y005693D01*
X024095D01*
X023065Y005796D02*
X023125Y005736D01*
X022603Y005774D02*
X022625Y005796D01*
X023065D01*
X023125Y005736D02*
X024095D01*
X023475Y005856D02*
X023548Y005784D01*
X023642D01*
X023714Y005856D01*
X024095D01*
X023125Y005856D02*
X023475D01*
X023125Y005856D02*
X023125Y005856D01*
X022585Y005856D02*
X023125D01*
X023035Y005956D02*
X023095Y005896D01*
X022577Y005956D02*
X023035D01*
X022557Y005976D02*
X022577Y005956D01*
X022465Y005976D02*
X022557D01*
X023095Y005896D02*
X023493D01*
X023565Y005824D01*
X023625D01*
X023698Y005896D01*
X024095D01*
X023135Y005936D02*
X023515D01*
X022591Y006006D02*
X023065D01*
X023515Y005936D02*
X023547Y005969D01*
X023065Y006006D02*
X023135Y005936D01*
X022507Y006026D02*
X022572D01*
X022427Y006106D02*
X022507Y006026D01*
X022572D02*
X022591Y006006D01*
X023547Y005969D02*
X023642D01*
X023675Y005936D01*
X024095D01*
X022255Y005290D02*
X022583Y004962D01*
X023326D02*
X023352Y004936D01*
X022583Y004962D02*
X023326D01*
X023352Y004936D02*
X023530D01*
X023563Y004969D01*
X023625D01*
X023658Y004936D01*
X024095D01*
X022515Y005176D02*
X022775D01*
X022909Y005042D01*
X023296D02*
X023350Y005096D01*
X022334Y005357D02*
X022515Y005176D01*
X022909Y005042D02*
X023296D01*
X023350Y005096D02*
X024095D01*
X021895Y006816D02*
X022067Y006989D01*
X023902D02*
X023980Y006911D01*
X022067Y006989D02*
X023902D01*
X021895Y006816D02*
X021895D01*
X023980Y006911D02*
X024095D01*
X021915Y006726D02*
Y006744D01*
X022120Y006949D01*
X023413D01*
X023595Y006766D01*
X023715D01*
X023820Y006871D01*
X024095D01*
X021855Y006556D02*
X021931Y006480D01*
X022244D01*
X022244Y006481D01*
X022490D01*
X022723Y006715D01*
X023386Y006678D02*
X023758D01*
X023817Y006736D01*
X024095D01*
X022723Y006715D02*
X022740D01*
X023115D01*
X023120Y006719D01*
X023345D01*
X023386Y006678D01*
X021775Y006536D02*
X021871Y006440D01*
X022523D01*
X023370Y006638D02*
X023774D01*
X023811Y006675D01*
X024095D01*
X022757D02*
X023132D01*
X022523Y006440D02*
X022757Y006675D01*
X023132D02*
X023137Y006679D01*
X023328D01*
X023370Y006638D01*
X021585Y006760D02*
X021854Y007029D01*
X023933D01*
X021585Y006686D02*
Y006760D01*
X023933Y007029D02*
X024010Y006951D01*
X024095D01*
X021813Y006399D02*
X022537D01*
X021675Y006536D02*
X021813Y006399D01*
X021625Y006536D02*
X021675D01*
X022773Y006635D02*
X023149D01*
X022537Y006399D02*
X022773Y006635D01*
X023149D02*
X023153Y006639D01*
X023311D01*
X023424Y006526D01*
X024095D01*
X021774Y006357D02*
X022556D01*
X021675Y006456D02*
X021774Y006357D01*
X021605Y006456D02*
X021675D01*
X023139Y006516D02*
X023199Y006456D01*
X024095D01*
X022556Y006357D02*
X022715Y006516D01*
X023139D01*
X022675Y006230D02*
X022675Y006230D01*
X020752Y005643D02*
Y006037D01*
X020945Y006230D01*
X022675Y006230D02*
X022720D01*
X020945Y006230D02*
X022675D01*
X022805Y006315D02*
X023132D01*
X022720Y006230D02*
X022805Y006315D01*
X020413Y005459D02*
X020447D01*
X020555Y005446D02*
X020752Y005643D01*
X020447Y005459D02*
X020460Y005446D01*
X020555D01*
X020405Y005466D02*
X020413Y005459D01*
X023260Y006186D02*
X024095D01*
X023132Y006315D02*
X023260Y006186D01*
X020525Y005566D02*
X020705Y005746D01*
Y006046D01*
X020928Y006270D01*
X022826Y006369D02*
X023655D01*
X022658Y006270D02*
X022743Y006355D01*
X022811D01*
X022826Y006369D01*
X023655D02*
X023724Y006301D01*
X020928Y006270D02*
X022658D01*
X020420Y005566D02*
X020525D01*
X020320Y005466D02*
X020420Y005566D01*
X020292Y005460D02*
X020298Y005466D01*
X020320D01*
X023724Y006301D02*
X024095D01*
X022787Y006395D02*
X022801Y006409D01*
X022635Y006316D02*
X022713Y006395D01*
X022801Y006409D02*
X023673D01*
X022713Y006395D02*
X022787D01*
X023673Y006409D02*
X023735Y006346D01*
X020878Y006316D02*
X022635D01*
X020403Y005881D02*
X020878Y006316D01*
X020145Y005476D02*
X020223D01*
X020403Y005696D02*
Y005881D01*
X020313Y005606D02*
X020403Y005696D01*
X020313Y005566D02*
Y005606D01*
X020223Y005476D02*
X020313Y005566D01*
X023735Y006346D02*
X024095D01*
X020899Y005306D02*
X021189Y005596D01*
X022525Y005597D02*
X022525Y005596D01*
X021485D02*
X021486Y005597D01*
X022525D01*
X021189Y005596D02*
X021485D01*
X020205Y005306D02*
X020899D01*
X022525Y005596D02*
X022977D01*
X022977Y005596D01*
X023058D01*
X023122Y005533D01*
X024095D01*
X020924Y005266D02*
X021214Y005556D01*
X020325Y005196D02*
X020395Y005266D01*
X020924D01*
X020325Y005196D02*
X020325D01*
X021214Y005556D02*
X022961D01*
X022961Y005556D01*
X023042D01*
X023105Y005493D01*
X023135D01*
X023135Y005493D01*
X024095D01*
X021249Y005516D02*
X022875D01*
X023714Y005453D02*
X023714Y005453D01*
X020445Y005226D02*
X020959D01*
X021249Y005516D01*
X020323Y005124D02*
X020342D01*
X020445Y005226D01*
X020315Y005116D02*
X020323Y005124D01*
X022875Y005516D02*
X022995Y005396D01*
X023095D01*
X023152Y005453D01*
X024095D01*
X020517Y004855D02*
Y004858D01*
X021632Y004906D02*
X022032Y004506D01*
X023040D01*
X020565Y004906D02*
X021632D01*
X020517Y004858D02*
X020565Y004906D01*
X023904Y004526D02*
X024095D01*
X023749Y004456D02*
X023834D01*
X023904Y004526D01*
X023040Y004506D02*
X023090Y004456D01*
X023577D01*
X023577Y004456D01*
X023693D01*
X023693Y004456D01*
X023749D01*
X022085Y006526D02*
Y006546D01*
X022035Y006686D02*
Y006731D01*
X022210Y006906D01*
X023391D01*
X023580Y006718D01*
X023741D01*
X023830Y006806D01*
X024095D01*
X021874Y004016D02*
X021938Y003952D01*
X022650Y003926D02*
X022745D01*
X021938Y003952D02*
X022358D01*
X022425Y003885D01*
X022609D02*
X022650Y003926D01*
X022425Y003885D02*
X022609D01*
X022445Y004866D02*
X022525Y004786D01*
X022557D01*
X022118Y005032D02*
X022284Y004866D01*
X022445D01*
X022557Y004786D02*
X022615Y004728D01*
Y004696D02*
X022685Y004626D01*
X022118Y005095D02*
X022129Y005106D01*
X022118Y005032D02*
Y005095D01*
X022129Y005106D02*
X022137D01*
X022685Y004626D02*
X023095D01*
X023105Y004616D02*
X023335D01*
X023095Y004626D02*
X023105Y004616D01*
X023335D02*
X023375Y004656D01*
X022615Y004696D02*
Y004728D01*
X023827Y004786D02*
X024095D01*
X023697Y004656D02*
X023827Y004786D01*
X023685Y004656D02*
X023685Y004656D01*
X023697D01*
X023375D02*
X023520D01*
X023520Y004656D01*
X023685D01*
X022545Y005106D02*
X022649Y005002D01*
X023331D02*
X023386Y005056D01*
X022649Y005002D02*
X023331D01*
X023386Y005056D02*
X024095D01*
X022297Y004796D02*
X022459D01*
X022509Y004746D01*
X022077Y005016D02*
Y005114D01*
Y005016D02*
X022297Y004796D01*
X022575Y004656D02*
Y004711D01*
Y004656D02*
X022615Y004616D01*
X022509Y004746D02*
X022540D01*
X022575Y004711D01*
X022025Y005166D02*
X022077Y005114D01*
X022615Y004616D02*
X022645Y004586D01*
X023073D01*
X022615Y004616D02*
X022615D01*
X023885Y004746D02*
X024095D01*
X023073Y004586D02*
X023123Y004536D01*
X023610D01*
X023610Y004536D01*
X023610Y004536D01*
X023660D01*
X023660Y004536D01*
X023660Y004536D01*
X023675D01*
X023885Y004746D01*
X023319Y004656D02*
X023359Y004696D01*
X022175Y005206D02*
X022325Y005056D01*
X022655Y004716D02*
Y004744D01*
X022325Y004946D02*
Y005056D01*
X022573Y004826D02*
X022655Y004744D01*
X022545Y004826D02*
X022573D01*
X022465Y004906D02*
X022545Y004826D01*
X022365Y004906D02*
X022465D01*
X022325Y004946D02*
X022365Y004906D01*
X023180Y004656D02*
X023180Y004656D01*
X023319D01*
X023130D02*
X023130Y004656D01*
X023180D01*
X022705Y004666D02*
X023111D01*
X023121Y004656D01*
X023130D01*
X022655Y004716D02*
X022705Y004666D01*
X023720Y004736D02*
X023720D01*
X023755Y004772D01*
Y004772D01*
X023810Y004826D01*
X022070Y005206D02*
X022175D01*
X021925Y005276D02*
X022000D01*
X022070Y005206D01*
X023810Y004826D02*
X024095D01*
X023610Y004696D02*
X023610Y004696D01*
X023680D01*
X023720Y004736D01*
X023359Y004696D02*
X023560D01*
X023560Y004696D01*
X023610D01*
X022184Y005276D02*
X022684Y004776D01*
X022085Y005276D02*
X022184D01*
X022684Y004776D02*
X023335D01*
X023375Y004816D01*
X023690Y004876D02*
X024095D01*
X023630Y004816D02*
X023690Y004876D01*
X023375Y004816D02*
X023630D01*
X020325Y004876D02*
X020453D01*
X021633Y004956D02*
X021643Y004946D01*
X020453Y004876D02*
X020533Y004956D01*
X021633D01*
X022048Y004546D02*
X023056D01*
X023899Y004616D02*
X024095D01*
X021643Y004946D02*
X021648D01*
X022048Y004546D01*
X023732Y004496D02*
X023779D01*
X023899Y004616D01*
X023056Y004546D02*
X023106Y004496D01*
X023594D01*
X023594Y004496D01*
X023677D01*
X023677Y004496D01*
X023732D01*
X020315Y004756D02*
X020365Y004706D01*
X020465D01*
X020625Y004866D01*
X021615D01*
X023022Y004466D02*
X023074Y004414D01*
X021615Y004866D02*
X022015Y004466D01*
X023022D01*
X023975Y004476D02*
X024095D01*
X023074Y004414D02*
X023913D01*
X023975Y004476D01*
X022660Y003706D02*
X022765D01*
X023045Y003986D02*
X023395D01*
X022765Y003706D02*
X023045Y003986D01*
X023395Y003991D02*
X023460Y004056D01*
X023395Y003986D02*
Y003991D01*
X023460Y004056D02*
X024095D01*
X022620Y003666D02*
X022660Y003706D01*
X021895Y003862D02*
Y003896D01*
Y003862D02*
X022090Y003666D01*
X022620D01*
X022658Y006109D02*
X024095D01*
X022655Y006106D02*
X022658Y006109D01*
X022655Y006108D02*
X022656Y006107D01*
X022045Y003796D02*
X022763D01*
X022045Y003876D02*
X022175D01*
X022206Y003845D01*
X022654D02*
X022665Y003856D01*
X022206Y003845D02*
X022654D01*
X021611Y005179D02*
X021943Y004847D01*
X020473Y005179D02*
X021611D01*
X020351Y005056D02*
X020473Y005179D01*
X020015Y005376D02*
Y005446D01*
Y005376D02*
X020195Y005196D01*
X020340Y005056D02*
X020340Y005056D01*
X020351D01*
X020195Y005152D02*
Y005196D01*
Y005152D02*
X020290Y005056D01*
X020340D01*
X022535Y006106D02*
X022546D01*
D85*
X024535Y006916D02*
X032777D01*
X032847Y006986D01*
X032855D01*
D99*
X029675Y002236D02*
D03*
X025695Y002386D02*
D03*
X020555Y004466D02*
D03*
X020405Y004566D02*
D03*
X020895Y004046D02*
D03*
X020815Y004216D02*
D03*
X021149Y003970D02*
D03*
X020995Y004046D02*
D03*
X022655Y005446D02*
D03*
X021215Y004016D02*
D03*
X023485Y003796D02*
D03*
X022955Y003346D02*
D03*
X023145Y003196D02*
D03*
X023705Y003796D02*
D03*
X023015Y003196D02*
D03*
X023075Y003346D02*
D03*
X021325Y003226D02*
D03*
Y003296D02*
D03*
X021255Y003226D02*
D03*
Y003296D02*
D03*
X019075Y004726D02*
D03*
X019075Y004816D02*
D03*
Y004896D02*
D03*
X021635Y003276D02*
D03*
X021575Y003336D02*
D03*
Y003276D02*
D03*
X019475Y005616D02*
D03*
X019575Y005456D02*
D03*
X019645D02*
D03*
X019575Y005526D02*
D03*
X019645D02*
D03*
X020865Y003864D02*
D03*
X020445Y004996D02*
D03*
X020585Y004266D02*
D03*
X020675Y004056D02*
D03*
X020755D02*
D03*
X020675Y003996D02*
D03*
Y006416D02*
D03*
X021295Y004606D02*
D03*
X022855Y006209D02*
D03*
X022065Y006169D02*
D03*
X021045Y004398D02*
D03*
X023165Y006796D02*
D03*
X021575Y006169D02*
D03*
X022725Y003296D02*
D03*
X020755Y003996D02*
D03*
X021666Y003537D02*
D03*
X023005Y005126D02*
D03*
X022195Y005456D02*
D03*
X021765Y004016D02*
D03*
X020675Y006316D02*
D03*
X020225Y005577D02*
D03*
X022235Y006056D02*
D03*
X021353Y005747D02*
D03*
X021345Y005656D02*
D03*
X022335Y006066D02*
D03*
X022525Y005446D02*
D03*
X022435D02*
D03*
X022695Y005656D02*
D03*
X022585Y005686D02*
D03*
X022603Y005774D02*
D03*
X022585Y005856D02*
D03*
X022465Y005976D02*
D03*
X022427Y006106D02*
D03*
X022255Y005290D02*
D03*
X022334Y005357D02*
D03*
X021895Y006816D02*
D03*
X021915Y006726D02*
D03*
X021855Y006556D02*
D03*
X021775Y006536D02*
D03*
X021585Y006686D02*
D03*
X021625Y006536D02*
D03*
X021605Y006456D02*
D03*
X020405Y005466D02*
D03*
X020292Y005460D02*
D03*
X020145Y005476D02*
D03*
X020205Y005306D02*
D03*
X020325Y005196D02*
D03*
X020315Y005116D02*
D03*
X020517Y004855D02*
D03*
X022085Y006546D02*
D03*
X022035Y006686D02*
D03*
X021874Y004016D02*
D03*
X022745Y003926D02*
D03*
X022137Y005106D02*
D03*
X022545D02*
D03*
X022025Y005166D02*
D03*
X021925Y005276D02*
D03*
X022085D02*
D03*
X020325Y004876D02*
D03*
X020315Y004756D02*
D03*
X021895Y003896D02*
D03*
X022655Y006108D02*
D03*
X022763Y003796D02*
D03*
X022045D02*
D03*
X022665Y003856D02*
D03*
X022045Y003876D02*
D03*
X020015Y005446D02*
D03*
X021945Y004866D02*
D03*
D100*
X031545Y002546D02*
D03*
X028895D02*
D03*
X030045D02*
D03*
X027395D02*
D03*
X028545D02*
D03*
X025895D02*
D03*
X024535Y006916D02*
D03*
D101*
X032855Y006986D02*
D03*
M02*
