G04*
G04 #@! TF.GenerationSoftware,Altium Limited,Altium Designer,20.1.11 (218)*
G04*
G04 Layer_Color=16711935*
%FSAX42Y42*%
%MOMM*%
G71*
G04*
G04 #@! TF.SameCoordinates,36681182-F833-4A46-B70D-823A07E8D0DF*
G04*
G04*
G04 #@! TF.FilePolarity,Negative*
G04*
G01*
G75*
%ADD17C,0.86*%
%ADD25R,2.70X2.50*%
%ADD27R,3.00X2.20*%
G04:AMPARAMS|DCode=28|XSize=1mm|YSize=1.5mm|CornerRadius=0.3mm|HoleSize=0mm|Usage=FLASHONLY|Rotation=180.000|XOffset=0mm|YOffset=0mm|HoleType=Round|Shape=RoundedRectangle|*
%AMROUNDEDRECTD28*
21,1,1.00,0.90,0,0,180.0*
21,1,0.40,1.50,0,0,180.0*
1,1,0.60,-0.20,0.45*
1,1,0.60,0.20,0.45*
1,1,0.60,0.20,-0.45*
1,1,0.60,-0.20,-0.45*
%
%ADD28ROUNDEDRECTD28*%
G04:AMPARAMS|DCode=29|XSize=1mm|YSize=1.5mm|CornerRadius=0.3mm|HoleSize=0mm|Usage=FLASHONLY|Rotation=90.000|XOffset=0mm|YOffset=0mm|HoleType=Round|Shape=RoundedRectangle|*
%AMROUNDEDRECTD29*
21,1,1.00,0.90,0,0,90.0*
21,1,0.40,1.50,0,0,90.0*
1,1,0.60,0.45,0.20*
1,1,0.60,0.45,-0.20*
1,1,0.60,-0.45,-0.20*
1,1,0.60,-0.45,0.20*
%
%ADD29ROUNDEDRECTD29*%
G04:AMPARAMS|DCode=31|XSize=1mm|YSize=1.2mm|CornerRadius=0.3mm|HoleSize=0mm|Usage=FLASHONLY|Rotation=270.000|XOffset=0mm|YOffset=0mm|HoleType=Round|Shape=RoundedRectangle|*
%AMROUNDEDRECTD31*
21,1,1.00,0.60,0,0,270.0*
21,1,0.40,1.20,0,0,270.0*
1,1,0.60,-0.30,-0.20*
1,1,0.60,-0.30,0.20*
1,1,0.60,0.30,0.20*
1,1,0.60,0.30,-0.20*
%
%ADD31ROUNDEDRECTD31*%
G04:AMPARAMS|DCode=32|XSize=1mm|YSize=1.2mm|CornerRadius=0.3mm|HoleSize=0mm|Usage=FLASHONLY|Rotation=180.000|XOffset=0mm|YOffset=0mm|HoleType=Round|Shape=RoundedRectangle|*
%AMROUNDEDRECTD32*
21,1,1.00,0.60,0,0,180.0*
21,1,0.40,1.20,0,0,180.0*
1,1,0.60,-0.20,0.30*
1,1,0.60,0.20,0.30*
1,1,0.60,0.20,-0.30*
1,1,0.60,-0.20,-0.30*
%
%ADD32ROUNDEDRECTD32*%
G04:AMPARAMS|DCode=39|XSize=2.74mm|YSize=1.12mm|CornerRadius=0mm|HoleSize=0mm|Usage=FLASHONLY|Rotation=90.000|XOffset=0mm|YOffset=0mm|HoleType=Round|Shape=Octagon|*
%AMOCTAGOND39*
4,1,8,0.28,1.37,-0.28,1.37,-0.56,1.09,-0.56,-1.09,-0.28,-1.37,0.28,-1.37,0.56,-1.09,0.56,1.09,0.28,1.37,0.0*
%
%ADD39OCTAGOND39*%

%ADD42C,5.00*%
%ADD43R,1.70X1.70*%
%ADD44C,1.70*%
%ADD45C,0.20*%
%ADD46C,2.20*%
%ADD47C,1.57*%
%ADD48R,1.57X1.57*%
%ADD49R,1.57X1.57*%
%ADD50C,1.73*%
%ADD51C,1.30*%
%ADD52C,1.40*%
%ADD53C,1.50*%
%ADD54C,0.80*%
%ADD55C,1.00*%
%ADD124R,1.00X1.50*%
%ADD125R,1.50X1.00*%
%ADD126R,2.20X2.20*%
G04:AMPARAMS|DCode=127|XSize=2.2mm|YSize=2.2mm|CornerRadius=0.6mm|HoleSize=0mm|Usage=FLASHONLY|Rotation=270.000|XOffset=0mm|YOffset=0mm|HoleType=Round|Shape=RoundedRectangle|*
%AMROUNDEDRECTD127*
21,1,2.20,1.00,0,0,270.0*
21,1,1.00,2.20,0,0,270.0*
1,1,1.20,-0.50,-0.50*
1,1,1.20,-0.50,0.50*
1,1,1.20,0.50,0.50*
1,1,1.20,0.50,-0.50*
%
%ADD127ROUNDEDRECTD127*%
%ADD128R,0.80X1.10*%
G04:AMPARAMS|DCode=129|XSize=1.1mm|YSize=0.8mm|CornerRadius=0.25mm|HoleSize=0mm|Usage=FLASHONLY|Rotation=90.000|XOffset=0mm|YOffset=0mm|HoleType=Round|Shape=RoundedRectangle|*
%AMROUNDEDRECTD129*
21,1,1.10,0.30,0,0,90.0*
21,1,0.60,0.80,0,0,90.0*
1,1,0.50,0.15,0.30*
1,1,0.50,0.15,-0.30*
1,1,0.50,-0.15,-0.30*
1,1,0.50,-0.15,0.30*
%
%ADD129ROUNDEDRECTD129*%
%ADD130R,1.20X1.00*%
%ADD131R,1.15X0.80*%
%ADD132R,0.90X1.80*%
%ADD133R,1.40X1.60*%
%ADD134R,1.80X1.60*%
%ADD135R,1.40X2.20*%
D17*
X019974Y006959D02*
X020609D01*
D25*
X019265Y002876D02*
D03*
Y002306D02*
D03*
X018855D02*
D03*
Y002876D02*
D03*
D27*
X019875Y002306D02*
D03*
Y002675D02*
D03*
D28*
X022875Y004015D02*
D03*
X023065D02*
D03*
X022875Y004185D02*
D03*
X023065D02*
D03*
X019065Y003986D02*
D03*
X018875D02*
D03*
X019005Y005756D02*
D03*
X019195D02*
D03*
X019565D02*
D03*
X019375D02*
D03*
X019795Y005216D02*
D03*
X019985D02*
D03*
X020765Y003746D02*
D03*
X020575D02*
D03*
X022117Y005506D02*
D03*
X021927D02*
D03*
X020745Y005346D02*
D03*
X020555D02*
D03*
X021315Y006316D02*
D03*
X021125D02*
D03*
X020345Y005676D02*
D03*
X020155D02*
D03*
X020715Y004266D02*
D03*
X020905D02*
D03*
X020785Y006316D02*
D03*
X020975D02*
D03*
X023135Y005436D02*
D03*
X023325D02*
D03*
X022315Y003487D02*
D03*
X022125D02*
D03*
X022315Y003667D02*
D03*
X022125D02*
D03*
X022875Y003845D02*
D03*
X023065D02*
D03*
X022875Y004356D02*
D03*
X023065D02*
D03*
X020355Y002726D02*
D03*
X020545D02*
D03*
X020355Y002946D02*
D03*
X020545D02*
D03*
D29*
X022515Y004976D02*
D03*
Y004786D02*
D03*
X021695Y004416D02*
D03*
Y004606D02*
D03*
X021695Y004976D02*
D03*
Y004786D02*
D03*
X022105Y004976D02*
D03*
Y004786D02*
D03*
X022105Y004416D02*
D03*
Y004606D02*
D03*
X023075Y003476D02*
D03*
Y003666D02*
D03*
X022495Y003667D02*
D03*
Y003477D02*
D03*
X021955D02*
D03*
Y003667D02*
D03*
X021785Y003477D02*
D03*
Y003667D02*
D03*
X020925Y006546D02*
D03*
Y006736D02*
D03*
X020725Y004906D02*
D03*
Y005096D02*
D03*
X020205Y002386D02*
D03*
Y002576D02*
D03*
X022955Y005456D02*
D03*
Y005266D02*
D03*
X022685Y004416D02*
D03*
Y004606D02*
D03*
Y004976D02*
D03*
Y004786D02*
D03*
X021865Y004416D02*
D03*
Y004606D02*
D03*
X021855Y004976D02*
D03*
Y004786D02*
D03*
X022275Y004976D02*
D03*
Y004786D02*
D03*
X022275Y004416D02*
D03*
Y004606D02*
D03*
X020185Y004826D02*
D03*
Y004636D02*
D03*
X021365Y002636D02*
D03*
Y002826D02*
D03*
X021565Y002636D02*
D03*
Y002826D02*
D03*
D31*
X020215Y006506D02*
D03*
Y006336D02*
D03*
X021525Y004416D02*
D03*
Y004586D02*
D03*
X020815Y006006D02*
D03*
Y006176D02*
D03*
X020675Y006006D02*
D03*
Y006176D02*
D03*
X020535Y006006D02*
D03*
Y006176D02*
D03*
X023325Y005028D02*
D03*
Y005198D02*
D03*
X023125Y005028D02*
D03*
Y005198D02*
D03*
D32*
X021095Y005826D02*
D03*
X021265D02*
D03*
X021095Y005686D02*
D03*
X021265D02*
D03*
X020765Y005636D02*
D03*
X020595D02*
D03*
Y005506D02*
D03*
X020765D02*
D03*
X021115Y004746D02*
D03*
X021285D02*
D03*
X021025Y004606D02*
D03*
X021195D02*
D03*
D39*
X020101Y006807D02*
D03*
X020482D02*
D03*
X020355D02*
D03*
X020228D02*
D03*
D42*
X032425Y002566D02*
D03*
X018895Y005106D02*
D03*
X021995Y002446D02*
D03*
D43*
X027594Y004935D02*
D03*
X027594Y005885D02*
D03*
X029094Y004935D02*
D03*
X029094Y005885D02*
D03*
X030594Y004935D02*
D03*
X030594Y005885D02*
D03*
X026094Y002485D02*
D03*
X026094Y003435D02*
D03*
X027594Y002485D02*
D03*
X027594Y003435D02*
D03*
X029094Y002485D02*
D03*
X029094Y003435D02*
D03*
X030594Y002485D02*
D03*
X030594Y003435D02*
D03*
X026094Y005845D02*
D03*
Y004895D02*
D03*
D44*
X027848Y004935D02*
D03*
X028102D02*
D03*
X028356D02*
D03*
X027594Y005697D02*
D03*
X027848D02*
D03*
X028102D02*
D03*
X028356D02*
D03*
X027848Y005885D02*
D03*
X028102D02*
D03*
X028356D02*
D03*
X027594Y006647D02*
D03*
X027848D02*
D03*
X028102D02*
D03*
X028356D02*
D03*
X029348Y004935D02*
D03*
X029602D02*
D03*
X029856D02*
D03*
X029094Y005697D02*
D03*
X029348D02*
D03*
X029602D02*
D03*
X029856D02*
D03*
X029348Y005885D02*
D03*
X029602D02*
D03*
X029856D02*
D03*
X029094Y006647D02*
D03*
X029348D02*
D03*
X029602D02*
D03*
X029856D02*
D03*
X031356Y005697D02*
D03*
X031102D02*
D03*
X030848D02*
D03*
X030594D02*
D03*
X031356Y004935D02*
D03*
X031102D02*
D03*
X030848D02*
D03*
X031356Y006647D02*
D03*
X031102D02*
D03*
X030848D02*
D03*
X030594D02*
D03*
X031356Y005885D02*
D03*
X031102D02*
D03*
X030848D02*
D03*
X026856Y003247D02*
D03*
X026602D02*
D03*
X026348D02*
D03*
X026094D02*
D03*
X026856Y002485D02*
D03*
X026602D02*
D03*
X026348D02*
D03*
X026856Y004197D02*
D03*
X026602D02*
D03*
X026348D02*
D03*
X026094D02*
D03*
X026856Y003435D02*
D03*
X026602D02*
D03*
X026348D02*
D03*
X028356Y003247D02*
D03*
X028102D02*
D03*
X027848D02*
D03*
X027594D02*
D03*
X028356Y002485D02*
D03*
X028102D02*
D03*
X027848D02*
D03*
X028356Y004197D02*
D03*
X028102D02*
D03*
X027848D02*
D03*
X027594D02*
D03*
X028356Y003435D02*
D03*
X028102D02*
D03*
X027848D02*
D03*
X029348Y002485D02*
D03*
X029602D02*
D03*
X029856D02*
D03*
X029094Y003247D02*
D03*
X029348D02*
D03*
X029602D02*
D03*
X029856D02*
D03*
X029348Y003435D02*
D03*
X029602D02*
D03*
X029856D02*
D03*
X029094Y004197D02*
D03*
X029348D02*
D03*
X029602D02*
D03*
X029856D02*
D03*
X031356Y003247D02*
D03*
X031102D02*
D03*
X030848D02*
D03*
X030594D02*
D03*
X031356Y002485D02*
D03*
X031102D02*
D03*
X030848D02*
D03*
X031356Y004197D02*
D03*
X031102D02*
D03*
X030848D02*
D03*
X030594D02*
D03*
X031356Y003435D02*
D03*
X031102D02*
D03*
X030848D02*
D03*
X026856Y006607D02*
D03*
X026602D02*
D03*
X026348D02*
D03*
X026094D02*
D03*
X026856Y005845D02*
D03*
X026602D02*
D03*
X026348D02*
D03*
X026856Y005657D02*
D03*
X026602D02*
D03*
X026348D02*
D03*
X026094D02*
D03*
X026856Y004895D02*
D03*
X026602D02*
D03*
X026348D02*
D03*
X019285Y004856D02*
D03*
D45*
X023595Y002896D02*
D03*
Y003296D02*
D03*
Y003896D02*
D03*
Y002296D02*
D03*
X023595Y004896D02*
D03*
Y004296D02*
D03*
X023595Y005296D02*
D03*
Y006896D02*
D03*
Y006296D02*
D03*
Y005896D02*
D03*
D46*
X022543Y006736D02*
D03*
X021745D02*
D03*
D47*
X018856Y003493D02*
D03*
Y003239D02*
D03*
X019872Y003493D02*
D03*
Y003239D02*
D03*
X020126D02*
D03*
X019110Y003493D02*
D03*
Y003239D02*
D03*
X019364Y003493D02*
D03*
Y003239D02*
D03*
X019618Y003493D02*
D03*
Y003239D02*
D03*
X019865Y003746D02*
D03*
X020125D02*
D03*
X024945Y003504D02*
D03*
Y003250D02*
D03*
X024691Y003504D02*
D03*
Y003250D02*
D03*
X025453D02*
D03*
X025199Y003504D02*
D03*
Y003250D02*
D03*
X024183Y003504D02*
D03*
Y003250D02*
D03*
X024437Y003504D02*
D03*
Y003250D02*
D03*
X032311D02*
D03*
Y003504D02*
D03*
X032565Y003250D02*
D03*
X033135Y003186D02*
D03*
X033335Y003186D02*
D03*
Y002986D02*
D03*
X033135Y002786D02*
D03*
X033335Y002786D02*
D03*
Y002586D02*
D03*
Y002386D02*
D03*
X033135Y002186D02*
D03*
X033335Y002186D02*
D03*
X033135Y002586D02*
D03*
Y002386D02*
D03*
Y002986D02*
D03*
Y003786D02*
D03*
X033335Y003786D02*
D03*
X033135Y003586D02*
D03*
X033335Y003586D02*
D03*
X033135Y003386D02*
D03*
X033335Y003386D02*
D03*
Y006986D02*
D03*
X033135Y006586D02*
D03*
X033335D02*
D03*
X033135Y006186D02*
D03*
X033335D02*
D03*
X033135Y005786D02*
D03*
X033335D02*
D03*
X033135Y005386D02*
D03*
X033335D02*
D03*
X033135Y004986D02*
D03*
X033335Y004986D02*
D03*
X033135Y004586D02*
D03*
X033335Y004586D02*
D03*
X033135Y004186D02*
D03*
X033335Y004186D02*
D03*
X033135Y006786D02*
D03*
X033335D02*
D03*
X033135Y006386D02*
D03*
X033335D02*
D03*
X033135Y005986D02*
D03*
X033335D02*
D03*
X033135Y005586D02*
D03*
X033335D02*
D03*
X033135Y005186D02*
D03*
X033335D02*
D03*
X033135Y004786D02*
D03*
X033335D02*
D03*
X033135Y004386D02*
D03*
X033335Y004386D02*
D03*
X033135Y003986D02*
D03*
X033335Y003986D02*
D03*
D48*
X020126Y003493D02*
D03*
X019865Y003946D02*
D03*
X020125D02*
D03*
X025453Y003504D02*
D03*
X032565D02*
D03*
D49*
X033135Y006986D02*
D03*
D50*
X018865Y003776D02*
D03*
X019185Y003676D02*
D03*
D51*
X019895Y004956D02*
D03*
D52*
X031595Y006646D02*
D03*
X030095D02*
D03*
X030372Y002717D02*
D03*
X031595Y003256D02*
D03*
Y004226D02*
D03*
X030375Y003696D02*
D03*
X028872Y002717D02*
D03*
X030095Y003256D02*
D03*
Y004226D02*
D03*
X028875Y003696D02*
D03*
X027372Y002717D02*
D03*
X028595Y003256D02*
D03*
Y004226D02*
D03*
X027375Y003696D02*
D03*
X025872Y002717D02*
D03*
X027095Y003256D02*
D03*
Y004226D02*
D03*
X025875Y003696D02*
D03*
X030372Y005167D02*
D03*
X031595Y005706D02*
D03*
X030375Y006146D02*
D03*
X028872Y005167D02*
D03*
X030095Y005706D02*
D03*
X028875Y006146D02*
D03*
X027372Y005167D02*
D03*
X028595Y005706D02*
D03*
Y006676D02*
D03*
X027375Y006146D02*
D03*
X027095Y005666D02*
D03*
Y006636D02*
D03*
X025872Y005127D02*
D03*
X025875Y006106D02*
D03*
X024535Y006916D02*
D03*
X025335Y006666D02*
D03*
X019285Y005936D02*
D03*
D53*
X032855Y003186D02*
D03*
Y003386D02*
D03*
Y003586D02*
D03*
Y003786D02*
D03*
Y003986D02*
D03*
Y004186D02*
D03*
Y004386D02*
D03*
Y004586D02*
D03*
Y004786D02*
D03*
Y004986D02*
D03*
Y005186D02*
D03*
Y005386D02*
D03*
Y005586D02*
D03*
Y005786D02*
D03*
Y005986D02*
D03*
Y006186D02*
D03*
Y006386D02*
D03*
Y006586D02*
D03*
Y006786D02*
D03*
Y006986D02*
D03*
D54*
X024105Y002896D02*
D03*
X024215D02*
D03*
X024105Y002696D02*
D03*
X024215D02*
D03*
X024105Y002496D02*
D03*
X024215D02*
D03*
X020555Y004466D02*
D03*
X020405Y004566D02*
D03*
X020895Y004046D02*
D03*
X020815Y004216D02*
D03*
X021149Y003970D02*
D03*
X020995Y004046D02*
D03*
X022655Y005446D02*
D03*
X021215Y004016D02*
D03*
X024215Y003086D02*
D03*
X024105D02*
D03*
X023075Y003196D02*
D03*
X023485Y003996D02*
D03*
Y003796D02*
D03*
X022955Y003346D02*
D03*
X023495Y003596D02*
D03*
X022865Y002196D02*
D03*
X023145Y003196D02*
D03*
X023098Y002196D02*
D03*
X023705Y003796D02*
D03*
Y003596D02*
D03*
X023015Y003196D02*
D03*
Y003346D02*
D03*
X023705Y003996D02*
D03*
X023075Y003346D02*
D03*
X024925Y006406D02*
D03*
X024525D02*
D03*
X024725Y005456D02*
D03*
X024525D02*
D03*
X020185Y004506D02*
D03*
X020085Y005106D02*
D03*
X020955Y006456D02*
D03*
X020185Y004916D02*
D03*
X020285Y006616D02*
D03*
X020995Y005826D02*
D03*
Y005686D02*
D03*
X020465Y005716D02*
D03*
X020485Y005506D02*
D03*
X021965Y004016D02*
D03*
X021015Y004746D02*
D03*
X020925Y004606D02*
D03*
X021325Y003226D02*
D03*
Y003296D02*
D03*
X021255Y003226D02*
D03*
Y003296D02*
D03*
X019075Y004726D02*
D03*
X019075Y004816D02*
D03*
Y004896D02*
D03*
X019092Y005603D02*
D03*
X021635Y003336D02*
D03*
Y003276D02*
D03*
X021575Y003336D02*
D03*
Y003276D02*
D03*
X019475Y005616D02*
D03*
X019575Y005456D02*
D03*
X019645D02*
D03*
X019575Y005526D02*
D03*
X019645D02*
D03*
X022565Y003945D02*
D03*
X024025Y004212D02*
D03*
X020865Y003864D02*
D03*
X020445Y004996D02*
D03*
X020585Y004266D02*
D03*
X020675Y004056D02*
D03*
X020755D02*
D03*
X020675Y003996D02*
D03*
Y006416D02*
D03*
X021295Y004606D02*
D03*
X022855Y006209D02*
D03*
X022065Y006169D02*
D03*
X021045Y004398D02*
D03*
X023165Y006796D02*
D03*
X021575Y006169D02*
D03*
X022725Y003296D02*
D03*
X020385Y003586D02*
D03*
X020755Y003996D02*
D03*
X021666Y003537D02*
D03*
X022010Y005918D02*
D03*
X023005Y005126D02*
D03*
X022195Y005456D02*
D03*
X021765Y004016D02*
D03*
X020675Y006316D02*
D03*
X020225Y005577D02*
D03*
X022795Y003556D02*
D03*
X021695Y004696D02*
D03*
X022105D02*
D03*
X022515Y004686D02*
D03*
X023155Y004106D02*
D03*
X023055Y005456D02*
D03*
X022465Y003945D02*
D03*
X023165Y003576D02*
D03*
X023495Y005196D02*
D03*
X023685D02*
D03*
X022505Y003736D02*
D03*
X023685Y004996D02*
D03*
X023505D02*
D03*
X023695Y004796D02*
D03*
X023585Y004756D02*
D03*
X023635Y004596D02*
D03*
X023155Y004836D02*
D03*
X023155Y004716D02*
D03*
X023495Y004596D02*
D03*
X022405Y004406D02*
D03*
X022395Y004966D02*
D03*
X022745Y004116D02*
D03*
X022785Y004246D02*
D03*
X021695Y004341D02*
D03*
X021985Y004986D02*
D03*
X022189Y005046D02*
D03*
X021985Y004396D02*
D03*
X022235Y006056D02*
D03*
X021353Y005747D02*
D03*
X023696Y006000D02*
D03*
X021345Y005656D02*
D03*
X023185Y005996D02*
D03*
X022335Y006066D02*
D03*
X021115Y005956D02*
D03*
X020535Y005888D02*
D03*
X021408Y005871D02*
D03*
X021341Y005929D02*
D03*
X020955Y006106D02*
D03*
X021025Y006044D02*
D03*
X021335Y002516D02*
D03*
Y002396D02*
D03*
X021265Y004466D02*
D03*
X021135D02*
D03*
X023075Y004902D02*
D03*
X022993D02*
D03*
X023689Y005393D02*
D03*
X023135Y005316D02*
D03*
X022525Y005446D02*
D03*
X022435D02*
D03*
X022695Y005656D02*
D03*
X022585Y005686D02*
D03*
X022603Y005774D02*
D03*
X022585Y005856D02*
D03*
X022465Y005976D02*
D03*
X022427Y006106D02*
D03*
X022255Y005290D02*
D03*
X022334Y005357D02*
D03*
X021895Y006816D02*
D03*
X021915Y006726D02*
D03*
X021855Y006556D02*
D03*
X021775Y006536D02*
D03*
X021585Y006686D02*
D03*
X021625Y006536D02*
D03*
X021605Y006456D02*
D03*
X020405Y005466D02*
D03*
X020292Y005460D02*
D03*
X020145Y005476D02*
D03*
X020205Y005306D02*
D03*
X020325Y005196D02*
D03*
X020315Y005116D02*
D03*
X020517Y004855D02*
D03*
X022465Y006596D02*
D03*
X022345Y006846D02*
D03*
X022265D02*
D03*
X022175Y006786D02*
D03*
X022195Y006666D02*
D03*
X022205Y006546D02*
D03*
X022085Y006546D02*
D03*
X022035Y006686D02*
D03*
X021874Y004016D02*
D03*
X022745Y003926D02*
D03*
X022137Y005106D02*
D03*
X022545D02*
D03*
X022025Y005166D02*
D03*
X021925Y005276D02*
D03*
X022085D02*
D03*
X020325Y004876D02*
D03*
X020315Y004756D02*
D03*
X021895Y003896D02*
D03*
X022655Y006108D02*
D03*
X022763Y003796D02*
D03*
X022045D02*
D03*
X022665Y003856D02*
D03*
X022045Y003876D02*
D03*
X022585Y003146D02*
D03*
X022485Y002876D02*
D03*
X022665Y003146D02*
D03*
X022815Y002796D02*
D03*
X022265Y004326D02*
D03*
X022569Y002691D02*
D03*
X022825Y002596D02*
D03*
X022185Y004332D02*
D03*
X022455Y002396D02*
D03*
X021355Y004406D02*
D03*
X022815Y002396D02*
D03*
X021345Y004506D02*
D03*
X023150Y005796D02*
D03*
X022525Y005916D02*
D03*
X024035Y005796D02*
D03*
X022414Y005876D02*
D03*
X020457Y004788D02*
D03*
X020875Y003716D02*
D03*
Y003406D02*
D03*
X020555Y004706D02*
D03*
X020775Y003276D02*
D03*
X020015Y005446D02*
D03*
X021945Y004866D02*
D03*
X018815Y006336D02*
D03*
X018965Y006416D02*
D03*
X020775Y002496D02*
D03*
Y002416D02*
D03*
X020935Y003256D02*
D03*
X021325Y004016D02*
D03*
X020365Y006226D02*
D03*
X020893Y005724D02*
D03*
X021594Y006958D02*
D03*
X023675Y006826D02*
D03*
X021595Y006876D02*
D03*
X024025Y006596D02*
D03*
Y005593D02*
D03*
X023147D02*
D03*
X018685Y006316D02*
D03*
X019224Y006437D02*
D03*
X019285Y006126D02*
D03*
X019195D02*
D03*
X019375D02*
D03*
X021675Y006169D02*
D03*
X020455Y005626D02*
D03*
X021915Y005836D02*
D03*
X021785Y003736D02*
D03*
X020925Y004398D02*
D03*
X019685Y004826D02*
D03*
X021655Y005366D02*
D03*
X020075Y005206D02*
D03*
X021135Y003676D02*
D03*
X021035Y003256D02*
D03*
X024035Y007011D02*
D03*
X020085Y005556D02*
D03*
X023181Y006579D02*
D03*
X021665Y004016D02*
D03*
X020555Y005046D02*
D03*
X021695Y002266D02*
D03*
X021245Y002326D02*
D03*
X021225Y003056D02*
D03*
X021055Y006736D02*
D03*
X020485Y003486D02*
D03*
X022655Y005106D02*
D03*
X023035Y005736D02*
D03*
X023165Y006196D02*
D03*
X019625Y004446D02*
D03*
X021045Y006169D02*
D03*
X020675Y006516D02*
D03*
X021375Y004746D02*
D03*
X022045Y004016D02*
D03*
X022315Y003296D02*
D03*
X022154Y006168D02*
D03*
X019825Y006216D02*
D03*
D55*
X019005Y007136D02*
D03*
X019115D02*
D03*
X019225D02*
D03*
X019335D02*
D03*
X019445D02*
D03*
X026085D02*
D03*
X025975D02*
D03*
X025865D02*
D03*
X025755D02*
D03*
X025645D02*
D03*
X033175D02*
D03*
X033065D02*
D03*
X032955D02*
D03*
X032845D02*
D03*
X032735D02*
D03*
X019435Y002036D02*
D03*
X019325D02*
D03*
X019215D02*
D03*
X019105D02*
D03*
X018995D02*
D03*
X026085D02*
D03*
X025975D02*
D03*
X025865D02*
D03*
X025755D02*
D03*
X025645D02*
D03*
X033175D02*
D03*
X033065D02*
D03*
X032955D02*
D03*
X032845D02*
D03*
X032735D02*
D03*
D124*
X027592Y005467D02*
D03*
X027782D02*
D03*
X027602Y005167D02*
D03*
X027792D02*
D03*
X027595Y006386D02*
D03*
X027785D02*
D03*
X027785Y006146D02*
D03*
X027595D02*
D03*
X029092Y005467D02*
D03*
X029282D02*
D03*
X029102Y005167D02*
D03*
X029292D02*
D03*
X029095Y006386D02*
D03*
X029285D02*
D03*
X029095Y006146D02*
D03*
X029285D02*
D03*
X030592Y005467D02*
D03*
X030782D02*
D03*
X030602Y005167D02*
D03*
X030792D02*
D03*
X030595Y006386D02*
D03*
X030785D02*
D03*
X030595Y006146D02*
D03*
X030785D02*
D03*
X026092Y003017D02*
D03*
X026282D02*
D03*
X026102Y002717D02*
D03*
X026292D02*
D03*
X026095Y003936D02*
D03*
X026285D02*
D03*
X026095Y003696D02*
D03*
X026285D02*
D03*
X027592Y003017D02*
D03*
X027782D02*
D03*
X027602Y002717D02*
D03*
X027792D02*
D03*
X027595Y003936D02*
D03*
X027785D02*
D03*
X027595Y003696D02*
D03*
X027785D02*
D03*
X029092Y003017D02*
D03*
X029282D02*
D03*
X029102Y002717D02*
D03*
X029292D02*
D03*
X029095Y003936D02*
D03*
X029285D02*
D03*
X029095Y003696D02*
D03*
X029285D02*
D03*
X030782Y003017D02*
D03*
X030592D02*
D03*
X030792Y002717D02*
D03*
X030602D02*
D03*
X030785Y003936D02*
D03*
X030595D02*
D03*
X030785Y003696D02*
D03*
X030595D02*
D03*
X026285Y006346D02*
D03*
X026095D02*
D03*
X026285Y006106D02*
D03*
X026095D02*
D03*
X026282Y005427D02*
D03*
X026092D02*
D03*
X026292Y005127D02*
D03*
X026102D02*
D03*
X022595Y003296D02*
D03*
X022405D02*
D03*
X019065Y004176D02*
D03*
X018875D02*
D03*
D125*
X022515Y004606D02*
D03*
Y004416D02*
D03*
D126*
X021485Y005356D02*
D03*
X020977Y004956D02*
D03*
X021485D02*
D03*
D127*
X020977Y005356D02*
D03*
D128*
X020865Y002726D02*
D03*
X020965D02*
D03*
X020865Y002556D02*
D03*
X021415Y003006D02*
D03*
X021515Y003176D02*
D03*
X021415D02*
D03*
D129*
X020965Y002556D02*
D03*
X021515Y003006D02*
D03*
D130*
X020765Y003416D02*
D03*
Y003586D02*
D03*
X020995Y003716D02*
D03*
Y003886D02*
D03*
D131*
X022910Y003482D02*
D03*
X022665D02*
D03*
Y003577D02*
D03*
Y003672D02*
D03*
X022910D02*
D03*
D132*
X021911Y005686D02*
D03*
X021581D02*
D03*
X022131D02*
D03*
X022021D02*
D03*
X022241D02*
D03*
X021691D02*
D03*
X021801D02*
D03*
X022461D02*
D03*
X022351D02*
D03*
D133*
X021463Y005736D02*
D03*
D134*
X022923D02*
D03*
D135*
X023013Y006696D02*
D03*
X021463D02*
D03*
M02*
