G04*
G04 #@! TF.GenerationSoftware,Altium Limited,Altium Designer,20.1.11 (218)*
G04*
G04 Layer_Color=16711935*
%FSAX42Y42*%
%MOMM*%
G71*
G04*
G04 #@! TF.SameCoordinates,67978BD1-B2E9-4B08-9179-9D8DA7AD3022*
G04*
G04*
G04 #@! TF.FilePolarity,Positive*
G04*
G01*
G75*
%ADD14C,0.25*%
%ADD15C,0.15*%
%ADD83C,0.80*%
%ADD135C,0.81*%
D14*
X019745Y006959D02*
X020837D01*
X019745D02*
Y007086D01*
X020837Y006959D02*
Y007086D01*
D15*
X033597Y006834D02*
G03*
X033596Y006634I-000003J-000100D01*
G01*
X033595Y006836D02*
Y007086D01*
Y004728D02*
X033596Y006634D01*
X033595Y007326D02*
Y007826D01*
X018595Y002086D02*
Y003661D01*
X020126Y002086D02*
X021072D01*
X033595D02*
Y004726D01*
X020837Y007086D02*
X024255D01*
X019745Y006959D02*
Y007086D01*
Y006959D02*
X020837D01*
Y007086D01*
X018595Y004746D02*
Y007086D01*
Y003661D02*
Y004746D01*
Y007331D02*
Y007831D01*
Y007826D02*
X033595D01*
X018595Y001346D02*
Y001846D01*
X033595Y001346D02*
Y001846D01*
X018595Y001346D02*
X033595D01*
X018995Y002006D02*
Y002086D01*
X019455Y002006D02*
Y002086D01*
X033435D02*
X033595D01*
X021072D02*
X022295D01*
X019701D02*
X020126D01*
X022295D02*
X025453D01*
X018595D02*
X018995D01*
X033195Y001846D02*
X033595D01*
X018595D02*
X018995D01*
X020126D02*
X025453D01*
X025645Y002006D02*
Y002086D01*
X026085Y002006D02*
Y002086D01*
X033175Y002006D02*
Y002086D01*
X032735Y002006D02*
Y002086D01*
X033195D02*
X033435D01*
X032565D02*
X032735D01*
X026555Y001846D02*
X032565D01*
X019455Y007086D02*
Y007166D01*
X018995Y007086D02*
Y007166D01*
X025645Y007086D02*
Y007166D01*
X026085Y007086D02*
Y007166D01*
X026737Y007326D02*
X032064D01*
X033195D02*
X033595D01*
X032064D02*
X032735D01*
X018595D02*
X018995D01*
X032735Y007086D02*
Y007166D01*
X033175Y007086D02*
Y007166D01*
X018595Y007086D02*
X018883D01*
X018995D01*
X019745Y007087D02*
X019745Y007086D01*
X033195Y007086D02*
X033435D01*
X033595D01*
X024255D02*
X025645D01*
X018995Y007166D02*
Y007326D01*
X019455Y007166D02*
Y007326D01*
X025645Y007166D02*
Y007326D01*
X026085Y007166D02*
Y007326D01*
X032735Y007166D02*
Y007326D01*
X033175Y007166D02*
Y007326D01*
X018995Y001846D02*
Y002006D01*
X019455Y001846D02*
Y002006D01*
X025645Y001846D02*
Y002006D01*
X026085Y001846D02*
Y002006D01*
X032735Y001846D02*
Y002006D01*
X033175Y001846D02*
Y002006D01*
X019455Y007326D02*
X025645D01*
X019455Y007087D02*
X019745D01*
X026088Y007085D02*
X032734D01*
X026085Y007326D02*
X026737D01*
X019455Y002086D02*
X019701D01*
X019455Y001846D02*
X020126D01*
X026555Y002086D02*
X032565D01*
Y001846D02*
X032735D01*
X026737Y007326D02*
X026737Y007326D01*
X032734Y007085D02*
X032735Y007086D01*
X033175Y007326D02*
X033195D01*
X033175Y007086D02*
X033195D01*
X025453Y002086D02*
X025645D01*
X025453Y001846D02*
X025645D01*
X026085Y002086D02*
X026555D01*
X026085Y001846D02*
X026555D01*
X033175Y002086D02*
X033195D01*
X033175Y001846D02*
X033195D01*
D83*
X019974Y006731D02*
Y006959D01*
X020609Y006731D02*
Y006959D01*
D135*
X019974Y006731D02*
Y006959D01*
X020609Y006731D02*
Y006959D01*
M02*
