G04*
G04 #@! TF.GenerationSoftware,Altium Limited,Altium Designer,20.1.11 (218)*
G04*
G04 Layer_Color=32896*
%FSAX42Y42*%
%MOMM*%
G71*
G04*
G04 #@! TF.SameCoordinates,67978BD1-B2E9-4B08-9179-9D8DA7AD3022*
G04*
G04*
G04 #@! TF.FilePolarity,Positive*
G04*
G01*
G75*
%ADD10C,0.20*%
%ADD11C,0.25*%
%ADD14C,0.25*%
%ADD15C,0.15*%
%ADD134C,0.05*%
D10*
X019440Y002776D02*
Y003016D01*
X019124Y002736D02*
X019405D01*
X019085Y003016D02*
X019440D01*
X019085Y002776D02*
Y003016D01*
X019090Y002166D02*
X019445D01*
Y002406D01*
X019090Y002166D02*
Y002406D01*
X018680Y002166D02*
Y002406D01*
X018715Y002446D02*
X018997D01*
X018680Y002166D02*
X019035D01*
Y002406D01*
X018675Y003016D02*
X019030D01*
X018675Y002776D02*
Y003016D01*
X019030Y002776D02*
Y003016D01*
X020045Y002179D02*
Y002319D01*
X019705Y002179D02*
Y002319D01*
Y002179D02*
X020045D01*
X019705Y002662D02*
Y002802D01*
X020045Y002662D02*
Y002802D01*
X019705D02*
X020045D01*
X022753Y003432D02*
X022823D01*
X022753Y003722D02*
X022823D01*
X022753Y003432D02*
Y003722D01*
X022823Y003432D02*
Y003722D01*
X031178Y003616D02*
Y003716D01*
X031129D01*
X031112Y003700D01*
Y003666D01*
X031129Y003650D01*
X031178D01*
X031145D02*
X031112Y003616D01*
X031079Y003700D02*
X031062Y003716D01*
X031029D01*
X031012Y003700D01*
Y003683D01*
X031029Y003666D01*
X031012Y003650D01*
Y003633D01*
X031029Y003616D01*
X031062D01*
X031079Y003633D01*
Y003650D01*
X031062Y003666D01*
X031079Y003683D01*
Y003700D01*
X031062Y003666D02*
X031029D01*
X030979Y003633D02*
X030962Y003616D01*
X030929D01*
X030912Y003633D01*
Y003700D01*
X030929Y003716D01*
X030962D01*
X030979Y003700D01*
Y003683D01*
X030962Y003666D01*
X030912D01*
X031178Y003886D02*
Y003986D01*
X031129D01*
X031112Y003970D01*
Y003936D01*
X031129Y003920D01*
X031178D01*
X031145D02*
X031112Y003886D01*
X031079Y003903D02*
X031062Y003886D01*
X031029D01*
X031012Y003903D01*
Y003970D01*
X031029Y003986D01*
X031062D01*
X031079Y003970D01*
Y003953D01*
X031062Y003936D01*
X031012D01*
X030979Y003970D02*
X030962Y003986D01*
X030929D01*
X030912Y003970D01*
Y003903D01*
X030929Y003886D01*
X030962D01*
X030979Y003903D01*
Y003970D01*
X031178Y002626D02*
Y002726D01*
X031129D01*
X031112Y002710D01*
Y002676D01*
X031129Y002660D01*
X031178D01*
X031145D02*
X031112Y002626D01*
X031079Y002710D02*
X031062Y002726D01*
X031029D01*
X031012Y002710D01*
Y002693D01*
X031029Y002676D01*
X031012Y002660D01*
Y002643D01*
X031029Y002626D01*
X031062D01*
X031079Y002643D01*
Y002660D01*
X031062Y002676D01*
X031079Y002693D01*
Y002710D01*
X031062Y002676D02*
X031029D01*
X030979Y002726D02*
X030912D01*
Y002710D01*
X030979Y002643D01*
Y002626D01*
X031178Y002926D02*
Y003026D01*
X031129D01*
X031112Y003010D01*
Y002976D01*
X031129Y002960D01*
X031178D01*
X031145D02*
X031112Y002926D01*
X031079Y003010D02*
X031062Y003026D01*
X031029D01*
X031012Y003010D01*
Y002993D01*
X031029Y002976D01*
X031012Y002960D01*
Y002943D01*
X031029Y002926D01*
X031062D01*
X031079Y002943D01*
Y002960D01*
X031062Y002976D01*
X031079Y002993D01*
Y003010D01*
X031062Y002976D02*
X031029D01*
X030979Y003010D02*
X030962Y003026D01*
X030929D01*
X030912Y003010D01*
Y002993D01*
X030929Y002976D01*
X030912Y002960D01*
Y002943D01*
X030929Y002926D01*
X030962D01*
X030979Y002943D01*
Y002960D01*
X030962Y002976D01*
X030979Y002993D01*
Y003010D01*
X030962Y002976D02*
X030929D01*
X028197Y005393D02*
Y005493D01*
X028147D01*
X028130Y005476D01*
Y005443D01*
X028147Y005426D01*
X028197D01*
X028163D02*
X028130Y005393D01*
X028030Y005493D02*
X028063Y005476D01*
X028097Y005443D01*
Y005410D01*
X028080Y005393D01*
X028047D01*
X028030Y005410D01*
Y005426D01*
X028047Y005443D01*
X028097D01*
X027947Y005393D02*
Y005493D01*
X027997Y005443D01*
X027930D01*
X028197Y005093D02*
Y005193D01*
X028147D01*
X028130Y005176D01*
Y005143D01*
X028147Y005126D01*
X028197D01*
X028163D02*
X028130Y005093D01*
X028030Y005193D02*
X028063Y005176D01*
X028097Y005143D01*
Y005110D01*
X028080Y005093D01*
X028047D01*
X028030Y005110D01*
Y005126D01*
X028047Y005143D01*
X028097D01*
X027997Y005176D02*
X027980Y005193D01*
X027947D01*
X027930Y005176D01*
Y005160D01*
X027947Y005143D01*
X027963D01*
X027947D01*
X027930Y005126D01*
Y005110D01*
X027947Y005093D01*
X027980D01*
X027997Y005110D01*
X028197Y006353D02*
Y006453D01*
X028147D01*
X028130Y006436D01*
Y006403D01*
X028147Y006386D01*
X028197D01*
X028163D02*
X028130Y006353D01*
X028030Y006453D02*
X028063Y006436D01*
X028097Y006403D01*
Y006370D01*
X028080Y006353D01*
X028047D01*
X028030Y006370D01*
Y006386D01*
X028047Y006403D01*
X028097D01*
X027930Y006453D02*
X027963Y006436D01*
X027997Y006403D01*
Y006370D01*
X027980Y006353D01*
X027947D01*
X027930Y006370D01*
Y006386D01*
X027947Y006403D01*
X027997D01*
X028197Y006046D02*
Y006146D01*
X028147D01*
X028130Y006130D01*
Y006096D01*
X028147Y006080D01*
X028197D01*
X028163D02*
X028130Y006046D01*
X028030Y006146D02*
X028063Y006130D01*
X028097Y006096D01*
Y006063D01*
X028080Y006046D01*
X028047D01*
X028030Y006063D01*
Y006080D01*
X028047Y006096D01*
X028097D01*
X027930Y006146D02*
X027997D01*
Y006096D01*
X027963Y006113D01*
X027947D01*
X027930Y006096D01*
Y006063D01*
X027947Y006046D01*
X027980D01*
X027997Y006063D01*
X029672Y003606D02*
Y003706D01*
X029622D01*
X029605Y003690D01*
Y003656D01*
X029622Y003640D01*
X029672D01*
X029638D02*
X029605Y003606D01*
X029572Y003690D02*
X029555Y003706D01*
X029522D01*
X029505Y003690D01*
Y003673D01*
X029522Y003656D01*
X029505Y003640D01*
Y003623D01*
X029522Y003606D01*
X029555D01*
X029572Y003623D01*
Y003640D01*
X029555Y003656D01*
X029572Y003673D01*
Y003690D01*
X029555Y003656D02*
X029522D01*
X029405Y003706D02*
X029472D01*
Y003656D01*
X029439Y003673D01*
X029422D01*
X029405Y003656D01*
Y003623D01*
X029422Y003606D01*
X029455D01*
X029472Y003623D01*
X028138Y003606D02*
Y003706D01*
X028088D01*
X028072Y003690D01*
Y003656D01*
X028088Y003640D01*
X028138D01*
X028105D02*
X028072Y003606D01*
X028038Y003690D02*
X028022Y003706D01*
X027989D01*
X027972Y003690D01*
Y003673D01*
X027989Y003656D01*
X027972Y003640D01*
Y003623D01*
X027989Y003606D01*
X028022D01*
X028038Y003623D01*
Y003640D01*
X028022Y003656D01*
X028038Y003673D01*
Y003690D01*
X028022Y003656D02*
X027989D01*
X027939Y003606D02*
X027905D01*
X027922D01*
Y003706D01*
X027939Y003690D01*
X026672Y003606D02*
Y003706D01*
X026622D01*
X026605Y003690D01*
Y003656D01*
X026622Y003640D01*
X026672D01*
X026638D02*
X026605Y003606D01*
X026572Y003706D02*
X026505D01*
Y003690D01*
X026572Y003623D01*
Y003606D01*
X026472Y003706D02*
X026405D01*
Y003690D01*
X026472Y003623D01*
Y003606D01*
X031172Y006056D02*
Y006156D01*
X031122D01*
X031105Y006140D01*
Y006106D01*
X031122Y006090D01*
X031172D01*
X031138D02*
X031105Y006056D01*
X031072Y006156D02*
X031005D01*
Y006140D01*
X031072Y006073D01*
Y006056D01*
X030972Y006140D02*
X030955Y006156D01*
X030922D01*
X030905Y006140D01*
Y006123D01*
X030922Y006106D01*
X030939D01*
X030922D01*
X030905Y006090D01*
Y006073D01*
X030922Y006056D01*
X030955D01*
X030972Y006073D01*
X029672Y006056D02*
Y006156D01*
X029622D01*
X029605Y006140D01*
Y006106D01*
X029622Y006090D01*
X029672D01*
X029638D02*
X029605Y006056D01*
X029505Y006156D02*
X029538Y006140D01*
X029572Y006106D01*
Y006073D01*
X029555Y006056D01*
X029522D01*
X029505Y006073D01*
Y006090D01*
X029522Y006106D01*
X029572D01*
X029472Y006073D02*
X029455Y006056D01*
X029422D01*
X029405Y006073D01*
Y006140D01*
X029422Y006156D01*
X029455D01*
X029472Y006140D01*
Y006123D01*
X029455Y006106D01*
X029405D01*
X029662Y003886D02*
Y003986D01*
X029612D01*
X029595Y003970D01*
Y003936D01*
X029612Y003920D01*
X029662D01*
X029628D02*
X029595Y003886D01*
X029562Y003970D02*
X029545Y003986D01*
X029512D01*
X029495Y003970D01*
Y003953D01*
X029512Y003936D01*
X029495Y003920D01*
Y003903D01*
X029512Y003886D01*
X029545D01*
X029562Y003903D01*
Y003920D01*
X029545Y003936D01*
X029562Y003953D01*
Y003970D01*
X029545Y003936D02*
X029512D01*
X029395Y003986D02*
X029429Y003970D01*
X029462Y003936D01*
Y003903D01*
X029445Y003886D01*
X029412D01*
X029395Y003903D01*
Y003920D01*
X029412Y003936D01*
X029462D01*
X029682Y002626D02*
Y002726D01*
X029632D01*
X029615Y002710D01*
Y002676D01*
X029632Y002660D01*
X029682D01*
X029648D02*
X029615Y002626D01*
X029582Y002710D02*
X029565Y002726D01*
X029532D01*
X029515Y002710D01*
Y002693D01*
X029532Y002676D01*
X029515Y002660D01*
Y002643D01*
X029532Y002626D01*
X029565D01*
X029582Y002643D01*
Y002660D01*
X029565Y002676D01*
X029582Y002693D01*
Y002710D01*
X029565Y002676D02*
X029532D01*
X029482Y002710D02*
X029465Y002726D01*
X029432D01*
X029415Y002710D01*
Y002693D01*
X029432Y002676D01*
X029449D01*
X029432D01*
X029415Y002660D01*
Y002643D01*
X029432Y002626D01*
X029465D01*
X029482Y002643D01*
X029682Y002926D02*
Y003026D01*
X029632D01*
X029615Y003010D01*
Y002976D01*
X029632Y002960D01*
X029682D01*
X029648D02*
X029615Y002926D01*
X029582Y003010D02*
X029565Y003026D01*
X029532D01*
X029515Y003010D01*
Y002993D01*
X029532Y002976D01*
X029515Y002960D01*
Y002943D01*
X029532Y002926D01*
X029565D01*
X029582Y002943D01*
Y002960D01*
X029565Y002976D01*
X029582Y002993D01*
Y003010D01*
X029565Y002976D02*
X029532D01*
X029432Y002926D02*
Y003026D01*
X029482Y002976D01*
X029415D01*
X028162Y003886D02*
Y003986D01*
X028112D01*
X028095Y003970D01*
Y003936D01*
X028112Y003920D01*
X028162D01*
X028128D02*
X028095Y003886D01*
X028062Y003970D02*
X028045Y003986D01*
X028012D01*
X027995Y003970D01*
Y003953D01*
X028012Y003936D01*
X027995Y003920D01*
Y003903D01*
X028012Y003886D01*
X028045D01*
X028062Y003903D01*
Y003920D01*
X028045Y003936D01*
X028062Y003953D01*
Y003970D01*
X028045Y003936D02*
X028012D01*
X027895Y003886D02*
X027962D01*
X027895Y003953D01*
Y003970D01*
X027912Y003986D01*
X027945D01*
X027962Y003970D01*
X028182Y002626D02*
Y002726D01*
X028132D01*
X028115Y002710D01*
Y002676D01*
X028132Y002660D01*
X028182D01*
X028148D02*
X028115Y002626D01*
X028082Y002726D02*
X028015D01*
Y002710D01*
X028082Y002643D01*
Y002626D01*
X027982Y002643D02*
X027965Y002626D01*
X027932D01*
X027915Y002643D01*
Y002710D01*
X027932Y002726D01*
X027965D01*
X027982Y002710D01*
Y002693D01*
X027965Y002676D01*
X027915D01*
X028182Y002926D02*
Y003026D01*
X028132D01*
X028115Y003010D01*
Y002976D01*
X028132Y002960D01*
X028182D01*
X028148D02*
X028115Y002926D01*
X028082Y003010D02*
X028065Y003026D01*
X028032D01*
X028015Y003010D01*
Y002993D01*
X028032Y002976D01*
X028015Y002960D01*
Y002943D01*
X028032Y002926D01*
X028065D01*
X028082Y002943D01*
Y002960D01*
X028065Y002976D01*
X028082Y002993D01*
Y003010D01*
X028065Y002976D02*
X028032D01*
X027982Y003010D02*
X027965Y003026D01*
X027932D01*
X027915Y003010D01*
Y002943D01*
X027932Y002926D01*
X027965D01*
X027982Y002943D01*
Y003010D01*
X026662Y003886D02*
Y003986D01*
X026612D01*
X026595Y003970D01*
Y003936D01*
X026612Y003920D01*
X026662D01*
X026628D02*
X026595Y003886D01*
X026562Y003986D02*
X026495D01*
Y003970D01*
X026562Y003903D01*
Y003886D01*
X026462Y003970D02*
X026445Y003986D01*
X026412D01*
X026395Y003970D01*
Y003953D01*
X026412Y003936D01*
X026395Y003920D01*
Y003903D01*
X026412Y003886D01*
X026445D01*
X026462Y003903D01*
Y003920D01*
X026445Y003936D01*
X026462Y003953D01*
Y003970D01*
X026445Y003936D02*
X026412D01*
X026682Y002626D02*
Y002726D01*
X026632D01*
X026615Y002710D01*
Y002676D01*
X026632Y002660D01*
X026682D01*
X026648D02*
X026615Y002626D01*
X026582Y002726D02*
X026515D01*
Y002710D01*
X026582Y002643D01*
Y002626D01*
X026415Y002726D02*
X026482D01*
Y002676D01*
X026449Y002693D01*
X026432D01*
X026415Y002676D01*
Y002643D01*
X026432Y002626D01*
X026465D01*
X026482Y002643D01*
X026682Y002926D02*
Y003026D01*
X026632D01*
X026615Y003010D01*
Y002976D01*
X026632Y002960D01*
X026682D01*
X026648D02*
X026615Y002926D01*
X026582Y003026D02*
X026515D01*
Y003010D01*
X026582Y002943D01*
Y002926D01*
X026415Y003026D02*
X026449Y003010D01*
X026482Y002976D01*
Y002943D01*
X026465Y002926D01*
X026432D01*
X026415Y002943D01*
Y002960D01*
X026432Y002976D01*
X026482D01*
X031162Y006336D02*
Y006436D01*
X031112D01*
X031095Y006420D01*
Y006386D01*
X031112Y006370D01*
X031162D01*
X031128D02*
X031095Y006336D01*
X031062Y006436D02*
X030995D01*
Y006420D01*
X031062Y006353D01*
Y006336D01*
X030912D02*
Y006436D01*
X030962Y006386D01*
X030895D01*
X031148Y005076D02*
Y005176D01*
X031098D01*
X031082Y005160D01*
Y005126D01*
X031098Y005110D01*
X031148D01*
X031115D02*
X031082Y005076D01*
X031048Y005176D02*
X030982D01*
Y005160D01*
X031048Y005093D01*
Y005076D01*
X030949D02*
X030915D01*
X030932D01*
Y005176D01*
X030949Y005160D01*
X031182Y005376D02*
Y005476D01*
X031132D01*
X031115Y005460D01*
Y005426D01*
X031132Y005410D01*
X031182D01*
X031148D02*
X031115Y005376D01*
X031082Y005476D02*
X031015D01*
Y005460D01*
X031082Y005393D01*
Y005376D01*
X030915D02*
X030982D01*
X030915Y005443D01*
Y005460D01*
X030932Y005476D01*
X030965D01*
X030982Y005460D01*
X029662Y006336D02*
Y006436D01*
X029612D01*
X029595Y006420D01*
Y006386D01*
X029612Y006370D01*
X029662D01*
X029628D02*
X029595Y006336D01*
X029562Y006436D02*
X029495D01*
Y006420D01*
X029562Y006353D01*
Y006336D01*
X029462Y006420D02*
X029445Y006436D01*
X029412D01*
X029395Y006420D01*
Y006353D01*
X029412Y006336D01*
X029445D01*
X029462Y006353D01*
Y006420D01*
X029682Y005076D02*
Y005176D01*
X029632D01*
X029615Y005160D01*
Y005126D01*
X029632Y005110D01*
X029682D01*
X029648D02*
X029615Y005076D01*
X029515Y005176D02*
X029548Y005160D01*
X029582Y005126D01*
Y005093D01*
X029565Y005076D01*
X029532D01*
X029515Y005093D01*
Y005110D01*
X029532Y005126D01*
X029582D01*
X029482Y005176D02*
X029415D01*
Y005160D01*
X029482Y005093D01*
Y005076D01*
X029682Y005376D02*
Y005476D01*
X029632D01*
X029615Y005460D01*
Y005426D01*
X029632Y005410D01*
X029682D01*
X029648D02*
X029615Y005376D01*
X029515Y005476D02*
X029548Y005460D01*
X029582Y005426D01*
Y005393D01*
X029565Y005376D01*
X029532D01*
X029515Y005393D01*
Y005410D01*
X029532Y005426D01*
X029582D01*
X029482Y005460D02*
X029465Y005476D01*
X029432D01*
X029415Y005460D01*
Y005443D01*
X029432Y005426D01*
X029415Y005410D01*
Y005393D01*
X029432Y005376D01*
X029465D01*
X029482Y005393D01*
Y005410D01*
X029465Y005426D01*
X029482Y005443D01*
Y005460D01*
X029465Y005426D02*
X029432D01*
X026662Y006336D02*
Y006436D01*
X026612D01*
X026595Y006420D01*
Y006386D01*
X026612Y006370D01*
X026662D01*
X026628D02*
X026595Y006336D01*
X026495Y006436D02*
X026528Y006420D01*
X026562Y006386D01*
Y006353D01*
X026545Y006336D01*
X026512D01*
X026495Y006353D01*
Y006370D01*
X026512Y006386D01*
X026562D01*
X026395Y006336D02*
X026462D01*
X026395Y006403D01*
Y006420D01*
X026412Y006436D01*
X026445D01*
X026462Y006420D01*
X026638Y006056D02*
Y006156D01*
X026588D01*
X026572Y006140D01*
Y006106D01*
X026588Y006090D01*
X026638D01*
X026605D02*
X026572Y006056D01*
X026472Y006156D02*
X026505Y006140D01*
X026538Y006106D01*
Y006073D01*
X026522Y006056D01*
X026489D01*
X026472Y006073D01*
Y006090D01*
X026489Y006106D01*
X026538D01*
X026439Y006056D02*
X026405D01*
X026422D01*
Y006156D01*
X026439Y006140D01*
X026682Y005376D02*
Y005476D01*
X026632D01*
X026615Y005460D01*
Y005426D01*
X026632Y005410D01*
X026682D01*
X026648D02*
X026615Y005376D01*
X026515Y005476D02*
X026548Y005460D01*
X026582Y005426D01*
Y005393D01*
X026565Y005376D01*
X026532D01*
X026515Y005393D01*
Y005410D01*
X026532Y005426D01*
X026582D01*
X026482Y005460D02*
X026465Y005476D01*
X026432D01*
X026415Y005460D01*
Y005393D01*
X026432Y005376D01*
X026465D01*
X026482Y005393D01*
Y005460D01*
X026682Y005076D02*
Y005176D01*
X026632D01*
X026615Y005160D01*
Y005126D01*
X026632Y005110D01*
X026682D01*
X026648D02*
X026615Y005076D01*
X026515Y005176D02*
X026582D01*
Y005126D01*
X026548Y005143D01*
X026532D01*
X026515Y005126D01*
Y005093D01*
X026532Y005076D01*
X026565D01*
X026582Y005093D01*
X026482D02*
X026465Y005076D01*
X026432D01*
X026415Y005093D01*
Y005160D01*
X026432Y005176D01*
X026465D01*
X026482Y005160D01*
Y005143D01*
X026465Y005126D01*
X026415D01*
X022589Y003150D02*
X022605Y003166D01*
X022639D01*
X022655Y003150D01*
Y003083D01*
X022639Y003066D01*
X022605D01*
X022589Y003083D01*
X022555D02*
X022539Y003066D01*
X022505D01*
X022489Y003083D01*
Y003150D01*
X022505Y003166D01*
X022539D01*
X022555Y003150D01*
Y003133D01*
X022539Y003116D01*
X022489D01*
X020575Y003256D02*
X020675D01*
Y003306D01*
X020659Y003323D01*
X020625D01*
X020609Y003306D01*
Y003256D01*
Y003290D02*
X020575Y003323D01*
Y003356D02*
Y003390D01*
Y003373D01*
X020675D01*
X020659Y003356D01*
X020592Y003440D02*
X020575Y003456D01*
Y003490D01*
X020592Y003506D01*
X020659D01*
X020675Y003490D01*
Y003456D01*
X020659Y003440D01*
X020642D01*
X020625Y003456D01*
Y003506D01*
X021115Y003666D02*
X021215D01*
Y003716D01*
X021199Y003733D01*
X021165D01*
X021149Y003716D01*
Y003666D01*
Y003700D02*
X021115Y003733D01*
Y003766D02*
Y003800D01*
Y003783D01*
X021215D01*
X021199Y003766D01*
Y003850D02*
X021215Y003866D01*
Y003900D01*
X021199Y003916D01*
X021182D01*
X021165Y003900D01*
X021149Y003916D01*
X021132D01*
X021115Y003900D01*
Y003866D01*
X021132Y003850D01*
X021149D01*
X021165Y003866D01*
X021182Y003850D01*
X021199D01*
X021165Y003866D02*
Y003900D01*
D11*
X022678Y003397D02*
G03*
X022678Y003397I-000012J000000D01*
G01*
D14*
X020962Y005209D02*
G03*
X020962Y005209I-000015J000000D01*
G01*
X019748Y002548D02*
X020002D01*
X021100Y004884D02*
X021362D01*
X021100Y005429D02*
X021362D01*
X021610Y005021D02*
Y005284D01*
X020855Y005021D02*
Y005284D01*
X021508Y005716D02*
X022978D01*
Y007096D01*
X021508Y005716D02*
Y007096D01*
X021508D02*
X022978D01*
D15*
X030659Y003733D02*
X030722D01*
X030659Y003580D02*
X030722D01*
X030849Y003593D02*
Y003720D01*
X030532Y003593D02*
Y003720D01*
X030654Y003862D02*
X030718D01*
X030654Y004015D02*
X030718D01*
X030527Y003875D02*
Y004002D01*
X030845Y003875D02*
Y004002D01*
X030665Y002754D02*
X030729D01*
X030665Y002601D02*
X030729D01*
X030856Y002614D02*
Y002741D01*
X030538Y002614D02*
Y002741D01*
X030655Y002901D02*
X030718D01*
X030655Y003054D02*
X030718D01*
X030528Y002914D02*
Y003041D01*
X030845Y002914D02*
Y003041D01*
X027845Y005364D02*
Y005491D01*
X027528Y005364D02*
Y005491D01*
X027655Y005504D02*
X027718D01*
X027655Y005351D02*
X027718D01*
X027538Y005064D02*
Y005191D01*
X027856Y005064D02*
Y005191D01*
X027665Y005051D02*
X027729D01*
X027665Y005204D02*
X027729D01*
X027845Y006325D02*
Y006452D01*
X027527Y006325D02*
Y006452D01*
X027654Y006465D02*
X027718D01*
X027654Y006312D02*
X027718D01*
X027665Y006175D02*
X027728D01*
X027665Y006022D02*
X027728D01*
X027855Y006035D02*
Y006162D01*
X027538Y006035D02*
Y006162D01*
X029345Y005364D02*
Y005491D01*
X029028Y005364D02*
Y005491D01*
X029155Y005504D02*
X029218D01*
X029155Y005351D02*
X029218D01*
X029038Y005064D02*
Y005191D01*
X029356Y005064D02*
Y005191D01*
X029165Y005051D02*
X029229D01*
X029165Y005204D02*
X029229D01*
X029345Y006325D02*
Y006452D01*
X029027Y006325D02*
Y006452D01*
X029154Y006465D02*
X029218D01*
X029154Y006312D02*
X029218D01*
X029032Y006043D02*
Y006170D01*
X029349Y006043D02*
Y006170D01*
X029159Y006030D02*
X029222D01*
X029159Y006183D02*
X029222D01*
X030845Y005364D02*
Y005491D01*
X030528Y005364D02*
Y005491D01*
X030655Y005504D02*
X030718D01*
X030655Y005351D02*
X030718D01*
X030538Y005064D02*
Y005191D01*
X030856Y005064D02*
Y005191D01*
X030665Y005051D02*
X030729D01*
X030665Y005204D02*
X030729D01*
X030845Y006325D02*
Y006452D01*
X030527Y006325D02*
Y006452D01*
X030654Y006465D02*
X030718D01*
X030654Y006312D02*
X030718D01*
X030532Y006043D02*
Y006170D01*
X030849Y006043D02*
Y006170D01*
X030659Y006030D02*
X030722D01*
X030659Y006183D02*
X030722D01*
X026345Y002914D02*
Y003041D01*
X026028Y002914D02*
Y003041D01*
X026155Y003054D02*
X026218D01*
X026155Y002901D02*
X026218D01*
X026038Y002614D02*
Y002741D01*
X026356Y002614D02*
Y002741D01*
X026165Y002601D02*
X026229D01*
X026165Y002754D02*
X026229D01*
X026345Y003875D02*
Y004002D01*
X026027Y003875D02*
Y004002D01*
X026154Y004015D02*
X026218D01*
X026154Y003862D02*
X026218D01*
X026032Y003593D02*
Y003720D01*
X026349Y003593D02*
Y003720D01*
X026159Y003580D02*
X026222D01*
X026159Y003733D02*
X026222D01*
X027845Y002914D02*
Y003041D01*
X027528Y002914D02*
Y003041D01*
X027655Y003054D02*
X027718D01*
X027655Y002901D02*
X027718D01*
X027538Y002614D02*
Y002741D01*
X027856Y002614D02*
Y002741D01*
X027665Y002601D02*
X027729D01*
X027665Y002754D02*
X027729D01*
X027845Y003875D02*
Y004002D01*
X027527Y003875D02*
Y004002D01*
X027654Y004015D02*
X027718D01*
X027654Y003862D02*
X027718D01*
X027532Y003593D02*
Y003720D01*
X027849Y003593D02*
Y003720D01*
X027659Y003580D02*
X027722D01*
X027659Y003733D02*
X027722D01*
X029345Y002914D02*
Y003041D01*
X029028Y002914D02*
Y003041D01*
X029155Y003054D02*
X029218D01*
X029155Y002901D02*
X029218D01*
X029038Y002614D02*
Y002741D01*
X029356Y002614D02*
Y002741D01*
X029165Y002601D02*
X029229D01*
X029165Y002754D02*
X029229D01*
X029345Y003875D02*
Y004002D01*
X029027Y003875D02*
Y004002D01*
X029154Y004015D02*
X029218D01*
X029154Y003862D02*
X029218D01*
X029032Y003593D02*
Y003720D01*
X029349Y003593D02*
Y003720D01*
X029159Y003580D02*
X029222D01*
X029159Y003733D02*
X029222D01*
X026154Y006312D02*
X026218D01*
X026154Y006465D02*
X026218D01*
X026027Y006325D02*
Y006452D01*
X026345Y006325D02*
Y006452D01*
X026159Y006183D02*
X026222D01*
X026159Y006030D02*
X026222D01*
X026349Y006043D02*
Y006170D01*
X026032Y006043D02*
Y006170D01*
X026155Y005351D02*
X026218D01*
X026155Y005504D02*
X026218D01*
X026028Y005364D02*
Y005491D01*
X026345Y005364D02*
Y005491D01*
X026165Y005204D02*
X026229D01*
X026165Y005051D02*
X026229D01*
X026356Y005064D02*
Y005191D01*
X026038Y005064D02*
Y005191D01*
X022591Y004479D02*
Y004543D01*
X022439Y004479D02*
Y004543D01*
X022452Y004352D02*
X022579D01*
X022452Y004670D02*
X022579D01*
X022452Y004723D02*
X022579D01*
X022452Y005040D02*
X022579D01*
X022591Y004850D02*
Y004913D01*
X022439Y004850D02*
Y004913D01*
X022938Y003939D02*
X023002D01*
X022938Y004092D02*
X023002D01*
X022811Y003952D02*
Y004079D01*
X023129Y003952D02*
Y004079D01*
Y004122D02*
Y004249D01*
X022811Y004122D02*
Y004249D01*
X022938Y004262D02*
X023002D01*
X022938Y004109D02*
X023002D01*
X021771Y004479D02*
Y004543D01*
X021619Y004479D02*
Y004543D01*
X021632Y004352D02*
X021759D01*
X021632Y004670D02*
X021759D01*
X021632Y004723D02*
X021759D01*
X021632Y005040D02*
X021759D01*
X021771Y004850D02*
Y004913D01*
X021619Y004850D02*
Y004913D01*
X022029Y004850D02*
Y004913D01*
X022181Y004850D02*
Y004913D01*
X022042Y005040D02*
X022169D01*
X022042Y004723D02*
X022169D01*
X022042Y004670D02*
X022169D01*
X022042Y004352D02*
X022169D01*
X022029Y004479D02*
Y004543D01*
X022181Y004479D02*
Y004543D01*
X018939Y004063D02*
X019002D01*
X018939Y003910D02*
X019002D01*
X019129Y003923D02*
Y004050D01*
X018812Y003923D02*
Y004050D01*
X019259Y005693D02*
Y005820D01*
X018941Y005693D02*
Y005820D01*
X019068Y005833D02*
X019132D01*
X019068Y005680D02*
X019132D01*
X019438D02*
X019502D01*
X019438Y005833D02*
X019502D01*
X019311Y005693D02*
Y005820D01*
X019629Y005693D02*
Y005820D01*
X020049Y005153D02*
Y005280D01*
X019731Y005153D02*
Y005280D01*
X019858Y005293D02*
X019922D01*
X019858Y005140D02*
X019922D01*
X022999Y003540D02*
Y003603D01*
X023151Y003540D02*
Y003603D01*
X023012Y003730D02*
X023139D01*
X023012Y003413D02*
X023139D01*
X022432Y003730D02*
X022559D01*
X022432Y003413D02*
X022559D01*
X022419Y003540D02*
Y003603D01*
X022571Y003540D02*
Y003603D01*
X022031Y003540D02*
Y003603D01*
X021879Y003540D02*
Y003603D01*
X021892Y003413D02*
X022019D01*
X021892Y003730D02*
X022019D01*
X021722D02*
X021849D01*
X021722Y003413D02*
X021849D01*
X021709Y003540D02*
Y003603D01*
X021861Y003540D02*
Y003603D01*
X020639Y003823D02*
X020702D01*
X020639Y003670D02*
X020702D01*
X020829Y003683D02*
Y003810D01*
X020512Y003683D02*
Y003810D01*
X020862Y006800D02*
X020989D01*
X020862Y006482D02*
X020989D01*
X020849Y006609D02*
Y006673D01*
X021001Y006609D02*
Y006673D01*
X021991Y005583D02*
X022054D01*
X021991Y005430D02*
X022054D01*
X022181Y005443D02*
Y005570D01*
X021864Y005443D02*
Y005570D01*
X020619Y005423D02*
X020682D01*
X020619Y005270D02*
X020682D01*
X020809Y005283D02*
Y005410D01*
X020492Y005283D02*
Y005410D01*
X022342Y003233D02*
Y003360D01*
X022659Y003233D02*
Y003360D01*
X022469Y003220D02*
X022532D01*
X022469Y003373D02*
X022532D01*
X021062Y006253D02*
Y006380D01*
X021379Y006253D02*
Y006380D01*
X021189Y006240D02*
X021252D01*
X021189Y006393D02*
X021252D01*
X020219Y005753D02*
X020282D01*
X020219Y005600D02*
X020282D01*
X020409Y005613D02*
Y005740D01*
X020092Y005613D02*
Y005740D01*
X020662Y005160D02*
X020789D01*
X020662Y004842D02*
X020789D01*
X020649Y004969D02*
Y005033D01*
X020801Y004969D02*
Y005033D01*
X020969Y004203D02*
Y004330D01*
X020651Y004203D02*
Y004330D01*
X020778Y004343D02*
X020842D01*
X020778Y004190D02*
X020842D01*
X021039Y006253D02*
Y006380D01*
X020721Y006253D02*
Y006380D01*
X020848Y006393D02*
X020912D01*
X020848Y006240D02*
X020912D01*
X020129Y002450D02*
Y002513D01*
X020281Y002450D02*
Y002513D01*
X020142Y002640D02*
X020269D01*
X020142Y002323D02*
X020269D01*
X023199Y005513D02*
X023262D01*
X023199Y005360D02*
X023262D01*
X023389Y005373D02*
Y005500D01*
X023072Y005373D02*
Y005500D01*
X022892Y005520D02*
X023019D01*
X022892Y005202D02*
X023019D01*
X022879Y005329D02*
Y005393D01*
X023031Y005329D02*
Y005393D01*
X022189Y003563D02*
X022252D01*
X022189Y003411D02*
X022252D01*
X022379Y003423D02*
Y003550D01*
X022062Y003423D02*
Y003550D01*
Y003603D02*
Y003730D01*
X022379Y003603D02*
Y003730D01*
X022189Y003591D02*
X022252D01*
X022189Y003743D02*
X022252D01*
X018939Y004253D02*
X019002D01*
X018939Y004100D02*
X019002D01*
X019129Y004113D02*
Y004240D01*
X018812Y004113D02*
Y004240D01*
X022622Y004353D02*
X022749D01*
X022622Y004670D02*
X022749D01*
X022761Y004480D02*
Y004543D01*
X022609Y004480D02*
Y004543D01*
X022761Y004849D02*
Y004913D01*
X022609Y004849D02*
Y004913D01*
X022622Y004722D02*
X022749D01*
X022622Y005040D02*
X022749D01*
X022812Y003782D02*
Y003909D01*
X023129Y003782D02*
Y003909D01*
X022939Y003769D02*
X023002D01*
X022939Y003922D02*
X023002D01*
X022939Y004433D02*
X023002D01*
X022939Y004280D02*
X023002D01*
X023129Y004293D02*
Y004420D01*
X022812Y004293D02*
Y004420D01*
X021802Y004353D02*
X021929D01*
X021802Y004670D02*
X021929D01*
X021941Y004480D02*
Y004543D01*
X021789Y004480D02*
Y004543D01*
X021931Y004849D02*
Y004913D01*
X021779Y004849D02*
Y004913D01*
X021792Y004722D02*
X021919D01*
X021792Y005040D02*
X021919D01*
X022212D02*
X022339D01*
X022212Y004722D02*
X022339D01*
X022199Y004849D02*
Y004913D01*
X022351Y004849D02*
Y004913D01*
X022199Y004480D02*
Y004543D01*
X022351Y004480D02*
Y004543D01*
X022212Y004670D02*
X022339D01*
X022212Y004353D02*
X022339D01*
X020122Y004890D02*
X020249D01*
X020122Y004572D02*
X020249D01*
X020109Y004699D02*
Y004763D01*
X020261Y004699D02*
Y004763D01*
X020275Y006396D02*
Y006446D01*
X020155Y006396D02*
Y006446D01*
X020165Y006274D02*
X020265D01*
X020164Y006570D02*
X020264D01*
X021155Y005886D02*
X021205D01*
X021155Y005766D02*
X021205D01*
X021328Y005776D02*
Y005876D01*
X021032Y005776D02*
Y005876D01*
Y005636D02*
Y005736D01*
X021328Y005636D02*
Y005736D01*
X021155Y005626D02*
X021205D01*
X021155Y005746D02*
X021205D01*
X020655Y005696D02*
X020705D01*
X020655Y005576D02*
X020705D01*
X020828Y005586D02*
Y005686D01*
X020532Y005586D02*
Y005686D01*
Y005456D02*
Y005556D01*
X020828Y005456D02*
Y005556D01*
X020655Y005446D02*
X020705D01*
X020655Y005566D02*
X020705D01*
Y003476D02*
Y003526D01*
X020825Y003476D02*
Y003526D01*
X020715Y003649D02*
X020815D01*
X020716Y003353D02*
X020816D01*
X020935Y003776D02*
Y003826D01*
X021055Y003776D02*
Y003826D01*
X020945Y003949D02*
X021045D01*
X020946Y003653D02*
X021046D01*
X021476Y004353D02*
X021576D01*
X021475Y004649D02*
X021575D01*
X021585Y004476D02*
Y004526D01*
X021465Y004476D02*
Y004526D01*
X020755Y006066D02*
Y006116D01*
X020875Y006066D02*
Y006116D01*
X020765Y006239D02*
X020865D01*
X020766Y005943D02*
X020866D01*
X020626D02*
X020726D01*
X020625Y006239D02*
X020725D01*
X020735Y006066D02*
Y006116D01*
X020615Y006066D02*
Y006116D01*
X020475Y006066D02*
Y006116D01*
X020595Y006066D02*
Y006116D01*
X020485Y006239D02*
X020585D01*
X020486Y005943D02*
X020586D01*
X021175Y004806D02*
X021225D01*
X021175Y004686D02*
X021225D01*
X021348Y004696D02*
Y004796D01*
X021052Y004696D02*
Y004796D01*
X021085Y004666D02*
X021135D01*
X021085Y004546D02*
X021135D01*
X021258Y004556D02*
Y004656D01*
X020962Y004556D02*
Y004656D01*
X020292Y002663D02*
Y002790D01*
X020609Y002663D02*
Y002790D01*
X020419Y002650D02*
X020482D01*
X020419Y002803D02*
X020482D01*
X020419Y003023D02*
X020482D01*
X020419Y002870D02*
X020482D01*
X020609Y002883D02*
Y003010D01*
X020292Y002883D02*
Y003010D01*
X021302Y002890D02*
X021429D01*
X021302Y002572D02*
X021429D01*
X021289Y002699D02*
Y002763D01*
X021441Y002699D02*
Y002763D01*
X021641Y002699D02*
Y002763D01*
X021489Y002699D02*
Y002763D01*
X021502Y002572D02*
X021629D01*
X021502Y002890D02*
X021629D01*
X023265Y005088D02*
Y005138D01*
X023385Y005088D02*
Y005138D01*
X023275Y005260D02*
X023375D01*
X023276Y004964D02*
X023376D01*
X023076D02*
X023176D01*
X023075Y005260D02*
X023175D01*
X023185Y005088D02*
Y005138D01*
X023065Y005088D02*
Y005138D01*
D134*
X022593Y003407D02*
X022983D01*
X022593D02*
Y003747D01*
X022983D01*
Y003407D02*
Y003747D01*
X018727Y006054D02*
X018780D01*
X018729Y006052D02*
X018778D01*
X018735Y006049D02*
X018773D01*
X018740Y006047D02*
X018768D01*
X018752Y006044D02*
X018755D01*
X018722Y006060D02*
X018785D01*
X018724Y006057D02*
X018783D01*
X018714Y006100D02*
X018742D01*
X018714Y006098D02*
X018740D01*
X018714Y006095D02*
X018737D01*
X018714Y006093D02*
X018737D01*
X018712Y006090D02*
X018735D01*
X018712Y006087D02*
X018735D01*
X018712Y006085D02*
X018735D01*
X018712Y006082D02*
X018735D01*
X018712Y006080D02*
X018735D01*
X018714Y006077D02*
X018737D01*
X018714Y006075D02*
X018737D01*
X018714Y006072D02*
X018740D01*
X018724Y006115D02*
X018783D01*
X018722Y006113D02*
X018785D01*
X018717Y006103D02*
X018745D01*
X018717Y006070D02*
X018742D01*
X018745Y006126D02*
X018762D01*
X018737Y006123D02*
X018770D01*
X018732Y006121D02*
X018775D01*
X018729Y006118D02*
X018778D01*
X018717Y006067D02*
X018750D01*
X018719Y006062D02*
X018788D01*
X018722Y006110D02*
X018788D01*
X018719Y006108D02*
X018788D01*
X018717Y006105D02*
X018790D01*
X018762Y006103D02*
X018790D01*
X018765Y006100D02*
X018793D01*
X018768Y006098D02*
X018793D01*
X018768Y006072D02*
X018793D01*
X018765Y006070D02*
X018793D01*
X018757Y006067D02*
X018790D01*
X018719Y006065D02*
X018790D01*
X019390Y006138D02*
X019423D01*
X019387Y006141D02*
X019418D01*
X019392Y006136D02*
X019425D01*
X019507Y006054D02*
X019568D01*
X019512Y006052D02*
X019575D01*
X019517Y006049D02*
X019585D01*
X019524Y006047D02*
X019596D01*
X019491Y006062D02*
X019547D01*
X019497Y006060D02*
X019552D01*
X019502Y006057D02*
X019560D01*
X019479Y006070D02*
X019527D01*
X019484Y006067D02*
X019535D01*
X019433Y006100D02*
X019471D01*
X019436Y006098D02*
X019476D01*
X019474Y006072D02*
X019522D01*
X019530Y006044D02*
X019606D01*
X019537Y006042D02*
X019618D01*
X019486Y006065D02*
X019540D01*
X019639Y006016D02*
X019740D01*
X019667Y006014D02*
X019710D01*
X019715Y006037D02*
X019827D01*
X019740Y006039D02*
X019832D01*
X019956Y006141D02*
X019987D01*
X019954Y006138D02*
X019984D01*
X019933Y006121D02*
X019966D01*
X019931Y006118D02*
X019964D01*
X019928Y006115D02*
X019961D01*
X019923Y006113D02*
X019959D01*
X019921Y006110D02*
X019954D01*
X019918Y006108D02*
X019951D01*
X019913Y006105D02*
X019949D01*
X019911Y006103D02*
X019946D01*
X019905Y006100D02*
X019941D01*
X019903Y006098D02*
X019939D01*
X019898Y006095D02*
X019936D01*
X019895Y006093D02*
X019931D01*
X019852Y006070D02*
X019895D01*
X019845Y006067D02*
X019893D01*
X019890Y006090D02*
X019928D01*
X019885Y006087D02*
X019926D01*
X019883Y006085D02*
X019921D01*
X019862Y006075D02*
X019905D01*
X019857Y006072D02*
X019900D01*
X019878Y006082D02*
X019918D01*
X019872Y006080D02*
X019913D01*
X019867Y006077D02*
X019908D01*
X019951Y006136D02*
X019982D01*
X019949Y006133D02*
X019979D01*
X019946Y006131D02*
X019977D01*
X019944Y006128D02*
X019974D01*
X019941Y006126D02*
X019972D01*
X019939Y006123D02*
X019969D01*
X019839Y006065D02*
X019888D01*
X018747Y006344D02*
X018760D01*
X018747Y006341D02*
X018757D01*
X018714Y006288D02*
X018724D01*
X018714Y006286D02*
X018724D01*
X018735Y006321D02*
X018745D01*
X018747D02*
X018757D01*
X018732Y006319D02*
X018745D01*
X018750D02*
X018760D01*
X018732Y006316D02*
X018742D01*
X018750D02*
X018760D01*
X018729Y006314D02*
X018740D01*
X018752D02*
X018762D01*
X018729Y006311D02*
X018740D01*
X018752D02*
X018765D01*
X018727Y006308D02*
X018737D01*
X018755D02*
X018765D01*
X018724Y006306D02*
X018737D01*
X018757D02*
X018768D01*
X018724Y006303D02*
X018735D01*
X018757D02*
X018768D01*
X018745Y006339D02*
X018755D01*
X018745Y006336D02*
X018755D01*
X018742Y006334D02*
X018752D01*
X018740Y006331D02*
X018752D01*
X018740Y006329D02*
X018755D01*
X018737Y006326D02*
X018755D01*
X018737Y006324D02*
X018757D01*
X018722Y006301D02*
X018732D01*
X018760D02*
X018770D01*
X018722Y006298D02*
X018732D01*
X018760D02*
X018773D01*
X018719Y006296D02*
X018729D01*
X018762D02*
X018773D01*
X018717Y006293D02*
X018729D01*
X018765D02*
X018775D01*
X018717Y006291D02*
X018727D01*
X018765D02*
X018775D01*
X018768Y006288D02*
X018778D01*
X018768Y006286D02*
X018780D01*
X018996Y006237D02*
X019019D01*
X018996Y006235D02*
X019019D01*
X018996Y006232D02*
X019019D01*
X018996Y006230D02*
X019019D01*
X018996Y006227D02*
X019019D01*
X018996Y006225D02*
X019019D01*
X018907Y006344D02*
X018915D01*
X018907Y006341D02*
X018915D01*
X018826Y006344D02*
X018836D01*
X018826Y006341D02*
X018836D01*
X018859Y006344D02*
X018869D01*
X018859Y006341D02*
X018869D01*
X018907Y006339D02*
X018915D01*
X018907Y006336D02*
X018915D01*
X018907Y006334D02*
X018915D01*
X018907Y006331D02*
X018915D01*
X018907Y006329D02*
X018915D01*
X018907Y006326D02*
X018915D01*
X018907Y006316D02*
X018915D01*
X018907Y006314D02*
X018915D01*
X018907Y006311D02*
X018915D01*
X018907Y006308D02*
X018915D01*
X018907Y006306D02*
X018915D01*
X018907Y006303D02*
X018915D01*
X018907Y006301D02*
X018915D01*
X018907Y006298D02*
X018915D01*
X018907Y006296D02*
X018915D01*
X018907Y006293D02*
X018915D01*
X018907Y006291D02*
X018915D01*
X018907Y006288D02*
X018915D01*
X018907Y006286D02*
X018915D01*
X018859Y006324D02*
X018915D01*
X018859Y006321D02*
X018915D01*
X018859Y006319D02*
X018915D01*
X018826Y006324D02*
X018836D01*
X018826Y006321D02*
X018836D01*
X018826Y006319D02*
X018836D01*
X018826Y006316D02*
X018836D01*
X018826Y006314D02*
X018836D01*
X018826Y006311D02*
X018836D01*
X018826Y006308D02*
X018836D01*
X018826Y006306D02*
X018836D01*
X018826Y006303D02*
X018836D01*
X018826Y006339D02*
X018836D01*
X018826Y006336D02*
X018836D01*
X018826Y006334D02*
X018836D01*
X018826Y006331D02*
X018836D01*
X018826Y006329D02*
X018836D01*
X018826Y006326D02*
X018836D01*
X018826Y006301D02*
X018836D01*
X018826Y006298D02*
X018836D01*
X018826Y006296D02*
X018836D01*
X018826Y006293D02*
X018836D01*
X018859Y006331D02*
X018869D01*
X018859Y006329D02*
X018869D01*
X018859Y006326D02*
X018869D01*
X018859Y006316D02*
X018869D01*
X018859Y006314D02*
X018869D01*
X018859Y006311D02*
X018869D01*
X018859Y006308D02*
X018869D01*
X018859Y006306D02*
X018869D01*
X018859Y006303D02*
X018869D01*
X018859Y006301D02*
X018869D01*
X018859Y006298D02*
X018869D01*
X018859Y006296D02*
X018869D01*
X018859Y006293D02*
X018869D01*
X018859Y006291D02*
X018869D01*
X018859Y006288D02*
X018869D01*
X018859Y006286D02*
X018869D01*
X018859Y006339D02*
X018869D01*
X018859Y006336D02*
X018869D01*
X018859Y006334D02*
X018869D01*
X019027Y006192D02*
X019050D01*
X019052Y006220D02*
X019077D01*
X019050Y006217D02*
X019075D01*
X019047Y006214D02*
X019075D01*
X019047Y006247D02*
X019075D01*
X019050Y006245D02*
X019075D01*
X019306Y006258D02*
X019331D01*
X019309Y006255D02*
X019334D01*
X019309Y006253D02*
X019334D01*
X019311Y006250D02*
X019337D01*
X019311Y006247D02*
X019337D01*
X019314Y006245D02*
X019339D01*
X019304Y006265D02*
X019329D01*
X019304Y006263D02*
X019329D01*
X019306Y006260D02*
X019331D01*
X019349Y006187D02*
X019377D01*
X019349Y006184D02*
X019380D01*
X019352Y006181D02*
X019380D01*
X019354Y006179D02*
X019382D01*
X019357Y006176D02*
X019385D01*
X019357Y006174D02*
X019387D01*
X019359Y006171D02*
X019390D01*
X019362Y006169D02*
X019392D01*
X019364Y006166D02*
X019392D01*
X019367Y006164D02*
X019395D01*
X019344Y006192D02*
X019372D01*
X019347Y006189D02*
X019375D01*
X019326Y006220D02*
X019352D01*
X019329Y006217D02*
X019354D01*
X019329Y006214D02*
X019357D01*
X019331Y006212D02*
X019357D01*
X019334Y006209D02*
X019359D01*
X019334Y006207D02*
X019362D01*
X019337Y006204D02*
X019364D01*
X019337Y006202D02*
X019364D01*
X019339Y006199D02*
X019367D01*
X019342Y006197D02*
X019370D01*
X019344Y006194D02*
X019370D01*
X019278Y006344D02*
X019301D01*
X019278Y006341D02*
X019301D01*
X019296Y006283D02*
X019321D01*
X019296Y006281D02*
X019321D01*
X019298Y006278D02*
X019321D01*
X019298Y006275D02*
X019324D01*
X019301Y006273D02*
X019324D01*
X019301Y006270D02*
X019326D01*
X019278Y006339D02*
X019301D01*
X019278Y006336D02*
X019304D01*
X019281Y006334D02*
X019304D01*
X019281Y006331D02*
X019304D01*
X019281Y006329D02*
X019304D01*
X019281Y006326D02*
X019306D01*
X019283Y006324D02*
X019306D01*
X019283Y006321D02*
X019306D01*
X019283Y006319D02*
X019309D01*
X019286Y006316D02*
X019309D01*
X019286Y006314D02*
X019309D01*
X019286Y006311D02*
X019309D01*
X019288Y006308D02*
X019311D01*
X019288Y006306D02*
X019311D01*
X019288Y006303D02*
X019314D01*
X019288Y006301D02*
X019314D01*
X019291Y006298D02*
X019314D01*
X019291Y006296D02*
X019316D01*
X019293Y006293D02*
X019316D01*
X019293Y006291D02*
X019316D01*
X019293Y006288D02*
X019319D01*
X019296Y006286D02*
X019319D01*
X019370Y006161D02*
X019397D01*
X019370Y006159D02*
X019400D01*
X019372Y006156D02*
X019403D01*
X019375Y006154D02*
X019405D01*
X019377Y006151D02*
X019408D01*
X019380Y006148D02*
X019410D01*
X019301Y006268D02*
X019326D01*
X019491Y006222D02*
X019524D01*
X019494Y006220D02*
X019530D01*
X019497Y006217D02*
X019532D01*
X019499Y006214D02*
X019535D01*
X019502Y006212D02*
X019540D01*
X019504Y006209D02*
X019542D01*
X019509Y006207D02*
X019547D01*
X019512Y006204D02*
X019552D01*
X019514Y006202D02*
X019555D01*
X019519Y006199D02*
X019560D01*
X019522Y006197D02*
X019565D01*
X019524Y006194D02*
X019570D01*
X019476Y006237D02*
X019507D01*
X019479Y006235D02*
X019509D01*
X019481Y006232D02*
X019512D01*
X019484Y006230D02*
X019517D01*
X019486Y006227D02*
X019519D01*
X019489Y006225D02*
X019522D01*
X019453Y006265D02*
X019481D01*
X019453Y006263D02*
X019484D01*
X019456Y006260D02*
X019486D01*
X019458Y006258D02*
X019486D01*
X019461Y006255D02*
X019489D01*
X019464Y006253D02*
X019491D01*
X019464Y006250D02*
X019494D01*
X019466Y006247D02*
X019497D01*
X019469Y006245D02*
X019499D01*
X019471Y006242D02*
X019502D01*
X019474Y006240D02*
X019504D01*
X019537Y006187D02*
X019573D01*
X019542Y006184D02*
X019573D01*
X019588D02*
X019593D01*
X019547Y006181D02*
X019570D01*
X019550Y006179D02*
X019570D01*
X019555Y006176D02*
X019568D01*
X019560Y006174D02*
X019568D01*
X019530Y006192D02*
X019575D01*
X019535Y006189D02*
X019573D01*
X019547Y006344D02*
X019575D01*
X019550Y006341D02*
X019578D01*
X019433Y006298D02*
X019458D01*
X019433Y006296D02*
X019458D01*
X019436Y006293D02*
X019461D01*
X019436Y006291D02*
X019464D01*
X019438Y006288D02*
X019464D01*
X019438Y006286D02*
X019466D01*
X019441Y006283D02*
X019469D01*
X019443Y006281D02*
X019469D01*
X019443Y006278D02*
X019471D01*
X019446Y006275D02*
X019474D01*
X019448Y006273D02*
X019474D01*
X019448Y006270D02*
X019476D01*
X019550Y006339D02*
X019578D01*
X019552Y006336D02*
X019580D01*
X019555Y006334D02*
X019583D01*
X019558Y006331D02*
X019585D01*
X019558Y006329D02*
X019588D01*
X019560Y006326D02*
X019591D01*
X019563Y006324D02*
X019593D01*
X019565Y006321D02*
X019598D01*
X019588Y006181D02*
X019601D01*
X019585Y006179D02*
X019608D01*
X019585Y006176D02*
X019608D01*
X019585Y006174D02*
X019608D01*
X019583Y006171D02*
X019608D01*
X019583Y006169D02*
X019606D01*
X019580Y006166D02*
X019606D01*
X019583Y006164D02*
X019606D01*
X019588Y006161D02*
X019603D01*
X019596Y006159D02*
X019603D01*
X019583Y006303D02*
X019626D01*
X019568Y006319D02*
X019601D01*
X019570Y006316D02*
X019603D01*
X019573Y006314D02*
X019608D01*
X019575Y006311D02*
X019611D01*
X019578Y006308D02*
X019616D01*
X019580Y006306D02*
X019621D01*
X019451Y006268D02*
X019479D01*
X019725Y006169D02*
X019733D01*
X019712Y006166D02*
X019733D01*
X019712Y006164D02*
X019735D01*
X019712Y006161D02*
X019735D01*
X019712Y006159D02*
X019735D01*
X019712Y006156D02*
X019735D01*
X019712Y006154D02*
X019735D01*
X019712Y006151D02*
X019735D01*
X019712Y006148D02*
X019738D01*
X019669Y006166D02*
X019690D01*
X019669Y006164D02*
X019692D01*
X019669Y006161D02*
X019692D01*
X019669Y006159D02*
X019692D01*
X019669Y006156D02*
X019692D01*
X019669Y006154D02*
X019692D01*
X019669Y006151D02*
X019692D01*
X019669Y006148D02*
X019692D01*
X019771Y006179D02*
X019773D01*
X019763Y006176D02*
X019776D01*
X019753Y006174D02*
X019776D01*
X019753Y006171D02*
X019776D01*
X019753Y006169D02*
X019778D01*
X019753Y006166D02*
X019778D01*
X019756Y006164D02*
X019778D01*
X019756Y006161D02*
X019778D01*
X019756Y006159D02*
X019781D01*
X019756Y006156D02*
X019773D01*
X019758Y006154D02*
X019766D01*
X019809Y006194D02*
X019814D01*
X019641Y006273D02*
X019735D01*
X019725Y006293D02*
X019778D01*
X019712Y006291D02*
X019776D01*
X019651Y006270D02*
X019725D01*
X019766Y006311D02*
X019801D01*
X019761Y006308D02*
X019799D01*
X019758Y006306D02*
X019796D01*
X019753Y006303D02*
X019794D01*
X019748Y006301D02*
X019791D01*
X019740Y006298D02*
X019786D01*
X019733Y006296D02*
X019784D01*
X019791Y006187D02*
X019817D01*
X019794Y006184D02*
X019819D01*
X019794Y006181D02*
X019819D01*
X019796Y006179D02*
X019822D01*
X019796Y006176D02*
X019822D01*
X019796Y006174D02*
X019819D01*
X019799Y006171D02*
X019814D01*
X019799Y006169D02*
X019809D01*
X019799Y006189D02*
X019817D01*
X019804Y006192D02*
X019814D01*
X019804Y006344D02*
X019829D01*
X019801Y006341D02*
X019829D01*
X019799Y006339D02*
X019827D01*
X019796Y006336D02*
X019824D01*
X019794Y006334D02*
X019824D01*
X019791Y006331D02*
X019822D01*
X019789Y006329D02*
X019819D01*
X019786Y006326D02*
X019817D01*
X019784Y006324D02*
X019814D01*
X019781Y006321D02*
X019812D01*
X019776Y006319D02*
X019812D01*
X019773Y006316D02*
X019809D01*
X019771Y006314D02*
X019806D01*
X019667Y006268D02*
X019712D01*
X019921Y006237D02*
X019944D01*
X019921Y006235D02*
X019944D01*
X019921Y006232D02*
X019944D01*
X019918Y006230D02*
X019941D01*
X019918Y006227D02*
X019941D01*
X019916Y006225D02*
X019941D01*
X019913Y006222D02*
X019939D01*
X019908Y006220D02*
X019939D01*
X019860Y006217D02*
X019936D01*
X019862Y006214D02*
X019936D01*
X019862Y006212D02*
X019933D01*
X019865Y006209D02*
X019931D01*
X019913Y006258D02*
X019939D01*
X019916Y006255D02*
X019941D01*
X019918Y006253D02*
X019941D01*
X019918Y006250D02*
X019941D01*
X019921Y006247D02*
X019944D01*
X019921Y006245D02*
X019944D01*
X019921Y006242D02*
X019944D01*
X019921Y006240D02*
X019944D01*
X019908Y006260D02*
X019939D01*
X019862Y006265D02*
X019936D01*
X019860Y006263D02*
X019936D01*
X019855Y006237D02*
X019875D01*
X019855Y006235D02*
X019878D01*
X019839Y006187D02*
X019842D01*
Y006214D02*
X019850D01*
X019839Y006212D02*
X019852D01*
X019885Y006197D02*
X019911D01*
X019855Y006232D02*
X019878D01*
X019855Y006230D02*
X019878D01*
X019855Y006227D02*
X019880D01*
X019857Y006225D02*
X019883D01*
X019857Y006222D02*
X019885D01*
X019857Y006220D02*
X019888D01*
X019867Y006207D02*
X019928D01*
X019870Y006204D02*
X019926D01*
X019875Y006202D02*
X019923D01*
X019880Y006199D02*
X019918D01*
X019839Y006189D02*
X019845D01*
X019855Y006250D02*
X019878D01*
X019855Y006247D02*
X019878D01*
X019855Y006245D02*
X019878D01*
X019855Y006242D02*
X019875D01*
X019855Y006240D02*
X019875D01*
X019857Y006258D02*
X019885D01*
X019857Y006255D02*
X019883D01*
X019855Y006253D02*
X019880D01*
X019857Y006260D02*
X019890D01*
X019974Y006159D02*
X020005D01*
X019972Y006156D02*
X020002D01*
X019969Y006154D02*
X019999D01*
X019969Y006151D02*
X019997D01*
X019966Y006148D02*
X019994D01*
X020020Y006217D02*
X020030D01*
X020020Y006214D02*
X020035D01*
X020022Y006220D02*
X020027D01*
X019941Y006344D02*
X019961D01*
X019941Y006341D02*
X019964D01*
X019926Y006308D02*
X019933D01*
X019923Y006306D02*
X019939D01*
X019923Y006303D02*
X019944D01*
X019921Y006301D02*
X019949D01*
X019921Y006298D02*
X019946D01*
X019918Y006296D02*
X019944D01*
X019918Y006293D02*
X019944D01*
X019921Y006291D02*
X019941D01*
X019923Y006288D02*
X019941D01*
X019928Y006286D02*
X019939D01*
X019933Y006283D02*
X019939D01*
X019865Y006270D02*
X019931D01*
X019888Y006283D02*
X019911D01*
X019880Y006281D02*
X019918D01*
X019875Y006278D02*
X019921D01*
X019872Y006275D02*
X019926D01*
X019867Y006273D02*
X019928D01*
X019939Y006339D02*
X019964D01*
X019939Y006336D02*
X019964D01*
X019939Y006334D02*
X019961D01*
X019936Y006331D02*
X019961D01*
X019939Y006329D02*
X019961D01*
X019944Y006326D02*
X019959D01*
X019951Y006324D02*
X019959D01*
X020007Y006197D02*
X020035D01*
X020005Y006194D02*
X020032D01*
X020002Y006192D02*
X020030D01*
X020002Y006189D02*
X020030D01*
X019999Y006187D02*
X020027D01*
X019997Y006184D02*
X020025D01*
X019989Y006174D02*
X020017D01*
X019987Y006171D02*
X020015D01*
X019984Y006169D02*
X020012D01*
X019982Y006166D02*
X020012D01*
X019979Y006164D02*
X020010D01*
X019977Y006161D02*
X020007D01*
X019994Y006181D02*
X020022D01*
X019992Y006179D02*
X020022D01*
X019992Y006176D02*
X020020D01*
X019862Y006268D02*
X019933D01*
X020045Y006232D02*
X020055D01*
X020050Y006230D02*
X020055D01*
X020043Y006258D02*
X020045D01*
X020043Y006255D02*
X020050D01*
X020055Y006286D02*
X020081D01*
X020055Y006283D02*
X020081D01*
X020055Y006281D02*
X020078D01*
X020053Y006278D02*
X020078D01*
X020055Y006275D02*
X020076D01*
X020060Y006273D02*
X020076D01*
X020060Y006296D02*
X020066D01*
X020060Y006293D02*
X020071D01*
X020058Y006291D02*
X020078D01*
X020058Y006288D02*
X020081D01*
X020073Y006336D02*
X020078D01*
X020068Y006270D02*
X020076D01*
X020073Y006334D02*
X020088D01*
X020071Y006331D02*
X020096D01*
X020071Y006329D02*
X020093D01*
X020071Y006326D02*
X020093D01*
X020071Y006324D02*
X020093D01*
X020068Y006321D02*
X020093D01*
X020068Y006319D02*
X020091D01*
X020068Y006316D02*
X020091D01*
X020076Y006314D02*
X020091D01*
X020083Y006311D02*
X020088D01*
X018757Y006359D02*
X018768D01*
X018755Y006357D02*
X018765D01*
X018755Y006354D02*
X018765D01*
X018752Y006352D02*
X018762D01*
X018907Y006359D02*
X018915D01*
X018907Y006357D02*
X018915D01*
X018907Y006354D02*
X018915D01*
X018907Y006352D02*
X018915D01*
X018826Y006359D02*
X018836D01*
X018826Y006357D02*
X018836D01*
X018826Y006354D02*
X018836D01*
X018826Y006352D02*
X018836D01*
X018859Y006359D02*
X018869D01*
X018859Y006357D02*
X018869D01*
X018859Y006354D02*
X018869D01*
X018859Y006352D02*
X018869D01*
X018958Y006423D02*
X018961D01*
X018956Y006420D02*
X018963D01*
X018953Y006418D02*
X018966D01*
X018950Y006415D02*
X018971D01*
X018948Y006413D02*
X018973D01*
X018950Y006410D02*
X018981D01*
X018950Y006489D02*
X018978D01*
X018950Y006486D02*
X018973D01*
X018950Y006484D02*
X018968D01*
X018953Y006481D02*
X018966D01*
X018956Y006479D02*
X018963D01*
X018958Y006476D02*
X018961D01*
X018973Y006395D02*
X019016D01*
X018981Y006392D02*
X019006D01*
X018971Y006504D02*
X019016D01*
X018978Y006507D02*
X019009D01*
X019100Y006402D02*
X019169D01*
X019103Y006400D02*
X019166D01*
X019108Y006397D02*
X019161D01*
X019113Y006395D02*
X019156D01*
X019121Y006392D02*
X019149D01*
X019090Y006410D02*
X019121D01*
X019093Y006408D02*
X019177D01*
X019098Y006405D02*
X019171D01*
X019034Y006441D02*
X019052D01*
X019034Y006438D02*
X019052D01*
X019077Y006441D02*
X019095D01*
X019077Y006438D02*
X019095D01*
X019174Y006441D02*
X019192D01*
X019174Y006438D02*
X019192D01*
X019027Y006425D02*
X019047D01*
X019027Y006423D02*
X019047D01*
X019032Y006435D02*
X019052D01*
X019032Y006433D02*
X019050D01*
X019029Y006430D02*
X019050D01*
X019029Y006428D02*
X019050D01*
X019077Y006435D02*
X019095D01*
X019077Y006433D02*
X019098D01*
X019080Y006430D02*
X019098D01*
X019080Y006428D02*
X019100D01*
X019080Y006425D02*
X019100D01*
X019083Y006423D02*
X019103D01*
X019083Y006420D02*
X019105D01*
X019085Y006418D02*
X019108D01*
X019088Y006415D02*
X019110D01*
X019090Y006413D02*
X019116D01*
X019032Y006468D02*
X019050D01*
X019032Y006466D02*
X019050D01*
X019032Y006463D02*
X019052D01*
X019034Y006461D02*
X019052D01*
X019034Y006458D02*
X019052D01*
X019034Y006456D02*
X019052D01*
X019034Y006453D02*
X019052D01*
X019034Y006451D02*
X019052D01*
X019034Y006448D02*
X019052D01*
X019034Y006446D02*
X019052D01*
X019034Y006443D02*
X019052D01*
X019075Y006451D02*
X019093D01*
X019075Y006448D02*
X019093D01*
X019075Y006446D02*
X019093D01*
X019075Y006443D02*
X019095D01*
X019077Y006461D02*
X019095D01*
X019077Y006458D02*
X019095D01*
X019075Y006456D02*
X019095D01*
X019075Y006453D02*
X019093D01*
X019077Y006468D02*
X019098D01*
X019077Y006466D02*
X019098D01*
X019077Y006463D02*
X019095D01*
X019174Y006435D02*
X019192D01*
X019171Y006433D02*
X019192D01*
X019171Y006430D02*
X019189D01*
X019169Y006428D02*
X019189D01*
X019169Y006425D02*
X019189D01*
X019166Y006423D02*
X019187D01*
X019164Y006420D02*
X019184D01*
X019161Y006418D02*
X019184D01*
X019159Y006415D02*
X019182D01*
X019154Y006413D02*
X019179D01*
X019149Y006410D02*
X019177D01*
Y006446D02*
X019192D01*
X019174Y006443D02*
X019192D01*
X019174Y006461D02*
X019192D01*
X019174Y006458D02*
X019192D01*
X019174Y006456D02*
X019192D01*
X019177Y006453D02*
X019192D01*
X019171Y006468D02*
X019189D01*
X019174Y006466D02*
X019192D01*
X019174Y006463D02*
X019192D01*
X019121Y006507D02*
X019149D01*
X019110Y006504D02*
X019159D01*
X019108Y006501D02*
X019161D01*
X019103Y006499D02*
X019166D01*
X019100Y006496D02*
X019169D01*
X019095Y006494D02*
X019174D01*
X019093Y006491D02*
X019133D01*
X019090Y006489D02*
X019121D01*
X019027Y006476D02*
X019047D01*
X019029Y006474D02*
X019047D01*
X019088Y006486D02*
X019116D01*
X019088Y006484D02*
X019110D01*
X019085Y006481D02*
X019108D01*
X019083Y006479D02*
X019105D01*
X019083Y006476D02*
X019103D01*
X019080Y006474D02*
X019100D01*
X019136Y006491D02*
X019177D01*
X019149Y006489D02*
X019179D01*
X019154Y006486D02*
X019179D01*
X019159Y006484D02*
X019182D01*
X019161Y006481D02*
X019184D01*
X019164Y006479D02*
X019187D01*
X019166Y006476D02*
X019187D01*
X019169Y006474D02*
X019189D01*
X019177Y006451D02*
X019194D01*
X019177Y006448D02*
X019194D01*
X019029Y006471D02*
X019050D01*
X019080D02*
X019100D01*
X019171D02*
X019189D01*
X019324Y006441D02*
X019342D01*
X019324Y006438D02*
X019342D01*
X019324Y006430D02*
X019342D01*
X019324Y006428D02*
X019342D01*
X019301Y006425D02*
X019321D01*
X019324D02*
X019342D01*
X019304Y006423D02*
X019321D01*
X019324D02*
X019342D01*
X019306Y006420D02*
X019342D01*
X019309Y006418D02*
X019342D01*
X019311Y006415D02*
X019342D01*
X019314Y006413D02*
X019342D01*
X019314Y006410D02*
X019342D01*
X019316Y006408D02*
X019342D01*
X019319Y006405D02*
X019342D01*
X019321Y006402D02*
X019342D01*
X019324Y006400D02*
X019342D01*
X019324Y006435D02*
X019342D01*
X019324Y006433D02*
X019342D01*
X019324Y006461D02*
X019342D01*
X019324Y006458D02*
X019342D01*
X019324Y006456D02*
X019342D01*
X019324Y006453D02*
X019342D01*
X019324Y006451D02*
X019342D01*
X019324Y006448D02*
X019342D01*
X019324Y006446D02*
X019342D01*
X019324Y006443D02*
X019342D01*
X019324Y006468D02*
X019342D01*
X019324Y006466D02*
X019342D01*
X019324Y006463D02*
X019342D01*
X019288Y006441D02*
X019306D01*
X019291Y006438D02*
X019309D01*
X019258Y006441D02*
X019276D01*
X019255Y006438D02*
X019273D01*
X019243Y006425D02*
X019263D01*
X019243Y006423D02*
X019260D01*
X019273Y006369D02*
X019296D01*
X019273Y006367D02*
X019296D01*
X019273Y006364D02*
X019296D01*
X019273Y006362D02*
X019296D01*
X019276Y006359D02*
X019298D01*
X019276Y006357D02*
X019298D01*
X019276Y006354D02*
X019298D01*
X019276Y006352D02*
X019298D01*
X019296Y006430D02*
X019316D01*
X019298Y006428D02*
X019319D01*
X019293Y006435D02*
X019311D01*
X019293Y006433D02*
X019314D01*
X019248Y006430D02*
X019268D01*
X019245Y006428D02*
X019265D01*
X019253Y006435D02*
X019270D01*
X019250Y006433D02*
X019270D01*
X019276Y006461D02*
X019288D01*
X019273Y006458D02*
X019291D01*
X019283Y006446D02*
X019304D01*
X019286Y006443D02*
X019304D01*
X019281Y006468D02*
X019283D01*
X019278Y006466D02*
X019286D01*
X019278Y006463D02*
X019286D01*
X019270Y006456D02*
X019293D01*
X019268Y006453D02*
X019296D01*
X019265Y006451D02*
X019298D01*
X019263Y006448D02*
X019301D01*
X019260Y006446D02*
X019281D01*
X019260Y006443D02*
X019278D01*
X019380Y006423D02*
X019382D01*
X019377Y006420D02*
X019385D01*
X019375Y006418D02*
X019387D01*
X019372Y006415D02*
X019390D01*
X019370Y006413D02*
X019395D01*
X019326Y006397D02*
X019342D01*
X019329Y006395D02*
X019342D01*
X019283Y006547D02*
X019306D01*
X019283Y006545D02*
X019306D01*
X019324Y006507D02*
X019342D01*
X019324Y006504D02*
X019342D01*
X019324Y006501D02*
X019342D01*
X019324Y006499D02*
X019342D01*
X019324Y006496D02*
X019342D01*
X019324Y006494D02*
X019342D01*
X019324Y006491D02*
X019342D01*
X019324Y006489D02*
X019342D01*
X019324Y006486D02*
X019342D01*
X019324Y006484D02*
X019342D01*
X019324Y006481D02*
X019342D01*
X019324Y006479D02*
X019342D01*
X019324Y006476D02*
X019342D01*
X019324Y006474D02*
X019342D01*
X019281Y006542D02*
X019306D01*
X019281Y006540D02*
X019304D01*
X019281Y006537D02*
X019304D01*
X019281Y006535D02*
X019304D01*
X019278Y006532D02*
X019304D01*
X019370Y006486D02*
X019395D01*
X019372Y006484D02*
X019390D01*
X019375Y006481D02*
X019387D01*
X019377Y006479D02*
X019382D01*
X019372Y006410D02*
X019403D01*
X019372Y006489D02*
X019400D01*
X019324Y006471D02*
X019342D01*
X019499Y006418D02*
X019598D01*
X019502Y006415D02*
X019596D01*
X019504Y006413D02*
X019596D01*
X019507Y006410D02*
X019593D01*
X019509Y006408D02*
X019591D01*
X019512Y006405D02*
X019588D01*
X019514Y006402D02*
X019583D01*
X019517Y006400D02*
X019580D01*
X019522Y006397D02*
X019575D01*
X019527Y006395D02*
X019570D01*
X019456Y006441D02*
X019474D01*
X019453Y006438D02*
X019474D01*
X019446Y006423D02*
X019466D01*
X019446Y006420D02*
X019466D01*
X019441Y006418D02*
X019464D01*
X019438Y006415D02*
X019464D01*
X019433Y006413D02*
X019461D01*
X019453Y006435D02*
X019471D01*
X019453Y006433D02*
X019471D01*
X019451Y006430D02*
X019471D01*
X019451Y006428D02*
X019469D01*
X019448Y006425D02*
X019469D01*
X019451Y006468D02*
X019471D01*
X019453Y006466D02*
X019471D01*
X019453Y006463D02*
X019471D01*
X019453Y006461D02*
X019474D01*
X019456Y006458D02*
X019474D01*
X019456Y006456D02*
X019474D01*
X019456Y006453D02*
X019474D01*
X019456Y006451D02*
X019474D01*
X019456Y006448D02*
X019474D01*
X019456Y006446D02*
X019474D01*
X019456Y006443D02*
X019474D01*
X019535Y006369D02*
X019558D01*
X019535Y006367D02*
X019560D01*
X019537Y006364D02*
X019563D01*
X019537Y006362D02*
X019563D01*
X019540Y006359D02*
X019565D01*
X019540Y006357D02*
X019565D01*
X019542Y006354D02*
X019568D01*
X019542Y006352D02*
X019570D01*
X019537Y006392D02*
X019563D01*
X019565Y006547D02*
X019598D01*
X019563Y006545D02*
X019593D01*
X019527Y006504D02*
X019573D01*
X019522Y006501D02*
X019578D01*
X019517Y006499D02*
X019583D01*
X019514Y006496D02*
X019585D01*
X019512Y006494D02*
X019588D01*
X019507Y006491D02*
X019591D01*
X019507Y006489D02*
X019593D01*
X019504Y006486D02*
X019596D01*
X019502Y006484D02*
X019598D01*
X019499Y006481D02*
X019598D01*
X019436Y006486D02*
X019461D01*
X019438Y006484D02*
X019464D01*
X019443Y006481D02*
X019464D01*
X019446Y006479D02*
X019466D01*
X019448Y006476D02*
X019469D01*
X019448Y006474D02*
X019469D01*
X019560Y006542D02*
X019591D01*
X019558Y006540D02*
X019588D01*
X019558Y006537D02*
X019585D01*
X019555Y006535D02*
X019583D01*
X019552Y006532D02*
X019580D01*
X019535Y006507D02*
X019565D01*
X019491Y006441D02*
X019608D01*
X019491Y006438D02*
X019608D01*
X019491Y006435D02*
X019606D01*
X019494Y006433D02*
X019606D01*
X019494Y006430D02*
X019606D01*
X019494Y006428D02*
X019603D01*
X019497Y006425D02*
X019603D01*
X019497Y006423D02*
X019601D01*
X019499Y006420D02*
X019601D01*
X019491Y006461D02*
X019608D01*
X019491Y006458D02*
X019608D01*
X019491Y006456D02*
X019608D01*
X019491Y006453D02*
X019608D01*
X019491Y006451D02*
X019608D01*
X019491Y006448D02*
X019608D01*
X019491Y006446D02*
X019608D01*
X019491Y006443D02*
X019608D01*
X019494Y006468D02*
X019606D01*
X019494Y006466D02*
X019606D01*
X019491Y006463D02*
X019606D01*
X019499Y006479D02*
X019601D01*
X019497Y006476D02*
X019601D01*
X019497Y006474D02*
X019603D01*
X019451Y006471D02*
X019471D01*
X019494D02*
X019603D01*
X019728Y006441D02*
X019748D01*
X019728Y006438D02*
X019748D01*
X019728Y006390D02*
X019748D01*
X019728Y006387D02*
X019748D01*
X019728Y006377D02*
X019748D01*
X019728Y006374D02*
X019748D01*
X019728Y006372D02*
X019748D01*
X019728Y006369D02*
X019748D01*
X019728Y006367D02*
X019748D01*
X019728Y006364D02*
X019748D01*
X019728Y006362D02*
X019748D01*
X019728Y006359D02*
X019748D01*
X019728Y006357D02*
X019748D01*
X019728Y006354D02*
X019748D01*
X019728Y006352D02*
X019748D01*
X019728Y006385D02*
X019748D01*
X019728Y006382D02*
X019748D01*
X019728Y006380D02*
X019748D01*
X019728Y006435D02*
X019748D01*
X019679Y006425D02*
X019748D01*
X019728Y006415D02*
X019748D01*
X019728Y006413D02*
X019748D01*
X019728Y006410D02*
X019748D01*
X019728Y006408D02*
X019748D01*
X019728Y006405D02*
X019748D01*
X019728Y006402D02*
X019748D01*
X019728Y006400D02*
X019748D01*
X019728Y006397D02*
X019748D01*
X019728Y006395D02*
X019748D01*
X019728Y006392D02*
X019748D01*
X019667Y006433D02*
X019748D01*
X019672Y006430D02*
X019748D01*
X019674Y006428D02*
X019748D01*
X019674Y006423D02*
X019748D01*
X019672Y006420D02*
X019748D01*
X019669Y006418D02*
X019748D01*
X019728Y006448D02*
X019748D01*
X019728Y006446D02*
X019748D01*
X019728Y006443D02*
X019748D01*
X019728Y006461D02*
X019748D01*
X019728Y006458D02*
X019748D01*
X019728Y006456D02*
X019748D01*
X019728Y006453D02*
X019748D01*
X019728Y006451D02*
X019748D01*
X019728Y006468D02*
X019748D01*
X019728Y006466D02*
X019748D01*
X019728Y006463D02*
X019748D01*
X019662Y006441D02*
X019685D01*
X019664Y006438D02*
X019687D01*
X019649Y006387D02*
X019669D01*
X019651Y006390D02*
X019672D01*
X019646Y006385D02*
X019669D01*
X019646Y006382D02*
X019667D01*
X019644Y006380D02*
X019664D01*
X019641Y006377D02*
X019664D01*
X019641Y006374D02*
X019662D01*
X019639Y006372D02*
X019659D01*
X019636Y006369D02*
X019659D01*
X019636Y006367D02*
X019657D01*
X019654Y006395D02*
X019674D01*
X019651Y006392D02*
X019674D01*
X019659Y006402D02*
X019679D01*
X019657Y006400D02*
X019679D01*
X019657Y006397D02*
X019677D01*
X019667Y006435D02*
X019695D01*
X019669Y006415D02*
X019695D01*
X019667Y006413D02*
X019690D01*
X019664Y006410D02*
X019687D01*
X019662Y006408D02*
X019685D01*
X019662Y006405D02*
X019682D01*
X019644Y006468D02*
X019664D01*
X019646Y006466D02*
X019667D01*
X019646Y006463D02*
X019669D01*
X019649Y006461D02*
X019669D01*
X019649Y006458D02*
X019672D01*
X019651Y006456D02*
X019672D01*
X019654Y006453D02*
X019674D01*
X019654Y006451D02*
X019677D01*
X019657Y006448D02*
X019679D01*
X019659Y006446D02*
X019679D01*
X019659Y006443D02*
X019682D01*
X019728Y006507D02*
X019748D01*
X019728Y006504D02*
X019748D01*
X019728Y006501D02*
X019748D01*
X019728Y006499D02*
X019748D01*
X019728Y006496D02*
X019748D01*
X019728Y006494D02*
X019748D01*
X019728Y006491D02*
X019748D01*
X019728Y006489D02*
X019748D01*
X019728Y006486D02*
X019748D01*
X019728Y006484D02*
X019748D01*
X019728Y006481D02*
X019748D01*
X019728Y006479D02*
X019748D01*
X019728Y006476D02*
X019748D01*
X019728Y006474D02*
X019748D01*
X019636Y006479D02*
X019659D01*
X019639Y006476D02*
X019659D01*
X019636Y006481D02*
X019657D01*
X019641Y006474D02*
X019662D01*
X019781Y006547D02*
X019814D01*
X019784Y006545D02*
X019814D01*
X019799Y006529D02*
X019827D01*
X019801Y006527D02*
X019829D01*
X019804Y006524D02*
X019829D01*
X019804Y006522D02*
X019832D01*
X019786Y006542D02*
X019817D01*
X019789Y006540D02*
X019819D01*
X019791Y006537D02*
X019822D01*
X019794Y006535D02*
X019824D01*
X019796Y006532D02*
X019824D01*
X019728Y006471D02*
X019748D01*
X019641D02*
X019664D01*
X019954Y006390D02*
X019959D01*
X019954Y006387D02*
X019974D01*
X019951Y006385D02*
X019977D01*
X019951Y006382D02*
X019974D01*
X019951Y006380D02*
X019974D01*
X019951Y006377D02*
X019974D01*
X019951Y006374D02*
X019974D01*
X019949Y006372D02*
X019974D01*
X019949Y006369D02*
X019972D01*
X019959Y006367D02*
X019972D01*
X019969Y006364D02*
X019972D01*
X019956Y006430D02*
X019979D01*
X019956Y006428D02*
X019979D01*
X019956Y006425D02*
X019979D01*
X019956Y006423D02*
X019979D01*
X019956Y006420D02*
X019979D01*
X019956Y006418D02*
X019979D01*
X019956Y006415D02*
X019979D01*
X019956Y006413D02*
X019979D01*
X019956Y006410D02*
X019979D01*
X019956Y006461D02*
X019979D01*
X019956Y006458D02*
X019979D01*
X019956Y006456D02*
X019979D01*
X019956Y006453D02*
X019979D01*
X019954Y006466D02*
X019979D01*
X019956Y006463D02*
X019979D01*
X019954Y006468D02*
X019977D01*
X019931Y006547D02*
X019956D01*
X019933Y006545D02*
X019959D01*
X019933Y006542D02*
X019959D01*
X019936Y006540D02*
X019956D01*
X019936Y006537D02*
X019949D01*
X019939Y006535D02*
X019944D01*
X019961Y006519D02*
X019966D01*
X019954Y006517D02*
X019966D01*
X019944Y006514D02*
X019969D01*
X019946Y006512D02*
X019969D01*
X019946Y006509D02*
X019969D01*
X019946Y006507D02*
X019972D01*
X019949Y006504D02*
X019972D01*
X019949Y006501D02*
X019972D01*
X019949Y006499D02*
X019972D01*
X019949Y006496D02*
X019966D01*
X019951Y006494D02*
X019956D01*
X019972Y006476D02*
X019977D01*
X019954Y006474D02*
X019977D01*
X019954Y006471D02*
X019977D01*
X020091Y006354D02*
X020101D01*
X020081Y006377D02*
X020096D01*
X020081Y006374D02*
X020104D01*
X020081Y006372D02*
X020104D01*
X020081Y006369D02*
X020104D01*
X020078Y006367D02*
X020104D01*
X020078Y006364D02*
X020101D01*
X020078Y006362D02*
X020101D01*
X020078Y006359D02*
X020101D01*
X020078Y006357D02*
X020101D01*
X020086Y006420D02*
X020109D01*
X020083Y006418D02*
X020109D01*
X020083Y006415D02*
X020106D01*
X020083Y006413D02*
X020106D01*
X020083Y006410D02*
X020106D01*
X020083Y006408D02*
X020106D01*
X020083Y006405D02*
X020106D01*
X020083Y006402D02*
X020106D01*
X020083Y006400D02*
X020106D01*
X020086Y006446D02*
X020109D01*
X020086Y006443D02*
X020109D01*
X020086Y006463D02*
X020106D01*
X020083Y006458D02*
X020106D01*
X020083Y006456D02*
X020106D01*
X020083Y006453D02*
X020106D01*
X020083Y006451D02*
X020106D01*
X020083Y006448D02*
X020109D01*
X020083Y006461D02*
X020106D01*
X020073Y006547D02*
X020093D01*
X020068Y006545D02*
X020093D01*
X020088Y006507D02*
X020101D01*
X020071Y006542D02*
X020093D01*
X020071Y006540D02*
X020093D01*
X020071Y006537D02*
X020096D01*
X020073Y006535D02*
X020096D01*
X020073Y006532D02*
X020096D01*
X020073Y006529D02*
X020096D01*
X020073Y006527D02*
X020086D01*
X020078Y006504D02*
X020101D01*
X020078Y006501D02*
X020101D01*
X020078Y006499D02*
X020104D01*
X020081Y006496D02*
X020104D01*
X020081Y006494D02*
X020104D01*
X020081Y006491D02*
X020104D01*
X020081Y006489D02*
X020104D01*
X020081Y006486D02*
X020104D01*
X020081Y006484D02*
X020088D01*
X018874Y006750D02*
X018917D01*
X018879Y006748D02*
X018912D01*
X018887Y006745D02*
X018905D01*
X019324Y006644D02*
X019349D01*
X019321Y006641D02*
X019349D01*
X019298Y006593D02*
X019324D01*
X019298Y006590D02*
X019321D01*
X019296Y006588D02*
X019321D01*
X019314Y006623D02*
X019339D01*
X019311Y006621D02*
X019337D01*
X019311Y006618D02*
X019334D01*
X019309Y006616D02*
X019334D01*
X019309Y006613D02*
X019331D01*
X019306Y006611D02*
X019331D01*
X019306Y006608D02*
X019329D01*
X019304Y006606D02*
X019329D01*
X019304Y006603D02*
X019329D01*
X019301Y006601D02*
X019326D01*
X019301Y006598D02*
X019326D01*
X019301Y006595D02*
X019324D01*
X019321Y006639D02*
X019347D01*
X019319Y006636D02*
X019344D01*
X019319Y006634D02*
X019344D01*
X019316Y006631D02*
X019342D01*
X019316Y006629D02*
X019342D01*
X019314Y006626D02*
X019339D01*
X019324Y006646D02*
X019352D01*
X019296Y006585D02*
X019319D01*
X019296Y006583D02*
X019319D01*
X019293Y006580D02*
X019319D01*
X019293Y006578D02*
X019316D01*
X019291Y006575D02*
X019316D01*
X019291Y006573D02*
X019316D01*
X019291Y006570D02*
X019314D01*
X019288Y006568D02*
X019314D01*
X019288Y006565D02*
X019311D01*
X019288Y006562D02*
X019311D01*
X019286Y006560D02*
X019311D01*
X019286Y006557D02*
X019309D01*
X019286Y006555D02*
X019309D01*
X019337Y006664D02*
X019362D01*
X019334Y006662D02*
X019362D01*
X019334Y006659D02*
X019359D01*
X019331Y006656D02*
X019357D01*
X019329Y006654D02*
X019357D01*
X019329Y006651D02*
X019354D01*
X019326Y006649D02*
X019352D01*
X019342Y006672D02*
X019370D01*
X019339Y006669D02*
X019367D01*
X019337Y006667D02*
X019364D01*
X019387Y006705D02*
X019395D01*
X019390Y006702D02*
X019392D01*
X019359Y006697D02*
X019364D01*
X019357Y006695D02*
X019367D01*
X019357Y006692D02*
X019370D01*
X019354Y006689D02*
X019375D01*
X019352Y006687D02*
X019377D01*
X019349Y006684D02*
X019377D01*
X019349Y006682D02*
X019377D01*
X019347Y006679D02*
X019375D01*
X019390Y006730D02*
X019392D01*
X019387Y006728D02*
X019395D01*
X019344Y006677D02*
X019372D01*
X019420Y006733D02*
X019425D01*
X019377Y006717D02*
X019405D01*
X019377Y006715D02*
X019405D01*
X019380Y006712D02*
X019403D01*
X019382Y006710D02*
X019400D01*
X019385Y006707D02*
X019397D01*
X019385Y006725D02*
X019397D01*
X019382Y006722D02*
X019400D01*
X019380Y006720D02*
X019403D01*
X019344Y006674D02*
X019370D01*
X019512Y006664D02*
X019550D01*
X019507Y006662D02*
X019547D01*
X019504Y006659D02*
X019542D01*
X019502Y006656D02*
X019540D01*
X019499Y006654D02*
X019535D01*
X019497Y006651D02*
X019532D01*
X019494Y006649D02*
X019527D01*
X019491Y006646D02*
X019524D01*
X019522Y006672D02*
X019565D01*
X019517Y006669D02*
X019560D01*
X019514Y006667D02*
X019555D01*
X019486Y006644D02*
X019522D01*
X019484Y006641D02*
X019519D01*
X019443Y006590D02*
X019471D01*
X019446Y006593D02*
X019474D01*
X019443Y006588D02*
X019469D01*
X019441Y006585D02*
X019466D01*
X019438Y006583D02*
X019466D01*
X019438Y006580D02*
X019464D01*
X019436Y006578D02*
X019464D01*
X019436Y006575D02*
X019461D01*
X019433Y006573D02*
X019458D01*
X019433Y006570D02*
X019458D01*
X019481Y006639D02*
X019514D01*
X019479Y006636D02*
X019512D01*
X019479Y006634D02*
X019509D01*
X019476Y006631D02*
X019507D01*
X019456Y006608D02*
X019484D01*
X019453Y006606D02*
X019481D01*
X019453Y006603D02*
X019481D01*
X019451Y006601D02*
X019479D01*
X019448Y006598D02*
X019476D01*
X019448Y006595D02*
X019474D01*
Y006629D02*
X019504D01*
X019471Y006626D02*
X019502D01*
X019469Y006623D02*
X019499D01*
X019466Y006621D02*
X019497D01*
X019464Y006618D02*
X019494D01*
X019461Y006616D02*
X019491D01*
X019461Y006613D02*
X019489D01*
X019458Y006611D02*
X019486D01*
X019545Y006687D02*
X019598D01*
X019540Y006684D02*
X019593D01*
X019537Y006682D02*
X019585D01*
X019532Y006679D02*
X019580D01*
X019530Y006677D02*
X019575D01*
X019583Y006565D02*
X019626D01*
X019580Y006562D02*
X019621D01*
X019578Y006560D02*
X019616D01*
X019575Y006557D02*
X019611D01*
X019573Y006555D02*
X019608D01*
X019560Y006695D02*
X019624D01*
X019555Y006692D02*
X019616D01*
X019550Y006689D02*
X019608D01*
X019524Y006674D02*
X019570D01*
X019641Y006595D02*
X019735D01*
X019712Y006578D02*
X019776D01*
X019725Y006575D02*
X019781D01*
X019664Y006601D02*
X019712D01*
X019651Y006598D02*
X019725D01*
X019733Y006573D02*
X019784D01*
X019740Y006570D02*
X019789D01*
X019748Y006568D02*
X019791D01*
X019753Y006565D02*
X019794D01*
X019758Y006562D02*
X019796D01*
X019763Y006560D02*
X019799D01*
X019636Y006720D02*
X019743D01*
X019702Y006702D02*
X019801D01*
X019651Y006722D02*
X019728D01*
X019824Y006689D02*
X019827D01*
X019824Y006687D02*
X019832D01*
X019766Y006557D02*
X019804D01*
X019771Y006555D02*
X019806D01*
X019728Y006700D02*
X019806D01*
X019743Y006697D02*
X019814D01*
X019753Y006695D02*
X019812D01*
X019763Y006692D02*
X019812D01*
X019771Y006689D02*
X019809D01*
X019778Y006687D02*
X019809D01*
X019786Y006684D02*
X019806D01*
X019791Y006682D02*
X019806D01*
X019799Y006679D02*
X019804D01*
X019916Y006593D02*
X019933D01*
X019911Y006590D02*
X019933D01*
X019908Y006588D02*
X019936D01*
X019911Y006585D02*
X019936D01*
X019911Y006583D02*
X019939D01*
X019913Y006580D02*
X019936D01*
X019916Y006578D02*
X019933D01*
Y006555D02*
X019954D01*
X019918Y006595D02*
X019931D01*
X019855Y006644D02*
X019875D01*
X019860Y006641D02*
X019872D01*
X019916Y006575D02*
X019928D01*
X019918Y006573D02*
X019923D01*
X019926Y006601D02*
X019928D01*
X019921Y006598D02*
X019928D01*
X019895Y006634D02*
X019900D01*
X019893Y006631D02*
X019903D01*
X019890Y006629D02*
X019905D01*
X019888Y006626D02*
X019908D01*
X019885Y006623D02*
X019908D01*
X019883Y006621D02*
X019911D01*
X019883Y006618D02*
X019913D01*
X019885Y006616D02*
X019911D01*
X019888Y006613D02*
X019908D01*
X019890Y006611D02*
X019903D01*
X019893Y006608D02*
X019900D01*
X019895Y006606D02*
X019898D01*
X019862Y006639D02*
X019870D01*
X019865Y006636D02*
X019870D01*
X019852Y006646D02*
X019878D01*
X019852Y006651D02*
X019883D01*
X019852Y006649D02*
X019880D01*
X019862Y006664D02*
X019867D01*
X019860Y006662D02*
X019870D01*
X019860Y006659D02*
X019872D01*
X019857Y006656D02*
X019875D01*
X019855Y006654D02*
X019878D01*
X019949Y006562D02*
X019951D01*
X019944Y006560D02*
X019951D01*
X019939Y006557D02*
X019951D01*
X020025Y006644D02*
X020030D01*
X020022Y006646D02*
X020035D01*
X020032Y006672D02*
X020035D01*
X020027Y006669D02*
X020035D01*
X019928Y006750D02*
X019956D01*
X019931Y006748D02*
X019954D01*
X019933Y006745D02*
X019951D01*
X019939Y006743D02*
X019949D01*
X019941Y006740D02*
X019949D01*
X019944Y006738D02*
X019946D01*
X019974D02*
X019977D01*
X019972Y006735D02*
X019979D01*
X019969Y006733D02*
X019982D01*
X019966Y006730D02*
X019984D01*
X019964Y006728D02*
X019987D01*
X019961Y006725D02*
X019989D01*
X019961Y006722D02*
X019989D01*
X019964Y006720D02*
X019987D01*
X019966Y006717D02*
X019984D01*
X019969Y006715D02*
X019982D01*
X019972Y006712D02*
X019979D01*
X019974Y006710D02*
X019977D01*
X020002Y006677D02*
X020005D01*
X020002Y006705D02*
X020010D01*
X019999Y006702D02*
X020010D01*
X019997Y006700D02*
X020012D01*
X019994Y006697D02*
X020015D01*
X019989Y006695D02*
X020017D01*
X019989Y006692D02*
X020020D01*
X019992Y006689D02*
X020020D01*
X019994Y006687D02*
X020017D01*
X019997Y006684D02*
X020015D01*
X019997Y006682D02*
X020010D01*
X019999Y006679D02*
X020007D01*
X020005Y006707D02*
X020007D01*
X020066Y006590D02*
X020078D01*
X020073Y006593D02*
X020076D01*
X020055Y006585D02*
X020081D01*
X020055Y006583D02*
X020081D01*
X020043Y006613D02*
X020066D01*
X020055Y006634D02*
X020058D01*
X020050Y006631D02*
X020058D01*
X020045Y006629D02*
X020060D01*
X020043Y006611D02*
X020060D01*
X020045Y006608D02*
X020055D01*
X020060Y006588D02*
X020078D01*
X020058Y006580D02*
X020081D01*
X020060Y006570D02*
X020078D01*
X020063Y006568D02*
X020071D01*
X020060Y006573D02*
X020083D01*
X020058Y006578D02*
X020083D01*
X020058Y006575D02*
X020083D01*
X020045Y006606D02*
X020050D01*
X018912Y006796D02*
X018956D01*
X018912Y006794D02*
X018956D01*
X018912Y006778D02*
X018956D01*
X018912Y006776D02*
X018956D01*
X018910Y006773D02*
X018935D01*
X018907Y006771D02*
X018935D01*
X018902Y006768D02*
X018933D01*
X018912Y006791D02*
X018956D01*
X018915Y006789D02*
X018956D01*
X018915Y006786D02*
X018956D01*
X018915Y006783D02*
X018956D01*
X018915Y006781D02*
X018956D01*
X018864Y006758D02*
X018925D01*
X018859Y006766D02*
X018933D01*
X018862Y006763D02*
X018930D01*
X018864Y006761D02*
X018928D01*
X018874Y006822D02*
X018915D01*
X018872Y006819D02*
X018920D01*
X018869Y006816D02*
X018923D01*
X018867Y006814D02*
X018925D01*
X018900Y006804D02*
X018933D01*
X018907Y006801D02*
X018933D01*
X018910Y006799D02*
X018935D01*
X018864Y006811D02*
X018928D01*
X018862Y006809D02*
X018930D01*
X018859Y006806D02*
X018930D01*
X018856Y006796D02*
X018879D01*
X018854Y006794D02*
X018879D01*
X018854Y006791D02*
X018877D01*
X018854Y006789D02*
X018877D01*
X018854Y006786D02*
X018877D01*
X018854Y006783D02*
X018877D01*
X018854Y006781D02*
X018877D01*
X018854Y006778D02*
X018877D01*
X018856Y006776D02*
X018879D01*
X018856Y006773D02*
X018882D01*
X018856Y006771D02*
X018884D01*
X018859Y006768D02*
X018889D01*
X018892Y006827D02*
X018900D01*
X018879Y006824D02*
X018910D01*
X018859Y006804D02*
X018889D01*
X018856Y006801D02*
X018884D01*
X018856Y006799D02*
X018882D01*
X018976Y006796D02*
X018999D01*
X018976Y006794D02*
X018999D01*
X018976Y006781D02*
X018999D01*
X018976Y006778D02*
X018999D01*
X018976Y006776D02*
X018999D01*
X018976Y006791D02*
X018999D01*
X018976Y006789D02*
X018999D01*
X018976Y006786D02*
X018999D01*
X018976Y006783D02*
X018999D01*
X019105Y006796D02*
X019128D01*
X019105Y006794D02*
X019128D01*
X019105Y006791D02*
X019128D01*
X019105Y006789D02*
X019128D01*
X019105Y006786D02*
X019128D01*
X019105Y006783D02*
X019128D01*
X019105Y006781D02*
X019128D01*
X019105Y006778D02*
X019128D01*
X019105Y006776D02*
X019128D01*
X019062Y006796D02*
X019085D01*
X019062Y006794D02*
X019085D01*
X019062Y006791D02*
X019085D01*
X019062Y006789D02*
X019085D01*
X019062Y006786D02*
X019085D01*
X019062Y006783D02*
X019085D01*
X019062Y006781D02*
X019085D01*
X019062Y006778D02*
X019085D01*
X019062Y006776D02*
X019085D01*
X019146Y006796D02*
X019169D01*
X019146Y006794D02*
X019169D01*
X019146Y006791D02*
X019169D01*
X019146Y006789D02*
X019169D01*
X019146Y006786D02*
X019169D01*
X019146Y006783D02*
X019169D01*
X019146Y006781D02*
X019169D01*
X019146Y006778D02*
X019169D01*
X019146Y006776D02*
X019169D01*
X019189Y006794D02*
X019212D01*
X019189Y006796D02*
X019212D01*
X019189Y006791D02*
X019212D01*
X019189Y006789D02*
X019212D01*
X019189Y006786D02*
X019212D01*
X019189Y006783D02*
X019212D01*
X019189Y006781D02*
X019212D01*
X019189Y006778D02*
X019212D01*
X019189Y006776D02*
X019212D01*
X019319Y006794D02*
X019339D01*
X019319Y006796D02*
X019339D01*
X019319Y006791D02*
X019339D01*
X019319Y006789D02*
X019339D01*
X019319Y006786D02*
X019339D01*
X019319Y006783D02*
X019339D01*
X019319Y006781D02*
X019339D01*
X019319Y006778D02*
X019339D01*
X019319Y006776D02*
X019339D01*
X019232Y006796D02*
X019255D01*
X019232Y006794D02*
X019255D01*
X019276D02*
X019298D01*
X019276Y006796D02*
X019298D01*
X019232Y006791D02*
X019255D01*
X019232Y006789D02*
X019255D01*
X019232Y006786D02*
X019255D01*
X019232Y006783D02*
X019255D01*
X019232Y006781D02*
X019255D01*
X019232Y006778D02*
X019255D01*
X019232Y006776D02*
X019255D01*
X019276Y006791D02*
X019298D01*
X019276Y006789D02*
X019298D01*
X019276Y006786D02*
X019298D01*
X019276Y006783D02*
X019298D01*
X019276Y006781D02*
X019298D01*
X019276Y006778D02*
X019298D01*
X019276Y006776D02*
X019298D01*
X019359Y006794D02*
X019382D01*
X019359Y006796D02*
X019382D01*
X019359Y006791D02*
X019382D01*
X019359Y006789D02*
X019382D01*
X019359Y006786D02*
X019382D01*
X019359Y006783D02*
X019382D01*
X019359Y006781D02*
X019382D01*
X019359Y006778D02*
X019382D01*
X019359Y006776D02*
X019382D01*
X019403Y006796D02*
X019425D01*
X019403Y006794D02*
X019425D01*
X019403Y006791D02*
X019425D01*
X019403Y006789D02*
X019425D01*
X019403Y006786D02*
X019425D01*
X019403Y006783D02*
X019425D01*
X019403Y006781D02*
X019425D01*
X019403Y006778D02*
X019425D01*
X019403Y006776D02*
X019425D01*
X019423Y006761D02*
X019425D01*
X019524Y006822D02*
X019542D01*
X019527Y006799D02*
X019530D01*
X019519Y006819D02*
X019545D01*
X019519Y006816D02*
X019545D01*
X019522Y006814D02*
X019545D01*
X019522Y006811D02*
X019547D01*
X019522Y006809D02*
X019547D01*
X019524Y006806D02*
X019547D01*
X019524Y006804D02*
X019542D01*
X019527Y006801D02*
X019535D01*
X019481Y006796D02*
X019507D01*
X019481Y006794D02*
X019507D01*
X019446Y006778D02*
X019466D01*
X019443Y006776D02*
X019469D01*
X019443Y006773D02*
X019471D01*
X019446Y006771D02*
X019471D01*
X019446Y006768D02*
X019471D01*
X019484Y006791D02*
X019509D01*
X019484Y006789D02*
X019507D01*
X019486Y006786D02*
X019502D01*
X019489Y006783D02*
X019497D01*
X019489Y006781D02*
X019494D01*
X019453Y006783D02*
X019464D01*
X019451Y006781D02*
X019466D01*
X019448Y006766D02*
X019469D01*
X019451Y006763D02*
X019464D01*
X019451Y006761D02*
X019461D01*
X019453Y006758D02*
X019456D01*
X019458Y006786D02*
X019461D01*
X019497Y006809D02*
X019499D01*
X019491Y006806D02*
X019502D01*
X019486Y006804D02*
X019502D01*
X019481Y006801D02*
X019504D01*
X019479Y006799D02*
X019504D01*
X019575Y006839D02*
X019583D01*
X019568Y006837D02*
X019585D01*
X019560Y006834D02*
X019585D01*
X019563Y006832D02*
X019585D01*
X019563Y006829D02*
X019585D01*
X019537Y006827D02*
X019540D01*
X019563D02*
X019588D01*
X019530Y006824D02*
X019542D01*
X019563D02*
X019588D01*
X019565Y006822D02*
X019588D01*
X019565Y006819D02*
X019588D01*
X019565Y006816D02*
X019578D01*
X019568Y006814D02*
X019570D01*
X019598Y006822D02*
X019624D01*
X019598Y006819D02*
X019624D01*
X019601Y006816D02*
X019626D01*
X019601Y006814D02*
X019626D01*
X019603Y006811D02*
X019629D01*
X019596Y006844D02*
X019618D01*
X019596Y006842D02*
X019618D01*
X019596Y006839D02*
X019618D01*
X019596Y006837D02*
X019618D01*
X019596Y006834D02*
X019618D01*
X019596Y006832D02*
X019618D01*
X019596Y006829D02*
X019618D01*
X019598Y006827D02*
X019621D01*
X019598Y006824D02*
X019621D01*
X019705Y006844D02*
X019728D01*
X019705Y006842D02*
X019728D01*
X019705Y006839D02*
X019728D01*
X019705Y006837D02*
X019728D01*
X019705Y006834D02*
X019728D01*
X019705Y006832D02*
X019728D01*
X019735Y006844D02*
X019758D01*
X019639Y006778D02*
X019685D01*
X019646Y006776D02*
X019677D01*
X019702Y006829D02*
X019725D01*
X019702Y006827D02*
X019725D01*
X019702Y006824D02*
X019725D01*
X019700Y006822D02*
X019725D01*
X019700Y006819D02*
X019723D01*
X019697Y006816D02*
X019723D01*
X019697Y006814D02*
X019723D01*
X019695Y006811D02*
X019720D01*
X019692Y006809D02*
X019720D01*
X019690Y006806D02*
X019718D01*
X019685Y006804D02*
X019715D01*
X019682Y006801D02*
X019715D01*
X019674Y006799D02*
X019712D01*
X019735Y006842D02*
X019758D01*
X019781D02*
X019789D01*
X019735Y006839D02*
X019758D01*
X019778D02*
X019799D01*
X019735Y006837D02*
X019758D01*
X019735Y006834D02*
X019758D01*
X019778D02*
X019801D01*
X019735Y006832D02*
X019758D01*
X019778D02*
X019801D01*
X019733Y006829D02*
X019756D01*
X019778D02*
X019801D01*
X019748Y006827D02*
X019756D01*
X019776D02*
X019801D01*
X019776Y006824D02*
X019799D01*
X019776Y006822D02*
X019799D01*
X019786Y006819D02*
X019799D01*
X019822Y006829D02*
X019832D01*
X019778Y006837D02*
X019804D01*
X019933Y006758D02*
X019954D01*
X019903Y006794D02*
X019905D01*
X019857Y006796D02*
X019883D01*
X019857Y006794D02*
X019880D01*
X019903Y006791D02*
X019908D01*
X019900Y006789D02*
X019913D01*
X019900Y006786D02*
X019916D01*
X019898Y006783D02*
X019921D01*
X019895Y006781D02*
X019923D01*
X019895Y006778D02*
X019921D01*
X019893Y006776D02*
X019921D01*
X019895Y006773D02*
X019918D01*
X019898Y006771D02*
X019916D01*
X019903Y006768D02*
X019916D01*
X019905Y006766D02*
X019913D01*
X019862Y006791D02*
X019878D01*
X019867Y006789D02*
X019878D01*
X019872Y006786D02*
X019875D01*
X019862Y006811D02*
X019872D01*
X019862Y006809D02*
X019878D01*
X019865Y006814D02*
X019867D01*
X019860Y006806D02*
X019883D01*
X019860Y006804D02*
X019885D01*
X019857Y006801D02*
X019885D01*
X019857Y006799D02*
X019883D01*
X019939Y006766D02*
X019946D01*
X019936Y006763D02*
X019949D01*
X019936Y006761D02*
X019951D01*
X019420Y006110D02*
X019456D01*
X019423Y006108D02*
X019461D01*
X019408Y006121D02*
X019443D01*
X019410Y006118D02*
X019446D01*
X019415Y006115D02*
X019451D01*
X019418Y006113D02*
X019453D01*
X019403Y006126D02*
X019436D01*
X019405Y006123D02*
X019441D01*
X019425Y006105D02*
X019464D01*
X019431Y006103D02*
X019469D01*
X019550Y006037D02*
X019662D01*
X019542Y006039D02*
X019636D01*
X019395Y006133D02*
X019428D01*
X019397Y006131D02*
X019431D01*
X019400Y006128D02*
X019433D01*
X019812Y006054D02*
X019867D01*
X019824Y006060D02*
X019878D01*
X019819Y006057D02*
X019872D01*
X019832Y006062D02*
X019883D01*
X019801Y006052D02*
X019862D01*
X019794Y006049D02*
X019857D01*
X019781Y006047D02*
X019852D01*
X019771Y006044D02*
X019845D01*
X019758Y006042D02*
X019839D01*
X018788Y006291D02*
X018836D01*
X018788Y006288D02*
X018836D01*
X018788Y006286D02*
X018836D01*
X019011Y006199D02*
X019062D01*
X019014Y006197D02*
X019060D01*
X019001Y006212D02*
X019075D01*
X019001Y006209D02*
X019072D01*
X019004Y006207D02*
X019070D01*
X019006Y006204D02*
X019067D01*
X019009Y006202D02*
X019067D01*
X018996Y006222D02*
X019022D01*
X018999Y006220D02*
X019022D01*
X018999Y006217D02*
X019024D01*
X018999Y006214D02*
X019029D01*
X019014Y006265D02*
X019060D01*
X019011Y006263D02*
X019065D01*
X019009Y006260D02*
X019067D01*
X019006Y006258D02*
X019070D01*
X019004Y006255D02*
X019070D01*
X019001Y006253D02*
X019072D01*
X019001Y006250D02*
X019075D01*
X018999Y006247D02*
X019027D01*
X018999Y006245D02*
X019024D01*
X018999Y006242D02*
X019022D01*
X018996Y006240D02*
X019022D01*
X019019Y006194D02*
X019055D01*
X019626Y006166D02*
X019649D01*
X019626Y006164D02*
X019649D01*
X019626Y006161D02*
X019649D01*
X019626Y006159D02*
X019649D01*
X019624Y006156D02*
X019649D01*
X019624Y006154D02*
X019649D01*
X019624Y006151D02*
X019649D01*
X019629Y006169D02*
X019651D01*
X019634Y006148D02*
X019646D01*
X019629Y006171D02*
X019636D01*
X019024Y006270D02*
X019050D01*
X019413Y006344D02*
X019436D01*
X019413Y006341D02*
X019438D01*
X019418Y006329D02*
X019443D01*
X019420Y006326D02*
X019443D01*
X019420Y006324D02*
X019446D01*
X019420Y006321D02*
X019446D01*
X019423Y006319D02*
X019448D01*
X019423Y006316D02*
X019448D01*
X019415Y006339D02*
X019438D01*
X019415Y006336D02*
X019441D01*
X019415Y006334D02*
X019441D01*
X019418Y006331D02*
X019441D01*
X019431Y006303D02*
X019456D01*
X019431Y006301D02*
X019456D01*
X019425Y006314D02*
X019451D01*
X019425Y006311D02*
X019451D01*
X019428Y006308D02*
X019453D01*
X019428Y006306D02*
X019453D01*
X019603Y006291D02*
X019667D01*
X019598Y006293D02*
X019654D01*
X019588Y006301D02*
X019631D01*
X019591Y006298D02*
X019636D01*
X019593Y006296D02*
X019644D01*
X019055Y006237D02*
X019342D01*
X019055Y006235D02*
X019344D01*
X019057Y006232D02*
X019344D01*
X019057Y006230D02*
X019347D01*
X019055Y006227D02*
X019349D01*
X019055Y006225D02*
X019349D01*
X019055Y006222D02*
X019352D01*
X019052Y006242D02*
X019339D01*
X019055Y006240D02*
X019342D01*
X019019Y006268D02*
X019057D01*
X019829Y006204D02*
X019857D01*
X019837Y006192D02*
X019850D01*
X019834Y006209D02*
X019852D01*
X019832Y006207D02*
X019855D01*
X019832Y006202D02*
X019860D01*
X019832Y006199D02*
X019860D01*
X019834Y006197D02*
X019857D01*
X019837Y006194D02*
X019855D01*
X020017Y006212D02*
X020040D01*
X020015Y006209D02*
X020043D01*
X020015Y006207D02*
X020040D01*
X020012Y006204D02*
X020040D01*
X020038Y006237D02*
X020060D01*
X020040Y006235D02*
X020058D01*
X020038Y006247D02*
X020066D01*
X020040Y006253D02*
X020055D01*
X020040Y006250D02*
X020060D01*
X020038Y006245D02*
X020063D01*
X020035Y006242D02*
X020063D01*
X020035Y006240D02*
X020060D01*
X020010Y006202D02*
X020038D01*
X020010Y006199D02*
X020038D01*
X018712Y006390D02*
X018915D01*
X018712Y006387D02*
X018915D01*
X018712Y006385D02*
X018915D01*
X018712Y006382D02*
X018915D01*
X019016Y006415D02*
X019042D01*
X019014Y006413D02*
X019039D01*
X019006Y006410D02*
X019037D01*
X019024Y006420D02*
X019044D01*
X019022Y006418D02*
X019044D01*
X019222Y006441D02*
X019240D01*
X019222Y006438D02*
X019240D01*
X019222Y006435D02*
X019240D01*
X019222Y006433D02*
X019240D01*
X019222Y006420D02*
X019258D01*
X019222Y006418D02*
X019255D01*
X019222Y006415D02*
X019253D01*
X019222Y006413D02*
X019253D01*
X019222Y006405D02*
X019245D01*
X019222Y006402D02*
X019243D01*
X019222Y006400D02*
X019240D01*
X019222Y006430D02*
X019240D01*
X019222Y006428D02*
X019240D01*
X019222Y006425D02*
X019240D01*
X019222Y006423D02*
X019240D01*
X019222Y006410D02*
X019250D01*
X019222Y006408D02*
X019248D01*
X019222Y006397D02*
X019237D01*
X019222Y006395D02*
X019235D01*
X019222Y006451D02*
X019240D01*
X019222Y006448D02*
X019240D01*
X019222Y006446D02*
X019240D01*
X019222Y006443D02*
X019240D01*
X019222Y006461D02*
X019240D01*
X019222Y006458D02*
X019240D01*
X019222Y006456D02*
X019240D01*
X019222Y006453D02*
X019240D01*
X019222Y006468D02*
X019240D01*
X019222Y006466D02*
X019240D01*
X019222Y006463D02*
X019240D01*
X019405Y006369D02*
X019428D01*
X019405Y006367D02*
X019431D01*
X019408Y006364D02*
X019431D01*
X019408Y006362D02*
X019431D01*
X019408Y006359D02*
X019431D01*
X019410Y006357D02*
X019433D01*
X019410Y006354D02*
X019433D01*
X019410Y006352D02*
X019433D01*
X019428Y006410D02*
X019458D01*
X019626Y006352D02*
X019646D01*
X019634Y006364D02*
X019657D01*
X019631Y006362D02*
X019654D01*
X019631Y006359D02*
X019651D01*
X019629Y006357D02*
X019651D01*
X019629Y006354D02*
X019649D01*
X019009Y006489D02*
X019037D01*
X019014Y006486D02*
X019039D01*
X019019Y006484D02*
X019042D01*
X019022Y006481D02*
X019044D01*
X019024Y006479D02*
X019044D01*
X019222Y006507D02*
X019240D01*
X019222Y006504D02*
X019240D01*
X019222Y006501D02*
X019240D01*
X019222Y006499D02*
X019240D01*
X019222Y006496D02*
X019240D01*
X019222Y006494D02*
X019240D01*
X019222Y006491D02*
X019240D01*
X019222Y006489D02*
X019240D01*
X019222Y006486D02*
X019240D01*
X019222Y006484D02*
X019240D01*
X019222Y006481D02*
X019240D01*
X019222Y006479D02*
X019240D01*
X019222Y006476D02*
X019240D01*
X019222Y006474D02*
X019240D01*
X019420Y006547D02*
X019446D01*
X019420Y006545D02*
X019446D01*
X019420Y006542D02*
X019443D01*
X019418Y006540D02*
X019443D01*
X019418Y006537D02*
X019441D01*
X019415Y006535D02*
X019441D01*
X019415Y006532D02*
X019438D01*
X019431Y006489D02*
X019458D01*
X019624Y006499D02*
X019646D01*
X019626Y006496D02*
X019646D01*
X019626Y006494D02*
X019649D01*
X019618Y006507D02*
X019641D01*
X019621Y006504D02*
X019641D01*
X019624Y006501D02*
X019644D01*
X019629Y006491D02*
X019651D01*
X019631Y006489D02*
X019651D01*
X019631Y006486D02*
X019654D01*
X019634Y006484D02*
X019654D01*
X018953Y006408D02*
X019034D01*
X018956Y006405D02*
X019032D01*
X018958Y006402D02*
X019029D01*
X018963Y006400D02*
X019024D01*
X018966Y006397D02*
X019022D01*
X019375Y006408D02*
X019456D01*
X019377Y006405D02*
X019453D01*
X019380Y006402D02*
X019451D01*
X019382Y006400D02*
X019446D01*
X019387Y006397D02*
X019441D01*
X019392Y006395D02*
X019436D01*
X019400Y006392D02*
X019428D01*
X018966Y006501D02*
X019022D01*
X018961Y006499D02*
X019027D01*
X018958Y006496D02*
X019029D01*
X018956Y006494D02*
X019032D01*
X018953Y006491D02*
X019034D01*
X019375D02*
X019456D01*
X019387Y006501D02*
X019443D01*
X019382Y006499D02*
X019448D01*
X019380Y006496D02*
X019451D01*
X019377Y006494D02*
X019453D01*
X019400Y006507D02*
X019431D01*
X019392Y006504D02*
X019438D01*
X019222Y006471D02*
X019240D01*
X019827Y006390D02*
X019850D01*
X019827Y006387D02*
X019850D01*
X019827Y006385D02*
X019850D01*
X019824Y006382D02*
X019850D01*
X019829Y006400D02*
X019852D01*
X019829Y006397D02*
X019852D01*
X019829Y006395D02*
X019852D01*
X019829Y006392D02*
X019852D01*
X019822Y006377D02*
X019847D01*
X019822Y006374D02*
X019845D01*
X019819Y006372D02*
X019845D01*
X019819Y006369D02*
X019845D01*
X019819Y006367D02*
X019842D01*
X019817Y006364D02*
X019842D01*
X019814Y006362D02*
X019839D01*
X019814Y006359D02*
X019839D01*
X019812Y006357D02*
X019837D01*
X019812Y006354D02*
X019837D01*
X019809Y006352D02*
X019834D01*
X019824Y006380D02*
X019847D01*
X019829Y006468D02*
X019852D01*
X019834Y006441D02*
X019857D01*
X019834Y006438D02*
X019857D01*
X019834Y006435D02*
X019857D01*
X019834Y006433D02*
X019857D01*
X019834Y006430D02*
X019857D01*
X019834Y006428D02*
X019857D01*
X019834Y006425D02*
X019857D01*
X019834Y006423D02*
X019857D01*
X019834Y006420D02*
X019857D01*
X019834Y006418D02*
X019855D01*
X019832Y006415D02*
X019855D01*
X019832Y006413D02*
X019855D01*
X019832Y006410D02*
X019855D01*
X019832Y006408D02*
X019855D01*
X019832Y006405D02*
X019855D01*
X019832Y006402D02*
X019855D01*
X019834Y006448D02*
X019857D01*
X019834Y006446D02*
X019857D01*
X019834Y006443D02*
X019857D01*
X019832Y006461D02*
X019855D01*
X019832Y006458D02*
X019855D01*
X019832Y006456D02*
X019855D01*
X019832Y006453D02*
X019855D01*
X019834Y006451D02*
X019857D01*
X019832Y006466D02*
X019855D01*
X019832Y006463D02*
X019855D01*
X019824Y006486D02*
X019850D01*
X019827Y006484D02*
X019850D01*
X019827Y006481D02*
X019850D01*
X019827Y006479D02*
X019850D01*
X019829Y006476D02*
X019852D01*
X019829Y006474D02*
X019852D01*
X019809Y006517D02*
X019834D01*
X019812Y006514D02*
X019837D01*
X019812Y006512D02*
X019837D01*
X019814Y006509D02*
X019839D01*
X019814Y006507D02*
X019839D01*
X019817Y006504D02*
X019842D01*
X019817Y006501D02*
X019842D01*
X019819Y006499D02*
X019845D01*
X019819Y006496D02*
X019845D01*
X019822Y006494D02*
X019845D01*
X019822Y006491D02*
X019847D01*
X019824Y006489D02*
X019847D01*
X019806Y006519D02*
X019834D01*
X019829Y006471D02*
X019852D01*
X019431Y006568D02*
X019456D01*
X019431Y006565D02*
X019456D01*
X019428Y006562D02*
X019453D01*
X019428Y006560D02*
X019451D01*
X019425Y006557D02*
X019451D01*
X019425Y006555D02*
X019448D01*
X019410Y006750D02*
X019433D01*
X019408Y006748D02*
X019436D01*
X019408Y006745D02*
X019438D01*
X019410Y006743D02*
X019436D01*
X019413Y006740D02*
X019433D01*
X019415Y006738D02*
X019431D01*
X019418Y006735D02*
X019428D01*
X019601Y006578D02*
X019664D01*
X019598Y006575D02*
X019651D01*
X019593Y006573D02*
X019644D01*
X019591Y006570D02*
X019636D01*
X019588Y006568D02*
X019631D01*
X019570Y006700D02*
X019651D01*
X019575Y006702D02*
X019687D01*
X019565Y006697D02*
X019636D01*
X019827Y006664D02*
X019837D01*
X019829Y006662D02*
X019834D01*
X019817Y006672D02*
X019842D01*
X019817Y006669D02*
X019839D01*
X019822Y006667D02*
X019839D01*
X020020Y006664D02*
X020040D01*
X020017Y006662D02*
X020040D01*
X020015Y006659D02*
X020043D01*
X020017Y006656D02*
X020043D01*
X020017Y006654D02*
X020045D01*
X020020Y006651D02*
X020043D01*
X020022Y006649D02*
X020040D01*
X020025Y006667D02*
X020038D01*
X020040Y006618D02*
X020066D01*
X020040Y006616D02*
X020066D01*
X020040Y006626D02*
X020060D01*
X020038Y006623D02*
X020063D01*
X020038Y006621D02*
X020063D01*
X019822Y006684D02*
X019837D01*
X019822Y006682D02*
X019839D01*
X019819Y006679D02*
X019845D01*
X019819Y006677D02*
X019845D01*
X019817Y006674D02*
X019845D01*
X019019Y006796D02*
X019042D01*
X019019Y006794D02*
X019042D01*
X019019Y006781D02*
X019042D01*
X019019Y006778D02*
X019042D01*
X019019Y006776D02*
X019042D01*
X019019Y006791D02*
X019042D01*
X019019Y006789D02*
X019042D01*
X019019Y006786D02*
X019042D01*
X019019Y006783D02*
X019042D01*
X019420Y006758D02*
X019428D01*
X019613Y006796D02*
X019710D01*
X019616Y006794D02*
X019707D01*
X019618Y006791D02*
X019705D01*
X019621Y006789D02*
X019702D01*
X019624Y006786D02*
X019700D01*
X019611Y006799D02*
X019649D01*
X019606Y006806D02*
X019634D01*
X019606Y006804D02*
X019639D01*
X019608Y006801D02*
X019641D01*
X019629Y006783D02*
X019695D01*
X019631Y006781D02*
X019690D01*
X019603Y006809D02*
X019631D01*
X019822Y006827D02*
X019837D01*
X019822Y006824D02*
X019845D01*
X019819Y006822D02*
X019845D01*
X019819Y006819D02*
X019845D01*
X019819Y006816D02*
X019842D01*
X019817Y006814D02*
X019842D01*
X019817Y006811D02*
X019839D01*
X019819Y006809D02*
X019839D01*
X019827Y006806D02*
X019839D01*
X019834Y006804D02*
X019837D01*
X019606Y006021D02*
X019771D01*
X019621Y006019D02*
X019758D01*
X019558Y006034D02*
X019819D01*
X019565Y006032D02*
X019812D01*
X019583Y006027D02*
X019794D01*
X019593Y006024D02*
X019784D01*
X019575Y006029D02*
X019801D01*
X018770Y006095D02*
X019479D01*
X018770Y006093D02*
X019484D01*
X018773Y006090D02*
X019489D01*
X018773Y006087D02*
X019491D01*
X018773Y006085D02*
X019497D01*
X018773Y006082D02*
X019502D01*
X018773Y006080D02*
X019507D01*
X018770Y006077D02*
X019512D01*
X018770Y006075D02*
X019517D01*
X019606Y006288D02*
X019771D01*
X019611Y006286D02*
X019766D01*
X019616Y006283D02*
X019761D01*
X019621Y006281D02*
X019756D01*
X019626Y006278D02*
X019751D01*
X019634Y006275D02*
X019743D01*
X019626Y006590D02*
X019751D01*
X019621Y006588D02*
X019756D01*
X019616Y006585D02*
X019763D01*
X019611Y006583D02*
X019768D01*
X019606Y006580D02*
X019771D01*
X019634Y006593D02*
X019743D01*
X019624Y006717D02*
X019756D01*
X019613Y006715D02*
X019766D01*
X019603Y006712D02*
X019773D01*
X019596Y006710D02*
X019781D01*
X019588Y006707D02*
X019789D01*
X019583Y006705D02*
X019796D01*
X019382Y006146D02*
X019413D01*
X019385Y006143D02*
X019415D01*
X019712Y006146D02*
X019728D01*
X019682Y006143D02*
X019692D01*
X019669Y006146D02*
X019692D01*
X019964D02*
X019992D01*
X019961Y006143D02*
X019989D01*
X018752Y006349D02*
X018762D01*
X018750Y006347D02*
X018760D01*
X018907Y006349D02*
X018915D01*
X018907Y006347D02*
X018915D01*
X018826Y006349D02*
X018836D01*
X018826Y006347D02*
X018836D01*
X018859Y006349D02*
X018869D01*
X018859Y006347D02*
X018869D01*
X018867Y006756D02*
X018923D01*
X018872Y006753D02*
X018920D01*
X019276Y006349D02*
X019298D01*
X019278Y006347D02*
X019301D01*
X019286Y006552D02*
X019309D01*
X019283Y006550D02*
X019306D01*
X019545Y006347D02*
X019573D01*
X019545Y006349D02*
X019570D01*
Y006552D02*
X019603D01*
X019568Y006550D02*
X019601D01*
X019728Y006349D02*
X019748D01*
X019804Y006347D02*
X019832D01*
X019773Y006552D02*
X019809D01*
X019778Y006550D02*
X019812D01*
X019944Y006349D02*
X019946D01*
X019944Y006347D02*
X019954D01*
X019928Y006552D02*
X019954D01*
X019931Y006550D02*
X019956D01*
X019931Y006756D02*
X019959D01*
X019928Y006753D02*
X019959D01*
X020081Y006550D02*
X020091D01*
X019413Y006347D02*
X019436D01*
X019410Y006349D02*
X019436D01*
X019624D02*
X019646D01*
X019423Y006552D02*
X019448D01*
X019423Y006550D02*
X019446D01*
X019415Y006756D02*
X019431D01*
X019413Y006753D02*
X019433D01*
X019806Y006349D02*
X019834D01*
X019601Y006867D02*
X019629D01*
X019601Y006865D02*
X019626D01*
X019601Y006862D02*
X019624D01*
X019598Y006860D02*
X019624D01*
X019596Y006847D02*
X019618D01*
X019598Y006857D02*
X019621D01*
X019598Y006855D02*
X019621D01*
X019596Y006852D02*
X019621D01*
X019596Y006849D02*
X019618D01*
X019705Y006847D02*
X019728D01*
X019702Y006849D02*
X019728D01*
X019735Y006847D02*
X019761D01*
X019695Y006867D02*
X019720D01*
X019697Y006865D02*
X019723D01*
X019700Y006862D02*
X019723D01*
X019700Y006860D02*
X019725D01*
X019702Y006857D02*
X019725D01*
X019702Y006855D02*
X019725D01*
X019702Y006852D02*
X019725D01*
X019687Y006875D02*
X019718D01*
X019690Y006872D02*
X019718D01*
X019692Y006870D02*
X019720D01*
X019735Y006849D02*
X019751D01*
X019636Y006900D02*
X019687D01*
X019677Y006880D02*
X019712D01*
X019669Y006882D02*
X019712D01*
X019654Y006905D02*
X019669D01*
X019641Y006903D02*
X019682D01*
Y006877D02*
X019715D01*
X019606Y006875D02*
X019636D01*
X019631Y006898D02*
X019692D01*
X019608Y006880D02*
X019646D01*
X019613Y006885D02*
X019710D01*
X019616Y006888D02*
X019707D01*
X019618Y006890D02*
X019705D01*
X019624Y006893D02*
X019700D01*
X019626Y006895D02*
X019697D01*
X019611Y006882D02*
X019654D01*
X019603Y006872D02*
X019634D01*
X019603Y006870D02*
X019631D01*
X019608Y006877D02*
X019639D01*
M02*
