G04*
G04 #@! TF.GenerationSoftware,Altium Limited,Altium Designer,20.1.11 (218)*
G04*
G04 Layer_Physical_Order=1*
G04 Layer_Color=5064179*
%FSAX42Y42*%
%MOMM*%
G71*
G04*
G04 #@! TF.SameCoordinates,E04DCB56-ABFB-4DF7-A6F1-084D64C497F4*
G04*
G04*
G04 #@! TF.FilePolarity,Positive*
G04*
G01*
G75*
%ADD10C,0.20*%
%ADD13C,0.60*%
%ADD60R,0.80X1.30*%
%ADD61R,1.10X1.90*%
%ADD62R,0.50X0.40*%
G04:AMPARAMS|DCode=63|XSize=0.4mm|YSize=0.5mm|CornerRadius=0.1mm|HoleSize=0mm|Usage=FLASHONLY|Rotation=90.000|XOffset=0mm|YOffset=0mm|HoleType=Round|Shape=RoundedRectangle|*
%AMROUNDEDRECTD63*
21,1,0.40,0.30,0,0,90.0*
21,1,0.20,0.50,0,0,90.0*
1,1,0.20,0.15,0.10*
1,1,0.20,0.15,-0.10*
1,1,0.20,-0.15,-0.10*
1,1,0.20,-0.15,0.10*
%
%ADD63ROUNDEDRECTD63*%
G04:AMPARAMS|DCode=64|XSize=6mm|YSize=1.2mm|CornerRadius=0.3mm|HoleSize=0mm|Usage=FLASHONLY|Rotation=270.000|XOffset=0mm|YOffset=0mm|HoleType=Round|Shape=RoundedRectangle|*
%AMROUNDEDRECTD64*
21,1,6.00,0.60,0,0,270.0*
21,1,5.40,1.20,0,0,270.0*
1,1,0.60,-0.30,-2.70*
1,1,0.60,-0.30,2.70*
1,1,0.60,0.30,2.70*
1,1,0.60,0.30,-2.70*
%
%ADD64ROUNDEDRECTD64*%
%ADD65R,1.20X6.00*%
%ADD66R,2.10X0.89*%
%ADD67R,2.50X2.30*%
%ADD68R,2.30X2.50*%
%ADD69R,2.80X2.00*%
G04:AMPARAMS|DCode=70|XSize=0.8mm|YSize=1.3mm|CornerRadius=0.2mm|HoleSize=0mm|Usage=FLASHONLY|Rotation=180.000|XOffset=0mm|YOffset=0mm|HoleType=Round|Shape=RoundedRectangle|*
%AMROUNDEDRECTD70*
21,1,0.80,0.90,0,0,180.0*
21,1,0.40,1.30,0,0,180.0*
1,1,0.40,-0.20,0.45*
1,1,0.40,0.20,0.45*
1,1,0.40,0.20,-0.45*
1,1,0.40,-0.20,-0.45*
%
%ADD70ROUNDEDRECTD70*%
G04:AMPARAMS|DCode=71|XSize=0.8mm|YSize=1.3mm|CornerRadius=0.2mm|HoleSize=0mm|Usage=FLASHONLY|Rotation=90.000|XOffset=0mm|YOffset=0mm|HoleType=Round|Shape=RoundedRectangle|*
%AMROUNDEDRECTD71*
21,1,0.80,0.90,0,0,90.0*
21,1,0.40,1.30,0,0,90.0*
1,1,0.40,0.45,0.20*
1,1,0.40,0.45,-0.20*
1,1,0.40,-0.45,-0.20*
1,1,0.40,-0.45,0.20*
%
%ADD71ROUNDEDRECTD71*%
%ADD72R,0.89X1.27*%
G04:AMPARAMS|DCode=73|XSize=0.8mm|YSize=1mm|CornerRadius=0.2mm|HoleSize=0mm|Usage=FLASHONLY|Rotation=270.000|XOffset=0mm|YOffset=0mm|HoleType=Round|Shape=RoundedRectangle|*
%AMROUNDEDRECTD73*
21,1,0.80,0.60,0,0,270.0*
21,1,0.40,1.00,0,0,270.0*
1,1,0.40,-0.30,-0.20*
1,1,0.40,-0.30,0.20*
1,1,0.40,0.30,0.20*
1,1,0.40,0.30,-0.20*
%
%ADD73ROUNDEDRECTD73*%
G04:AMPARAMS|DCode=74|XSize=0.8mm|YSize=1mm|CornerRadius=0.2mm|HoleSize=0mm|Usage=FLASHONLY|Rotation=180.000|XOffset=0mm|YOffset=0mm|HoleType=Round|Shape=RoundedRectangle|*
%AMROUNDEDRECTD74*
21,1,0.80,0.60,0,0,180.0*
21,1,0.40,1.00,0,0,180.0*
1,1,0.40,-0.20,0.30*
1,1,0.40,0.20,0.30*
1,1,0.40,0.20,-0.30*
1,1,0.40,-0.20,-0.30*
%
%ADD74ROUNDEDRECTD74*%
%ADD75R,0.30X1.45*%
G04:AMPARAMS|DCode=76|XSize=0.3mm|YSize=1.45mm|CornerRadius=0.08mm|HoleSize=0mm|Usage=FLASHONLY|Rotation=0.000|XOffset=0mm|YOffset=0mm|HoleType=Round|Shape=RoundedRectangle|*
%AMROUNDEDRECTD76*
21,1,0.30,1.30,0,0,0.0*
21,1,0.15,1.45,0,0,0.0*
1,1,0.15,0.08,-0.65*
1,1,0.15,-0.08,-0.65*
1,1,0.15,-0.08,0.65*
1,1,0.15,0.08,0.65*
%
%ADD76ROUNDEDRECTD76*%
%ADD77R,0.35X1.60*%
%ADD78R,1.60X0.35*%
%ADD79O,0.35X1.60*%
%ADD80O,2.30X0.60*%
G04:AMPARAMS|DCode=81|XSize=2.54mm|YSize=0.91mm|CornerRadius=0mm|HoleSize=0mm|Usage=FLASHONLY|Rotation=90.000|XOffset=0mm|YOffset=0mm|HoleType=Round|Shape=Octagon|*
%AMOCTAGOND81*
4,1,8,0.23,1.27,-0.23,1.27,-0.46,1.04,-0.46,-1.04,-0.23,-1.27,0.23,-1.27,0.46,-1.04,0.46,1.04,0.23,1.27,0.0*
%
%ADD81OCTAGOND81*%

%ADD82R,2.40X3.00*%
%ADD83R,0.40X1.75*%
%ADD84C,1.00*%
%ADD85C,1.00*%
%ADD86C,0.50*%
%ADD87C,0.80*%
%ADD88C,0.40*%
%ADD89C,0.30*%
%ADD90C,0.22*%
%ADD91C,0.38*%
%ADD92R,1.50X1.50*%
%ADD93C,1.50*%
%ADD94C,2.00*%
%ADD95C,1.37*%
%ADD96R,1.37X1.37*%
%ADD97R,1.37X1.37*%
%ADD98C,1.52*%
%ADD99C,0.60*%
%ADD100C,1.20*%
%ADD101C,1.30*%
%ADD102C,1.10*%
%ADD103C,1.50*%
%ADD104C,0.80*%
G36*
X018685Y006496D02*
Y006696D01*
X018885D01*
Y006496D01*
X018685D01*
D02*
G37*
G36*
X019245D02*
Y006696D01*
X019445D01*
Y006496D01*
X019245D01*
D02*
G37*
G36*
X019295Y006796D02*
D01*
D02*
G37*
G36*
X031793Y003734D02*
X031794Y003734D01*
X031795Y003734D01*
X031796Y003733D01*
X031797Y003733D01*
X031798Y003733D01*
X031800Y003732D01*
X031801Y003732D01*
X031802Y003731D01*
X031804Y003731D01*
X031805Y003730D01*
X031806Y003729D01*
X031807Y003728D01*
X031809Y003726D01*
X031809Y003726D01*
X031809Y003726D01*
X031809Y003726D01*
X031809Y003725D01*
X031810Y003724D01*
X031810Y003723D01*
X031811Y003722D01*
X031811Y003721D01*
X031812Y003719D01*
X031812Y003718D01*
X031813Y003716D01*
X031813Y003714D01*
X031813Y003712D01*
X031814Y003710D01*
X031814Y003707D01*
X031814Y003704D01*
Y003662D01*
X031740D01*
Y003682D01*
X031771D01*
Y003703D01*
X031771Y003704D01*
Y003706D01*
X031771Y003707D01*
X031771Y003708D01*
X031771Y003711D01*
X031771Y003714D01*
X031771Y003715D01*
X031772Y003717D01*
X031772Y003718D01*
X031772Y003719D01*
Y003719D01*
X031772Y003720D01*
X031773Y003720D01*
X031773Y003720D01*
X031773Y003721D01*
X031773Y003722D01*
X031774Y003723D01*
X031775Y003725D01*
X031775Y003725D01*
X031776Y003726D01*
X031777Y003727D01*
X031778Y003728D01*
X031779Y003729D01*
X031780Y003730D01*
X031780Y003730D01*
X031780Y003730D01*
X031780Y003730D01*
X031781Y003730D01*
X031781Y003731D01*
X031782Y003731D01*
X031782Y003731D01*
X031783Y003732D01*
X031784Y003732D01*
X031785Y003732D01*
X031786Y003733D01*
X031787Y003733D01*
X031790Y003734D01*
X031791Y003734D01*
X031792Y003734D01*
X031793D01*
X031793D01*
X031793Y003734D01*
D02*
G37*
G36*
X031814Y003623D02*
X031756D01*
Y003596D01*
X031789D01*
X031789D01*
X031790D01*
X031790D01*
X031791Y003596D01*
X031792D01*
X031793Y003596D01*
X031795Y003596D01*
X031796Y003595D01*
X031799Y003595D01*
X031802Y003595D01*
X031803Y003594D01*
X031805Y003594D01*
X031806Y003593D01*
X031807Y003593D01*
X031807D01*
X031807Y003593D01*
X031807Y003593D01*
X031808Y003592D01*
X031809Y003592D01*
X031810Y003591D01*
X031811Y003590D01*
X031812Y003589D01*
X031813Y003588D01*
X031813Y003587D01*
X031814Y003586D01*
Y003586D01*
X031814Y003586D01*
X031814Y003586D01*
X031814Y003586D01*
X031814Y003585D01*
X031814Y003585D01*
X031814Y003584D01*
X031814Y003584D01*
X031815Y003583D01*
X031815Y003582D01*
X031815Y003581D01*
X031815Y003580D01*
X031815Y003579D01*
X031815Y003578D01*
X031815Y003576D01*
Y003574D01*
X031815Y003574D01*
Y003572D01*
X031815Y003572D01*
X031815Y003571D01*
X031815Y003570D01*
X031815Y003569D01*
X031815Y003568D01*
X031815Y003567D01*
X031814Y003565D01*
X031814Y003564D01*
X031814Y003563D01*
X031800D01*
Y003564D01*
X031800Y003564D01*
Y003565D01*
X031800Y003566D01*
Y003566D01*
X031800Y003567D01*
Y003568D01*
X031800Y003569D01*
Y003571D01*
X031800Y003571D01*
X031800Y003572D01*
X031800Y003573D01*
X031799Y003574D01*
X031799Y003574D01*
X031798Y003575D01*
X031797Y003575D01*
X031797Y003576D01*
X031797D01*
X031797Y003576D01*
X031796Y003576D01*
X031796Y003576D01*
X031795Y003576D01*
X031794Y003576D01*
X031794Y003576D01*
X031793Y003576D01*
X031791Y003576D01*
X031790Y003576D01*
X031788Y003576D01*
X031787D01*
X031785Y003576D01*
X031783D01*
X031740D01*
Y003642D01*
X031814D01*
Y003623D01*
D02*
G37*
G36*
X031811Y003532D02*
X031824Y003528D01*
X031824D01*
X031824Y003528D01*
X031825Y003527D01*
X031825Y003527D01*
X031826Y003527D01*
X031826Y003527D01*
X031828Y003526D01*
X031829Y003525D01*
X031831Y003524D01*
X031833Y003524D01*
X031834Y003523D01*
X031834Y003523D01*
X031835Y003522D01*
X031835Y003522D01*
X031836Y003521D01*
X031837Y003520D01*
X031838Y003520D01*
X031839Y003519D01*
X031839Y003517D01*
X031840Y003517D01*
X031840Y003517D01*
X031840Y003516D01*
X031841Y003515D01*
X031841Y003514D01*
X031842Y003513D01*
X031842Y003512D01*
X031843Y003510D01*
Y003510D01*
X031843Y003510D01*
X031843Y003509D01*
X031843Y003509D01*
X031843Y003509D01*
X031843Y003508D01*
X031843Y003508D01*
X031843Y003507D01*
X031844Y003506D01*
X031844Y003504D01*
X031844Y003502D01*
X031844Y003500D01*
Y003499D01*
X031844Y003498D01*
Y003497D01*
X031844Y003496D01*
X031844Y003495D01*
X031844Y003493D01*
X031843Y003491D01*
X031843Y003489D01*
X031828Y003487D01*
Y003487D01*
X031828Y003487D01*
Y003488D01*
X031828Y003488D01*
X031828Y003488D01*
X031828Y003489D01*
X031828Y003490D01*
X031828Y003491D01*
X031828Y003492D01*
X031828Y003494D01*
X031828Y003495D01*
Y003496D01*
X031828Y003496D01*
X031828Y003497D01*
X031828Y003498D01*
X031828Y003499D01*
X031828Y003501D01*
X031827Y003502D01*
X031826Y003503D01*
X031826Y003504D01*
X031825Y003505D01*
X031824Y003505D01*
X031824Y003506D01*
X031824Y003506D01*
X031824Y003506D01*
X031824Y003506D01*
X031823Y003506D01*
X031823Y003507D01*
X031822Y003507D01*
X031822Y003507D01*
X031820Y003508D01*
X031818Y003509D01*
X031816Y003510D01*
X031814Y003510D01*
X031740Y003482D01*
Y003503D01*
X031793Y003521D01*
X031740Y003538D01*
Y003559D01*
X031811Y003532D01*
D02*
G37*
G36*
X031833Y003462D02*
X031814D01*
Y003406D01*
X031833D01*
Y003390D01*
X031798D01*
Y003398D01*
X031798Y003398D01*
X031798Y003398D01*
X031797Y003399D01*
X031797Y003399D01*
X031796Y003400D01*
X031796Y003400D01*
X031795Y003401D01*
X031794Y003401D01*
X031793Y003402D01*
X031791Y003402D01*
X031790Y003403D01*
X031788Y003404D01*
X031787Y003404D01*
X031785Y003405D01*
X031783Y003406D01*
X031781Y003406D01*
X031780Y003407D01*
X031780Y003407D01*
X031780Y003407D01*
X031779Y003407D01*
X031779Y003407D01*
X031778Y003407D01*
X031778Y003407D01*
X031777Y003407D01*
X031776Y003407D01*
X031775Y003408D01*
X031774Y003408D01*
X031773Y003408D01*
X031772Y003408D01*
X031771Y003408D01*
X031770Y003408D01*
X031768Y003409D01*
X031767Y003409D01*
X031765Y003409D01*
X031764Y003409D01*
X031762Y003409D01*
X031760Y003409D01*
X031758Y003410D01*
X031756Y003410D01*
X031754Y003410D01*
X031752Y003410D01*
X031750Y003410D01*
X031748Y003410D01*
X031745Y003410D01*
X031743Y003410D01*
X031740Y003410D01*
Y003470D01*
X031798D01*
Y003478D01*
X031833D01*
Y003462D01*
D02*
G37*
G36*
X031778Y003386D02*
X031778D01*
X031780Y003385D01*
X031781Y003385D01*
X031783Y003385D01*
X031785Y003385D01*
X031787Y003384D01*
X031789Y003384D01*
X031791Y003383D01*
X031793Y003382D01*
X031796Y003381D01*
X031798Y003380D01*
X031800Y003378D01*
X031803Y003377D01*
X031805Y003375D01*
X031805Y003375D01*
X031805Y003374D01*
X031806Y003374D01*
X031806Y003373D01*
X031807Y003372D01*
X031808Y003370D01*
X031809Y003369D01*
X031810Y003367D01*
X031811Y003365D01*
X031812Y003363D01*
X031813Y003361D01*
X031814Y003359D01*
X031815Y003356D01*
X031815Y003353D01*
X031816Y003350D01*
X031816Y003347D01*
Y003346D01*
X031816Y003346D01*
X031816Y003345D01*
X031815Y003344D01*
X031815Y003342D01*
X031815Y003341D01*
X031815Y003340D01*
X031815Y003338D01*
X031814Y003337D01*
X031814Y003335D01*
X031813Y003333D01*
X031813Y003331D01*
X031812Y003330D01*
X031811Y003328D01*
X031811Y003328D01*
X031811Y003328D01*
X031811Y003327D01*
X031810Y003326D01*
X031810Y003326D01*
X031809Y003325D01*
X031809Y003324D01*
X031808Y003323D01*
X031807Y003322D01*
X031806Y003320D01*
X031805Y003319D01*
X031803Y003318D01*
X031802Y003317D01*
X031801Y003316D01*
X031799Y003315D01*
X031798Y003314D01*
X031798Y003314D01*
X031797Y003314D01*
X031797Y003313D01*
X031796Y003313D01*
X031795Y003313D01*
X031794Y003312D01*
X031793Y003312D01*
X031792Y003312D01*
X031790Y003311D01*
X031788Y003311D01*
X031787Y003310D01*
X031785Y003310D01*
X031783Y003310D01*
X031781Y003309D01*
X031778Y003309D01*
X031776Y003309D01*
X031776D01*
X031775D01*
X031775D01*
X031774Y003309D01*
X031773Y003309D01*
X031772Y003309D01*
X031771Y003309D01*
X031770Y003310D01*
X031769Y003310D01*
X031767Y003310D01*
X031765Y003311D01*
X031764Y003311D01*
X031762Y003312D01*
X031760Y003312D01*
X031759Y003313D01*
X031757Y003314D01*
X031757Y003314D01*
X031757Y003314D01*
X031756Y003314D01*
X031756Y003315D01*
X031755Y003315D01*
X031754Y003316D01*
X031753Y003317D01*
X031752Y003317D01*
X031751Y003318D01*
X031750Y003319D01*
X031748Y003320D01*
X031747Y003322D01*
X031746Y003323D01*
X031745Y003324D01*
X031744Y003326D01*
X031743Y003328D01*
X031743Y003328D01*
X031743Y003328D01*
X031743Y003328D01*
X031742Y003329D01*
X031742Y003330D01*
X031742Y003331D01*
X031741Y003332D01*
X031741Y003333D01*
X031740Y003335D01*
X031740Y003336D01*
X031739Y003338D01*
X031739Y003340D01*
X031739Y003341D01*
X031738Y003343D01*
X031738Y003345D01*
X031738Y003347D01*
Y003348D01*
X031738Y003348D01*
Y003349D01*
X031738Y003350D01*
X031739Y003351D01*
X031739Y003353D01*
X031739Y003355D01*
X031740Y003357D01*
X031740Y003359D01*
X031741Y003361D01*
X031742Y003364D01*
X031743Y003366D01*
X031744Y003368D01*
X031746Y003371D01*
X031747Y003373D01*
X031749Y003375D01*
X031749Y003375D01*
X031750Y003375D01*
X031750Y003376D01*
X031751Y003377D01*
X031752Y003377D01*
X031754Y003378D01*
X031755Y003379D01*
X031757Y003380D01*
X031759Y003381D01*
X031761Y003382D01*
X031763Y003383D01*
X031765Y003384D01*
X031768Y003385D01*
X031771Y003385D01*
X031774Y003385D01*
X031777Y003386D01*
X031777D01*
X031777D01*
X031777D01*
X031778D01*
X031778Y003386D01*
D02*
G37*
G36*
X031814Y003274D02*
X031733Y003274D01*
X031814Y003254D01*
Y003234D01*
X031733Y003214D01*
X031814D01*
Y003195D01*
X031712D01*
Y003225D01*
X031782Y003244D01*
X031712Y003262D01*
Y003293D01*
X031814D01*
Y003274D01*
D02*
G37*
G36*
X031789Y003110D02*
X031790Y003110D01*
X031790Y003110D01*
X031791Y003110D01*
X031792Y003109D01*
X031793Y003109D01*
X031794Y003108D01*
X031795Y003107D01*
X031797Y003107D01*
X031798Y003106D01*
X031800Y003105D01*
X031803Y003103D01*
X031804Y003102D01*
X031806Y003101D01*
X031807Y003100D01*
X031809Y003099D01*
X031809Y003099D01*
X031809Y003098D01*
X031809Y003098D01*
X031810Y003098D01*
X031810Y003097D01*
X031811Y003096D01*
X031811Y003095D01*
X031812Y003095D01*
X031813Y003094D01*
X031813Y003092D01*
X031814Y003091D01*
X031814Y003090D01*
X031815Y003088D01*
X031815Y003087D01*
X031815Y003085D01*
X031815Y003084D01*
Y003082D01*
X031815Y003081D01*
Y003079D01*
X031815Y003078D01*
X031815Y003076D01*
X031815Y003074D01*
X031814Y003071D01*
X031814Y003070D01*
X031814Y003069D01*
X031799D01*
Y003070D01*
X031799Y003071D01*
Y003072D01*
X031799Y003073D01*
Y003074D01*
X031799Y003076D01*
Y003078D01*
X031799Y003078D01*
Y003079D01*
X031799Y003080D01*
X031799Y003081D01*
X031798Y003083D01*
X031798Y003085D01*
X031797Y003086D01*
X031797Y003087D01*
X031796Y003087D01*
X031796Y003088D01*
X031796Y003088D01*
X031796Y003088D01*
X031796Y003088D01*
X031795Y003089D01*
X031795Y003089D01*
X031794Y003089D01*
X031793Y003090D01*
X031792Y003090D01*
X031792Y003091D01*
X031790Y003091D01*
X031789Y003092D01*
X031788Y003092D01*
X031787Y003093D01*
X031785Y003093D01*
X031712Y003056D01*
Y003079D01*
X031765Y003103D01*
X031712Y003123D01*
Y003145D01*
X031789Y003110D01*
D02*
G37*
G36*
X031814Y003030D02*
X031788Y003018D01*
X031787Y003018D01*
X031787Y003018D01*
X031787Y003018D01*
X031786Y003018D01*
X031786Y003017D01*
X031785Y003017D01*
X031785Y003017D01*
X031785Y003017D01*
X031785Y003016D01*
X031784Y003016D01*
X031783Y003016D01*
X031783Y003015D01*
X031782Y003015D01*
X031781Y003015D01*
X031781Y003014D01*
X031781Y003014D01*
X031780Y003014D01*
X031780Y003014D01*
X031779Y003014D01*
X031779Y003013D01*
X031778Y003013D01*
X031777Y003012D01*
X031775Y003011D01*
X031773Y003010D01*
X031773Y003009D01*
X031772Y003009D01*
X031772Y003008D01*
X031771Y003008D01*
X031771Y003008D01*
X031771Y003007D01*
X031771Y003007D01*
X031770Y003006D01*
X031770Y003005D01*
X031770Y003003D01*
X031769Y003002D01*
X031769Y003000D01*
X031814D01*
Y002979D01*
X031712D01*
Y003000D01*
X031755D01*
Y003000D01*
X031755Y003001D01*
X031755Y003001D01*
X031755Y003002D01*
X031755Y003002D01*
X031755Y003004D01*
X031754Y003005D01*
X031753Y003007D01*
X031753Y003008D01*
X031752Y003009D01*
X031752Y003009D01*
X031752D01*
X031752Y003009D01*
X031751Y003010D01*
X031751Y003010D01*
X031751Y003010D01*
X031750Y003010D01*
X031749Y003011D01*
X031749Y003011D01*
X031748Y003012D01*
X031747Y003012D01*
X031745Y003013D01*
X031744Y003014D01*
X031742Y003014D01*
X031740Y003015D01*
X031738Y003016D01*
X031736Y003017D01*
X031736D01*
X031736Y003017D01*
X031735Y003017D01*
X031735Y003017D01*
X031735Y003017D01*
X031734Y003018D01*
X031733Y003018D01*
X031732Y003019D01*
X031730Y003019D01*
X031729Y003020D01*
X031727Y003021D01*
X031725Y003022D01*
X031723Y003023D01*
X031722Y003024D01*
X031720Y003025D01*
X031719Y003026D01*
X031717Y003027D01*
X031716Y003029D01*
X031715Y003030D01*
X031715Y003030D01*
X031715Y003030D01*
X031715Y003030D01*
X031714Y003031D01*
X031714Y003032D01*
X031714Y003033D01*
X031714Y003034D01*
X031713Y003035D01*
X031713Y003036D01*
X031712Y003038D01*
X031712Y003039D01*
X031712Y003041D01*
X031711Y003043D01*
X031711Y003046D01*
X031711Y003048D01*
X031711Y003051D01*
Y003052D01*
X031711Y003053D01*
Y003054D01*
X031726D01*
Y003050D01*
X031726Y003049D01*
Y003048D01*
X031727Y003047D01*
X031727Y003046D01*
X031727Y003044D01*
X031727Y003043D01*
X031728Y003042D01*
X031728Y003041D01*
X031728Y003041D01*
X031728Y003041D01*
X031729Y003040D01*
X031729Y003040D01*
X031730Y003039D01*
X031731Y003038D01*
X031732Y003037D01*
X031733Y003037D01*
X031733Y003037D01*
X031733Y003036D01*
X031733Y003036D01*
X031734Y003036D01*
X031734Y003036D01*
X031735Y003036D01*
X031735Y003035D01*
X031736Y003035D01*
X031737Y003034D01*
X031738Y003034D01*
X031740Y003034D01*
X031741Y003033D01*
X031742Y003032D01*
X031744Y003032D01*
X031746Y003031D01*
X031746D01*
X031746Y003031D01*
X031746Y003031D01*
X031747Y003031D01*
X031747Y003031D01*
X031748Y003031D01*
X031749Y003030D01*
X031750Y003029D01*
X031752Y003029D01*
X031753Y003028D01*
X031755Y003027D01*
X031755D01*
X031755Y003027D01*
X031755Y003027D01*
X031756Y003026D01*
X031757Y003025D01*
X031758Y003024D01*
X031759Y003023D01*
X031760Y003022D01*
X031760Y003021D01*
X031761Y003020D01*
X031761Y003019D01*
Y003019D01*
X031761Y003020D01*
X031762Y003020D01*
X031762Y003021D01*
X031762Y003021D01*
X031762Y003022D01*
X031763Y003023D01*
X031763Y003023D01*
X031764Y003024D01*
X031764Y003025D01*
X031765Y003026D01*
X031765Y003027D01*
X031766Y003028D01*
X031767Y003029D01*
X031768Y003030D01*
X031769Y003031D01*
X031769Y003031D01*
X031770Y003031D01*
X031770Y003031D01*
X031770Y003032D01*
X031771Y003032D01*
X031772Y003032D01*
X031773Y003033D01*
X031774Y003034D01*
X031775Y003034D01*
X031776Y003035D01*
X031777Y003036D01*
X031779Y003037D01*
X031780Y003038D01*
X031782Y003039D01*
X031784Y003040D01*
X031786Y003041D01*
X031814Y003055D01*
Y003030D01*
D02*
G37*
G36*
Y002939D02*
X031733Y002939D01*
X031814Y002919D01*
Y002899D01*
X031733Y002879D01*
X031814D01*
Y002860D01*
X031712D01*
Y002891D01*
X031782Y002909D01*
X031712Y002927D01*
Y002958D01*
X031814D01*
Y002939D01*
D02*
G37*
G36*
X032093Y002835D02*
X032020D01*
X032020Y002835D01*
X032020Y002835D01*
X032021Y002834D01*
X032021Y002833D01*
X032022Y002832D01*
X032023Y002831D01*
X032024Y002829D01*
X032025Y002828D01*
X032026Y002826D01*
X032028Y002824D01*
X032029Y002822D01*
X032030Y002820D01*
X032031Y002818D01*
X032032Y002815D01*
X032033Y002812D01*
X032034Y002810D01*
X032017D01*
Y002810D01*
X032016Y002810D01*
X032016Y002810D01*
X032016Y002811D01*
X032016Y002812D01*
X032016Y002813D01*
X032015Y002814D01*
X032015Y002815D01*
X032014Y002816D01*
X032013Y002817D01*
X032012Y002819D01*
X032012Y002820D01*
X032011Y002822D01*
X032010Y002823D01*
X032008Y002825D01*
X032007Y002826D01*
X032007Y002826D01*
X032007Y002827D01*
X032006Y002827D01*
X032006Y002828D01*
X032005Y002829D01*
X032004Y002829D01*
X032004Y002830D01*
X032003Y002831D01*
X032001Y002832D01*
X032000Y002833D01*
X031999Y002834D01*
X031997Y002835D01*
X031996Y002836D01*
X031994Y002837D01*
X031992Y002838D01*
X031991Y002839D01*
Y002855D01*
X032093D01*
Y002835D01*
D02*
G37*
G36*
Y002723D02*
X032093D01*
X032093Y002723D01*
X032092Y002723D01*
X032092Y002723D01*
X032091Y002723D01*
X032090Y002723D01*
X032088Y002723D01*
X032087Y002724D01*
X032086Y002724D01*
X032084Y002725D01*
X032083Y002725D01*
X032081Y002726D01*
X032079Y002727D01*
X032077Y002727D01*
X032076Y002728D01*
X032074Y002729D01*
X032074Y002729D01*
X032073Y002729D01*
X032073Y002730D01*
X032072Y002730D01*
X032071Y002731D01*
X032070Y002732D01*
X032069Y002733D01*
X032067Y002734D01*
X032066Y002735D01*
X032064Y002737D01*
X032062Y002739D01*
X032060Y002741D01*
X032057Y002743D01*
X032055Y002746D01*
X032052Y002748D01*
X032049Y002751D01*
X032049Y002751D01*
X032049Y002751D01*
X032049Y002752D01*
X032048Y002753D01*
X032047Y002753D01*
X032046Y002754D01*
X032045Y002756D01*
X032044Y002757D01*
X032043Y002758D01*
X032040Y002761D01*
X032039Y002762D01*
X032037Y002764D01*
X032036Y002765D01*
X032035Y002766D01*
X032034Y002767D01*
X032033Y002768D01*
X032033Y002768D01*
X032032Y002768D01*
X032032Y002768D01*
X032032Y002768D01*
X032031Y002769D01*
X032030Y002769D01*
X032030Y002769D01*
X032029Y002770D01*
X032027Y002770D01*
X032025Y002771D01*
X032023Y002771D01*
X032022Y002772D01*
X032021Y002772D01*
X032021D01*
X032020D01*
X032020D01*
X032020Y002772D01*
X032019D01*
X032018Y002771D01*
X032017Y002771D01*
X032015Y002771D01*
X032014Y002770D01*
X032012Y002769D01*
X032011Y002769D01*
X032011Y002768D01*
X032010Y002768D01*
X032010Y002768D01*
X032010Y002768D01*
X032010Y002767D01*
X032010Y002767D01*
X032009Y002767D01*
X032009Y002766D01*
X032009Y002766D01*
X032008Y002764D01*
X032008Y002762D01*
X032007Y002761D01*
X032007Y002759D01*
X032007Y002758D01*
Y002758D01*
X032007Y002757D01*
Y002757D01*
X032007Y002756D01*
X032007Y002755D01*
X032008Y002753D01*
X032009Y002752D01*
X032009Y002751D01*
X032009Y002750D01*
X032010Y002749D01*
X032011Y002748D01*
X032011Y002748D01*
X032011Y002748D01*
X032011Y002748D01*
X032011Y002748D01*
X032012Y002748D01*
X032012Y002747D01*
X032013Y002747D01*
X032014Y002747D01*
X032014Y002746D01*
X032015Y002746D01*
X032016Y002746D01*
X032017Y002745D01*
X032019Y002745D01*
X032020Y002745D01*
X032021Y002744D01*
X032023Y002744D01*
X032021Y002725D01*
X032021D01*
X032021D01*
X032021Y002725D01*
X032020D01*
X032020Y002725D01*
X032020Y002725D01*
X032018Y002725D01*
X032017Y002725D01*
X032016Y002726D01*
X032014Y002726D01*
X032012Y002727D01*
X032010Y002727D01*
X032008Y002728D01*
X032006Y002729D01*
X032004Y002730D01*
X032003Y002731D01*
X032001Y002733D01*
X031999Y002734D01*
X031998Y002736D01*
X031998Y002736D01*
X031998Y002736D01*
X031997Y002737D01*
X031997Y002737D01*
X031996Y002738D01*
X031996Y002739D01*
X031995Y002741D01*
X031994Y002742D01*
X031994Y002744D01*
X031993Y002745D01*
X031992Y002747D01*
X031992Y002749D01*
X031991Y002752D01*
X031991Y002754D01*
X031991Y002756D01*
X031991Y002759D01*
Y002759D01*
X031991Y002760D01*
X031991Y002761D01*
X031991Y002763D01*
X031991Y002764D01*
X031991Y002766D01*
X031992Y002767D01*
X031992Y002769D01*
X031993Y002771D01*
X031993Y002773D01*
X031994Y002775D01*
X031995Y002777D01*
X031996Y002779D01*
X031997Y002781D01*
X031999Y002783D01*
X031999Y002783D01*
X031999Y002783D01*
X032000Y002783D01*
X032000Y002784D01*
X032001Y002785D01*
X032002Y002785D01*
X032003Y002786D01*
X032005Y002787D01*
X032006Y002788D01*
X032007Y002789D01*
X032009Y002789D01*
X032011Y002790D01*
X032013Y002790D01*
X032015Y002791D01*
X032017Y002791D01*
X032019Y002791D01*
X032019D01*
X032020D01*
X032020D01*
X032020D01*
X032021Y002791D01*
X032022Y002791D01*
X032023Y002791D01*
X032024Y002791D01*
X032026Y002791D01*
X032028Y002790D01*
X032030Y002790D01*
X032032Y002789D01*
X032033D01*
X032033Y002789D01*
X032033Y002788D01*
X032034Y002788D01*
X032034Y002788D01*
X032035Y002788D01*
X032036Y002787D01*
X032036Y002787D01*
X032037Y002786D01*
X032038Y002786D01*
X032041Y002784D01*
X032043Y002783D01*
X032045Y002781D01*
X032046Y002781D01*
X032046Y002781D01*
X032046Y002781D01*
X032046Y002780D01*
X032047Y002780D01*
X032047Y002779D01*
X032048Y002779D01*
X032049Y002778D01*
X032050Y002777D01*
X032051Y002776D01*
X032052Y002775D01*
X032053Y002774D01*
X032054Y002773D01*
X032056Y002771D01*
X032057Y002770D01*
X032059Y002768D01*
X032059Y002768D01*
X032059Y002768D01*
X032059Y002767D01*
X032060Y002767D01*
X032061Y002766D01*
X032061Y002765D01*
X032062Y002764D01*
X032063Y002763D01*
X032065Y002761D01*
X032067Y002759D01*
X032068Y002758D01*
X032069Y002757D01*
X032069Y002757D01*
X032070Y002756D01*
X032070Y002756D01*
X032070Y002756D01*
X032071Y002755D01*
X032072Y002755D01*
X032072Y002754D01*
X032073Y002753D01*
X032074Y002753D01*
X032075Y002752D01*
Y002791D01*
X032093D01*
Y002723D01*
D02*
G37*
G36*
X031814Y002787D02*
X031791Y002778D01*
Y002737D01*
X031814Y002729D01*
Y002707D01*
X031712Y002746D01*
Y002768D01*
X031814Y002809D01*
Y002787D01*
D02*
G37*
G36*
X032046Y002712D02*
X032047D01*
X032048Y002712D01*
X032049Y002712D01*
X032050Y002712D01*
X032051Y002712D01*
X032053Y002711D01*
X032056Y002711D01*
X032059Y002711D01*
X032063Y002710D01*
X032066Y002710D01*
X032069Y002709D01*
X032073Y002708D01*
X032076Y002707D01*
X032079Y002705D01*
X032081Y002704D01*
X032082Y002704D01*
X032084Y002703D01*
X032085Y002702D01*
X032085Y002702D01*
X032085Y002702D01*
X032086Y002701D01*
X032086Y002700D01*
X032087Y002700D01*
X032088Y002699D01*
X032089Y002697D01*
X032090Y002696D01*
X032091Y002694D01*
X032092Y002693D01*
X032093Y002691D01*
X032094Y002689D01*
X032094Y002686D01*
X032095Y002684D01*
X032095Y002681D01*
X032095Y002679D01*
Y002678D01*
X032095Y002677D01*
X032095Y002676D01*
X032095Y002675D01*
X032095Y002674D01*
X032094Y002672D01*
X032094Y002670D01*
X032093Y002668D01*
X032092Y002666D01*
X032092Y002664D01*
X032090Y002662D01*
X032089Y002660D01*
X032088Y002658D01*
X032086Y002656D01*
X032084Y002655D01*
X032084Y002655D01*
X032083Y002654D01*
X032083Y002654D01*
X032082Y002654D01*
X032082Y002653D01*
X032082Y002653D01*
X032081Y002653D01*
X032080Y002653D01*
X032079Y002652D01*
X032079Y002652D01*
X032078Y002651D01*
X032077Y002651D01*
X032076Y002650D01*
X032074Y002650D01*
X032073Y002650D01*
X032072Y002649D01*
X032070Y002649D01*
X032069Y002648D01*
X032067Y002648D01*
X032065Y002648D01*
X032064Y002647D01*
X032062Y002647D01*
X032060Y002647D01*
X032058Y002646D01*
X032055Y002646D01*
X032053Y002646D01*
X032051Y002646D01*
X032048Y002646D01*
X032046Y002646D01*
X032043D01*
X032043D01*
X032043D01*
X032042D01*
X032042D01*
X032041Y002646D01*
X032040D01*
X032039D01*
X032038Y002646D01*
X032037Y002646D01*
X032036Y002646D01*
X032034Y002646D01*
X032033Y002646D01*
X032030Y002646D01*
X032027Y002647D01*
X032023Y002647D01*
X032020Y002648D01*
X032017Y002649D01*
X032013Y002650D01*
X032010Y002651D01*
X032007Y002652D01*
X032005Y002653D01*
X032004Y002654D01*
X032003Y002655D01*
X032001Y002655D01*
X032001Y002656D01*
X032001Y002656D01*
X032000Y002656D01*
X032000Y002657D01*
X031999Y002658D01*
X031998Y002659D01*
X031997Y002660D01*
X031996Y002662D01*
X031995Y002663D01*
X031994Y002665D01*
X031993Y002667D01*
X031992Y002669D01*
X031992Y002671D01*
X031991Y002673D01*
X031991Y002676D01*
X031991Y002679D01*
Y002679D01*
X031991Y002680D01*
X031991Y002681D01*
X031991Y002682D01*
X031991Y002684D01*
X031992Y002685D01*
X031992Y002687D01*
X031993Y002689D01*
X031993Y002691D01*
X031994Y002693D01*
X031995Y002695D01*
X031996Y002697D01*
X031998Y002699D01*
X032000Y002700D01*
X032001Y002702D01*
X032002Y002702D01*
X032002Y002702D01*
X032002Y002702D01*
X032002Y002703D01*
X032003Y002703D01*
X032003Y002703D01*
X032004Y002703D01*
X032004Y002704D01*
X032005Y002704D01*
X032006Y002705D01*
X032007Y002705D01*
X032008Y002706D01*
X032009Y002706D01*
X032010Y002706D01*
X032011Y002707D01*
X032013Y002707D01*
X032014Y002708D01*
X032016Y002708D01*
X032017Y002709D01*
X032019Y002709D01*
X032020Y002710D01*
X032022Y002710D01*
X032024Y002710D01*
X032026Y002711D01*
X032028Y002711D01*
X032031Y002711D01*
X032033Y002712D01*
X032035Y002712D01*
X032038Y002712D01*
X032040Y002712D01*
X032043D01*
X032043D01*
X032043D01*
X032044D01*
X032044D01*
X032045D01*
X032046Y002712D01*
D02*
G37*
G36*
X031814Y002676D02*
X031729D01*
Y002635D01*
X031814D01*
Y002615D01*
X031712D01*
Y002696D01*
X031814D01*
Y002676D01*
D02*
G37*
G36*
X032093Y002564D02*
X032093D01*
X032093Y002564D01*
X032092Y002564D01*
X032092Y002564D01*
X032091Y002564D01*
X032090Y002564D01*
X032088Y002565D01*
X032087Y002565D01*
X032086Y002565D01*
X032084Y002566D01*
X032083Y002566D01*
X032081Y002567D01*
X032079Y002568D01*
X032077Y002568D01*
X032076Y002569D01*
X032074Y002570D01*
X032074Y002570D01*
X032073Y002571D01*
X032073Y002571D01*
X032072Y002571D01*
X032071Y002572D01*
X032070Y002573D01*
X032069Y002574D01*
X032067Y002575D01*
X032066Y002577D01*
X032064Y002578D01*
X032062Y002580D01*
X032060Y002582D01*
X032057Y002584D01*
X032055Y002587D01*
X032052Y002589D01*
X032049Y002592D01*
X032049Y002592D01*
X032049Y002593D01*
X032049Y002593D01*
X032048Y002594D01*
X032047Y002595D01*
X032046Y002596D01*
X032045Y002597D01*
X032044Y002598D01*
X032043Y002599D01*
X032040Y002602D01*
X032039Y002604D01*
X032037Y002605D01*
X032036Y002606D01*
X032035Y002607D01*
X032034Y002608D01*
X032033Y002609D01*
X032033Y002609D01*
X032032Y002609D01*
X032032Y002609D01*
X032032Y002609D01*
X032031Y002610D01*
X032030Y002610D01*
X032030Y002610D01*
X032029Y002611D01*
X032027Y002611D01*
X032025Y002612D01*
X032023Y002613D01*
X032022Y002613D01*
X032021Y002613D01*
X032021D01*
X032020D01*
X032020D01*
X032020Y002613D01*
X032019D01*
X032018Y002613D01*
X032017Y002612D01*
X032015Y002612D01*
X032014Y002611D01*
X032012Y002610D01*
X032011Y002610D01*
X032011Y002609D01*
X032010Y002609D01*
X032010Y002609D01*
X032010Y002609D01*
X032010Y002608D01*
X032010Y002608D01*
X032009Y002608D01*
X032009Y002607D01*
X032009Y002607D01*
X032008Y002605D01*
X032008Y002604D01*
X032007Y002602D01*
X032007Y002600D01*
X032007Y002599D01*
Y002599D01*
X032007Y002598D01*
Y002598D01*
X032007Y002597D01*
X032007Y002596D01*
X032008Y002594D01*
X032009Y002593D01*
X032009Y002592D01*
X032009Y002591D01*
X032010Y002590D01*
X032011Y002590D01*
X032011Y002589D01*
X032011Y002589D01*
X032011Y002589D01*
X032011Y002589D01*
X032012Y002589D01*
X032012Y002588D01*
X032013Y002588D01*
X032014Y002588D01*
X032014Y002587D01*
X032015Y002587D01*
X032016Y002587D01*
X032017Y002586D01*
X032019Y002586D01*
X032020Y002586D01*
X032021Y002586D01*
X032023Y002585D01*
X032021Y002566D01*
X032021D01*
X032021D01*
X032021Y002566D01*
X032020D01*
X032020Y002566D01*
X032020Y002566D01*
X032018Y002566D01*
X032017Y002567D01*
X032016Y002567D01*
X032014Y002567D01*
X032012Y002568D01*
X032010Y002569D01*
X032008Y002569D01*
X032006Y002570D01*
X032004Y002571D01*
X032003Y002572D01*
X032001Y002574D01*
X031999Y002575D01*
X031998Y002577D01*
X031998Y002577D01*
X031998Y002577D01*
X031997Y002578D01*
X031997Y002578D01*
X031996Y002579D01*
X031996Y002580D01*
X031995Y002582D01*
X031994Y002583D01*
X031994Y002585D01*
X031993Y002586D01*
X031992Y002588D01*
X031992Y002590D01*
X031991Y002593D01*
X031991Y002595D01*
X031991Y002597D01*
X031991Y002600D01*
Y002600D01*
X031991Y002601D01*
X031991Y002602D01*
X031991Y002604D01*
X031991Y002605D01*
X031991Y002607D01*
X031992Y002608D01*
X031992Y002610D01*
X031993Y002612D01*
X031993Y002614D01*
X031994Y002616D01*
X031995Y002618D01*
X031996Y002620D01*
X031997Y002622D01*
X031999Y002624D01*
X031999Y002624D01*
X031999Y002624D01*
X032000Y002624D01*
X032000Y002625D01*
X032001Y002626D01*
X032002Y002626D01*
X032003Y002627D01*
X032005Y002628D01*
X032006Y002629D01*
X032007Y002630D01*
X032009Y002630D01*
X032011Y002631D01*
X032013Y002632D01*
X032015Y002632D01*
X032017Y002632D01*
X032019Y002632D01*
X032019D01*
X032020D01*
X032020D01*
X032020D01*
X032021Y002632D01*
X032022Y002632D01*
X032023Y002632D01*
X032024Y002632D01*
X032026Y002632D01*
X032028Y002631D01*
X032030Y002631D01*
X032032Y002630D01*
X032033D01*
X032033Y002630D01*
X032033Y002630D01*
X032034Y002629D01*
X032034Y002629D01*
X032035Y002629D01*
X032036Y002628D01*
X032036Y002628D01*
X032037Y002627D01*
X032038Y002627D01*
X032041Y002625D01*
X032043Y002624D01*
X032045Y002622D01*
X032046Y002622D01*
X032046Y002622D01*
X032046Y002622D01*
X032046Y002621D01*
X032047Y002621D01*
X032047Y002620D01*
X032048Y002620D01*
X032049Y002619D01*
X032050Y002618D01*
X032051Y002617D01*
X032052Y002616D01*
X032053Y002615D01*
X032054Y002614D01*
X032056Y002612D01*
X032057Y002611D01*
X032059Y002609D01*
X032059Y002609D01*
X032059Y002609D01*
X032059Y002608D01*
X032060Y002608D01*
X032061Y002607D01*
X032061Y002606D01*
X032062Y002605D01*
X032063Y002604D01*
X032065Y002602D01*
X032067Y002600D01*
X032068Y002599D01*
X032069Y002599D01*
X032069Y002598D01*
X032070Y002597D01*
X032070Y002597D01*
X032070Y002597D01*
X032071Y002596D01*
X032072Y002596D01*
X032072Y002595D01*
X032073Y002595D01*
X032074Y002594D01*
X032075Y002593D01*
Y002632D01*
X032093D01*
Y002564D01*
D02*
G37*
G36*
X031814Y002579D02*
X031788Y002566D01*
X031787Y002566D01*
X031787Y002566D01*
X031787Y002566D01*
X031786Y002566D01*
X031786Y002565D01*
X031785Y002565D01*
X031785Y002565D01*
X031785Y002565D01*
X031785Y002565D01*
X031784Y002564D01*
X031783Y002564D01*
X031783Y002564D01*
X031782Y002563D01*
X031781Y002563D01*
X031781Y002563D01*
X031781Y002562D01*
X031780Y002562D01*
X031780Y002562D01*
X031779Y002562D01*
X031779Y002562D01*
X031778Y002561D01*
X031777Y002560D01*
X031775Y002559D01*
X031773Y002558D01*
X031773Y002558D01*
X031772Y002557D01*
X031772Y002557D01*
X031771Y002556D01*
X031771Y002556D01*
X031771Y002555D01*
X031771Y002555D01*
X031770Y002554D01*
X031770Y002553D01*
X031770Y002552D01*
X031769Y002550D01*
X031769Y002548D01*
X031814D01*
Y002528D01*
X031712D01*
Y002548D01*
X031755D01*
Y002549D01*
X031755Y002549D01*
X031755Y002549D01*
X031755Y002550D01*
X031755Y002551D01*
X031755Y002552D01*
X031754Y002554D01*
X031753Y002555D01*
X031753Y002556D01*
X031752Y002557D01*
X031752Y002558D01*
X031752D01*
X031752Y002558D01*
X031751Y002558D01*
X031751Y002558D01*
X031751Y002558D01*
X031750Y002559D01*
X031749Y002559D01*
X031749Y002559D01*
X031748Y002560D01*
X031747Y002560D01*
X031745Y002561D01*
X031744Y002562D01*
X031742Y002563D01*
X031740Y002563D01*
X031738Y002564D01*
X031736Y002565D01*
X031736D01*
X031736Y002565D01*
X031735Y002565D01*
X031735Y002565D01*
X031735Y002566D01*
X031734Y002566D01*
X031733Y002566D01*
X031732Y002567D01*
X031730Y002567D01*
X031729Y002568D01*
X031727Y002569D01*
X031725Y002570D01*
X031723Y002571D01*
X031722Y002572D01*
X031720Y002573D01*
X031719Y002574D01*
X031717Y002576D01*
X031716Y002577D01*
X031715Y002578D01*
X031715Y002578D01*
X031715Y002578D01*
X031715Y002579D01*
X031714Y002579D01*
X031714Y002580D01*
X031714Y002581D01*
X031714Y002582D01*
X031713Y002583D01*
X031713Y002584D01*
X031712Y002586D01*
X031712Y002588D01*
X031712Y002589D01*
X031711Y002592D01*
X031711Y002594D01*
X031711Y002596D01*
X031711Y002599D01*
Y002600D01*
X031711Y002601D01*
Y002602D01*
X031726D01*
Y002598D01*
X031726Y002597D01*
Y002597D01*
X031727Y002595D01*
X031727Y002594D01*
X031727Y002592D01*
X031727Y002591D01*
X031728Y002590D01*
X031728Y002590D01*
X031728Y002589D01*
X031728Y002589D01*
X031729Y002589D01*
X031729Y002588D01*
X031730Y002587D01*
X031731Y002586D01*
X031732Y002586D01*
X031733Y002585D01*
X031733Y002585D01*
X031733Y002585D01*
X031733Y002584D01*
X031734Y002584D01*
X031734Y002584D01*
X031735Y002584D01*
X031735Y002583D01*
X031736Y002583D01*
X031737Y002583D01*
X031738Y002582D01*
X031740Y002582D01*
X031741Y002581D01*
X031742Y002581D01*
X031744Y002580D01*
X031746Y002579D01*
X031746D01*
X031746Y002579D01*
X031746Y002579D01*
X031747Y002579D01*
X031747Y002579D01*
X031748Y002579D01*
X031749Y002578D01*
X031750Y002578D01*
X031752Y002577D01*
X031753Y002576D01*
X031755Y002575D01*
X031755D01*
X031755Y002575D01*
X031755Y002575D01*
X031756Y002574D01*
X031757Y002574D01*
X031758Y002572D01*
X031759Y002571D01*
X031760Y002570D01*
X031760Y002570D01*
X031761Y002569D01*
X031761Y002568D01*
Y002568D01*
X031761Y002568D01*
X031762Y002568D01*
X031762Y002569D01*
X031762Y002569D01*
X031762Y002570D01*
X031763Y002571D01*
X031763Y002572D01*
X031764Y002572D01*
X031764Y002573D01*
X031765Y002574D01*
X031765Y002575D01*
X031766Y002576D01*
X031767Y002577D01*
X031768Y002578D01*
X031769Y002579D01*
X031769Y002579D01*
X031770Y002579D01*
X031770Y002579D01*
X031770Y002580D01*
X031771Y002580D01*
X031772Y002581D01*
X031773Y002581D01*
X031774Y002582D01*
X031775Y002583D01*
X031776Y002583D01*
X031777Y002584D01*
X031779Y002585D01*
X031780Y002586D01*
X031782Y002587D01*
X031784Y002588D01*
X031786Y002589D01*
X031814Y002603D01*
Y002579D01*
D02*
G37*
G36*
X032093Y002531D02*
X032074D01*
Y002550D01*
X032093D01*
Y002531D01*
D02*
G37*
G36*
X032073Y002504D02*
X032093D01*
Y002485D01*
X032073D01*
Y002444D01*
X032056D01*
X031991Y002488D01*
Y002504D01*
X032056D01*
Y002517D01*
X032073D01*
Y002504D01*
D02*
G37*
G36*
X031814Y002447D02*
X031747D01*
X031814Y002406D01*
Y002385D01*
X031712D01*
Y002404D01*
X031780D01*
X031712Y002446D01*
Y002467D01*
X031814D01*
Y002447D01*
D02*
G37*
G36*
X031921Y002436D02*
X031922D01*
X031923Y002436D01*
X031924Y002436D01*
X031925Y002436D01*
X031927Y002436D01*
X031928Y002436D01*
X031931Y002435D01*
X031934Y002435D01*
X031938Y002434D01*
X031941Y002434D01*
X031945Y002433D01*
X031948Y002432D01*
X031951Y002431D01*
X031954Y002429D01*
X031956Y002429D01*
X031957Y002428D01*
X031959Y002427D01*
X031960Y002426D01*
X031960Y002426D01*
X031960Y002426D01*
X031961Y002425D01*
X031962Y002425D01*
X031962Y002424D01*
X031963Y002423D01*
X031964Y002421D01*
X031965Y002420D01*
X031966Y002419D01*
X031967Y002417D01*
X031968Y002415D01*
X031969Y002413D01*
X031969Y002411D01*
X031970Y002408D01*
X031970Y002406D01*
X031970Y002403D01*
Y002402D01*
X031970Y002402D01*
X031970Y002400D01*
X031970Y002399D01*
X031970Y002398D01*
X031969Y002396D01*
X031969Y002394D01*
X031968Y002392D01*
X031967Y002391D01*
X031967Y002389D01*
X031965Y002386D01*
X031964Y002384D01*
X031963Y002383D01*
X031961Y002381D01*
X031959Y002379D01*
X031959Y002379D01*
X031958Y002378D01*
X031958Y002378D01*
X031958Y002378D01*
X031957Y002378D01*
X031957Y002377D01*
X031956Y002377D01*
X031955Y002377D01*
X031954Y002376D01*
X031954Y002376D01*
X031953Y002376D01*
X031952Y002375D01*
X031951Y002375D01*
X031949Y002374D01*
X031948Y002374D01*
X031947Y002373D01*
X031945Y002373D01*
X031944Y002373D01*
X031942Y002372D01*
X031941Y002372D01*
X031939Y002372D01*
X031937Y002371D01*
X031935Y002371D01*
X031933Y002371D01*
X031930Y002370D01*
X031928Y002370D01*
X031926Y002370D01*
X031923Y002370D01*
X031921Y002370D01*
X031918D01*
X031918D01*
X031918D01*
X031917D01*
X031917D01*
X031916Y002370D01*
X031915D01*
X031914D01*
X031913Y002370D01*
X031912Y002370D01*
X031911Y002370D01*
X031910Y002370D01*
X031908Y002370D01*
X031905Y002371D01*
X031902Y002371D01*
X031899Y002372D01*
X031895Y002372D01*
X031892Y002373D01*
X031888Y002374D01*
X031885Y002375D01*
X031882Y002376D01*
X031880Y002377D01*
X031879Y002378D01*
X031878Y002379D01*
X031876Y002380D01*
X031876Y002380D01*
X031876Y002380D01*
X031875Y002381D01*
X031875Y002381D01*
X031874Y002382D01*
X031873Y002383D01*
X031872Y002384D01*
X031871Y002386D01*
X031870Y002387D01*
X031869Y002389D01*
X031868Y002391D01*
X031867Y002393D01*
X031867Y002395D01*
X031866Y002398D01*
X031866Y002400D01*
X031866Y002403D01*
Y002404D01*
X031866Y002404D01*
X031866Y002405D01*
X031866Y002407D01*
X031866Y002408D01*
X031867Y002410D01*
X031867Y002411D01*
X031868Y002413D01*
X031868Y002415D01*
X031869Y002417D01*
X031870Y002419D01*
X031872Y002421D01*
X031873Y002423D01*
X031875Y002425D01*
X031877Y002426D01*
X031877Y002426D01*
X031877Y002426D01*
X031877Y002427D01*
X031877Y002427D01*
X031878Y002427D01*
X031878Y002427D01*
X031879Y002428D01*
X031880Y002428D01*
X031880Y002428D01*
X031881Y002429D01*
X031882Y002429D01*
X031883Y002430D01*
X031884Y002430D01*
X031885Y002431D01*
X031886Y002431D01*
X031888Y002432D01*
X031889Y002432D01*
X031891Y002433D01*
X031892Y002433D01*
X031894Y002433D01*
X031896Y002434D01*
X031897Y002434D01*
X031899Y002435D01*
X031901Y002435D01*
X031903Y002435D01*
X031906Y002436D01*
X031908Y002436D01*
X031910Y002436D01*
X031913Y002436D01*
X031915Y002436D01*
X031918D01*
X031918D01*
X031918D01*
X031919D01*
X031919D01*
X031920D01*
X031921Y002436D01*
D02*
G37*
G36*
X032046Y002434D02*
X032047D01*
X032048Y002434D01*
X032049Y002434D01*
X032050Y002434D01*
X032051Y002434D01*
X032053Y002433D01*
X032056Y002433D01*
X032059Y002433D01*
X032063Y002432D01*
X032066Y002431D01*
X032069Y002431D01*
X032073Y002430D01*
X032076Y002428D01*
X032079Y002427D01*
X032081Y002426D01*
X032082Y002426D01*
X032084Y002425D01*
X032085Y002424D01*
X032085Y002424D01*
X032085Y002423D01*
X032086Y002423D01*
X032086Y002422D01*
X032087Y002421D01*
X032088Y002420D01*
X032089Y002419D01*
X032090Y002418D01*
X032091Y002416D01*
X032092Y002415D01*
X032093Y002413D01*
X032094Y002411D01*
X032094Y002408D01*
X032095Y002406D01*
X032095Y002403D01*
X032095Y002401D01*
Y002400D01*
X032095Y002399D01*
X032095Y002398D01*
X032095Y002397D01*
X032095Y002395D01*
X032094Y002394D01*
X032094Y002392D01*
X032093Y002390D01*
X032092Y002388D01*
X032092Y002386D01*
X032090Y002384D01*
X032089Y002382D01*
X032088Y002380D01*
X032086Y002378D01*
X032084Y002377D01*
X032084Y002376D01*
X032083Y002376D01*
X032083Y002376D01*
X032082Y002376D01*
X032082Y002375D01*
X032082Y002375D01*
X032081Y002375D01*
X032080Y002374D01*
X032079Y002374D01*
X032079Y002374D01*
X032078Y002373D01*
X032077Y002373D01*
X032076Y002372D01*
X032074Y002372D01*
X032073Y002372D01*
X032072Y002371D01*
X032070Y002371D01*
X032069Y002370D01*
X032067Y002370D01*
X032065Y002370D01*
X032064Y002369D01*
X032062Y002369D01*
X032060Y002369D01*
X032058Y002368D01*
X032055Y002368D01*
X032053Y002368D01*
X032051Y002368D01*
X032048Y002368D01*
X032046Y002367D01*
X032043D01*
X032043D01*
X032043D01*
X032042D01*
X032042D01*
X032041Y002368D01*
X032040D01*
X032039D01*
X032038Y002368D01*
X032037Y002368D01*
X032036Y002368D01*
X032034Y002368D01*
X032033Y002368D01*
X032030Y002368D01*
X032027Y002369D01*
X032023Y002369D01*
X032020Y002370D01*
X032017Y002371D01*
X032013Y002372D01*
X032010Y002373D01*
X032007Y002374D01*
X032005Y002375D01*
X032004Y002376D01*
X032003Y002377D01*
X032001Y002377D01*
X032001Y002377D01*
X032001Y002378D01*
X032000Y002378D01*
X032000Y002379D01*
X031999Y002380D01*
X031998Y002381D01*
X031997Y002382D01*
X031996Y002383D01*
X031995Y002385D01*
X031994Y002387D01*
X031993Y002389D01*
X031992Y002391D01*
X031992Y002393D01*
X031991Y002395D01*
X031991Y002398D01*
X031991Y002401D01*
Y002401D01*
X031991Y002402D01*
X031991Y002403D01*
X031991Y002404D01*
X031991Y002406D01*
X031992Y002407D01*
X031992Y002409D01*
X031993Y002411D01*
X031993Y002413D01*
X031994Y002415D01*
X031995Y002417D01*
X031996Y002419D01*
X031998Y002420D01*
X032000Y002422D01*
X032001Y002424D01*
X032002Y002424D01*
X032002Y002424D01*
X032002Y002424D01*
X032002Y002425D01*
X032003Y002425D01*
X032003Y002425D01*
X032004Y002425D01*
X032004Y002426D01*
X032005Y002426D01*
X032006Y002427D01*
X032007Y002427D01*
X032008Y002427D01*
X032009Y002428D01*
X032010Y002428D01*
X032011Y002429D01*
X032013Y002429D01*
X032014Y002430D01*
X032016Y002430D01*
X032017Y002431D01*
X032019Y002431D01*
X032020Y002432D01*
X032022Y002432D01*
X032024Y002432D01*
X032026Y002433D01*
X032028Y002433D01*
X032031Y002433D01*
X032033Y002433D01*
X032035Y002434D01*
X032038Y002434D01*
X032040Y002434D01*
X032043D01*
X032043D01*
X032043D01*
X032044D01*
X032044D01*
X032045D01*
X032046Y002434D01*
D02*
G37*
G36*
X031969Y002334D02*
X031949D01*
Y002354D01*
X031969D01*
Y002334D01*
D02*
G37*
G36*
X032093Y002332D02*
X032074D01*
Y002352D01*
X032093D01*
Y002332D01*
D02*
G37*
G36*
X031939Y002318D02*
X031940Y002318D01*
X031941Y002318D01*
X031943Y002317D01*
X031944Y002317D01*
X031946Y002317D01*
X031948Y002316D01*
X031949Y002315D01*
X031951Y002315D01*
X031953Y002314D01*
X031955Y002313D01*
X031957Y002311D01*
X031959Y002310D01*
X031961Y002308D01*
X031961Y002308D01*
X031961Y002308D01*
X031962Y002307D01*
X031962Y002306D01*
X031963Y002305D01*
X031964Y002304D01*
X031965Y002303D01*
X031966Y002301D01*
X031966Y002300D01*
X031967Y002298D01*
X031968Y002296D01*
X031969Y002294D01*
X031969Y002291D01*
X031970Y002289D01*
X031970Y002286D01*
X031970Y002284D01*
Y002283D01*
X031970Y002282D01*
X031970Y002281D01*
X031970Y002280D01*
X031970Y002279D01*
X031970Y002277D01*
X031969Y002275D01*
X031969Y002274D01*
X031968Y002272D01*
X031968Y002270D01*
X031967Y002268D01*
X031966Y002266D01*
X031965Y002264D01*
X031964Y002262D01*
X031962Y002261D01*
X031962Y002260D01*
X031962Y002260D01*
X031962Y002260D01*
X031961Y002259D01*
X031960Y002258D01*
X031959Y002258D01*
X031958Y002257D01*
X031957Y002256D01*
X031955Y002255D01*
X031954Y002254D01*
X031952Y002253D01*
X031950Y002252D01*
X031948Y002251D01*
X031946Y002251D01*
X031944Y002250D01*
X031941Y002250D01*
X031939Y002269D01*
X031939D01*
X031939Y002269D01*
X031940D01*
X031940Y002269D01*
X031941Y002269D01*
X031942Y002270D01*
X031942Y002270D01*
X031943Y002270D01*
X031945Y002271D01*
X031947Y002271D01*
X031949Y002272D01*
X031950Y002273D01*
X031950Y002274D01*
X031950Y002274D01*
X031950Y002274D01*
X031951Y002274D01*
X031951Y002275D01*
X031951Y002275D01*
X031951Y002275D01*
X031952Y002277D01*
X031953Y002278D01*
X031953Y002280D01*
X031954Y002281D01*
X031954Y002282D01*
X031954Y002283D01*
Y002284D01*
X031954Y002284D01*
X031954Y002285D01*
X031954Y002286D01*
X031953Y002287D01*
X031953Y002289D01*
X031953Y002289D01*
X031952Y002290D01*
X031952Y002291D01*
X031951Y002292D01*
X031950Y002293D01*
X031949Y002294D01*
X031949Y002294D01*
X031949Y002294D01*
X031949Y002294D01*
X031949Y002294D01*
X031948Y002295D01*
X031948Y002295D01*
X031947Y002295D01*
X031946Y002296D01*
X031945Y002296D01*
X031944Y002296D01*
X031943Y002297D01*
X031942Y002297D01*
X031941Y002297D01*
X031940Y002298D01*
X031938Y002298D01*
X031937Y002298D01*
X031937D01*
X031937D01*
X031936D01*
X031936Y002298D01*
X031935Y002298D01*
X031934Y002298D01*
X031934Y002298D01*
X031933Y002297D01*
X031931Y002297D01*
X031929Y002296D01*
X031928Y002296D01*
X031927Y002295D01*
X031926Y002295D01*
X031925Y002294D01*
X031925Y002294D01*
X031925Y002294D01*
X031925Y002293D01*
X031925Y002293D01*
X031924Y002293D01*
X031924Y002292D01*
X031923Y002291D01*
X031922Y002290D01*
X031922Y002288D01*
X031921Y002287D01*
X031921Y002286D01*
X031921Y002285D01*
X031921Y002284D01*
Y002283D01*
X031921Y002283D01*
Y002283D01*
X031921Y002282D01*
X031921Y002280D01*
X031922Y002279D01*
X031922Y002277D01*
X031922Y002275D01*
X031906Y002277D01*
Y002279D01*
X031906Y002279D01*
X031906Y002280D01*
X031906Y002281D01*
X031906Y002282D01*
X031906Y002284D01*
X031905Y002286D01*
X031905Y002287D01*
X031904Y002288D01*
X031904Y002289D01*
X031903Y002290D01*
X031903Y002290D01*
X031903Y002290D01*
X031903Y002290D01*
X031902Y002290D01*
X031902Y002291D01*
X031902Y002291D01*
X031901Y002291D01*
X031900Y002292D01*
X031899Y002292D01*
X031897Y002293D01*
X031896Y002293D01*
X031895Y002294D01*
X031894Y002294D01*
X031893Y002294D01*
X031893D01*
X031893D01*
X031893D01*
X031892Y002294D01*
X031892D01*
X031892Y002294D01*
X031890Y002293D01*
X031889Y002293D01*
X031888Y002292D01*
X031886Y002292D01*
X031885Y002291D01*
X031885Y002291D01*
X031885Y002290D01*
X031884Y002289D01*
X031884Y002288D01*
X031883Y002287D01*
X031882Y002286D01*
X031882Y002284D01*
X031882Y002282D01*
Y002282D01*
X031882Y002282D01*
Y002281D01*
X031882Y002281D01*
X031882Y002279D01*
X031883Y002278D01*
X031883Y002277D01*
X031884Y002275D01*
X031885Y002274D01*
X031886Y002274D01*
X031886Y002274D01*
X031886Y002274D01*
X031886Y002274D01*
X031886Y002273D01*
X031887Y002273D01*
X031887Y002273D01*
X031888Y002272D01*
X031888Y002272D01*
X031889Y002272D01*
X031890Y002271D01*
X031890Y002271D01*
X031891Y002270D01*
X031892Y002270D01*
X031893Y002270D01*
X031894Y002270D01*
X031896Y002270D01*
X031893Y002251D01*
X031893D01*
X031892Y002252D01*
X031892Y002252D01*
X031891Y002252D01*
X031890Y002252D01*
X031889Y002252D01*
X031888Y002253D01*
X031887Y002253D01*
X031885Y002254D01*
X031882Y002255D01*
X031880Y002256D01*
X031879Y002256D01*
X031878Y002257D01*
X031878Y002257D01*
X031878Y002257D01*
X031877Y002257D01*
X031877Y002258D01*
X031876Y002258D01*
X031876Y002259D01*
X031875Y002259D01*
X031875Y002260D01*
X031874Y002261D01*
X031873Y002261D01*
X031872Y002262D01*
X031872Y002263D01*
X031871Y002264D01*
X031870Y002265D01*
X031869Y002268D01*
X031869Y002268D01*
X031869Y002268D01*
X031869Y002268D01*
X031869Y002269D01*
X031868Y002270D01*
X031868Y002270D01*
X031868Y002271D01*
X031867Y002272D01*
X031867Y002273D01*
X031867Y002274D01*
X031867Y002276D01*
X031866Y002277D01*
X031866Y002280D01*
X031866Y002281D01*
Y002284D01*
X031866Y002284D01*
X031866Y002285D01*
X031866Y002287D01*
X031866Y002288D01*
X031867Y002290D01*
X031867Y002291D01*
X031867Y002293D01*
X031868Y002295D01*
X031869Y002297D01*
X031870Y002299D01*
X031871Y002301D01*
X031872Y002303D01*
X031873Y002304D01*
X031875Y002306D01*
X031875Y002306D01*
X031875Y002306D01*
X031876Y002307D01*
X031876Y002307D01*
X031877Y002308D01*
X031878Y002308D01*
X031879Y002309D01*
X031880Y002310D01*
X031881Y002310D01*
X031883Y002311D01*
X031884Y002312D01*
X031885Y002312D01*
X031887Y002313D01*
X031889Y002313D01*
X031890Y002313D01*
X031892Y002313D01*
X031892D01*
X031893D01*
X031893Y002313D01*
X031894Y002313D01*
X031895Y002313D01*
X031897Y002313D01*
X031898Y002312D01*
X031900Y002312D01*
X031901Y002311D01*
X031903Y002310D01*
X031905Y002309D01*
X031907Y002307D01*
X031909Y002306D01*
X031910Y002305D01*
X031910Y002304D01*
X031911Y002302D01*
X031912Y002301D01*
X031913Y002300D01*
X031914Y002299D01*
Y002299D01*
X031914Y002299D01*
X031914Y002299D01*
X031914Y002300D01*
X031914Y002301D01*
X031915Y002302D01*
X031915Y002303D01*
X031915Y002304D01*
X031916Y002305D01*
X031916Y002306D01*
X031917Y002307D01*
X031918Y002308D01*
X031919Y002309D01*
X031920Y002311D01*
X031921Y002312D01*
X031922Y002313D01*
X031922Y002313D01*
X031922Y002313D01*
X031923Y002313D01*
X031923Y002313D01*
X031924Y002314D01*
X031925Y002314D01*
X031926Y002315D01*
X031926Y002315D01*
X031928Y002316D01*
X031929Y002316D01*
X031930Y002317D01*
X031931Y002317D01*
X031933Y002317D01*
X031935Y002318D01*
X031936Y002318D01*
X031938Y002318D01*
X031938D01*
X031938D01*
X031939Y002318D01*
D02*
G37*
G36*
X031814Y002351D02*
X031791Y002343D01*
Y002302D01*
X031814Y002293D01*
Y002271D01*
X031712Y002311D01*
Y002333D01*
X031814Y002374D01*
Y002351D01*
D02*
G37*
G36*
X032062Y002317D02*
X032063Y002317D01*
X032064Y002316D01*
X032066Y002316D01*
X032068Y002316D01*
X032070Y002315D01*
X032072Y002315D01*
X032074Y002314D01*
X032076Y002314D01*
X032078Y002313D01*
X032080Y002312D01*
X032082Y002310D01*
X032084Y002309D01*
X032086Y002307D01*
X032086Y002307D01*
X032086Y002307D01*
X032087Y002306D01*
X032087Y002306D01*
X032088Y002305D01*
X032089Y002304D01*
X032090Y002302D01*
X032090Y002301D01*
X032091Y002299D01*
X032092Y002298D01*
X032093Y002296D01*
X032094Y002294D01*
X032094Y002291D01*
X032095Y002289D01*
X032095Y002286D01*
X032095Y002284D01*
Y002283D01*
X032095Y002283D01*
Y002282D01*
X032095Y002281D01*
X032095Y002280D01*
X032095Y002278D01*
X032094Y002277D01*
X032094Y002275D01*
X032093Y002273D01*
X032092Y002271D01*
X032091Y002269D01*
X032090Y002266D01*
X032089Y002264D01*
X032087Y002262D01*
X032085Y002260D01*
X032083Y002258D01*
X032083Y002258D01*
X032083Y002258D01*
X032082Y002258D01*
X032082Y002257D01*
X032081Y002257D01*
X032081Y002257D01*
X032080Y002256D01*
X032080Y002256D01*
X032079Y002256D01*
X032078Y002255D01*
X032077Y002255D01*
X032076Y002254D01*
X032075Y002254D01*
X032074Y002253D01*
X032073Y002253D01*
X032071Y002252D01*
X032070Y002252D01*
X032068Y002251D01*
X032067Y002251D01*
X032065Y002251D01*
X032063Y002250D01*
X032061Y002250D01*
X032060Y002250D01*
X032058Y002249D01*
X032056Y002249D01*
X032053Y002249D01*
X032051Y002249D01*
X032049Y002249D01*
X032046Y002248D01*
X032044D01*
X032044D01*
X032043D01*
X032043D01*
X032042D01*
X032042Y002248D01*
X032041D01*
X032040D01*
X032039Y002249D01*
X032038Y002249D01*
X032037Y002249D01*
X032036Y002249D01*
X032034Y002249D01*
X032031Y002249D01*
X032028Y002250D01*
X032025Y002250D01*
X032022Y002251D01*
X032018Y002252D01*
X032015Y002253D01*
X032012Y002254D01*
X032009Y002255D01*
X032007Y002256D01*
X032006Y002257D01*
X032004Y002258D01*
X032003Y002259D01*
X032003Y002259D01*
X032003Y002259D01*
X032002Y002260D01*
X032001Y002261D01*
X032000Y002262D01*
X031999Y002263D01*
X031998Y002264D01*
X031997Y002266D01*
X031996Y002268D01*
X031995Y002270D01*
X031994Y002272D01*
X031993Y002275D01*
X031992Y002277D01*
X031991Y002280D01*
X031991Y002283D01*
X031991Y002286D01*
Y002286D01*
X031991Y002287D01*
Y002288D01*
X031991Y002289D01*
X031991Y002290D01*
X031991Y002291D01*
X031992Y002292D01*
X031992Y002294D01*
X031992Y002296D01*
X031993Y002297D01*
X031994Y002299D01*
X031994Y002300D01*
X031995Y002302D01*
X031996Y002304D01*
X031997Y002305D01*
X031997Y002305D01*
X031998Y002305D01*
X031998Y002306D01*
X031999Y002306D01*
X031999Y002307D01*
X032000Y002308D01*
X032001Y002308D01*
X032002Y002309D01*
X032003Y002310D01*
X032005Y002311D01*
X032006Y002312D01*
X032008Y002312D01*
X032010Y002313D01*
X032012Y002314D01*
X032014Y002314D01*
X032016Y002315D01*
X032018Y002296D01*
X032018D01*
X032018D01*
X032018Y002296D01*
X032017Y002296D01*
X032017Y002296D01*
X032016Y002295D01*
X032015Y002295D01*
X032014Y002295D01*
X032012Y002294D01*
X032011Y002293D01*
X032010Y002292D01*
X032010Y002292D01*
X032009Y002292D01*
X032009Y002291D01*
X032008Y002290D01*
X032008Y002289D01*
X032007Y002288D01*
X032007Y002286D01*
X032007Y002285D01*
Y002284D01*
X032007Y002283D01*
X032007Y002283D01*
X032007Y002282D01*
X032007Y002282D01*
X032008Y002281D01*
X032008Y002280D01*
X032008Y002279D01*
X032009Y002278D01*
X032009Y002277D01*
X032010Y002277D01*
X032011Y002276D01*
X032012Y002275D01*
X032012Y002274D01*
X032013Y002274D01*
X032013Y002274D01*
X032013Y002274D01*
X032014Y002273D01*
X032014Y002273D01*
X032015Y002273D01*
X032016Y002272D01*
X032017Y002272D01*
X032019Y002271D01*
X032021Y002271D01*
X032022Y002270D01*
X032025Y002270D01*
X032027Y002270D01*
X032030Y002269D01*
X032033Y002269D01*
X032036Y002269D01*
X032036Y002269D01*
X032035Y002269D01*
X032035Y002269D01*
X032034Y002270D01*
X032034Y002271D01*
X032033Y002272D01*
X032032Y002273D01*
X032031Y002274D01*
X032031Y002275D01*
X032030Y002276D01*
X032029Y002278D01*
X032028Y002279D01*
X032028Y002281D01*
X032027Y002283D01*
X032027Y002285D01*
X032027Y002287D01*
Y002287D01*
X032027Y002288D01*
X032027Y002289D01*
X032027Y002290D01*
X032027Y002291D01*
X032028Y002293D01*
X032028Y002294D01*
X032029Y002296D01*
X032029Y002297D01*
X032030Y002299D01*
X032031Y002301D01*
X032032Y002303D01*
X032033Y002304D01*
X032035Y002306D01*
X032036Y002308D01*
X032036Y002308D01*
X032037Y002308D01*
X032037Y002309D01*
X032038Y002309D01*
X032039Y002310D01*
X032040Y002311D01*
X032041Y002311D01*
X032043Y002312D01*
X032045Y002313D01*
X032046Y002314D01*
X032048Y002315D01*
X032050Y002315D01*
X032053Y002316D01*
X032055Y002316D01*
X032058Y002317D01*
X032061Y002317D01*
X032061D01*
X032061D01*
X032061D01*
X032061D01*
X032062D01*
X032062Y002317D01*
D02*
G37*
G36*
X031943Y002223D02*
X031970Y002217D01*
Y002202D01*
X031943Y002207D01*
Y002192D01*
X031970Y002186D01*
Y002170D01*
X031943Y002176D01*
Y002166D01*
X031928D01*
Y002179D01*
X031907Y002183D01*
Y002166D01*
X031892D01*
Y002186D01*
X031865Y002192D01*
Y002208D01*
X031892Y002202D01*
Y002217D01*
X031865Y002223D01*
Y002239D01*
X031892Y002233D01*
Y002243D01*
X031907D01*
Y002230D01*
X031928Y002226D01*
Y002243D01*
X031943D01*
Y002223D01*
D02*
G37*
G36*
X032093Y002166D02*
X032093D01*
X032093Y002166D01*
X032092Y002167D01*
X032092Y002167D01*
X032091Y002167D01*
X032090Y002167D01*
X032088Y002167D01*
X032087Y002168D01*
X032086Y002168D01*
X032084Y002169D01*
X032083Y002169D01*
X032081Y002170D01*
X032079Y002170D01*
X032077Y002171D01*
X032076Y002172D01*
X032074Y002173D01*
X032074Y002173D01*
X032073Y002173D01*
X032073Y002174D01*
X032072Y002174D01*
X032071Y002175D01*
X032070Y002176D01*
X032069Y002177D01*
X032067Y002178D01*
X032066Y002179D01*
X032064Y002181D01*
X032062Y002183D01*
X032060Y002185D01*
X032057Y002187D01*
X032055Y002189D01*
X032052Y002192D01*
X032049Y002195D01*
X032049Y002195D01*
X032049Y002195D01*
X032049Y002196D01*
X032048Y002196D01*
X032047Y002197D01*
X032046Y002198D01*
X032045Y002200D01*
X032044Y002201D01*
X032043Y002202D01*
X032040Y002205D01*
X032039Y002206D01*
X032037Y002208D01*
X032036Y002209D01*
X032035Y002210D01*
X032034Y002211D01*
X032033Y002211D01*
X032033Y002211D01*
X032032Y002212D01*
X032032Y002212D01*
X032032Y002212D01*
X032031Y002212D01*
X032030Y002213D01*
X032030Y002213D01*
X032029Y002213D01*
X032027Y002214D01*
X032025Y002215D01*
X032023Y002215D01*
X032022Y002215D01*
X032021Y002215D01*
X032021D01*
X032020D01*
X032020D01*
X032020Y002215D01*
X032019D01*
X032018Y002215D01*
X032017Y002215D01*
X032015Y002215D01*
X032014Y002214D01*
X032012Y002213D01*
X032011Y002213D01*
X032011Y002212D01*
X032010Y002212D01*
X032010Y002212D01*
X032010Y002212D01*
X032010Y002211D01*
X032010Y002211D01*
X032009Y002210D01*
X032009Y002210D01*
X032009Y002209D01*
X032008Y002208D01*
X032008Y002206D01*
X032007Y002204D01*
X032007Y002203D01*
X032007Y002202D01*
Y002202D01*
X032007Y002201D01*
Y002201D01*
X032007Y002200D01*
X032007Y002199D01*
X032008Y002197D01*
X032009Y002195D01*
X032009Y002195D01*
X032009Y002194D01*
X032010Y002193D01*
X032011Y002192D01*
X032011Y002192D01*
X032011Y002192D01*
X032011Y002192D01*
X032011Y002192D01*
X032012Y002191D01*
X032012Y002191D01*
X032013Y002191D01*
X032014Y002190D01*
X032014Y002190D01*
X032015Y002190D01*
X032016Y002189D01*
X032017Y002189D01*
X032019Y002189D01*
X032020Y002189D01*
X032021Y002188D01*
X032023Y002188D01*
X032021Y002169D01*
X032021D01*
X032021D01*
X032021Y002169D01*
X032020D01*
X032020Y002169D01*
X032020Y002169D01*
X032018Y002169D01*
X032017Y002169D01*
X032016Y002170D01*
X032014Y002170D01*
X032012Y002171D01*
X032010Y002171D01*
X032008Y002172D01*
X032006Y002173D01*
X032004Y002174D01*
X032003Y002175D01*
X032001Y002176D01*
X031999Y002178D01*
X031998Y002180D01*
X031998Y002180D01*
X031998Y002180D01*
X031997Y002181D01*
X031997Y002181D01*
X031996Y002182D01*
X031996Y002183D01*
X031995Y002185D01*
X031994Y002186D01*
X031994Y002187D01*
X031993Y002189D01*
X031992Y002191D01*
X031992Y002193D01*
X031991Y002195D01*
X031991Y002198D01*
X031991Y002200D01*
X031991Y002203D01*
Y002203D01*
X031991Y002204D01*
X031991Y002205D01*
X031991Y002206D01*
X031991Y002208D01*
X031991Y002209D01*
X031992Y002211D01*
X031992Y002213D01*
X031993Y002215D01*
X031993Y002217D01*
X031994Y002219D01*
X031995Y002221D01*
X031996Y002223D01*
X031997Y002225D01*
X031999Y002226D01*
X031999Y002226D01*
X031999Y002227D01*
X032000Y002227D01*
X032000Y002228D01*
X032001Y002228D01*
X032002Y002229D01*
X032003Y002230D01*
X032005Y002231D01*
X032006Y002232D01*
X032007Y002232D01*
X032009Y002233D01*
X032011Y002234D01*
X032013Y002234D01*
X032015Y002235D01*
X032017Y002235D01*
X032019Y002235D01*
X032019D01*
X032020D01*
X032020D01*
X032020D01*
X032021Y002235D01*
X032022Y002235D01*
X032023Y002235D01*
X032024Y002235D01*
X032026Y002235D01*
X032028Y002234D01*
X032030Y002233D01*
X032032Y002233D01*
X032033D01*
X032033Y002232D01*
X032033Y002232D01*
X032034Y002232D01*
X032034Y002232D01*
X032035Y002232D01*
X032036Y002231D01*
X032036Y002231D01*
X032037Y002230D01*
X032038Y002230D01*
X032041Y002228D01*
X032043Y002227D01*
X032045Y002225D01*
X032046Y002225D01*
X032046Y002225D01*
X032046Y002224D01*
X032046Y002224D01*
X032047Y002224D01*
X032047Y002223D01*
X032048Y002223D01*
X032049Y002222D01*
X032050Y002221D01*
X032051Y002220D01*
X032052Y002219D01*
X032053Y002218D01*
X032054Y002217D01*
X032056Y002215D01*
X032057Y002214D01*
X032059Y002212D01*
X032059Y002212D01*
X032059Y002212D01*
X032059Y002211D01*
X032060Y002210D01*
X032061Y002210D01*
X032061Y002209D01*
X032062Y002208D01*
X032063Y002207D01*
X032065Y002205D01*
X032067Y002203D01*
X032068Y002202D01*
X032069Y002201D01*
X032069Y002201D01*
X032070Y002200D01*
X032070Y002200D01*
X032070Y002200D01*
X032071Y002199D01*
X032072Y002199D01*
X032072Y002198D01*
X032073Y002197D01*
X032074Y002197D01*
X032075Y002196D01*
Y002235D01*
X032093D01*
Y002166D01*
D02*
G37*
G36*
X031765Y002266D02*
X031765D01*
X031766Y002266D01*
X031767Y002265D01*
X031768Y002265D01*
X031769Y002265D01*
X031770Y002265D01*
X031772Y002265D01*
X031774Y002265D01*
X031777Y002264D01*
X031780Y002263D01*
X031783Y002262D01*
X031787Y002261D01*
X031790Y002260D01*
X031793Y002258D01*
X031796Y002257D01*
X031798Y002256D01*
X031799Y002255D01*
X031800Y002253D01*
X031802Y002252D01*
X031802Y002252D01*
X031802Y002252D01*
X031802Y002252D01*
X031802Y002252D01*
X031803Y002251D01*
X031803Y002251D01*
X031803Y002250D01*
X031804Y002250D01*
X031805Y002248D01*
X031806Y002247D01*
X031807Y002245D01*
X031809Y002243D01*
X031810Y002240D01*
X031811Y002237D01*
X031813Y002234D01*
X031814Y002231D01*
X031815Y002228D01*
X031815Y002224D01*
X031816Y002220D01*
X031816Y002218D01*
X031816Y002216D01*
Y002215D01*
X031816Y002215D01*
Y002214D01*
X031816Y002213D01*
X031816Y002212D01*
X031815Y002211D01*
X031815Y002210D01*
X031815Y002209D01*
X031815Y002208D01*
X031815Y002206D01*
X031814Y002203D01*
X031813Y002200D01*
X031812Y002197D01*
X031811Y002194D01*
X031810Y002191D01*
X031808Y002188D01*
X031806Y002185D01*
X031805Y002184D01*
X031804Y002183D01*
X031803Y002181D01*
X031802Y002180D01*
X031802D01*
X031802Y002180D01*
X031801Y002180D01*
X031801Y002179D01*
X031801Y002179D01*
X031800Y002179D01*
X031800Y002178D01*
X031799Y002178D01*
X031799Y002177D01*
X031798Y002177D01*
X031797Y002176D01*
X031796Y002176D01*
X031795Y002175D01*
X031794Y002174D01*
X031792Y002173D01*
X031789Y002172D01*
X031786Y002171D01*
X031783Y002170D01*
X031780Y002168D01*
X031776Y002168D01*
X031772Y002167D01*
X031768Y002167D01*
X031766Y002166D01*
X031764Y002166D01*
X031763D01*
X031763D01*
X031763D01*
X031763D01*
X031762D01*
X031762D01*
X031761Y002166D01*
X031760Y002167D01*
X031758Y002167D01*
X031756Y002167D01*
X031754Y002167D01*
X031752Y002167D01*
X031750Y002168D01*
X031748Y002168D01*
X031746Y002168D01*
X031744Y002169D01*
X031741Y002170D01*
X031739Y002170D01*
X031737Y002171D01*
X031737Y002171D01*
X031737Y002171D01*
X031737Y002171D01*
X031736Y002172D01*
X031735Y002172D01*
X031735Y002172D01*
X031734Y002173D01*
X031733Y002174D01*
X031730Y002175D01*
X031728Y002177D01*
X031726Y002178D01*
X031723Y002181D01*
X031723Y002181D01*
X031723Y002181D01*
X031723Y002181D01*
X031722Y002182D01*
X031722Y002182D01*
X031721Y002183D01*
X031720Y002184D01*
X031720Y002184D01*
X031719Y002185D01*
X031718Y002186D01*
X031717Y002189D01*
X031715Y002191D01*
X031715Y002192D01*
X031714Y002194D01*
X031714Y002194D01*
X031714Y002194D01*
X031714Y002195D01*
X031713Y002196D01*
X031713Y002196D01*
X031713Y002198D01*
X031712Y002199D01*
X031712Y002200D01*
X031712Y002202D01*
X031711Y002203D01*
X031711Y002205D01*
X031711Y002207D01*
X031710Y002209D01*
X031710Y002211D01*
X031710Y002214D01*
X031710Y002216D01*
Y002217D01*
X031710Y002217D01*
Y002218D01*
X031710Y002219D01*
X031710Y002220D01*
X031710Y002221D01*
X031710Y002222D01*
X031711Y002223D01*
X031711Y002224D01*
X031711Y002226D01*
X031712Y002229D01*
X031713Y002232D01*
X031713Y002235D01*
X031715Y002238D01*
X031716Y002241D01*
X031718Y002244D01*
X031719Y002247D01*
X031720Y002248D01*
X031722Y002249D01*
X031723Y002251D01*
X031724Y002252D01*
X031724Y002252D01*
X031724Y002252D01*
X031724Y002252D01*
X031725Y002253D01*
X031725Y002253D01*
X031726Y002253D01*
X031726Y002254D01*
X031727Y002254D01*
X031727Y002255D01*
X031728Y002255D01*
X031729Y002256D01*
X031730Y002256D01*
X031731Y002257D01*
X031732Y002258D01*
X031733Y002258D01*
X031734Y002259D01*
X031737Y002260D01*
X031740Y002261D01*
X031743Y002262D01*
X031746Y002264D01*
X031750Y002264D01*
X031754Y002265D01*
X031758Y002266D01*
X031761Y002266D01*
X031763D01*
X031763D01*
X031763D01*
X031764D01*
X031764D01*
X031765Y002266D01*
D02*
G37*
%LPC*%
G36*
X031792Y003714D02*
X031792D01*
X031792D01*
X031792D01*
X031791Y003713D01*
X031791Y003713D01*
X031790Y003713D01*
X031789Y003713D01*
X031788Y003713D01*
X031787Y003712D01*
X031787Y003712D01*
X031786Y003711D01*
X031786Y003711D01*
X031785Y003710D01*
X031785Y003709D01*
Y003709D01*
X031785Y003709D01*
X031784Y003709D01*
X031784Y003709D01*
X031784Y003708D01*
X031784Y003708D01*
X031784Y003707D01*
X031784Y003706D01*
X031783Y003705D01*
X031783Y003704D01*
X031783Y003703D01*
X031783Y003701D01*
X031783Y003700D01*
X031783Y003698D01*
X031783Y003696D01*
Y003682D01*
X031802D01*
Y003701D01*
X031801Y003702D01*
Y003702D01*
X031801Y003703D01*
X031801Y003705D01*
X031801Y003707D01*
X031800Y003708D01*
X031800Y003709D01*
X031800Y003710D01*
X031799Y003711D01*
X031799Y003711D01*
X031799Y003711D01*
X031798Y003711D01*
X031798Y003712D01*
X031797Y003712D01*
X031796Y003713D01*
X031795Y003713D01*
X031794Y003713D01*
X031792Y003714D01*
D02*
G37*
G36*
X031798Y003451D02*
X031756D01*
Y003427D01*
X031756D01*
X031756D01*
X031757D01*
X031757Y003427D01*
X031758Y003427D01*
X031759D01*
X031760Y003427D01*
X031761Y003427D01*
X031762Y003427D01*
X031763Y003427D01*
X031765Y003427D01*
X031766Y003426D01*
X031769Y003426D01*
X031773Y003426D01*
X031776Y003425D01*
X031780Y003424D01*
X031783Y003424D01*
X031787Y003423D01*
X031790Y003422D01*
X031791Y003421D01*
X031793Y003420D01*
X031794Y003420D01*
X031796Y003419D01*
X031797Y003418D01*
X031798Y003417D01*
Y003451D01*
D02*
G37*
G36*
X031777Y003365D02*
X031777D01*
X031776D01*
X031776D01*
X031775Y003365D01*
X031774Y003365D01*
X031773Y003365D01*
X031772Y003365D01*
X031771Y003365D01*
X031769Y003364D01*
X031768Y003364D01*
X031767Y003364D01*
X031765Y003363D01*
X031764Y003363D01*
X031762Y003362D01*
X031761Y003361D01*
X031760Y003360D01*
X031760Y003360D01*
X031760Y003360D01*
X031760Y003360D01*
X031759Y003359D01*
X031759Y003359D01*
X031758Y003358D01*
X031758Y003357D01*
X031757Y003357D01*
X031757Y003356D01*
X031756Y003355D01*
X031756Y003354D01*
X031755Y003353D01*
X031755Y003351D01*
X031754Y003350D01*
X031754Y003349D01*
X031754Y003347D01*
Y003347D01*
X031754Y003346D01*
X031754Y003345D01*
X031754Y003345D01*
X031755Y003344D01*
X031755Y003343D01*
X031755Y003342D01*
X031756Y003341D01*
X031756Y003340D01*
X031757Y003339D01*
X031757Y003338D01*
X031758Y003336D01*
X031759Y003335D01*
X031760Y003334D01*
X031760Y003334D01*
X031760Y003334D01*
X031761Y003334D01*
X031761Y003334D01*
X031762Y003333D01*
X031763Y003333D01*
X031763Y003332D01*
X031764Y003332D01*
X031765Y003331D01*
X031767Y003331D01*
X031768Y003330D01*
X031770Y003330D01*
X031771Y003330D01*
X031773Y003329D01*
X031775Y003329D01*
X031777Y003329D01*
X031777D01*
X031777D01*
X031778D01*
X031779Y003329D01*
X031780Y003329D01*
X031781Y003330D01*
X031782Y003330D01*
X031783Y003330D01*
X031785Y003330D01*
X031786Y003330D01*
X031787Y003331D01*
X031789Y003331D01*
X031790Y003332D01*
X031791Y003333D01*
X031793Y003334D01*
X031794Y003334D01*
X031794Y003334D01*
X031794Y003335D01*
X031794Y003335D01*
X031795Y003335D01*
X031795Y003336D01*
X031796Y003336D01*
X031796Y003337D01*
X031797Y003338D01*
X031797Y003339D01*
X031798Y003340D01*
X031798Y003341D01*
X031799Y003342D01*
X031799Y003343D01*
X031799Y003345D01*
X031800Y003346D01*
X031800Y003347D01*
Y003348D01*
X031800Y003348D01*
Y003349D01*
X031800Y003349D01*
X031799Y003350D01*
X031799Y003351D01*
X031799Y003352D01*
X031799Y003353D01*
X031798Y003354D01*
X031798Y003355D01*
X031797Y003356D01*
X031797Y003357D01*
X031796Y003358D01*
X031795Y003359D01*
X031794Y003360D01*
X031794Y003360D01*
X031794Y003360D01*
X031793Y003361D01*
X031793Y003361D01*
X031792Y003361D01*
X031791Y003362D01*
X031791Y003362D01*
X031790Y003363D01*
X031788Y003363D01*
X031787Y003364D01*
X031786Y003364D01*
X031784Y003365D01*
X031783Y003365D01*
X031781Y003365D01*
X031779Y003365D01*
X031777Y003365D01*
D02*
G37*
G36*
X031773Y002771D02*
X031736Y002757D01*
X031773Y002743D01*
Y002771D01*
D02*
G37*
G36*
X032046Y002691D02*
X032043D01*
X032043D01*
X032043D01*
X032043D01*
X032042D01*
X032042D01*
X032041D01*
X032040D01*
X032039Y002691D01*
X032037D01*
X032035Y002691D01*
X032033Y002691D01*
X032031Y002691D01*
X032029Y002691D01*
X032027Y002691D01*
X032025Y002691D01*
X032023Y002691D01*
X032021Y002690D01*
X032020Y002690D01*
X032018Y002690D01*
X032018D01*
X032018Y002690D01*
X032018Y002689D01*
X032017Y002689D01*
X032017Y002689D01*
X032016Y002689D01*
X032015Y002688D01*
X032013Y002688D01*
X032012Y002687D01*
X032010Y002686D01*
X032010Y002685D01*
X032009Y002685D01*
X032009Y002685D01*
X032009Y002685D01*
X032009Y002684D01*
X032008Y002683D01*
X032008Y002682D01*
X032007Y002681D01*
X032007Y002680D01*
X032007Y002679D01*
Y002678D01*
X032007Y002677D01*
X032007Y002677D01*
X032008Y002676D01*
X032008Y002675D01*
X032009Y002673D01*
X032009Y002672D01*
X032009Y002672D01*
X032010Y002672D01*
X032010Y002671D01*
X032011Y002671D01*
X032012Y002670D01*
X032013Y002670D01*
X032014Y002669D01*
X032014Y002669D01*
X032015Y002669D01*
X032016Y002668D01*
X032017Y002668D01*
X032018D01*
X032018Y002668D01*
X032018Y002668D01*
X032019Y002668D01*
X032020Y002668D01*
X032021Y002667D01*
X032022Y002667D01*
X032024Y002667D01*
X032025Y002667D01*
X032027Y002667D01*
X032029Y002666D01*
X032031Y002666D01*
X032034Y002666D01*
X032037Y002666D01*
X032040Y002666D01*
X032043D01*
X032043D01*
X032043D01*
X032043D01*
X032044D01*
X032044D01*
X032045D01*
X032046D01*
X032047Y002666D01*
X032049D01*
X032051Y002666D01*
X032053Y002666D01*
X032055Y002666D01*
X032057Y002666D01*
X032059Y002667D01*
X032061Y002667D01*
X032063Y002667D01*
X032065Y002667D01*
X032066Y002667D01*
X032068Y002668D01*
X032068D01*
X032068Y002668D01*
X032068Y002668D01*
X032069Y002668D01*
X032069Y002668D01*
X032070Y002668D01*
X032071Y002669D01*
X032073Y002670D01*
X032074Y002670D01*
X032076Y002671D01*
X032076Y002672D01*
X032077Y002672D01*
X032077Y002672D01*
X032077Y002673D01*
X032077Y002673D01*
X032078Y002674D01*
X032078Y002675D01*
X032079Y002676D01*
X032079Y002677D01*
X032079Y002679D01*
Y002679D01*
X032079Y002679D01*
X032079Y002680D01*
X032079Y002681D01*
X032078Y002682D01*
X032078Y002683D01*
X032077Y002684D01*
X032077Y002685D01*
X032077Y002685D01*
X032076Y002685D01*
X032076Y002686D01*
X032075Y002687D01*
X032074Y002687D01*
X032073Y002688D01*
X032072Y002688D01*
X032071Y002688D01*
X032071Y002689D01*
X032070Y002689D01*
X032069Y002689D01*
X032069D01*
X032068Y002689D01*
X032068Y002690D01*
X032067Y002690D01*
X032066Y002690D01*
X032065Y002690D01*
X032064Y002690D01*
X032063Y002690D01*
X032061Y002691D01*
X032059Y002691D01*
X032057Y002691D01*
X032055Y002691D01*
X032052Y002691D01*
X032049Y002691D01*
X032046Y002691D01*
D02*
G37*
G36*
X032056Y002485D02*
X032021D01*
X032056Y002462D01*
Y002485D01*
D02*
G37*
G36*
X031921Y002416D02*
X031918D01*
X031918D01*
X031918D01*
X031918D01*
X031917D01*
X031917D01*
X031916D01*
X031915D01*
X031914Y002416D01*
X031912D01*
X031910Y002416D01*
X031908Y002415D01*
X031906Y002415D01*
X031904Y002415D01*
X031902Y002415D01*
X031900Y002415D01*
X031898Y002415D01*
X031896Y002414D01*
X031895Y002414D01*
X031893Y002414D01*
X031893D01*
X031893Y002414D01*
X031893Y002414D01*
X031892Y002414D01*
X031892Y002413D01*
X031891Y002413D01*
X031890Y002413D01*
X031888Y002412D01*
X031887Y002411D01*
X031885Y002410D01*
X031885Y002410D01*
X031884Y002409D01*
X031884Y002409D01*
X031884Y002409D01*
X031884Y002408D01*
X031883Y002407D01*
X031883Y002406D01*
X031882Y002405D01*
X031882Y002404D01*
X031882Y002403D01*
Y002402D01*
X031882Y002402D01*
X031882Y002401D01*
X031883Y002400D01*
X031883Y002399D01*
X031884Y002398D01*
X031884Y002397D01*
X031884Y002396D01*
X031885Y002396D01*
X031885Y002396D01*
X031886Y002395D01*
X031887Y002394D01*
X031888Y002394D01*
X031889Y002394D01*
X031890Y002393D01*
X031891Y002393D01*
X031892Y002393D01*
X031893Y002392D01*
X031893D01*
X031893Y002392D01*
X031893Y002392D01*
X031894Y002392D01*
X031895Y002392D01*
X031896Y002392D01*
X031897Y002391D01*
X031899Y002391D01*
X031900Y002391D01*
X031902Y002391D01*
X031904Y002391D01*
X031907Y002391D01*
X031909Y002390D01*
X031912Y002390D01*
X031915Y002390D01*
X031918D01*
X031918D01*
X031918D01*
X031919D01*
X031919D01*
X031919D01*
X031920D01*
X031921D01*
X031922Y002390D01*
X031924D01*
X031926Y002390D01*
X031928Y002390D01*
X031930Y002391D01*
X031932Y002391D01*
X031934Y002391D01*
X031936Y002391D01*
X031938Y002391D01*
X031940Y002391D01*
X031941Y002392D01*
X031943Y002392D01*
X031943D01*
X031943Y002392D01*
X031944Y002392D01*
X031944Y002392D01*
X031945Y002393D01*
X031945Y002393D01*
X031946Y002393D01*
X031948Y002394D01*
X031949Y002395D01*
X031951Y002396D01*
X031951Y002396D01*
X031952Y002397D01*
X031952Y002397D01*
X031952Y002397D01*
X031952Y002398D01*
X031953Y002398D01*
X031953Y002399D01*
X031954Y002400D01*
X031954Y002402D01*
X031954Y002403D01*
Y002403D01*
X031954Y002404D01*
X031954Y002404D01*
X031954Y002405D01*
X031954Y002406D01*
X031953Y002407D01*
X031953Y002408D01*
X031952Y002409D01*
X031952Y002409D01*
X031951Y002410D01*
X031951Y002410D01*
X031950Y002411D01*
X031949Y002412D01*
X031948Y002412D01*
X031947Y002412D01*
X031947Y002413D01*
X031946Y002413D01*
X031945Y002413D01*
X031944Y002414D01*
X031944D01*
X031943Y002414D01*
X031943Y002414D01*
X031942Y002414D01*
X031941Y002414D01*
X031940Y002414D01*
X031939Y002414D01*
X031938Y002415D01*
X031936Y002415D01*
X031934Y002415D01*
X031932Y002415D01*
X031930Y002415D01*
X031927Y002415D01*
X031924Y002416D01*
X031921Y002416D01*
D02*
G37*
G36*
X032046Y002413D02*
X032043D01*
X032043D01*
X032043D01*
X032043D01*
X032042D01*
X032042D01*
X032041D01*
X032040D01*
X032039Y002413D01*
X032037D01*
X032035Y002413D01*
X032033Y002413D01*
X032031Y002413D01*
X032029Y002413D01*
X032027Y002413D01*
X032025Y002413D01*
X032023Y002412D01*
X032021Y002412D01*
X032020Y002412D01*
X032018Y002412D01*
X032018D01*
X032018Y002411D01*
X032018Y002411D01*
X032017Y002411D01*
X032017Y002411D01*
X032016Y002411D01*
X032015Y002410D01*
X032013Y002410D01*
X032012Y002409D01*
X032010Y002408D01*
X032010Y002407D01*
X032009Y002407D01*
X032009Y002407D01*
X032009Y002406D01*
X032009Y002406D01*
X032008Y002405D01*
X032008Y002404D01*
X032007Y002403D01*
X032007Y002402D01*
X032007Y002401D01*
Y002400D01*
X032007Y002399D01*
X032007Y002398D01*
X032008Y002398D01*
X032008Y002396D01*
X032009Y002395D01*
X032009Y002394D01*
X032009Y002394D01*
X032010Y002394D01*
X032010Y002393D01*
X032011Y002393D01*
X032012Y002392D01*
X032013Y002392D01*
X032014Y002391D01*
X032014Y002391D01*
X032015Y002391D01*
X032016Y002390D01*
X032017Y002390D01*
X032018D01*
X032018Y002390D01*
X032018Y002390D01*
X032019Y002390D01*
X032020Y002389D01*
X032021Y002389D01*
X032022Y002389D01*
X032024Y002389D01*
X032025Y002389D01*
X032027Y002389D01*
X032029Y002388D01*
X032031Y002388D01*
X032034Y002388D01*
X032037Y002388D01*
X032040Y002388D01*
X032043D01*
X032043D01*
X032043D01*
X032043D01*
X032044D01*
X032044D01*
X032045D01*
X032046D01*
X032047Y002388D01*
X032049D01*
X032051Y002388D01*
X032053Y002388D01*
X032055Y002388D01*
X032057Y002388D01*
X032059Y002389D01*
X032061Y002389D01*
X032063Y002389D01*
X032065Y002389D01*
X032066Y002389D01*
X032068Y002390D01*
X032068D01*
X032068Y002390D01*
X032068Y002390D01*
X032069Y002390D01*
X032069Y002390D01*
X032070Y002390D01*
X032071Y002391D01*
X032073Y002392D01*
X032074Y002392D01*
X032076Y002393D01*
X032076Y002394D01*
X032077Y002394D01*
X032077Y002394D01*
X032077Y002395D01*
X032077Y002395D01*
X032078Y002396D01*
X032078Y002397D01*
X032079Y002398D01*
X032079Y002399D01*
X032079Y002401D01*
Y002401D01*
X032079Y002401D01*
X032079Y002402D01*
X032079Y002403D01*
X032078Y002404D01*
X032078Y002405D01*
X032077Y002406D01*
X032077Y002407D01*
X032077Y002407D01*
X032076Y002407D01*
X032076Y002408D01*
X032075Y002409D01*
X032074Y002409D01*
X032073Y002410D01*
X032072Y002410D01*
X032071Y002410D01*
X032071Y002411D01*
X032070Y002411D01*
X032069Y002411D01*
X032069D01*
X032068Y002411D01*
X032068Y002412D01*
X032067Y002412D01*
X032066Y002412D01*
X032065Y002412D01*
X032064Y002412D01*
X032063Y002412D01*
X032061Y002413D01*
X032059Y002413D01*
X032057Y002413D01*
X032055Y002413D01*
X032052Y002413D01*
X032049Y002413D01*
X032046Y002413D01*
D02*
G37*
G36*
X031773Y002336D02*
X031736Y002322D01*
X031773Y002308D01*
Y002336D01*
D02*
G37*
G36*
X032061Y002297D02*
X032061D01*
X032060D01*
X032060D01*
X032059Y002297D01*
X032058Y002297D01*
X032057Y002297D01*
X032056Y002297D01*
X032055Y002297D01*
X032053Y002296D01*
X032050Y002296D01*
X032049Y002295D01*
X032048Y002295D01*
X032047Y002294D01*
X032046Y002294D01*
X032046Y002293D01*
X032046Y002293D01*
X032046Y002293D01*
X032045Y002293D01*
X032045Y002292D01*
X032045Y002292D01*
X032044Y002291D01*
X032044Y002291D01*
X032043Y002289D01*
X032042Y002288D01*
X032042Y002287D01*
X032042Y002286D01*
X032041Y002285D01*
X032041Y002284D01*
Y002283D01*
X032041Y002283D01*
X032042Y002282D01*
X032042Y002282D01*
X032042Y002280D01*
X032042Y002279D01*
X032043Y002278D01*
X032043Y002277D01*
X032044Y002277D01*
X032044Y002276D01*
X032045Y002275D01*
X032046Y002274D01*
X032046Y002274D01*
X032046Y002274D01*
X032046Y002274D01*
X032047Y002274D01*
X032047Y002273D01*
X032048Y002273D01*
X032048Y002273D01*
X032049Y002272D01*
X032050Y002272D01*
X032051Y002272D01*
X032052Y002271D01*
X032053Y002271D01*
X032055Y002271D01*
X032056Y002270D01*
X032057Y002270D01*
X032059Y002270D01*
X032059D01*
X032059D01*
X032060D01*
X032061Y002270D01*
X032061Y002270D01*
X032062Y002271D01*
X032063Y002271D01*
X032064Y002271D01*
X032067Y002271D01*
X032068Y002272D01*
X032069Y002272D01*
X032071Y002273D01*
X032072Y002273D01*
X032073Y002274D01*
X032074Y002275D01*
X032074Y002275D01*
X032074Y002275D01*
X032074Y002275D01*
X032075Y002275D01*
X032075Y002276D01*
X032075Y002276D01*
X032076Y002277D01*
X032076Y002278D01*
X032077Y002279D01*
X032078Y002281D01*
X032078Y002282D01*
X032079Y002283D01*
X032079Y002284D01*
X032079Y002285D01*
Y002285D01*
X032079Y002286D01*
X032079Y002286D01*
X032079Y002287D01*
X032078Y002288D01*
X032078Y002289D01*
X032078Y002290D01*
X032077Y002291D01*
X032077Y002292D01*
X032076Y002292D01*
X032075Y002293D01*
X032075Y002294D01*
X032075Y002294D01*
X032075Y002294D01*
X032074Y002294D01*
X032074Y002294D01*
X032073Y002295D01*
X032073Y002295D01*
X032072Y002295D01*
X032071Y002296D01*
X032070Y002296D01*
X032069Y002296D01*
X032068Y002297D01*
X032067Y002297D01*
X032066Y002297D01*
X032064Y002297D01*
X032063Y002297D01*
X032061Y002297D01*
D02*
G37*
G36*
X031907Y002214D02*
Y002199D01*
X031928Y002195D01*
Y002210D01*
X031907Y002214D01*
D02*
G37*
G36*
X031763Y002244D02*
X031762D01*
X031762D01*
X031762D01*
X031762D01*
X031761D01*
X031761Y002244D01*
X031760D01*
X031760Y002244D01*
X031758Y002244D01*
X031756Y002244D01*
X031755Y002244D01*
X031753Y002243D01*
X031751Y002243D01*
X031748Y002242D01*
X031746Y002242D01*
X031744Y002241D01*
X031742Y002240D01*
X031740Y002239D01*
X031738Y002238D01*
X031736Y002237D01*
X031736Y002237D01*
X031736Y002236D01*
X031735Y002236D01*
X031735Y002235D01*
X031734Y002234D01*
X031734Y002234D01*
X031733Y002232D01*
X031732Y002231D01*
X031731Y002230D01*
X031730Y002228D01*
X031730Y002226D01*
X031729Y002225D01*
X031728Y002223D01*
X031728Y002221D01*
X031728Y002218D01*
X031728Y002216D01*
Y002215D01*
X031728Y002215D01*
X031728Y002214D01*
X031728Y002213D01*
X031728Y002212D01*
X031728Y002210D01*
X031729Y002209D01*
X031729Y002207D01*
X031730Y002205D01*
X031731Y002204D01*
X031731Y002202D01*
X031732Y002200D01*
X031734Y002199D01*
X031735Y002197D01*
X031736Y002195D01*
X031737Y002195D01*
X031737Y002195D01*
X031737Y002195D01*
X031738Y002194D01*
X031739Y002194D01*
X031740Y002193D01*
X031741Y002192D01*
X031743Y002192D01*
X031745Y002191D01*
X031747Y002190D01*
X031749Y002189D01*
X031751Y002189D01*
X031754Y002188D01*
X031757Y002188D01*
X031760Y002188D01*
X031763Y002188D01*
X031763D01*
X031763D01*
X031763D01*
X031764D01*
X031764D01*
X031764Y002188D01*
X031766Y002188D01*
X031767Y002188D01*
X031769Y002188D01*
X031771Y002188D01*
X031773Y002189D01*
X031775Y002189D01*
X031777Y002190D01*
X031779Y002190D01*
X031781Y002191D01*
X031783Y002192D01*
X031785Y002193D01*
X031787Y002194D01*
X031789Y002196D01*
X031789Y002196D01*
X031790Y002196D01*
X031790Y002196D01*
X031791Y002197D01*
X031791Y002198D01*
X031792Y002199D01*
X031793Y002200D01*
X031794Y002201D01*
X031794Y002203D01*
X031795Y002204D01*
X031796Y002206D01*
X031797Y002208D01*
X031797Y002210D01*
X031798Y002212D01*
X031798Y002214D01*
X031798Y002216D01*
Y002217D01*
X031798Y002217D01*
X031798Y002218D01*
X031798Y002219D01*
X031798Y002220D01*
X031797Y002222D01*
X031797Y002223D01*
X031797Y002225D01*
X031796Y002226D01*
X031795Y002228D01*
X031794Y002230D01*
X031793Y002232D01*
X031792Y002233D01*
X031791Y002235D01*
X031789Y002236D01*
X031789Y002236D01*
X031789Y002237D01*
X031788Y002237D01*
X031788Y002238D01*
X031787Y002238D01*
X031785Y002239D01*
X031784Y002240D01*
X031783Y002240D01*
X031781Y002241D01*
X031779Y002242D01*
X031777Y002243D01*
X031774Y002243D01*
X031772Y002244D01*
X031769Y002244D01*
X031766Y002244D01*
X031763Y002244D01*
D02*
G37*
%LPD*%
D10*
X030665Y002546D02*
X030675Y002556D01*
X030395Y002546D02*
X030665D01*
X031315D02*
X031545D01*
X031305Y002556D02*
X031315Y002546D01*
X030865Y002556D02*
Y002826D01*
X031115Y002822D02*
X031119Y002826D01*
X031115Y002556D02*
Y002822D01*
X029165Y002546D02*
X029175Y002556D01*
X028895Y002546D02*
X029165D01*
X029815D02*
X030045D01*
X029805Y002556D02*
X029815Y002546D01*
X029365Y002556D02*
Y002826D01*
X029615Y002822D02*
X029619Y002826D01*
X029615Y002556D02*
Y002822D01*
X027665Y002546D02*
X027675Y002556D01*
X027395Y002546D02*
X027665D01*
X028315D02*
X028545D01*
X028305Y002556D02*
X028315Y002546D01*
X027865Y002556D02*
Y002826D01*
X028115Y002822D02*
X028119Y002826D01*
X028115Y002556D02*
Y002822D01*
X026165Y002546D02*
X026175Y002556D01*
X025895Y002546D02*
X026165D01*
X026815D02*
X027045D01*
X026805Y002556D02*
X026815Y002546D01*
X026365Y002556D02*
Y002826D01*
X026615Y002822D02*
X026619Y002826D01*
X026615Y002556D02*
Y002822D01*
X030665Y005276D02*
X030675Y005286D01*
X030395Y005276D02*
X030665D01*
X031315D02*
X031545D01*
X031305Y005286D02*
X031315Y005276D01*
X030865Y005286D02*
Y005556D01*
X031115Y005552D02*
X031119Y005556D01*
X031115Y005286D02*
Y005552D01*
X029169Y005280D02*
X029179Y005290D01*
X028899Y005280D02*
X029169D01*
X029819D02*
X030049D01*
X029809Y005290D02*
X029819Y005280D01*
X029369Y005290D02*
Y005560D01*
X029619Y005556D02*
X029623Y005560D01*
X029619Y005290D02*
Y005556D01*
X027665Y005286D02*
X027675Y005296D01*
X027395Y005286D02*
X027665D01*
X028315D02*
X028545D01*
X028305Y005296D02*
X028315Y005286D01*
X027865Y005296D02*
Y005566D01*
X028115Y005562D02*
X028119Y005566D01*
X028115Y005296D02*
Y005562D01*
X026365Y005296D02*
Y005566D01*
X026615Y005562D02*
X026619Y005566D01*
X026615Y005296D02*
Y005562D01*
X026805Y005296D02*
X026815Y005286D01*
X027045D01*
X026165D02*
X026175Y005296D01*
X025895Y005286D02*
X026165D01*
X023330Y002796D02*
X023615D01*
X023715Y002896D01*
X024105D01*
X023860Y002796D02*
X024115D01*
X024215Y002896D01*
X023330Y002596D02*
X023625D01*
X023725Y002696D02*
X024105D01*
X023625Y002596D02*
X023725Y002696D01*
X023860Y002596D02*
X024115D01*
X024215Y002696D01*
X023330Y002396D02*
X023455D01*
X023515Y002456D01*
X023675D01*
X023715Y002496D01*
X024105D01*
X023860Y002396D02*
X024115D01*
X024215Y002496D01*
X020555Y004466D02*
X020563Y004474D01*
X020718D01*
X020720Y004476D01*
X020718Y004529D02*
X020720Y004526D01*
X020442Y004566D02*
X020479Y004529D01*
X020718D01*
X020405Y004566D02*
X020442D01*
X020895Y004046D02*
X020910D01*
X020958Y004094D01*
Y004189D01*
X020891Y004146D02*
X020908Y004163D01*
Y004189D01*
X020821Y004216D02*
X020891Y004146D01*
X020815Y004216D02*
X020821D01*
X021149Y003970D02*
Y003973D01*
X021058Y004064D02*
Y004189D01*
Y004064D02*
X021149Y003973D01*
X020995Y004046D02*
X021006Y004058D01*
Y004188D01*
X021008Y004189D01*
X022655Y005446D02*
X022666D01*
X022686Y005426D01*
X022845D01*
X021108Y004091D02*
X021119Y004079D01*
X021143D01*
X021108Y004091D02*
Y004189D01*
X021205Y004016D02*
X021215D01*
X021143Y004079D02*
X021205Y004016D01*
X023653Y002536D02*
X023713Y002596D01*
X022835Y002496D02*
X023455D01*
X023495Y002536D02*
X023653D01*
X023455Y002496D02*
X023495Y002536D01*
X022865Y002896D02*
X023455D01*
X023555Y002996D02*
X023860D01*
X023455Y002896D02*
X023555Y002996D01*
X023860D02*
X023860Y002996D01*
X024125D02*
X024215Y003086D01*
X023860Y002996D02*
X024125D01*
X023545Y003086D02*
X024105D01*
X023485Y003807D02*
X023495Y003817D01*
X023330Y002996D02*
X023455D01*
X023485Y003796D02*
Y003807D01*
X023330Y003796D02*
X023330Y003796D01*
X023455Y002996D02*
X023545Y003086D01*
X022783Y002978D02*
X022865Y002896D01*
X022725Y002996D02*
X022743Y002978D01*
X022783D01*
X020485Y003846D02*
X020585D01*
X020395Y003936D02*
X020485Y003846D01*
X020395Y003936D02*
Y004026D01*
X020078Y005099D02*
X020085Y005106D01*
X020050Y005099D02*
X020078D01*
X020005Y005054D02*
X020050Y005099D01*
X020000Y005054D02*
X020005D01*
X021005Y006316D02*
X021008Y006314D01*
X021005Y006316D02*
Y006406D01*
X020955Y006456D02*
X021005Y006406D01*
X023025Y006366D02*
X023025Y006366D01*
X023025Y006312D02*
Y006366D01*
X022978Y006265D02*
X023025Y006312D01*
X022978Y006106D02*
Y006265D01*
X022948Y006076D02*
X022978Y006106D01*
X022845Y006076D02*
X022948D01*
X019790Y005054D02*
Y005211D01*
X019795Y005216D01*
X019925Y006506D02*
X019925Y006506D01*
X020075D01*
X021195Y006755D02*
X021257Y006816D01*
X021315D02*
X021315Y006816D01*
X021210Y006464D02*
X021248Y006427D01*
X021255Y006419D01*
X021195Y006479D02*
X021210Y006464D01*
X021257Y006816D02*
X021315D01*
X021195Y006479D02*
Y006755D01*
X021255Y006316D02*
X021258Y006314D01*
X021255Y006316D02*
Y006419D01*
X021305Y006966D02*
X021315Y006956D01*
X021245Y006966D02*
X021305D01*
X021155Y006876D02*
X021245Y006966D01*
X021155Y006696D02*
X021155Y006696D01*
Y006876D01*
X021155Y006456D02*
Y006696D01*
X021205Y006316D02*
X021208Y006314D01*
X021205Y006316D02*
Y006406D01*
X021155Y006456D02*
X021205Y006406D01*
X022845Y005976D02*
X022965D01*
X023045Y005896D01*
X023055D01*
X023076Y005917D01*
X022845Y005976D02*
X022848Y005979D01*
X022558Y006314D02*
Y006469D01*
X022718Y006630D01*
Y006808D01*
X022746Y006836D01*
X022865D01*
X022508Y006500D02*
X022676Y006669D01*
X022508Y006314D02*
Y006500D01*
X022775Y006976D02*
X022865D01*
X022676Y006687D02*
Y006877D01*
X022775Y006976D01*
X022676Y006669D02*
Y006687D01*
X022676Y006687D01*
X020957Y005876D02*
X021007Y005826D01*
X020720Y005876D02*
X020957D01*
X021007Y005826D02*
X021015D01*
X020720Y005826D02*
X020875D01*
X021015Y005686D01*
Y005686D02*
Y005686D01*
X020718Y005629D02*
X020720Y005626D01*
X020586Y005629D02*
X020718D01*
X020499Y005717D02*
X020586Y005629D01*
X020485Y005717D02*
X020499D01*
X020497Y005506D02*
X020526Y005476D01*
X020720D01*
X020485Y005506D02*
X020497D01*
X022008Y004064D02*
Y004189D01*
X021970Y004026D02*
X022008Y004064D01*
X021965Y004026D02*
X021970D01*
X021965D02*
Y004031D01*
X021008Y004754D02*
X021015Y004746D01*
X021002Y004749D02*
X021008Y004754D01*
X020895Y004676D02*
X020968Y004749D01*
X020720Y004676D02*
X020895D01*
X020968Y004749D02*
X021002D01*
X020924Y004605D02*
X020925Y004606D01*
X020924Y004537D02*
Y004605D01*
X020720Y004426D02*
X020723Y004429D01*
X020815D02*
X020924Y004537D01*
X020723Y004429D02*
X020815D01*
X021145Y003401D02*
Y003406D01*
Y003401D02*
X021150Y003396D01*
X021295D01*
X019985Y005216D02*
Y005305D01*
X019973Y005316D02*
X019985Y005305D01*
X019725Y005316D02*
X019973D01*
X019677Y005268D02*
X019725Y005316D01*
X019677Y004969D02*
Y005268D01*
X021485Y003396D02*
Y003506D01*
X021465Y003526D02*
X021485Y003506D01*
X021135Y003526D02*
X021465D01*
X021100Y003491D02*
X021135Y003526D01*
X021075D02*
X021135D01*
X021100Y003411D02*
Y003491D01*
X021050Y003501D02*
X021075Y003526D01*
X021095Y003406D02*
X021100Y003411D01*
X021050D02*
Y003501D01*
X021045Y003406D02*
X021050Y003411D01*
X022458Y004074D02*
Y004189D01*
X022526Y003991D02*
X022565Y003953D01*
Y003945D02*
Y003953D01*
X022458Y004074D02*
X022526Y004005D01*
Y003991D02*
Y004005D01*
X021555Y006316D02*
X021558Y006314D01*
X021485Y006676D02*
X021486Y006676D01*
X021941Y006901D02*
X021941D01*
X021907Y006935D02*
X021941Y006901D01*
X022845Y005126D02*
X022845Y005126D01*
X023015D02*
X023085Y005196D01*
X023115D01*
X020585Y004326D02*
X020635Y004376D01*
X020585Y004266D02*
Y004326D01*
X020635Y004376D02*
X020720D01*
X020720Y004376D01*
X021045Y004396D02*
X021158Y004284D01*
Y004189D02*
Y004284D01*
X022848Y006126D02*
X022855Y006134D01*
X022845Y006126D02*
X022848D01*
X022855Y006134D02*
Y006209D01*
X020635Y003506D02*
X020785Y003656D01*
X020635Y003406D02*
Y003506D01*
X020785Y003656D02*
Y003846D01*
X020785Y003846D01*
X022108Y006314D02*
Y006459D01*
X022995Y004476D02*
X023065Y004406D01*
X022845Y004476D02*
X022995D01*
X021486Y006476D02*
X021555Y006407D01*
Y006316D02*
Y006407D01*
X021941Y006901D02*
X022135Y006707D01*
X022108Y006209D02*
Y006314D01*
Y006459D02*
X022145Y006496D01*
X022135Y006581D02*
Y006707D01*
Y006581D02*
X022145Y006571D01*
Y006496D02*
Y006571D01*
X022068Y006169D02*
X022108Y006209D01*
X022065Y006169D02*
X022068D01*
X020445Y004996D02*
X020520D01*
X020530Y004986D01*
X020580D01*
X020615Y005022D01*
Y005026D01*
X020720D01*
X021045Y004396D02*
Y004398D01*
X021575Y006169D02*
Y006180D01*
X021558Y006197D02*
X021575Y006180D01*
X021558Y006197D02*
Y006314D01*
X022358Y004189D02*
X022359Y004187D01*
Y003785D02*
X022725Y003419D01*
Y003296D02*
Y003419D01*
X022359Y003785D02*
Y004187D01*
X021665Y003536D02*
X021785Y003416D01*
Y003346D02*
Y003416D01*
X020945Y003406D02*
Y003516D01*
X020995Y003566D01*
X021482D02*
X021512Y003536D01*
X021665D01*
X021666Y003537D01*
X020995Y003566D02*
X021482D01*
X020585Y003999D02*
Y004026D01*
Y003999D02*
X020635Y003949D01*
Y003846D02*
Y003949D01*
X020648Y003936D01*
X020653D01*
X020685Y003904D01*
Y003846D02*
Y003904D01*
X023400Y004322D02*
X023545Y004176D01*
X023070Y004322D02*
X023400D01*
X023065Y004326D02*
X023070Y004322D01*
X023545Y003972D02*
Y004176D01*
X023495Y003922D02*
X023545Y003972D01*
X023495Y003817D02*
Y003922D01*
X023065Y004186D02*
Y004326D01*
Y004406D01*
X021486Y006476D02*
Y006676D01*
X022845Y005126D02*
X023005D01*
X023015D01*
X022720Y005596D02*
X022748Y005624D01*
X022843D01*
X022845Y005626D01*
X022195Y005456D02*
X022335Y005596D01*
X022720D01*
X022855Y006209D02*
Y006366D01*
X021708Y004074D02*
Y004189D01*
Y004074D02*
X021765Y004016D01*
X020345Y005606D02*
X020386Y005566D01*
X020345Y005606D02*
Y005676D01*
X020386Y005566D02*
X020459D01*
X020460D02*
X020522D01*
X020561Y005526D01*
X020720D01*
X022510Y004091D02*
Y004186D01*
X022508Y004189D02*
X022510Y004186D01*
X022635Y003911D02*
Y003966D01*
X022510Y004091D02*
X022635Y003966D01*
X022795Y003556D02*
Y003573D01*
X022575Y003851D02*
X022635Y003911D01*
X022575Y003793D02*
X022795Y003573D01*
X022575Y003793D02*
Y003851D01*
X022465Y003945D02*
Y003996D01*
X022408Y004054D02*
Y004189D01*
Y004054D02*
X022465Y003996D01*
X023860Y004996D02*
X023860Y004996D01*
X023685Y004996D02*
X023860D01*
X023330Y004996D02*
X023330Y004996D01*
X023505D01*
X023695Y004796D02*
X023860D01*
X023860Y004796D01*
X023546Y004796D02*
X023585Y004756D01*
X023331Y004796D02*
X023546D01*
X023330Y004796D02*
X023331Y004796D01*
X023860Y004596D02*
X023860Y004596D01*
X023635Y004596D02*
X023860D01*
X023095Y004692D02*
Y004741D01*
X023095Y004741D01*
Y004776D01*
Y004666D02*
X023165Y004596D01*
X023095Y004666D02*
Y004692D01*
X023095Y004692D02*
X023095Y004692D01*
Y004776D02*
X023155Y004836D01*
X023165Y004596D02*
X023330D01*
X023215Y004696D02*
X023515D01*
X023213Y004695D02*
X023215Y004696D01*
X023197Y004695D02*
X023213D01*
X023155Y004736D02*
X023197Y004695D01*
X023567Y004565D02*
Y004645D01*
X023735Y004396D02*
X023860D01*
X023155Y004736D02*
X023155Y004736D01*
X023155Y004716D02*
Y004736D01*
X023567Y004565D02*
X023735Y004396D01*
X023515Y004696D02*
X023567Y004645D01*
X023465Y004396D02*
X023495Y004426D01*
X023330Y004396D02*
X023465D01*
X023495Y004426D02*
Y004596D01*
X022405Y004360D02*
Y004406D01*
Y004360D02*
X022444Y004321D01*
X022515D01*
X022555Y004281D01*
Y004191D02*
Y004281D01*
Y004191D02*
X022558Y004189D01*
X022395Y004506D02*
Y004966D01*
Y004506D02*
X022608Y004294D01*
Y004189D02*
Y004294D01*
X022695Y004176D02*
X022745Y004126D01*
Y004106D02*
Y004116D01*
Y004126D01*
X022665Y004176D02*
X022695D01*
X022658Y004189D02*
X022660Y004186D01*
X022658Y004184D02*
X022665Y004176D01*
X022658Y004184D02*
Y004189D01*
X022785Y004230D02*
X022785Y004230D01*
X022785Y004230D02*
X022785Y004230D01*
X022785Y004230D02*
Y004246D01*
X022785Y004230D02*
X022805Y004250D01*
Y004252D01*
X022813Y004260D01*
Y004369D01*
X022820Y004376D02*
X022845D01*
X022813Y004369D02*
X022820Y004376D01*
X021707Y004329D02*
Y004329D01*
X021695Y004341D02*
X021707Y004329D01*
Y004329D02*
X021743D01*
X021758Y004314D01*
Y004189D02*
Y004314D01*
X021924Y004986D02*
X021985D01*
X021808Y004870D02*
X021924Y004986D01*
X021808Y004189D02*
Y004870D01*
X022189Y005045D02*
X022189Y005046D01*
X022184Y005045D02*
X022189D01*
X022065Y004926D02*
X022184Y005045D01*
X021920Y004926D02*
X022065D01*
X021858Y004864D02*
X021920Y004926D01*
X021858Y004189D02*
Y004864D01*
X021908Y004319D02*
X021985Y004396D01*
X021908Y004189D02*
Y004319D01*
X022658Y006314D02*
Y006376D01*
X022728Y006446D01*
X023091D01*
X023188D02*
X023213Y006471D01*
X023358D01*
X023448D01*
X023091Y006446D02*
X023188D01*
X023696Y006000D02*
X023696Y006000D01*
X023700Y006004D02*
X023853D01*
X023860Y005996D01*
X022608Y006314D02*
X022610Y006316D01*
Y006411D01*
X022685Y006486D01*
X023172D01*
X023204Y006518D01*
X023200Y006515D02*
X023204Y006518D01*
X023457D01*
X023185Y005996D02*
X023330D01*
X023330Y005996D01*
X020720Y005926D02*
X021085D01*
X021115Y005956D01*
X020628Y005779D02*
X020718D01*
X020720Y005776D01*
X020535Y005871D02*
Y005888D01*
Y005871D02*
X020628Y005779D01*
X021315Y006526D02*
X021408Y006434D01*
X021315Y006526D02*
Y006536D01*
X021408Y005871D02*
X021408Y005871D01*
Y006314D02*
Y006434D01*
Y005871D02*
Y006314D01*
X021314Y006677D02*
X021315Y006676D01*
X021325Y006456D02*
X021358Y006424D01*
X021341Y005940D02*
X021358Y005957D01*
X021256Y006677D02*
X021314D01*
X021274Y006456D02*
X021325D01*
X021241Y006504D02*
X021241D01*
X021245Y006486D02*
X021274Y006456D01*
X021245Y006486D02*
Y006500D01*
X021241Y006504D02*
X021245Y006500D01*
X021241Y006504D02*
Y006662D01*
X021256Y006677D01*
X021358Y005957D02*
Y006424D01*
X021341Y005929D02*
Y005940D01*
X020720Y006026D02*
X020875D01*
X020955Y006106D01*
X020720Y005976D02*
X020955D01*
X021023Y006044D02*
X021025D01*
X020955Y005976D02*
X021023Y006044D01*
X021335Y002516D02*
X021337Y002518D01*
X021514D01*
X021515Y002519D01*
X021335Y002396D02*
X021337Y002394D01*
X021513D02*
X021515Y002392D01*
X021337Y002394D02*
X021513D01*
X021223Y004509D02*
Y005997D01*
X021155Y006065D02*
X021223Y005997D01*
X021155Y006311D02*
X021158Y006314D01*
X021155Y006221D02*
Y006311D01*
X021155Y006065D02*
Y006221D01*
X021155Y006221D01*
X021223Y004509D02*
X021265Y004466D01*
X021135D02*
X021178Y004509D01*
X021110Y006046D02*
X021178Y005979D01*
Y004509D02*
Y005979D01*
X021110Y006046D02*
Y006311D01*
X021108Y006314D02*
X021110Y006311D01*
X022845Y004526D02*
X022957D01*
X023046Y004615D02*
Y004862D01*
X022957Y004526D02*
X023046Y004615D01*
Y004862D02*
X023075Y004891D01*
Y004902D01*
X022845Y004576D02*
X022848Y004579D01*
X022995Y004636D02*
Y004900D01*
X022848Y004579D02*
X022938D01*
X022995Y004636D01*
X022993Y004902D02*
X022995Y004900D01*
X023860Y005396D02*
X023860Y005396D01*
X023692Y005396D02*
X023860D01*
X023689Y005393D02*
X023692Y005396D01*
X023330D02*
X023330Y005396D01*
X023135Y005316D02*
Y005316D01*
X023215Y005396D02*
X023330D01*
X023135Y005316D02*
X023215Y005396D01*
X023075Y002996D02*
X023330D01*
X023330Y002996D01*
X022759Y002763D02*
X022825Y002696D01*
X022754Y002763D02*
X022759D01*
X022725Y002792D02*
X022754Y002763D01*
X022725Y002792D02*
Y002796D01*
X022825Y002696D02*
X023636D01*
X023736Y002796D01*
X023860D01*
X023330Y002796D02*
X023330Y002796D01*
X023075Y002796D02*
X023330D01*
X023713Y002596D02*
X023860D01*
X022769Y002563D02*
X022835Y002496D01*
X022764Y002563D02*
X022769D01*
X022735Y002592D02*
X022764Y002563D01*
X022735Y002592D02*
Y002596D01*
X023330D02*
X023330Y002596D01*
X023075Y002596D02*
X023330D01*
X022795Y002316D02*
X023465D01*
X022725Y002386D02*
X022795Y002316D01*
X022725Y002386D02*
Y002396D01*
X023465Y002316D02*
X023545Y002396D01*
X023860D01*
X023330Y002396D02*
X023330Y002396D01*
X023075Y002396D02*
X023330D01*
X022525Y005446D02*
X022585Y005506D01*
X022688D01*
X022718Y005476D01*
X022845D01*
X022435Y005446D02*
X022535Y005546D01*
X022715D01*
X022735Y005526D01*
X022845D01*
X022845Y005526D01*
X022695Y005656D02*
X022706D01*
X022726Y005676D01*
X022845D01*
X022585Y005686D02*
X022600D01*
X022640Y005726D01*
X022845D01*
X022843Y005774D02*
X022845Y005776D01*
X022603Y005774D02*
X022843D01*
X022636Y005826D02*
X022845D01*
X022585Y005876D02*
X022585Y005876D01*
X022585Y005856D02*
Y005876D01*
X022585Y005876D02*
X022587D01*
X022636Y005826D01*
X022650Y005876D02*
X022845D01*
X022465Y005976D02*
X022469Y005981D01*
X022546D02*
X022650Y005876D01*
X022469Y005981D02*
X022546D01*
X022427Y006106D02*
X022506Y006027D01*
X022556D02*
X022657Y005926D01*
X022845D01*
X022506Y006027D02*
X022556D01*
X022843Y005329D02*
X022845Y005326D01*
X022259Y005286D02*
X022348D01*
X022368Y005306D01*
X022368D01*
X022391Y005329D01*
X022843D01*
X022255Y005290D02*
X022259Y005286D01*
X022347Y005357D02*
X022366Y005376D01*
X022845D01*
X022334Y005357D02*
X022347D01*
X021955Y006396D02*
X021955Y006396D01*
Y006671D01*
X021895Y006816D02*
X021910D01*
X021955Y006671D02*
X021975Y006691D01*
Y006751D01*
X021910Y006816D02*
X021975Y006751D01*
X021908Y006314D02*
Y006479D01*
X021915Y006486D01*
Y006726D01*
X021856Y006315D02*
Y006555D01*
Y006315D02*
X021858Y006314D01*
X021855Y006556D02*
X021856Y006555D01*
X021808Y006314D02*
Y006499D01*
X021775Y006531D02*
X021808Y006499D01*
X021775Y006531D02*
Y006536D01*
X021758Y006314D02*
Y006464D01*
X021685Y006536D02*
Y006571D01*
Y006536D02*
X021758Y006464D01*
X021585Y006671D02*
Y006686D01*
Y006671D02*
X021685Y006571D01*
X021594Y006547D02*
X021599D01*
X021708Y006439D01*
Y006314D02*
Y006439D01*
X021592Y006545D02*
X021617D01*
X021625Y006536D01*
X021593Y006449D02*
X021613D01*
X021655Y006316D02*
X021658Y006314D01*
X021585Y006456D02*
X021593Y006449D01*
X021613D02*
X021655Y006406D01*
Y006316D02*
Y006406D01*
X020405Y005466D02*
X020495Y005376D01*
X020720D01*
X020425Y005326D02*
X020720D01*
X020292Y005460D02*
X020425Y005326D01*
X020145Y005476D02*
X020187D01*
X020377Y005286D02*
X020463D01*
X020473Y005276D01*
X020720D01*
X020187Y005476D02*
X020377Y005286D01*
X020205Y005306D02*
X020300D01*
X020467Y005226D02*
X020720D01*
X020447Y005246D02*
X020467Y005226D01*
X020300Y005306D02*
X020360Y005246D01*
X020447D01*
X020460Y005176D02*
X020720D01*
X020430Y005206D02*
X020460Y005176D01*
X020325Y005196D02*
X020335Y005206D01*
X020430D01*
X020718Y005124D02*
X020720Y005126D01*
X020315Y005116D02*
X020323Y005124D01*
X020718D01*
X020627Y004976D02*
X020720D01*
X020517Y004866D02*
X020627Y004976D01*
X020517Y004855D02*
Y004866D01*
X022465Y006596D02*
X022468D01*
X022458Y006586D02*
X022468Y006596D01*
X022458Y006314D02*
Y006586D01*
X022408Y006314D02*
X022408Y006314D01*
X022408Y006314D02*
Y006569D01*
X022405Y006572D02*
X022408Y006569D01*
X022345Y006846D02*
X022405Y006786D01*
Y006572D02*
Y006786D01*
X022358Y006314D02*
Y006684D01*
X022265Y006776D02*
Y006846D01*
Y006776D02*
X022358Y006684D01*
X022175Y006786D02*
X022308Y006654D01*
Y006314D02*
Y006654D01*
X022258Y006314D02*
Y006494D01*
X022195Y006641D02*
Y006666D01*
X022258Y006494D02*
X022265Y006502D01*
Y006571D01*
X022195Y006641D02*
X022265Y006571D01*
X022206Y006315D02*
X022208Y006314D01*
X022206Y006315D02*
Y006547D01*
X022058Y006314D02*
Y006508D01*
X022085Y006536D01*
Y006546D01*
X022008Y006314D02*
X022010Y006316D01*
Y006641D01*
X022035Y006666D01*
Y006686D01*
X021955Y004183D02*
X021958Y004189D01*
X021936Y004079D02*
X021946D01*
X021958Y004091D01*
Y004189D01*
X021874Y004016D02*
X021936Y004079D01*
X022745Y003926D02*
X022835D01*
X022925Y003836D01*
X023052D01*
X023172Y003716D01*
X023975D01*
X022582Y004976D02*
X022845D01*
X022137Y005106D02*
X022137Y005106D01*
X022535Y005023D02*
Y005024D01*
Y005023D02*
X022582Y004976D01*
X022453Y005106D02*
X022535Y005024D01*
X022137Y005106D02*
X022453D01*
X022545Y005106D02*
X022625Y005026D01*
X022845D01*
X022177Y005166D02*
X022197Y005146D01*
X022386D01*
X022416Y005176D01*
X022845D01*
X022025Y005166D02*
X022177D01*
X021925Y005276D02*
X022000D01*
X022070Y005206D01*
X022194D01*
X022401Y005226D02*
X022845D01*
X022194Y005206D02*
X022214Y005186D01*
X022361D01*
X022401Y005226D01*
X022227Y005230D02*
X022348D01*
X022180Y005276D02*
X022227Y005230D01*
X022348D02*
X022385Y005266D01*
X022085Y005276D02*
X022180D01*
X022385Y005266D02*
X022385D01*
X022395Y005276D01*
X022845D01*
X020327Y004833D02*
X020533Y004626D01*
X020327Y004833D02*
Y004875D01*
X020533Y004626D02*
X020720D01*
X020325Y004876D02*
X020327Y004875D01*
X020321Y004756D02*
X020501Y004576D01*
X020720D01*
X020315Y004756D02*
X020321D01*
X021700Y003896D02*
X021895D01*
X021558Y004039D02*
X021700Y003896D01*
X021558Y004039D02*
Y004189D01*
X022735Y006026D02*
X022845D01*
X022655Y006106D02*
X022735Y006026D01*
X022655Y006106D02*
Y006108D01*
X022763Y003796D02*
X023035D01*
X023157Y003675D01*
X023975D01*
X021458Y003982D02*
X021644Y003796D01*
X021458Y003982D02*
Y004189D01*
X021644Y003796D02*
X022045D01*
X022665Y003809D02*
X022968Y003506D01*
X022665Y003809D02*
Y003856D01*
X022968Y003506D02*
X023975D01*
X021994Y003836D02*
X022034Y003876D01*
X022045D01*
X021510Y004030D02*
Y004106D01*
Y004030D02*
X021704Y003836D01*
X021994D01*
X022158Y003712D02*
Y004189D01*
X022465Y003016D02*
X022485Y002996D01*
X022555D01*
X022465Y003016D02*
Y003404D01*
X022158Y003712D02*
X022465Y003404D01*
X022208Y003732D02*
Y004189D01*
X022514Y003108D02*
X022535Y003086D01*
X022815D01*
X022871Y003030D01*
X022876D01*
X022905Y003001D01*
Y002996D02*
Y003001D01*
X022208Y003732D02*
X022514Y003426D01*
Y003108D02*
Y003426D01*
X022258Y003744D02*
Y004189D01*
Y003744D02*
X022585Y003416D01*
Y003146D02*
Y003416D01*
X022485Y002866D02*
Y002876D01*
Y002866D02*
X022555Y002796D01*
X022308Y003774D02*
Y004189D01*
Y003774D02*
X022665Y003416D01*
X022815Y002796D02*
X022905D01*
X022665Y003146D02*
Y003416D01*
X022420Y005026D02*
X022455Y004991D01*
Y004990D02*
Y004991D01*
Y004990D02*
X022719Y004726D01*
X022845D01*
X022315Y004386D02*
Y005015D01*
X022327Y005026D01*
X022420D01*
X022565Y002596D02*
X022567Y002599D01*
X022265Y004336D02*
X022315Y004386D01*
X022265Y004336D02*
X022275Y004326D01*
X022265Y004326D02*
Y004336D01*
X022567Y002689D02*
X022569Y002691D01*
X022567Y002599D02*
Y002689D01*
X022265Y005046D02*
X022285Y005066D01*
X022725Y004776D02*
X022845D01*
X022437Y005066D02*
X022495Y005008D01*
Y005006D02*
Y005008D01*
Y005006D02*
X022725Y004776D01*
X022265Y004456D02*
Y005046D01*
X022285Y005066D02*
X022437D01*
X022185Y004376D02*
X022265Y004456D01*
X022825Y002596D02*
X022905D01*
X022185Y004376D02*
X022185Y004376D01*
Y004332D02*
Y004376D01*
X021354Y004405D02*
X021508Y004558D01*
X022455Y002396D02*
X022555D01*
X021508Y005940D02*
X021535Y005912D01*
X021508Y005940D02*
Y006314D01*
Y004558D02*
Y005802D01*
X021535Y005829D01*
Y005912D01*
X022815Y002396D02*
X022905D01*
X021458Y005933D02*
X021495Y005896D01*
X021458Y005933D02*
Y006314D01*
X021345Y004506D02*
X021468Y004629D01*
Y005818D01*
X021495Y005846D01*
Y005896D01*
X021600Y004784D02*
X021865Y005050D01*
X023330Y005796D02*
X023330Y005796D01*
X021865Y005348D02*
X021992Y005475D01*
X022120D01*
X023150Y005796D02*
X023330D01*
X021408Y004189D02*
Y004289D01*
X021600Y004481D01*
Y004784D01*
X021865Y005050D02*
Y005348D01*
X022120Y005475D02*
X022525Y005880D01*
Y005916D01*
X021560Y004801D02*
X021824Y005066D01*
Y005364D01*
X023860Y005796D02*
X024035D01*
X023860Y005796D02*
X023860Y005796D01*
X021358Y004189D02*
Y004295D01*
X021560Y004498D01*
Y004801D01*
X021824Y005364D02*
X021975Y005515D01*
X022104D01*
X022394Y005805D01*
Y005855D01*
X022414Y005876D01*
X020718Y004779D02*
X020720Y004776D01*
X020466Y004779D02*
X020718D01*
X020457Y004788D02*
X020466Y004779D01*
X020945Y003789D02*
Y003846D01*
X020875Y003716D02*
Y003719D01*
X020945Y003789D01*
X020785Y003406D02*
X020875D01*
X020785Y003406D02*
X020785Y003406D01*
X020555Y004706D02*
X020566D01*
X020586Y004726D01*
X020720D01*
X020735Y003326D02*
Y003336D01*
X020740Y003411D02*
Y003491D01*
X020735Y003406D02*
X020740Y003411D01*
X020995Y003746D02*
Y003846D01*
X020740Y003491D02*
X020995Y003746D01*
X020735Y003326D02*
X020775Y003286D01*
Y003276D02*
Y003286D01*
X020505Y006286D02*
Y006336D01*
Y006286D02*
X020585Y006206D01*
X020835D01*
X020875Y006166D01*
Y006116D02*
Y006166D01*
X020835Y006076D02*
X020875Y006116D01*
X020720Y006076D02*
X020835D01*
X020595Y005676D02*
X020720D01*
X020345Y005856D02*
X020415D01*
X020595Y005676D01*
X020346Y006036D02*
X020426D01*
X020345Y006036D02*
X020346Y006036D01*
X020426D02*
X020475Y005986D01*
Y005853D02*
Y005986D01*
Y005853D02*
X020602Y005726D01*
X020720D01*
X021955Y003346D02*
Y003476D01*
X022105Y004186D02*
X022108Y004189D01*
X021985Y004706D02*
X022108Y004584D01*
Y004189D02*
Y004584D01*
X021955Y003476D02*
X022075D01*
X022105Y003506D01*
Y004186D01*
X021985Y004706D02*
Y004806D01*
X021945Y004846D02*
Y004866D01*
Y004846D02*
X021985Y004806D01*
X019130Y006616D02*
X019133Y006614D01*
X020355Y003286D02*
X020685D01*
X020685D02*
Y003406D01*
X020685Y003286D02*
X020685Y003286D01*
X020685D02*
X020685Y003286D01*
Y003282D02*
Y003286D01*
Y003282D02*
X020750Y003216D01*
X020895D01*
X020935Y003256D01*
X021265Y003956D02*
X021315Y004006D01*
Y004016D01*
X021253Y004079D02*
X021315Y004016D01*
X021265Y003627D02*
Y003956D01*
X021219Y004079D02*
X021253D01*
X021253Y003615D02*
X021265Y003627D01*
X021062Y003615D02*
X021253D01*
X021208Y004091D02*
X021219Y004079D01*
X021208Y004091D02*
Y004189D01*
X021050Y003627D02*
X021062Y003615D01*
X021050Y003627D02*
Y003841D01*
X021045Y003846D02*
X021050Y003841D01*
X023055Y006066D02*
Y006196D01*
X023135Y006276D01*
Y006366D01*
X023165Y006396D01*
X023330D01*
X023645D01*
X023669Y006373D01*
Y006173D02*
Y006373D01*
Y006173D02*
X023735Y006106D01*
X024015D01*
X024055Y006146D01*
Y006206D01*
X024235Y006386D01*
X023005Y006836D02*
X023085D01*
X023120Y006871D01*
X023448D01*
X023555Y006763D01*
Y006551D02*
Y006763D01*
Y006551D02*
X023709Y006397D01*
Y006310D02*
Y006397D01*
Y006310D02*
X023823Y006196D01*
X023860D01*
X023945D01*
X024295Y006546D01*
X023025Y006956D02*
X023075D01*
X023005Y006976D02*
X023025Y006956D01*
X023075D02*
X023118Y006914D01*
X023460D01*
X023463Y006911D01*
X023464D01*
X023595Y006780D01*
Y006576D02*
Y006780D01*
Y006576D02*
X023668Y006504D01*
X023668D01*
X023742Y006430D01*
X023827D01*
X023860Y006396D01*
X024065D01*
X024175Y006506D01*
X020215Y006246D02*
Y006336D01*
Y006246D02*
X020335Y006126D01*
X020720D01*
X020075Y006336D02*
X020085D01*
X020168Y006419D01*
X020568D01*
X020595Y006446D01*
Y006546D01*
X020695Y006646D01*
X021009D01*
X021058Y006598D01*
Y006314D02*
Y006598D01*
X020365Y006226D02*
Y006336D01*
X020893Y005724D02*
X020895Y005722D01*
Y004976D02*
Y005722D01*
X020845Y004926D02*
X020895Y004976D01*
X020720Y004926D02*
X020845D01*
X021485Y006956D02*
X021593D01*
X021594Y006958D01*
X023686Y006826D02*
X023716Y006796D01*
X023675Y006826D02*
X023686D01*
X023716Y006796D02*
X023860D01*
X023860Y006796D02*
X023876Y006780D01*
X023860Y006796D02*
X023860Y006796D01*
X023876Y006780D02*
X023892Y006796D01*
X021485Y006816D02*
X021535D01*
X021595Y006876D01*
X023860Y006596D02*
X024025D01*
X023860Y006596D02*
X023860Y006596D01*
X023864Y005593D02*
X024025D01*
X023860Y005596D02*
X023864Y005593D01*
X023147D02*
X023327D01*
X023330Y005596D01*
X021715Y006956D02*
X021730Y006941D01*
Y006751D02*
Y006941D01*
Y006751D02*
X021745Y006736D01*
X022848Y004424D02*
X022938D01*
X022845Y004426D02*
X022848Y004424D01*
X022938D02*
X022955Y004406D01*
Y004291D02*
Y004406D01*
X022875Y004211D02*
X022955Y004291D01*
X022875Y004186D02*
Y004211D01*
X021608Y006314D02*
X021610Y006311D01*
Y006221D02*
Y006311D01*
Y006221D02*
X021655Y006176D01*
X021668D02*
X021675Y006169D01*
X021655Y006176D02*
X021668D01*
X020582Y005576D02*
X020720D01*
X020532Y005626D02*
X020582Y005576D01*
X020455Y005626D02*
X020532D01*
X021565Y003726D02*
X021575Y003736D01*
X021785D01*
X020155Y005186D02*
X020185D01*
X020137Y005205D02*
X020155Y005186D01*
X020077Y005205D02*
X020137D01*
X020075Y005206D02*
X020077Y005205D01*
X021145Y003697D02*
Y003846D01*
X021135Y003676D02*
Y003681D01*
X021095Y003721D02*
X021135Y003681D01*
X021095Y003721D02*
Y003846D01*
X020995Y003301D02*
Y003406D01*
Y003301D02*
X021035Y003261D01*
Y003256D02*
Y003261D01*
X022836Y006566D02*
X022855D01*
X021658Y004189D02*
X021660Y004186D01*
Y004021D02*
Y004186D01*
Y004021D02*
X021665Y004016D01*
X020576Y005076D02*
X020720D01*
X020555Y005056D02*
X020576Y005076D01*
X020555Y005046D02*
Y005056D01*
X022716Y005076D02*
X022845D01*
X022965D01*
X022686Y005106D02*
X022716Y005076D01*
X022965D02*
X023035Y005006D01*
X022655Y005106D02*
X022686D01*
X023035Y005006D02*
X023115D01*
X023035Y005588D02*
Y005736D01*
X023023Y005576D02*
X023035Y005588D01*
X022845Y005576D02*
X023023D01*
X019895Y004246D02*
X019955Y004186D01*
X020185D01*
X020958Y006204D02*
Y006314D01*
Y006204D02*
X020995Y006166D01*
X021043D01*
X021045Y006169D01*
X022058Y004050D02*
Y004189D01*
X022045Y004026D02*
Y004037D01*
X022058Y004050D01*
X022156Y006313D02*
X022158Y006314D01*
X022156Y006171D02*
Y006313D01*
X022154Y006168D02*
X022156Y006171D01*
X019915Y006306D02*
Y006326D01*
X019925Y006336D01*
X019825Y006216D02*
X019825D01*
X019915Y006306D01*
D13*
X023330Y003796D02*
X023485D01*
X023705D02*
X023860D01*
X023165Y006796D02*
X023330D01*
X023330Y006796D01*
X019785Y004316D02*
Y004342D01*
Y004316D02*
X019855Y004246D01*
X019895D01*
X019680Y004446D02*
X019785Y004342D01*
X019625Y004446D02*
X019680D01*
D60*
X030675Y002556D02*
D03*
X030865D02*
D03*
X030405Y003836D02*
D03*
X030595D02*
D03*
X031305Y002556D02*
D03*
X031115D02*
D03*
X031575Y003836D02*
D03*
X031385D02*
D03*
X029175Y002556D02*
D03*
X029365D02*
D03*
X028905Y003836D02*
D03*
X029095D02*
D03*
X029805Y002556D02*
D03*
X029615D02*
D03*
X030075Y003836D02*
D03*
X029885D02*
D03*
X027675Y002556D02*
D03*
X027865D02*
D03*
X027405Y003836D02*
D03*
X027595D02*
D03*
X028305Y002556D02*
D03*
X028115D02*
D03*
X028575Y003836D02*
D03*
X028385D02*
D03*
X026175Y002556D02*
D03*
X026365D02*
D03*
X025905Y003836D02*
D03*
X026095D02*
D03*
X026805Y002556D02*
D03*
X026615D02*
D03*
X027075Y003836D02*
D03*
X026885D02*
D03*
X030675Y005286D02*
D03*
X030865D02*
D03*
X030405Y006566D02*
D03*
X030595D02*
D03*
X031305Y005286D02*
D03*
X031115D02*
D03*
X031575Y006566D02*
D03*
X031385D02*
D03*
X029179Y005290D02*
D03*
X029369D02*
D03*
X028909Y006570D02*
D03*
X029099D02*
D03*
X029809Y005290D02*
D03*
X029619D02*
D03*
X030079Y006570D02*
D03*
X029889D02*
D03*
X027675Y005296D02*
D03*
X027865D02*
D03*
X027405Y006576D02*
D03*
X027595D02*
D03*
X028305Y005296D02*
D03*
X028115D02*
D03*
X028575Y006576D02*
D03*
X028385D02*
D03*
X027075D02*
D03*
X026885D02*
D03*
X025905D02*
D03*
X026095D02*
D03*
X026805Y005296D02*
D03*
X026615D02*
D03*
X026175D02*
D03*
X026365D02*
D03*
D61*
X019895Y004956D02*
D03*
D62*
X020000Y004859D02*
D03*
Y004924D02*
D03*
Y004989D02*
D03*
Y005054D02*
D03*
X019790Y004859D02*
D03*
Y004924D02*
D03*
Y004989D02*
D03*
D63*
Y005054D02*
D03*
D64*
X019485Y005226D02*
D03*
X025125Y006046D02*
D03*
D65*
X019285Y005226D02*
D03*
X019085D02*
D03*
X018885D02*
D03*
X019485Y004276D02*
D03*
X019285D02*
D03*
X019085D02*
D03*
X018885D02*
D03*
X024925Y006046D02*
D03*
X024725D02*
D03*
X024525D02*
D03*
X025125Y005096D02*
D03*
X024925D02*
D03*
X024725D02*
D03*
X024525D02*
D03*
D66*
X023330Y002396D02*
D03*
X023860D02*
D03*
X023330Y002596D02*
D03*
X023860D02*
D03*
X023330Y002796D02*
D03*
X023860D02*
D03*
X023330Y002996D02*
D03*
X023860D02*
D03*
X023330Y003796D02*
D03*
X023860D02*
D03*
X023330Y003196D02*
D03*
X023860D02*
D03*
X023330Y003396D02*
D03*
X023860D02*
D03*
X023330Y002196D02*
D03*
X023860D02*
D03*
X023330Y003596D02*
D03*
X023860D02*
D03*
X023330Y003996D02*
D03*
X023860D02*
D03*
X023860Y004196D02*
D03*
X023330D02*
D03*
X023860Y004996D02*
D03*
X023330D02*
D03*
X023860Y004796D02*
D03*
X023330D02*
D03*
X023860Y004596D02*
D03*
X023330D02*
D03*
X023860Y004396D02*
D03*
X023330D02*
D03*
X023860Y006996D02*
D03*
X023330D02*
D03*
Y006596D02*
D03*
Y006196D02*
D03*
Y006796D02*
D03*
X023860Y005196D02*
D03*
X023330D02*
D03*
X023860Y005996D02*
D03*
X023330D02*
D03*
X023860Y005396D02*
D03*
X023330D02*
D03*
Y005796D02*
D03*
X023860D02*
D03*
X023330Y006396D02*
D03*
X023860Y006196D02*
D03*
Y006396D02*
D03*
Y006796D02*
D03*
Y006596D02*
D03*
Y005596D02*
D03*
X023330D02*
D03*
D67*
X024555Y003886D02*
D03*
Y004456D02*
D03*
X025125Y003886D02*
D03*
Y004456D02*
D03*
D68*
X025115Y006666D02*
D03*
X024545D02*
D03*
D69*
X018995Y005756D02*
D03*
Y006125D02*
D03*
X019575Y005756D02*
D03*
Y006125D02*
D03*
X019895Y004615D02*
D03*
Y004246D02*
D03*
X021885Y002306D02*
D03*
Y002675D02*
D03*
D70*
X021375Y003726D02*
D03*
X021565D02*
D03*
X023065Y004186D02*
D03*
X022875D02*
D03*
X021905Y006956D02*
D03*
X021715D02*
D03*
X019645Y006356D02*
D03*
X019455D02*
D03*
X021295Y003396D02*
D03*
X021485D02*
D03*
X019795Y005216D02*
D03*
X019985D02*
D03*
X020395Y004026D02*
D03*
X020585D02*
D03*
D71*
X020185Y004376D02*
D03*
Y004186D02*
D03*
X023025Y006366D02*
D03*
Y006556D02*
D03*
X021955Y003476D02*
D03*
Y003666D02*
D03*
X023115Y005196D02*
D03*
Y005006D02*
D03*
X022855Y006366D02*
D03*
Y006556D02*
D03*
X022165Y002266D02*
D03*
Y002456D02*
D03*
X020325Y002456D02*
D03*
Y002266D02*
D03*
X020185Y004826D02*
D03*
Y004636D02*
D03*
Y005186D02*
D03*
Y004996D02*
D03*
X020355Y003286D02*
D03*
Y003476D02*
D03*
D72*
X019822Y005676D02*
D03*
X020025D02*
D03*
X019825Y006036D02*
D03*
X020028D02*
D03*
X019825Y005856D02*
D03*
X020028D02*
D03*
D73*
X019935Y006506D02*
D03*
Y006336D02*
D03*
X020075Y006336D02*
D03*
Y006506D02*
D03*
X020215Y006336D02*
D03*
Y006506D02*
D03*
X020365Y006506D02*
D03*
Y006336D02*
D03*
X020505Y006506D02*
D03*
Y006336D02*
D03*
X023055Y005896D02*
D03*
Y006066D02*
D03*
D74*
X021315Y006816D02*
D03*
X021485D02*
D03*
X021315Y006956D02*
D03*
X021485D02*
D03*
X023005Y006836D02*
D03*
X022835D02*
D03*
Y006976D02*
D03*
X023005D02*
D03*
X020175Y005676D02*
D03*
X020345D02*
D03*
X020175Y006036D02*
D03*
X020345D02*
D03*
X020175Y005856D02*
D03*
X020345D02*
D03*
X021315Y006676D02*
D03*
X021485D02*
D03*
X021315Y006536D02*
D03*
X021485D02*
D03*
X021955Y003346D02*
D03*
X021785D02*
D03*
X022725Y002996D02*
D03*
X022555D02*
D03*
X023075D02*
D03*
X022905D02*
D03*
X022725Y002796D02*
D03*
X022555D02*
D03*
X023075D02*
D03*
X022905D02*
D03*
X022735Y002596D02*
D03*
X022565D02*
D03*
X023075D02*
D03*
X022905D02*
D03*
X022725Y002396D02*
D03*
X022555D02*
D03*
X023075D02*
D03*
X022905D02*
D03*
D75*
X021045Y003846D02*
D03*
X021145Y003406D02*
D03*
X020995Y003846D02*
D03*
X020945D02*
D03*
Y003406D02*
D03*
X021045D02*
D03*
X021095D02*
D03*
X020995D02*
D03*
X021095Y003846D02*
D03*
X020685Y003406D02*
D03*
X020585Y003846D02*
D03*
X020735Y003406D02*
D03*
X020785D02*
D03*
Y003846D02*
D03*
X020685D02*
D03*
X020635D02*
D03*
Y003406D02*
D03*
X020735Y003846D02*
D03*
D76*
X021145D02*
D03*
X020585Y003406D02*
D03*
D77*
X021258Y004189D02*
D03*
X021308D02*
D03*
X021608D02*
D03*
X021308Y006314D02*
D03*
X021058D02*
D03*
X021208Y004189D02*
D03*
X022108D02*
D03*
X022008D02*
D03*
X022558Y006314D02*
D03*
X021008D02*
D03*
X021358Y004189D02*
D03*
X021408D02*
D03*
X021458Y006314D02*
D03*
X021508D02*
D03*
X022308Y004189D02*
D03*
X022258D02*
D03*
X022208D02*
D03*
X022158D02*
D03*
X021508D02*
D03*
X021458D02*
D03*
X021558D02*
D03*
X021958D02*
D03*
X022008Y006314D02*
D03*
X022058D02*
D03*
X022208D02*
D03*
X022258D02*
D03*
X022308D02*
D03*
X022358D02*
D03*
X022408D02*
D03*
X022458D02*
D03*
X021658D02*
D03*
X021708D02*
D03*
X021758D02*
D03*
X021808D02*
D03*
X021858D02*
D03*
X021908D02*
D03*
X021958D02*
D03*
X021108Y004189D02*
D03*
X021058D02*
D03*
X021008D02*
D03*
X020958D02*
D03*
X021108Y006314D02*
D03*
X021158D02*
D03*
X021358D02*
D03*
X021408D02*
D03*
X022608D02*
D03*
X022658D02*
D03*
X021908Y004189D02*
D03*
X021858D02*
D03*
X021808D02*
D03*
X021758D02*
D03*
X022658D02*
D03*
X022608D02*
D03*
X022558D02*
D03*
X022408D02*
D03*
X022508D02*
D03*
X021158D02*
D03*
X021708D02*
D03*
X022358D02*
D03*
X022108Y006314D02*
D03*
X021558D02*
D03*
X020908D02*
D03*
X022458Y004189D02*
D03*
X020958Y006314D02*
D03*
X021208D02*
D03*
X021258D02*
D03*
X021608D02*
D03*
X022158D02*
D03*
X022508D02*
D03*
X022058Y004189D02*
D03*
X021658D02*
D03*
D78*
X022845Y004626D02*
D03*
Y004676D02*
D03*
Y004826D02*
D03*
Y004876D02*
D03*
Y004926D02*
D03*
X020720Y005426D02*
D03*
Y004876D02*
D03*
Y004826D02*
D03*
Y004926D02*
D03*
Y006126D02*
D03*
Y004426D02*
D03*
Y004676D02*
D03*
Y005626D02*
D03*
Y005826D02*
D03*
X022845Y006076D02*
D03*
X020720Y005726D02*
D03*
Y005676D02*
D03*
Y006076D02*
D03*
Y004726D02*
D03*
Y004776D02*
D03*
X022845D02*
D03*
Y004726D02*
D03*
Y006026D02*
D03*
X020720Y004576D02*
D03*
Y004626D02*
D03*
X022845Y005276D02*
D03*
Y005226D02*
D03*
Y005176D02*
D03*
Y005026D02*
D03*
Y004976D02*
D03*
X020720D02*
D03*
Y005126D02*
D03*
Y005176D02*
D03*
Y005226D02*
D03*
Y005276D02*
D03*
Y005326D02*
D03*
Y005376D02*
D03*
X022845D02*
D03*
Y005326D02*
D03*
Y005926D02*
D03*
Y005876D02*
D03*
Y005826D02*
D03*
Y005776D02*
D03*
Y005726D02*
D03*
Y005676D02*
D03*
Y005526D02*
D03*
Y005476D02*
D03*
Y005426D02*
D03*
X020720Y004476D02*
D03*
Y004526D02*
D03*
X022845Y004576D02*
D03*
Y004526D02*
D03*
X020720Y005976D02*
D03*
Y006026D02*
D03*
Y005776D02*
D03*
Y005926D02*
D03*
X022845Y004376D02*
D03*
Y004476D02*
D03*
Y005126D02*
D03*
Y005626D02*
D03*
Y006126D02*
D03*
X020720Y005526D02*
D03*
Y005026D02*
D03*
Y004376D02*
D03*
Y005076D02*
D03*
Y005476D02*
D03*
Y005576D02*
D03*
Y005876D02*
D03*
X022845Y005976D02*
D03*
Y005576D02*
D03*
Y005076D02*
D03*
Y004426D02*
D03*
D79*
X020908Y004189D02*
D03*
D80*
X021515Y002265D02*
D03*
Y003027D02*
D03*
Y003154D02*
D03*
Y002900D02*
D03*
Y002773D02*
D03*
Y002646D02*
D03*
Y002519D02*
D03*
Y002392D02*
D03*
X020600Y002900D02*
D03*
Y002773D02*
D03*
Y002646D02*
D03*
Y002519D02*
D03*
Y002392D02*
D03*
Y003027D02*
D03*
Y002265D02*
D03*
Y003154D02*
D03*
D81*
X020228Y006807D02*
D03*
X020355D02*
D03*
X020482D02*
D03*
X020101D02*
D03*
D82*
X019065Y006909D02*
D03*
X018768D02*
D03*
X019363D02*
D03*
D83*
X019130Y006596D02*
D03*
X019065D02*
D03*
X018935D02*
D03*
X019195D02*
D03*
X019000D02*
D03*
D84*
X019775Y006766D02*
D03*
X019045Y002686D02*
D03*
X032425Y002566D02*
D03*
D85*
X032855Y003986D02*
X033135D01*
X032855Y004386D02*
X033135D01*
Y004586D02*
X033335D01*
X032855Y004186D02*
X033135D01*
X033335D01*
X033135Y003986D02*
X033335D01*
X033135Y004386D02*
X033335D01*
X032855Y004586D02*
X033135D01*
Y003586D02*
X033335D01*
X032855D02*
X033135D01*
Y003786D02*
X033335D01*
X032855D02*
X033135D01*
Y004986D02*
X033335D01*
X032855D02*
X033135D01*
Y002386D02*
X033335D01*
X032855D02*
X033135D01*
Y002186D02*
X033335D01*
X032855D02*
X033135D01*
X032855Y004786D02*
X033135D01*
X033335D01*
X032855Y005186D02*
X033135D01*
X033335D01*
X032855Y005386D02*
X033135D01*
X033335D01*
X032855Y005586D02*
X033135D01*
X033335D01*
X032855Y005786D02*
X033135D01*
X033335D01*
X032855Y005986D02*
X033135D01*
X033335D01*
X032855Y006186D02*
X033135D01*
X033335D01*
X032855Y006386D02*
X033135D01*
X033335D01*
X032855Y006586D02*
X033135D01*
X033335D01*
X033135Y006986D02*
X033335D01*
X032855D02*
X033135D01*
X024545Y006656D02*
Y006666D01*
X024535Y006676D02*
Y006916D01*
X024387Y003886D02*
X024555D01*
X024305Y003969D02*
X024387Y003886D01*
X024305Y003969D02*
Y004639D01*
X025125Y004456D02*
X025365D01*
X025453Y003504D02*
Y004368D01*
X025365Y004456D02*
X025453Y004368D01*
X025125Y004456D02*
Y005096D01*
X025125Y005096D01*
X024535Y006676D02*
X024545Y006666D01*
X025115D02*
X025335D01*
X024925Y006046D02*
Y006406D01*
X024525Y006046D02*
Y006406D01*
X024725Y005096D02*
Y005456D01*
X024525Y005096D02*
Y005456D01*
X024515Y005106D02*
X024525Y005116D01*
X024515Y005106D02*
X024525Y005096D01*
X025120Y006051D02*
X025125Y006046D01*
X025120Y006051D02*
Y006661D01*
X025115Y006666D02*
X025120Y006661D01*
X024725Y006046D02*
Y006476D01*
X024545Y006656D02*
X024725Y006476D01*
X024684Y003512D02*
X024691Y003504D01*
X024684Y003512D02*
Y003578D01*
X024552Y003710D02*
X024684Y003578D01*
X024552Y003710D02*
Y003910D01*
X024364Y004698D02*
X024857D01*
X024305Y004639D02*
X024364Y004698D01*
X024915Y004756D02*
Y005086D01*
X024857Y004698D02*
X024915Y004756D01*
Y005086D02*
X024925Y005096D01*
X025105Y003916D02*
X025115D01*
X024620Y004401D02*
X025105Y003916D01*
X024620Y004401D02*
Y004421D01*
X024555Y004486D02*
X024620Y004421D01*
X024545Y004486D02*
X024555D01*
X019575Y005496D02*
X019665D01*
X019485Y005596D02*
Y005726D01*
X019575Y005496D02*
X019665D01*
X019495Y005596D02*
Y005706D01*
X019285Y006125D02*
X019575D01*
X020263Y004506D02*
X020396Y004373D01*
Y004098D02*
Y004373D01*
X020185Y004506D02*
X020263D01*
X019925Y004615D02*
X019935D01*
X019895D02*
X019925D01*
X019935D02*
X020043Y004506D01*
X020185D01*
X021295Y003206D02*
X021295Y003206D01*
Y003396D01*
X019035Y005764D02*
X019085Y005714D01*
X019075Y004816D02*
Y004896D01*
Y004726D02*
Y004816D01*
X019085Y005596D02*
Y005714D01*
Y005603D02*
X019092D01*
X019075Y004896D02*
Y005246D01*
X019085Y005226D02*
Y005596D01*
X021485Y003391D02*
Y003396D01*
Y003391D02*
X021570Y003306D01*
X021645D01*
X019475Y005246D02*
X019485Y005256D01*
X019475Y005486D02*
X019485Y005496D01*
X019475Y005246D02*
Y005486D01*
X019485Y005256D02*
Y005496D01*
X019485Y005496D02*
Y005596D01*
X019485Y005496D02*
X019665D01*
X019495Y005706D02*
X019545Y005756D01*
X019575D01*
X020585Y004026D02*
X020745D01*
X024691Y003250D02*
Y003504D01*
X024945D01*
Y003250D02*
Y003504D01*
X019285Y003895D02*
Y004276D01*
X018915Y003836D02*
X019227D01*
X019285Y003895D01*
X018856Y003778D02*
X018915Y003836D01*
X018856Y003493D02*
Y003778D01*
X018856Y003493D02*
X018856Y003493D01*
X018856Y003239D02*
Y003493D01*
X019484Y004275D02*
X019485Y004276D01*
X019484Y003828D02*
Y004275D01*
X019343Y003686D02*
X019484Y003828D01*
X019185Y003686D02*
X019343D01*
X019115Y003498D02*
Y003616D01*
X019185Y003686D01*
X019110Y003493D02*
X019115Y003498D01*
X019110Y003239D02*
Y003493D01*
X019364Y003239D02*
Y003493D01*
X019618Y003239D02*
Y003493D01*
X019285Y005936D02*
Y006125D01*
Y005226D02*
Y005936D01*
Y006125D02*
X019285Y006125D01*
X018995D02*
X019285D01*
X019275Y005246D02*
X019275Y005246D01*
X019265Y005236D02*
X019275Y005246D01*
X019265Y004876D02*
Y005236D01*
Y004876D02*
X019285Y004856D01*
D86*
X028125Y004282D02*
X028360Y004516D01*
X032145Y004446D02*
X032405Y004186D01*
X029646Y004516D02*
X029646Y004516D01*
X029365Y004136D02*
X029675Y004446D01*
X032174Y004516D02*
X032304Y004386D01*
X029675Y004446D02*
X032145Y004446D01*
X032115Y004376D02*
X032505Y003986D01*
X026625Y004372D02*
X026910Y004656D01*
X032319Y004786D02*
X032855D01*
X032145Y004726D02*
X032395Y004976D01*
X032056Y004236D02*
X032595Y003696D01*
X028360Y004516D02*
X029646D01*
X029719Y004376D02*
X032115Y004376D01*
X032180Y004656D02*
X032189D01*
X031015Y004306D02*
X032085D01*
X032304Y004386D02*
X032855D01*
X029625Y003836D02*
Y004283D01*
X026910Y004656D02*
X032180D01*
X026625Y003956D02*
Y004372D01*
X026365Y004226D02*
X026865Y004726D01*
X030865Y004156D02*
X031015Y004306D01*
X032199Y004586D02*
X032855D01*
X031125Y003836D02*
Y004182D01*
X028125Y003836D02*
Y004282D01*
X029646Y004516D02*
X032174D01*
X028316Y004586D02*
X032199Y004586D01*
X029625Y004283D02*
X029719Y004376D01*
X032189Y004656D02*
X032319Y004786D01*
X032180Y004656D02*
X032180Y004656D01*
X026865Y004726D02*
X032145Y004726D01*
X032085Y004306D02*
X032605Y003786D01*
X027865Y004135D02*
X028316Y004586D01*
X031125Y004182D02*
X031179Y004236D01*
X032056D01*
X030865Y003836D02*
Y004156D01*
X029365Y003836D02*
Y004136D01*
X026365Y003836D02*
Y004226D01*
X027865Y003836D02*
Y004135D01*
X026605Y006986D02*
X032355D01*
X032755Y006586D02*
X032855D01*
X032355Y006986D02*
X032755Y006586D01*
X027865Y006576D02*
Y006776D01*
X027935Y006846D01*
X028125Y006726D02*
X028175Y006776D01*
X028125Y006576D02*
Y006726D01*
X028175Y006776D02*
X032266Y006776D01*
X027935Y006846D02*
X032295Y006846D01*
X026365Y006576D02*
Y006746D01*
X026605Y006986D01*
X026805Y006916D02*
X032325D01*
X026625Y006576D02*
Y006736D01*
X026805Y006916D01*
X030595Y003836D02*
X030865D01*
X031125D02*
X031385D01*
X030493Y003588D02*
X030611D01*
X030405Y003676D02*
Y003836D01*
Y003676D02*
X030493Y003588D01*
X031575Y003676D02*
Y003846D01*
X031487Y003588D02*
X031575Y003676D01*
X031373Y003588D02*
X031487D01*
X029095Y003836D02*
X029365D01*
X029625D02*
X029885D01*
X028993Y003588D02*
X029111D01*
X028905Y003676D02*
Y003836D01*
Y003676D02*
X028993Y003588D01*
X030075Y003676D02*
Y003846D01*
X029987Y003588D02*
X030075Y003676D01*
X029873Y003588D02*
X029987D01*
X027595Y003836D02*
X027865D01*
X028125D02*
X028385D01*
X027493Y003588D02*
X027611D01*
X027405Y003676D02*
Y003836D01*
Y003676D02*
X027493Y003588D01*
X028575Y003676D02*
Y003846D01*
X028487Y003588D02*
X028575Y003676D01*
X028373Y003588D02*
X028487D01*
X026095Y003836D02*
X026365D01*
X026625D02*
X026885D01*
X026625D02*
Y003956D01*
X025993Y003588D02*
X026111D01*
X025905Y003676D02*
Y003836D01*
Y003676D02*
X025993Y003588D01*
X027075Y003676D02*
Y003846D01*
X026987Y003588D02*
X027075Y003676D01*
X026873Y003588D02*
X026987D01*
X030595Y006566D02*
X030865D01*
X031125D02*
X031385D01*
X030493Y006318D02*
X030611D01*
X030405Y006406D02*
Y006566D01*
Y006406D02*
X030493Y006318D01*
X031575Y006406D02*
Y006576D01*
X031487Y006318D02*
X031575Y006406D01*
X031373Y006318D02*
X031487D01*
X029099Y006570D02*
X029369D01*
X029629D02*
X029889D01*
X028997Y006322D02*
X029115D01*
X028909Y006410D02*
Y006570D01*
Y006410D02*
X028997Y006322D01*
X030079Y006410D02*
Y006580D01*
X029991Y006322D02*
X030079Y006410D01*
X029877Y006322D02*
X029991D01*
X027595Y006576D02*
X027865D01*
X028125D02*
X028385D01*
X027493Y006328D02*
X027611D01*
X027405Y006416D02*
Y006576D01*
Y006416D02*
X027493Y006328D01*
X028575Y006416D02*
Y006586D01*
X028487Y006328D02*
X028575Y006416D01*
X028373Y006328D02*
X028487D01*
X026625Y006576D02*
X026885D01*
X026095D02*
X026365D01*
X026873Y006328D02*
X026987D01*
X027075Y006416D02*
Y006586D01*
X026987Y006328D02*
X027075Y006416D01*
X025905Y006416D02*
Y006576D01*
Y006416D02*
X025993Y006328D01*
X026111D01*
X032605Y003786D02*
X032855D01*
X032595Y003696D02*
X032725D01*
X032405Y004186D02*
X032855D01*
X032505Y003986D02*
X032855D01*
X032835Y003586D02*
X032855D01*
X032725Y003696D02*
X032835Y003586D01*
X032845Y004976D02*
X032855Y004986D01*
X032395Y004976D02*
X032845D01*
X032431Y006411D02*
X032855Y005986D01*
X032431Y006411D02*
Y006612D01*
X032266Y006776D02*
X032431Y006612D01*
X032543Y006499D02*
Y006599D01*
X032295Y006846D02*
X032543Y006599D01*
X032633Y006609D02*
Y006609D01*
X032325Y006916D02*
X032633Y006609D01*
X032543Y006499D02*
X032855Y006186D01*
X032633Y006609D02*
X032855Y006386D01*
X022865Y002196D02*
X023330D01*
X022865Y002196D02*
X022865Y002196D01*
X023330D02*
X023860D01*
X020185Y004506D02*
Y004636D01*
Y004376D02*
Y004506D01*
X020000Y004690D02*
Y004849D01*
X019925Y004615D02*
X020000Y004690D01*
X019865Y004615D02*
X019895D01*
X019790Y004690D02*
X019865Y004615D01*
X019790Y004680D02*
Y004849D01*
X020325Y002681D02*
Y002796D01*
Y002566D02*
Y002681D01*
X020417Y002773D02*
X020600D01*
X020325Y002681D02*
X020417Y002773D01*
X020325Y002796D02*
X020429Y002900D01*
X020600D01*
X020405Y002646D02*
X020600D01*
X020325Y002456D02*
Y002566D01*
X020405Y002646D01*
X020025Y005676D02*
X020175D01*
X020028Y006036D02*
X020175D01*
X020028Y005856D02*
X020175D01*
X020175Y005856D01*
X023873Y004210D02*
X024023D01*
X023860Y004196D02*
X023873Y004210D01*
X024023D02*
X024025Y004212D01*
X021575Y006166D02*
X021580Y006161D01*
Y006158D02*
X021773Y005965D01*
X021575Y006166D02*
Y006169D01*
X021580Y006158D02*
Y006161D01*
X021773Y005965D02*
X021967D01*
X022004Y005925D02*
Y005928D01*
X021967Y005965D02*
X022004Y005928D01*
Y005925D02*
X022010Y005918D01*
X021857Y002646D02*
X021885Y002675D01*
X021515Y002646D02*
X021857D01*
X022165Y002456D02*
Y002645D01*
X021885Y002675D02*
X022136D01*
X022165Y002645D01*
X021845Y002675D02*
X021885D01*
X021515Y002773D02*
X021746D01*
X021845Y002675D01*
X021515Y002900D02*
X021841D01*
X021875Y002866D01*
Y002685D02*
Y002866D01*
Y002685D02*
X021885Y002675D01*
X021515Y003154D02*
X021797D01*
X021875Y002866D02*
Y003076D01*
X021797Y003154D02*
X021875Y003076D01*
X025453Y003250D02*
Y003504D01*
X025199D02*
X025453D01*
X025199Y003250D02*
Y003504D01*
X020224Y002266D02*
X020325D01*
X020326Y002266D02*
X020600D01*
X020600Y002265D01*
X019391Y002896D02*
X020053D01*
X020426Y003027D02*
X020600D01*
X020295Y002896D02*
X020426Y003027D01*
X019362Y002926D02*
X019391Y002896D01*
X020192Y002298D02*
Y002758D01*
Y002298D02*
X020224Y002266D01*
X020053Y002896D02*
X020192Y002758D01*
X020053Y002896D02*
X020295D01*
X019362Y003051D02*
Y003237D01*
X019364Y003239D01*
X019362Y002926D02*
Y003051D01*
X020403Y003154D02*
X020600D01*
X019618Y003063D02*
Y003239D01*
Y003063D02*
X019685Y002996D01*
X020245D01*
X020403Y003154D01*
X021785Y003736D02*
X021787Y003734D01*
X021862D01*
X021930Y003666D01*
X021955D01*
X023311Y007016D02*
X023330Y006996D01*
X023860D01*
X024018D01*
X024032Y007011D01*
X024035D01*
X023181Y006579D02*
X023184Y006583D01*
X023316D01*
X023330Y006596D01*
X021515Y002265D02*
X021844D01*
X021306D02*
X021515D01*
X021844D02*
X021885Y002306D01*
X021185Y002386D02*
X021306Y002265D01*
X021885Y002306D02*
X021925Y002266D01*
X021185Y002386D02*
Y002956D01*
X021925Y002266D02*
X022165D01*
X021185Y002957D02*
X021185Y002956D01*
X021185Y002957D02*
Y002998D01*
X021214Y003027D01*
X021515D01*
X023330Y006196D02*
X023330Y006196D01*
X023165Y006196D02*
X023330D01*
X019822Y005676D02*
X019824Y005678D01*
Y006035D02*
X019825Y006036D01*
X019824Y005678D02*
Y006035D01*
X024183Y003504D02*
X024185Y003503D01*
X024437Y003504D02*
X024438D01*
X024185Y003503D02*
X024187D01*
X024183Y003504D02*
Y003507D01*
X024177Y003514D02*
X024183Y003507D01*
Y003250D02*
X024187Y003255D01*
X024438Y003504D02*
X024441Y003507D01*
X024437Y003504D02*
Y003511D01*
X024435Y003514D02*
X024437Y003511D01*
Y003250D02*
X024441Y003254D01*
X019825Y006036D02*
Y006216D01*
D87*
X023333Y003194D02*
X023858D01*
X023333Y003399D02*
X023858D01*
X023135Y003346D02*
X023181Y003392D01*
X023330Y003196D02*
X023333Y003194D01*
X022955Y003346D02*
X023135D01*
X023858Y003399D02*
X023860Y003396D01*
X023015Y003196D02*
X023015Y003196D01*
X023326Y003392D02*
X023330Y003396D01*
Y003596D02*
X023860D01*
X023330Y003396D02*
X023333Y003399D01*
X023015Y003196D02*
X023330D01*
X023858Y003194D02*
X023860Y003196D01*
X023181Y003392D02*
X023326D01*
X019364Y004655D02*
X019677Y004969D01*
X019085Y004706D02*
X019137Y004655D01*
X019364D01*
D88*
X023330Y003796D02*
X023330Y003796D01*
X023705Y003796D02*
X023705Y003796D01*
X023330Y003996D02*
X023485D01*
X023705D02*
X023860D01*
X023860Y003796D02*
X023860Y003796D01*
X018768Y006929D02*
X019065D01*
X019645Y006356D02*
Y006381D01*
X019489Y006538D02*
Y006713D01*
X019363Y006909D02*
X019463Y006809D01*
X019489Y006538D02*
X019645Y006381D01*
X019463Y006739D02*
Y006809D01*
X019065Y006929D02*
X019363D01*
X019463Y006739D02*
X019489Y006713D01*
X020282Y006613D02*
X020285Y006616D01*
X020226Y006613D02*
X020282D01*
X020226D02*
Y006806D01*
Y006508D02*
Y006613D01*
Y006806D02*
X020228Y006807D01*
X020225Y006506D02*
X020226Y006508D01*
X020101Y006526D02*
Y006807D01*
X020081Y006506D02*
X020101Y006526D01*
X020075Y006506D02*
X020081D01*
X020360Y006512D02*
Y006802D01*
X020355Y006807D02*
X020360Y006802D01*
Y006512D02*
X020365Y006506D01*
X020482Y006530D02*
Y006807D01*
Y006530D02*
X020505Y006506D01*
X020515D01*
X019698Y004989D02*
X019790D01*
X019677Y004969D02*
X019698Y004989D01*
X020316Y005577D02*
X020345Y005606D01*
X020225Y005577D02*
X020316D01*
X023155Y004106D02*
X023159Y004110D01*
X023183D01*
X023270Y004196D01*
X023330D01*
X023330Y005196D02*
X023330Y005196D01*
X023860D02*
X023860Y005196D01*
X023685Y005196D02*
X023860D01*
X023330D02*
X023495D01*
X023495Y005196D01*
X023685D02*
X023685Y005196D01*
X018685Y006316D02*
X018691D01*
X018741Y006266D01*
X019070D01*
X019160Y006356D01*
X019455D01*
X022875Y004106D02*
Y004186D01*
Y004106D02*
X022985Y003996D01*
X023330D01*
X019754Y004924D02*
X019790D01*
X019695Y004865D02*
X019754Y004924D01*
X019685Y004826D02*
X019695Y004836D01*
Y004865D01*
D89*
X020185Y004911D02*
Y004996D01*
X020173Y004924D02*
X020185Y004911D01*
Y004826D02*
Y004911D01*
X020000Y004924D02*
X020173D01*
X020355Y003476D02*
X020385Y003506D01*
Y003586D01*
X020785Y003846D02*
X020865D01*
X020675Y006316D02*
X020885D01*
X019125Y006426D02*
Y006474D01*
X019036Y006337D02*
X019125Y006426D01*
Y006474D02*
X019125Y006474D01*
Y006591D01*
X019130Y006596D01*
X018847Y006337D02*
X019036D01*
X018968Y006419D02*
X019040D01*
X019070Y006449D01*
X019065Y006596D02*
X019070Y006591D01*
Y006449D02*
Y006591D01*
X018965Y006416D02*
X018968Y006419D01*
X023856Y006600D02*
X023860Y006596D01*
X019325Y003087D02*
X019362Y003051D01*
X018861Y003087D02*
X019325D01*
X018751Y003198D02*
X018861Y003087D01*
X018741Y006266D02*
X018751Y006256D01*
Y003198D02*
Y006256D01*
X018691Y006382D02*
X018748Y006439D01*
X018877D01*
X018930Y006492D01*
Y006591D01*
X018935Y006596D01*
X018691Y006322D02*
Y006382D01*
X018685Y006316D02*
X018691Y006322D01*
X019224Y006437D02*
Y006445D01*
X019200Y006470D02*
X019224Y006445D01*
X019200Y006470D02*
Y006591D01*
X019195Y006596D02*
X019200Y006591D01*
X022855Y006556D02*
X022940D01*
Y006611D01*
Y006556D02*
X023025D01*
X022940Y006611D02*
X022965Y006636D01*
X023124D01*
X023181Y006579D01*
X020585Y003406D02*
Y003406D01*
Y003526D01*
X020515Y003406D02*
X020585D01*
Y003526D02*
X020735Y003676D01*
X020491Y003431D02*
X020515Y003406D01*
X020735Y003676D02*
Y003846D01*
X020491Y003431D02*
Y003481D01*
X020485Y003486D02*
X020491Y003481D01*
D90*
X021375Y003576D02*
Y003726D01*
D91*
X019872Y003493D02*
X019874Y003495D01*
X020600Y002519D02*
X020679D01*
X020756Y002492D02*
X020771D01*
X020679Y002519D02*
X020706Y002493D01*
X020771Y002492D02*
X020775Y002496D01*
X020706Y002488D02*
X020751D01*
X020756Y002492D01*
X020706Y002488D02*
Y002493D01*
X020679Y002392D02*
X020706Y002419D01*
X020600Y002392D02*
X020679D01*
X020706Y002419D02*
Y002425D01*
X020771Y002421D02*
X020775Y002416D01*
X020706Y002425D02*
X020751D01*
X020756Y002421D02*
X020771D01*
X020751Y002425D02*
X020756Y002421D01*
D92*
X030611Y002790D02*
D03*
X029111D02*
D03*
X027611D02*
D03*
X026111D02*
D03*
X030611Y005520D02*
D03*
X029115Y005524D02*
D03*
X027611Y005530D02*
D03*
X026111Y005566D02*
D03*
D93*
X030865Y002790D02*
D03*
X031119D02*
D03*
X031373D02*
D03*
X030611Y003552D02*
D03*
X030865D02*
D03*
X031119D02*
D03*
X031373D02*
D03*
X029365Y002790D02*
D03*
X029619D02*
D03*
X029873D02*
D03*
X029111Y003552D02*
D03*
X029365D02*
D03*
X029619D02*
D03*
X029873D02*
D03*
X027865Y002790D02*
D03*
X028119D02*
D03*
X028373D02*
D03*
X027611Y003552D02*
D03*
X027865D02*
D03*
X028119D02*
D03*
X028373D02*
D03*
X026365Y002790D02*
D03*
X026619D02*
D03*
X026873D02*
D03*
X026111Y003552D02*
D03*
X026365D02*
D03*
X026619D02*
D03*
X026873D02*
D03*
X030865Y005520D02*
D03*
X031119D02*
D03*
X031373D02*
D03*
X030611Y006282D02*
D03*
X030865D02*
D03*
X031119D02*
D03*
X031373D02*
D03*
X029369Y005524D02*
D03*
X029623D02*
D03*
X029877D02*
D03*
X029115Y006286D02*
D03*
X029369D02*
D03*
X029623D02*
D03*
X029877D02*
D03*
X027865Y005530D02*
D03*
X028119D02*
D03*
X028373D02*
D03*
X027611Y006292D02*
D03*
X027865D02*
D03*
X028119D02*
D03*
X028373D02*
D03*
X026365Y005566D02*
D03*
X026619D02*
D03*
X026873D02*
D03*
X026111Y006328D02*
D03*
X026365D02*
D03*
X026619D02*
D03*
X026873D02*
D03*
D94*
X022543Y006736D02*
D03*
X021745D02*
D03*
D95*
X018856Y003493D02*
D03*
Y003239D02*
D03*
X019872Y003493D02*
D03*
Y003239D02*
D03*
X020126D02*
D03*
X019110Y003493D02*
D03*
Y003239D02*
D03*
X019364Y003493D02*
D03*
Y003239D02*
D03*
X019618Y003493D02*
D03*
Y003239D02*
D03*
X019865Y003746D02*
D03*
X020125D02*
D03*
X024945Y003504D02*
D03*
Y003250D02*
D03*
X024691Y003504D02*
D03*
Y003250D02*
D03*
X025453D02*
D03*
X025199Y003504D02*
D03*
Y003250D02*
D03*
X024183Y003504D02*
D03*
Y003250D02*
D03*
X024437Y003504D02*
D03*
Y003250D02*
D03*
X032311D02*
D03*
Y003504D02*
D03*
X032565Y003250D02*
D03*
X033135Y003186D02*
D03*
X033335Y003186D02*
D03*
Y002986D02*
D03*
X033135Y002786D02*
D03*
X033335Y002786D02*
D03*
Y002586D02*
D03*
Y002386D02*
D03*
X033135Y002186D02*
D03*
X033335Y002186D02*
D03*
X033135Y002586D02*
D03*
Y002386D02*
D03*
Y002986D02*
D03*
Y003786D02*
D03*
X033335Y003786D02*
D03*
X033135Y003586D02*
D03*
X033335Y003586D02*
D03*
X033135Y003386D02*
D03*
X033335Y003386D02*
D03*
Y006986D02*
D03*
X033135Y006586D02*
D03*
X033335D02*
D03*
X033135Y006186D02*
D03*
X033335D02*
D03*
X033135Y005786D02*
D03*
X033335D02*
D03*
X033135Y005386D02*
D03*
X033335D02*
D03*
X033135Y004986D02*
D03*
X033335Y004986D02*
D03*
X033135Y004586D02*
D03*
X033335Y004586D02*
D03*
X033135Y004186D02*
D03*
X033335Y004186D02*
D03*
X033135Y006786D02*
D03*
X033335D02*
D03*
X033135Y006386D02*
D03*
X033335D02*
D03*
X033135Y005986D02*
D03*
X033335D02*
D03*
X033135Y005586D02*
D03*
X033335D02*
D03*
X033135Y005186D02*
D03*
X033335D02*
D03*
X033135Y004786D02*
D03*
X033335D02*
D03*
X033135Y004386D02*
D03*
X033335Y004386D02*
D03*
X033135Y003986D02*
D03*
X033335Y003986D02*
D03*
D96*
X020126Y003493D02*
D03*
X019865Y003946D02*
D03*
X020125D02*
D03*
X025453Y003504D02*
D03*
X032565D02*
D03*
D97*
X033135Y006986D02*
D03*
D98*
X018865Y003776D02*
D03*
X019185Y003676D02*
D03*
D99*
X029675Y002236D02*
D03*
X025695Y002386D02*
D03*
X024105Y002896D02*
D03*
X024215D02*
D03*
X024105Y002696D02*
D03*
X024215D02*
D03*
X024105Y002496D02*
D03*
X024215D02*
D03*
X020555Y004466D02*
D03*
X020405Y004566D02*
D03*
X020895Y004046D02*
D03*
X020815Y004216D02*
D03*
X021149Y003970D02*
D03*
X020995Y004046D02*
D03*
X022655Y005446D02*
D03*
X021215Y004016D02*
D03*
X024215Y003086D02*
D03*
X024105D02*
D03*
X023075Y003196D02*
D03*
X023485Y003996D02*
D03*
Y003796D02*
D03*
X022955Y003346D02*
D03*
X023495Y003596D02*
D03*
X022865Y002196D02*
D03*
X023145Y003196D02*
D03*
X023098Y002196D02*
D03*
X023705Y003796D02*
D03*
Y003596D02*
D03*
X023015Y003196D02*
D03*
Y003346D02*
D03*
X023705Y003996D02*
D03*
X023075Y003346D02*
D03*
X024925Y006406D02*
D03*
X024525D02*
D03*
X024725Y005456D02*
D03*
X024525D02*
D03*
X020185Y004506D02*
D03*
X020085Y005106D02*
D03*
X020955Y006456D02*
D03*
X020185Y004916D02*
D03*
X020285Y006616D02*
D03*
X020995Y005826D02*
D03*
Y005686D02*
D03*
X020465Y005716D02*
D03*
X020485Y005506D02*
D03*
X021965Y004016D02*
D03*
X021015Y004746D02*
D03*
X020925Y004606D02*
D03*
X021325Y003226D02*
D03*
Y003296D02*
D03*
X021255Y003226D02*
D03*
Y003296D02*
D03*
X019075Y004726D02*
D03*
X019075Y004816D02*
D03*
Y004896D02*
D03*
X019092Y005603D02*
D03*
X021635Y003336D02*
D03*
Y003276D02*
D03*
X021575Y003336D02*
D03*
Y003276D02*
D03*
X019475Y005616D02*
D03*
X019575Y005456D02*
D03*
X019645D02*
D03*
X019575Y005526D02*
D03*
X019645D02*
D03*
X022565Y003945D02*
D03*
X024025Y004212D02*
D03*
X020865Y003864D02*
D03*
X020445Y004996D02*
D03*
X020585Y004266D02*
D03*
X020675Y004056D02*
D03*
X020755D02*
D03*
X020675Y003996D02*
D03*
Y006416D02*
D03*
X021295Y004606D02*
D03*
X022855Y006209D02*
D03*
X022065Y006169D02*
D03*
X021045Y004398D02*
D03*
X023165Y006796D02*
D03*
X021575Y006169D02*
D03*
X022725Y003296D02*
D03*
X020385Y003586D02*
D03*
X020755Y003996D02*
D03*
X021666Y003537D02*
D03*
X022010Y005918D02*
D03*
X023005Y005126D02*
D03*
X022195Y005456D02*
D03*
X021765Y004016D02*
D03*
X020675Y006316D02*
D03*
X020225Y005577D02*
D03*
X022795Y003556D02*
D03*
X021695Y004696D02*
D03*
X022105D02*
D03*
X022515Y004686D02*
D03*
X023155Y004106D02*
D03*
X023055Y005456D02*
D03*
X022465Y003945D02*
D03*
X023165Y003576D02*
D03*
X023495Y005196D02*
D03*
X023685D02*
D03*
X022505Y003736D02*
D03*
X023685Y004996D02*
D03*
X023505D02*
D03*
X023695Y004796D02*
D03*
X023585Y004756D02*
D03*
X023635Y004596D02*
D03*
X023155Y004836D02*
D03*
X023155Y004716D02*
D03*
X023495Y004596D02*
D03*
X022405Y004406D02*
D03*
X022395Y004966D02*
D03*
X022745Y004116D02*
D03*
X022785Y004246D02*
D03*
X021695Y004341D02*
D03*
X021985Y004986D02*
D03*
X022189Y005046D02*
D03*
X021985Y004396D02*
D03*
X022235Y006056D02*
D03*
X021353Y005747D02*
D03*
X023696Y006000D02*
D03*
X021345Y005656D02*
D03*
X023185Y005996D02*
D03*
X022335Y006066D02*
D03*
X021115Y005956D02*
D03*
X020535Y005888D02*
D03*
X021408Y005871D02*
D03*
X021341Y005929D02*
D03*
X020955Y006106D02*
D03*
X021025Y006044D02*
D03*
X021335Y002516D02*
D03*
Y002396D02*
D03*
X021265Y004466D02*
D03*
X021135D02*
D03*
X023075Y004902D02*
D03*
X022993D02*
D03*
X023689Y005393D02*
D03*
X023135Y005316D02*
D03*
X022525Y005446D02*
D03*
X022435D02*
D03*
X022695Y005656D02*
D03*
X022585Y005686D02*
D03*
X022603Y005774D02*
D03*
X022585Y005856D02*
D03*
X022465Y005976D02*
D03*
X022427Y006106D02*
D03*
X022255Y005290D02*
D03*
X022334Y005357D02*
D03*
X021895Y006816D02*
D03*
X021915Y006726D02*
D03*
X021855Y006556D02*
D03*
X021775Y006536D02*
D03*
X021585Y006686D02*
D03*
X021625Y006536D02*
D03*
X021605Y006456D02*
D03*
X020405Y005466D02*
D03*
X020292Y005460D02*
D03*
X020145Y005476D02*
D03*
X020205Y005306D02*
D03*
X020325Y005196D02*
D03*
X020315Y005116D02*
D03*
X020517Y004855D02*
D03*
X022465Y006596D02*
D03*
X022345Y006846D02*
D03*
X022265D02*
D03*
X022175Y006786D02*
D03*
X022195Y006666D02*
D03*
X022205Y006546D02*
D03*
X022085Y006546D02*
D03*
X022035Y006686D02*
D03*
X021874Y004016D02*
D03*
X022745Y003926D02*
D03*
X022137Y005106D02*
D03*
X022545D02*
D03*
X022025Y005166D02*
D03*
X021925Y005276D02*
D03*
X022085D02*
D03*
X020325Y004876D02*
D03*
X020315Y004756D02*
D03*
X021895Y003896D02*
D03*
X022655Y006108D02*
D03*
X022763Y003796D02*
D03*
X022045D02*
D03*
X022665Y003856D02*
D03*
X022045Y003876D02*
D03*
X022585Y003146D02*
D03*
X022485Y002876D02*
D03*
X022665Y003146D02*
D03*
X022815Y002796D02*
D03*
X022265Y004326D02*
D03*
X022569Y002691D02*
D03*
X022825Y002596D02*
D03*
X022185Y004332D02*
D03*
X022455Y002396D02*
D03*
X021355Y004406D02*
D03*
X022815Y002396D02*
D03*
X021345Y004506D02*
D03*
X023150Y005796D02*
D03*
X022525Y005916D02*
D03*
X024035Y005796D02*
D03*
X022414Y005876D02*
D03*
X020457Y004788D02*
D03*
X020875Y003716D02*
D03*
Y003406D02*
D03*
X020555Y004706D02*
D03*
X020775Y003276D02*
D03*
X020015Y005446D02*
D03*
X021945Y004866D02*
D03*
X018815Y006336D02*
D03*
X018965Y006416D02*
D03*
X020775Y002496D02*
D03*
Y002416D02*
D03*
X020935Y003256D02*
D03*
X021325Y004016D02*
D03*
X020365Y006226D02*
D03*
X020893Y005724D02*
D03*
X021594Y006958D02*
D03*
X023675Y006826D02*
D03*
X021595Y006876D02*
D03*
X024025Y006596D02*
D03*
Y005593D02*
D03*
X023147D02*
D03*
X018685Y006316D02*
D03*
X019224Y006437D02*
D03*
X019285Y006126D02*
D03*
X019195D02*
D03*
X019375D02*
D03*
X021675Y006169D02*
D03*
X020455Y005626D02*
D03*
X021915Y005836D02*
D03*
X021785Y003736D02*
D03*
X020925Y004398D02*
D03*
X019685Y004826D02*
D03*
X021655Y005366D02*
D03*
X020075Y005206D02*
D03*
X021135Y003676D02*
D03*
X021035Y003256D02*
D03*
X024035Y007011D02*
D03*
X020085Y005556D02*
D03*
X023181Y006579D02*
D03*
X021665Y004016D02*
D03*
X020555Y005046D02*
D03*
X021695Y002266D02*
D03*
X021245Y002326D02*
D03*
X021225Y003056D02*
D03*
X021055Y006736D02*
D03*
X020485Y003486D02*
D03*
X022655Y005106D02*
D03*
X023035Y005736D02*
D03*
X023165Y006196D02*
D03*
X019625Y004446D02*
D03*
X021045Y006169D02*
D03*
X020675Y006516D02*
D03*
X021375Y004746D02*
D03*
X022045Y004016D02*
D03*
X022315Y003296D02*
D03*
X022154Y006168D02*
D03*
X019825Y006216D02*
D03*
D100*
X030395Y002546D02*
D03*
X030865Y003836D02*
D03*
X031545Y002546D02*
D03*
X031125Y003836D02*
D03*
X028895Y002546D02*
D03*
X029365Y003836D02*
D03*
X030045Y002546D02*
D03*
X029625Y003836D02*
D03*
X027395Y002546D02*
D03*
X027865Y003836D02*
D03*
X028545Y002546D02*
D03*
X028125Y003836D02*
D03*
X025895Y002546D02*
D03*
X026365Y003836D02*
D03*
X027045Y002546D02*
D03*
X026625Y003836D02*
D03*
X030395Y005276D02*
D03*
X030865Y006566D02*
D03*
X031545Y005276D02*
D03*
X031125Y006566D02*
D03*
X028899Y005280D02*
D03*
X029369Y006570D02*
D03*
X030049Y005280D02*
D03*
X029629Y006570D02*
D03*
X027395Y005286D02*
D03*
X027865Y006576D02*
D03*
X028545Y005286D02*
D03*
X028125Y006576D02*
D03*
X025895Y005286D02*
D03*
X027045D02*
D03*
X026365Y006576D02*
D03*
X026625D02*
D03*
X024535Y006916D02*
D03*
X025335Y006666D02*
D03*
X019285Y005936D02*
D03*
D101*
X032855Y002386D02*
D03*
Y002186D02*
D03*
Y003586D02*
D03*
Y003786D02*
D03*
Y003986D02*
D03*
Y004186D02*
D03*
Y004386D02*
D03*
Y004586D02*
D03*
Y004786D02*
D03*
Y004986D02*
D03*
Y005186D02*
D03*
Y005386D02*
D03*
Y005586D02*
D03*
Y005786D02*
D03*
Y005986D02*
D03*
Y006186D02*
D03*
Y006386D02*
D03*
Y006586D02*
D03*
Y006986D02*
D03*
D102*
X019895Y004956D02*
D03*
D103*
X019285Y004856D02*
D03*
D104*
X019005Y007136D02*
D03*
X019115D02*
D03*
X019225D02*
D03*
X019335D02*
D03*
X019445D02*
D03*
X026085D02*
D03*
X025975D02*
D03*
X025865D02*
D03*
X025755D02*
D03*
X025645D02*
D03*
X033175D02*
D03*
X033065D02*
D03*
X032955D02*
D03*
X032845D02*
D03*
X032735D02*
D03*
X019435Y002036D02*
D03*
X019325D02*
D03*
X019215D02*
D03*
X019105D02*
D03*
X018995D02*
D03*
X026085D02*
D03*
X025975D02*
D03*
X025865D02*
D03*
X025755D02*
D03*
X025645D02*
D03*
X033175D02*
D03*
X033065D02*
D03*
X032955D02*
D03*
X032845D02*
D03*
X032735D02*
D03*
M02*
