G04*
G04 #@! TF.GenerationSoftware,Altium Limited,Altium Designer,20.1.11 (218)*
G04*
G04 Layer_Physical_Order=3*
G04 Layer_Color=128*
%FSAX42Y42*%
%MOMM*%
G71*
G04*
G04 #@! TF.SameCoordinates,36681182-F833-4A46-B70D-823A07E8D0DF*
G04*
G04*
G04 #@! TF.FilePolarity,Negative*
G04*
G01*
G75*
%ADD13C,0.20*%
%ADD14C,0.25*%
%ADD84C,0.30*%
%ADD95C,1.20*%
%ADD96C,1.30*%
%ADD99C,1.02*%
G04:AMPARAMS|DCode=100|XSize=2.424mm|YSize=2.424mm|CornerRadius=0mm|HoleSize=0mm|Usage=FLASHONLY|Rotation=0.000|XOffset=0mm|YOffset=0mm|HoleType=Round|Shape=Relief|Width=0.25mm|Gap=0.25mm|Entries=4|*
%AMTHD100*
7,0,0,2.42,1.92,0.25,45*
%
%ADD100THD100*%
%ADD101C,1.25*%
G04:AMPARAMS|DCode=102|XSize=2.524mm|YSize=2.524mm|CornerRadius=0mm|HoleSize=0mm|Usage=FLASHONLY|Rotation=0.000|XOffset=0mm|YOffset=0mm|HoleType=Round|Shape=Relief|Width=0.25mm|Gap=0.25mm|Entries=4|*
%AMTHD102*
7,0,0,2.52,2.02,0.25,45*
%
%ADD102THD102*%
G04:AMPARAMS|DCode=103|XSize=2.474mm|YSize=2.474mm|CornerRadius=0mm|HoleSize=0mm|Usage=FLASHONLY|Rotation=0.000|XOffset=0mm|YOffset=0mm|HoleType=Round|Shape=Relief|Width=0.25mm|Gap=0.25mm|Entries=4|*
%AMTHD103*
7,0,0,2.47,1.97,0.25,45*
%
%ADD103THD103*%
%ADD104C,1.35*%
G04:AMPARAMS|DCode=105|XSize=2.3876mm|YSize=2.3876mm|CornerRadius=0mm|HoleSize=0mm|Usage=FLASHONLY|Rotation=0.000|XOffset=0mm|YOffset=0mm|HoleType=Round|Shape=Relief|Width=0.25mm|Gap=0.25mm|Entries=4|*
%AMTHD105*
7,0,0,2.39,1.88,0.25,45*
%
%ADD105THD105*%
%ADD106C,1.26*%
%ADD107C,1.16*%
G04:AMPARAMS|DCode=108|XSize=2.324mm|YSize=2.324mm|CornerRadius=0mm|HoleSize=0mm|Usage=FLASHONLY|Rotation=0.000|XOffset=0mm|YOffset=0mm|HoleType=Round|Shape=Relief|Width=0.25mm|Gap=0.25mm|Entries=4|*
%AMTHD108*
7,0,0,2.32,1.82,0.25,45*
%
%ADD108THD108*%
%ADD109C,0.70*%
G04:AMPARAMS|DCode=110|XSize=1.824mm|YSize=1.824mm|CornerRadius=0mm|HoleSize=0mm|Usage=FLASHONLY|Rotation=0.000|XOffset=0mm|YOffset=0mm|HoleType=Round|Shape=Relief|Width=0.25mm|Gap=0.25mm|Entries=4|*
%AMTHD110*
7,0,0,1.82,1.32,0.25,45*
%
%ADD110THD110*%
G04:AMPARAMS|DCode=111|XSize=2.124mm|YSize=2.124mm|CornerRadius=0mm|HoleSize=0mm|Usage=FLASHONLY|Rotation=0.000|XOffset=0mm|YOffset=0mm|HoleType=Round|Shape=Relief|Width=0.25mm|Gap=0.25mm|Entries=4|*
%AMTHD111*
7,0,0,2.12,1.62,0.25,45*
%
%ADD111THD111*%
G36*
X032735Y007086D02*
X026085D01*
Y007326D01*
X032735D01*
Y007086D01*
D02*
G37*
G36*
X025645Y007086D02*
X020837Y007086D01*
Y006959D01*
X019745D01*
Y007086D01*
X019455D01*
Y007326D01*
X025645D01*
Y007086D01*
D02*
G37*
G36*
X032735Y001846D02*
X026085D01*
Y002086D01*
X032735D01*
Y001846D01*
D02*
G37*
G36*
X025645D02*
X019455D01*
Y002086D01*
X025645D01*
Y001846D01*
D02*
G37*
D13*
X018995Y007238D02*
X019454D01*
X018995Y001898D02*
X019449D01*
D14*
X032695Y002086D02*
Y003636D01*
X032145D02*
X032695D01*
X032145Y002086D02*
Y003636D01*
X025592Y002089D02*
Y003634D01*
X023982D02*
X025592D01*
X023982Y003086D02*
Y003634D01*
D84*
X021645Y005076D02*
X022735D01*
Y005586D01*
X022745Y005596D01*
X023985Y005556D02*
Y005595D01*
Y004096D02*
Y004726D01*
X023975Y004086D02*
X023985Y004096D01*
X023225Y004086D02*
X023975D01*
X023165Y004026D02*
X023225Y004086D01*
X023227Y003665D02*
Y003965D01*
X023135Y003426D02*
X023165Y003456D01*
X022245Y003426D02*
X023135D01*
X022225Y003446D02*
X022245Y003426D01*
X022225Y003446D02*
Y004066D01*
X022035Y004256D02*
X022225Y004066D01*
X021615Y004256D02*
X022035D01*
X021615D02*
Y005046D01*
X021645Y005076D01*
X022783Y005596D02*
X023208D01*
X022745D02*
X022783D01*
X023208D02*
X023982D01*
X020805Y005526D02*
X021705D01*
X021705Y005526D02*
X021705Y005526D01*
X021705Y005076D02*
Y005526D01*
X020805Y004796D02*
Y005526D01*
X020925Y004676D02*
X021435D01*
Y004226D02*
Y004676D01*
Y004226D02*
X021585Y004076D01*
Y004006D02*
Y004076D01*
Y004006D02*
X021635Y003956D01*
X021636Y003955D02*
X021958D01*
X021635Y003956D02*
X021636Y003955D01*
X021958D02*
Y004254D01*
X019725Y004116D02*
X019745Y004096D01*
Y003156D02*
X019795Y003106D01*
X021045D01*
X021072Y002710D02*
Y003069D01*
Y002160D02*
Y002185D01*
Y002099D02*
Y002160D01*
Y002185D02*
Y002710D01*
X021045Y003106D02*
X021049D01*
X021072Y003083D01*
Y003069D02*
Y003083D01*
X019245Y003096D02*
Y003646D01*
Y003096D02*
X019695Y002646D01*
X019701Y002081D02*
Y002641D01*
X024041Y006691D02*
Y007112D01*
X022978Y006396D02*
X023208D01*
X019965Y005976D02*
X020385Y006396D01*
X022978Y006086D02*
X023208D01*
X020405Y005486D02*
X021005Y006086D01*
X019805Y005486D02*
X020405D01*
X019745Y003493D02*
Y003592D01*
Y003156D02*
Y003493D01*
Y003592D02*
Y003676D01*
X018585Y004746D02*
X018595D01*
X018865D02*
X019495Y004116D01*
X019645D02*
X019725D01*
X019495D02*
X019645D01*
X019745Y003676D02*
Y004096D01*
X020805Y004676D02*
X020925D01*
X021770Y005591D02*
X022740D01*
X019755Y004756D02*
X021065Y003446D01*
X022295Y002096D02*
Y002456D01*
X021645Y003106D02*
X022295Y002456D01*
X021065Y003446D02*
X022225D01*
X021995Y003086D02*
X023208D01*
X023982D01*
Y002104D02*
Y003086D01*
X023985Y004726D02*
Y005556D01*
X022783Y006086D02*
X022978D01*
X023208D02*
X023982D01*
X021508D02*
X022738D01*
X021005D02*
X021508D01*
X022738D02*
X022783D01*
X024041Y006476D02*
Y006691D01*
X021189Y006396D02*
X021252D01*
X020848D02*
X020912D01*
X021508D02*
X022978D01*
X020385D02*
X020425D01*
X020912D02*
X021189D01*
X023208D02*
X023982D01*
X020445D02*
X020565D01*
X021252D02*
X021508D01*
X020565D02*
X020848D01*
X020425D02*
X020445D01*
X023982D02*
X024045D01*
X024041Y006401D02*
Y006476D01*
X023165Y004026D02*
X023227Y003965D01*
X023165Y003456D02*
X023207Y003498D01*
X023227Y003518D02*
Y003665D01*
X023207Y003498D02*
X023227Y003518D01*
Y003665D01*
X019805Y006546D02*
Y006966D01*
X019535Y006276D02*
X019625Y006366D01*
X018595Y003645D02*
X019245D01*
X018865Y004746D02*
Y006066D01*
X019025Y006226D01*
X019480D01*
X019485D01*
X019535Y006276D01*
X019445Y006226D02*
X019485D01*
X019625Y006366D02*
X019690Y006431D01*
X019535Y006276D02*
X019625Y006366D01*
X019690Y006431D02*
X019805Y006546D01*
D95*
X031595Y006646D02*
D03*
X030095D02*
D03*
X032855Y003586D02*
D03*
Y003786D02*
D03*
Y003986D02*
D03*
Y004186D02*
D03*
Y004386D02*
D03*
Y004586D02*
D03*
Y004786D02*
D03*
Y004986D02*
D03*
Y005186D02*
D03*
Y005386D02*
D03*
Y005586D02*
D03*
Y005786D02*
D03*
Y005986D02*
D03*
Y006186D02*
D03*
Y006386D02*
D03*
Y006586D02*
D03*
Y006786D02*
D03*
Y006986D02*
D03*
X030372Y002717D02*
D03*
X031595Y003256D02*
D03*
Y004226D02*
D03*
X030375Y003696D02*
D03*
X028872Y002717D02*
D03*
X030095Y003256D02*
D03*
Y004226D02*
D03*
X028875Y003696D02*
D03*
X027372Y002717D02*
D03*
X028595Y003256D02*
D03*
Y004226D02*
D03*
X027375Y003696D02*
D03*
X025872Y002717D02*
D03*
X027095Y003256D02*
D03*
Y004226D02*
D03*
X025875Y003696D02*
D03*
X030372Y005167D02*
D03*
X031595Y005706D02*
D03*
X030375Y006146D02*
D03*
X028872Y005167D02*
D03*
X030095Y005706D02*
D03*
X028875Y006146D02*
D03*
X027372Y005167D02*
D03*
X028595Y005706D02*
D03*
Y006676D02*
D03*
X027375Y006146D02*
D03*
X027095Y005666D02*
D03*
Y006636D02*
D03*
X025872Y005127D02*
D03*
X025875Y006106D02*
D03*
X024535Y006916D02*
D03*
X019005Y007136D02*
D03*
X019115D02*
D03*
X019225D02*
D03*
X019335D02*
D03*
X019445D02*
D03*
X026085D02*
D03*
X025975D02*
D03*
X025865D02*
D03*
X025755D02*
D03*
X025645D02*
D03*
X033175D02*
D03*
X033065D02*
D03*
X032955D02*
D03*
X032845D02*
D03*
X032735D02*
D03*
X019435Y002036D02*
D03*
X019325D02*
D03*
X019215D02*
D03*
X019105D02*
D03*
X018995D02*
D03*
X026085D02*
D03*
X025975D02*
D03*
X025865D02*
D03*
X025755D02*
D03*
X025645D02*
D03*
X033175D02*
D03*
X033065D02*
D03*
X032955D02*
D03*
X032845D02*
D03*
X032735D02*
D03*
D96*
X027594Y004935D02*
D03*
X027848D02*
D03*
X028356D02*
D03*
X027594Y005697D02*
D03*
X027848D02*
D03*
X028102D02*
D03*
X027594Y005885D02*
D03*
X027848D02*
D03*
X028356D02*
D03*
X027594Y006647D02*
D03*
X027848D02*
D03*
X028102D02*
D03*
X029094Y004935D02*
D03*
X029348D02*
D03*
X029856D02*
D03*
X029094Y005697D02*
D03*
X029348D02*
D03*
X029602D02*
D03*
X029094Y005885D02*
D03*
X029348D02*
D03*
X029856D02*
D03*
X029094Y006647D02*
D03*
X029348D02*
D03*
X029602D02*
D03*
X031102Y005697D02*
D03*
X030848D02*
D03*
X030594D02*
D03*
X031356Y004935D02*
D03*
X030848D02*
D03*
X030594D02*
D03*
X031102Y006647D02*
D03*
X030848D02*
D03*
X030594D02*
D03*
X031356Y005885D02*
D03*
X030848D02*
D03*
X030594D02*
D03*
X026602Y003247D02*
D03*
X026348D02*
D03*
X026094D02*
D03*
X026856Y002485D02*
D03*
X026348D02*
D03*
X026094D02*
D03*
X026602Y004197D02*
D03*
X026348D02*
D03*
X026094D02*
D03*
X026856Y003435D02*
D03*
X026348D02*
D03*
X026094D02*
D03*
X028102Y003247D02*
D03*
X027848D02*
D03*
X027594D02*
D03*
X028356Y002485D02*
D03*
X027848D02*
D03*
X027594D02*
D03*
X028102Y004197D02*
D03*
X027848D02*
D03*
X027594D02*
D03*
X028356Y003435D02*
D03*
X027848D02*
D03*
X027594D02*
D03*
X029094Y002485D02*
D03*
X029348D02*
D03*
X029856D02*
D03*
X029094Y003247D02*
D03*
X029348D02*
D03*
X029602D02*
D03*
X029094Y003435D02*
D03*
X029348D02*
D03*
X029856D02*
D03*
X029094Y004197D02*
D03*
X029348D02*
D03*
X029602D02*
D03*
X031102Y003247D02*
D03*
X030848D02*
D03*
X030594D02*
D03*
X031356Y002485D02*
D03*
X030848D02*
D03*
X030594D02*
D03*
X031102Y004197D02*
D03*
X030848D02*
D03*
X030594D02*
D03*
X031356Y003435D02*
D03*
X030848D02*
D03*
X030594D02*
D03*
X026602Y006607D02*
D03*
X026348D02*
D03*
X026094D02*
D03*
X026856Y005845D02*
D03*
X026348D02*
D03*
X026094D02*
D03*
X026602Y005657D02*
D03*
X026348D02*
D03*
X026094D02*
D03*
X026856Y004895D02*
D03*
X026348D02*
D03*
X026094D02*
D03*
D99*
X025645Y001846D02*
Y002086D01*
X019455Y001846D02*
X025645D01*
X019455D02*
Y002086D01*
X025645D01*
X032735Y001846D02*
Y002086D01*
X026085Y001846D02*
X032735D01*
X026085D02*
Y002086D01*
X032735D01*
X025645Y007086D02*
Y007326D01*
X020837Y007086D02*
X025645Y007086D01*
X020837Y006959D02*
Y007086D01*
X019745Y006959D02*
X020837D01*
X019745D02*
Y007086D01*
X019455D02*
X019745D01*
X019455D02*
Y007326D01*
X025645D01*
X032735Y007086D02*
Y007326D01*
X026085Y007086D02*
X032735D01*
X026085D02*
Y007326D01*
X032735D01*
X033595D02*
Y007826D01*
X018595D02*
X033595D01*
X018595Y007331D02*
Y007826D01*
Y007331D02*
X018595Y007326D01*
X018995D01*
Y007086D02*
Y007326D01*
X018595Y007086D02*
X018995Y007086D01*
X018595Y002086D02*
Y007086D01*
Y002086D02*
X018995D01*
Y001846D02*
Y002086D01*
X018595Y001846D02*
X018995D01*
X018595Y001346D02*
Y001846D01*
Y001346D02*
X033595D01*
Y001846D01*
X033175D02*
X033595D01*
X033175D02*
Y002086D01*
X033595D01*
Y004728D01*
X033596Y006634D01*
X033583Y006635D02*
X033596Y006634D01*
X033557Y006641D02*
X033583Y006635D01*
X033534Y006654D02*
X033557Y006641D01*
X033515Y006673D02*
X033534Y006654D01*
X033502Y006696D02*
X033515Y006673D01*
X033495Y006721D02*
X033502Y006696D01*
X033495Y006721D02*
X033495Y006748D01*
X033502Y006773D01*
X033516Y006796D01*
X033535Y006815D01*
X033558Y006827D01*
X033584Y006834D01*
X033597Y006834D01*
X033595Y006836D02*
X033597Y006834D01*
X033595Y006836D02*
Y007086D01*
X033195D02*
X033595D01*
X033175Y007086D02*
X033195Y007086D01*
X033175Y007086D02*
Y007326D01*
X033595D01*
D100*
X028102Y004935D02*
D03*
X028356Y005697D02*
D03*
X028102Y005885D02*
D03*
X028356Y006647D02*
D03*
X029602Y004935D02*
D03*
X029856Y005697D02*
D03*
X029602Y005885D02*
D03*
X029856Y006647D02*
D03*
X031356Y005697D02*
D03*
X031102Y004935D02*
D03*
X031356Y006647D02*
D03*
X031102Y005885D02*
D03*
X026856Y003247D02*
D03*
X026602Y002485D02*
D03*
X026856Y004197D02*
D03*
X026602Y003435D02*
D03*
X028356Y003247D02*
D03*
X028102Y002485D02*
D03*
X028356Y004197D02*
D03*
X028102Y003435D02*
D03*
X029602Y002485D02*
D03*
X029856Y003247D02*
D03*
X029602Y003435D02*
D03*
X029856Y004197D02*
D03*
X031356Y003247D02*
D03*
X031102Y002485D02*
D03*
X031356Y004197D02*
D03*
X031102Y003435D02*
D03*
X026856Y006607D02*
D03*
X026602Y005845D02*
D03*
X026856Y005657D02*
D03*
X026602Y004895D02*
D03*
D101*
X023595Y002896D02*
D03*
Y003296D02*
D03*
Y003896D02*
D03*
Y002296D02*
D03*
X023595Y004896D02*
D03*
Y004296D02*
D03*
X023595Y005296D02*
D03*
Y006896D02*
D03*
Y006296D02*
D03*
Y005896D02*
D03*
D102*
X022543Y006736D02*
D03*
X021745D02*
D03*
D103*
X018856Y003493D02*
D03*
Y003239D02*
D03*
X019364Y003493D02*
D03*
Y003239D02*
D03*
X024945Y003504D02*
D03*
Y003250D02*
D03*
X024691Y003504D02*
D03*
Y003250D02*
D03*
X032311D02*
D03*
Y003504D02*
D03*
X032565Y003250D02*
D03*
Y003504D02*
D03*
D104*
X019872Y003493D02*
D03*
Y003239D02*
D03*
X020126Y003493D02*
D03*
Y003239D02*
D03*
X019110Y003493D02*
D03*
Y003239D02*
D03*
X019618Y003493D02*
D03*
Y003239D02*
D03*
X019865Y003746D02*
D03*
Y003946D02*
D03*
X020125Y003746D02*
D03*
Y003946D02*
D03*
X025453Y003504D02*
D03*
Y003250D02*
D03*
X025199Y003504D02*
D03*
Y003250D02*
D03*
X024183Y003504D02*
D03*
Y003250D02*
D03*
X024437Y003504D02*
D03*
Y003250D02*
D03*
D105*
X033135Y003186D02*
D03*
X033335Y003186D02*
D03*
X033135Y003386D02*
D03*
X033335Y003386D02*
D03*
D106*
Y002986D02*
D03*
X033135Y002786D02*
D03*
X033335Y002786D02*
D03*
Y002586D02*
D03*
Y002386D02*
D03*
X033135Y002186D02*
D03*
X033335Y002186D02*
D03*
X033135Y002586D02*
D03*
Y002386D02*
D03*
Y002986D02*
D03*
Y003786D02*
D03*
X033335Y003786D02*
D03*
X033135Y003586D02*
D03*
X033335Y003586D02*
D03*
X033135Y006986D02*
D03*
X033335D02*
D03*
X033135Y006586D02*
D03*
X033335D02*
D03*
X033135Y006186D02*
D03*
X033335D02*
D03*
X033135Y005786D02*
D03*
X033335D02*
D03*
X033135Y005386D02*
D03*
X033335D02*
D03*
X033135Y004986D02*
D03*
X033335Y004986D02*
D03*
X033135Y004586D02*
D03*
X033335Y004586D02*
D03*
X033135Y004186D02*
D03*
X033335Y004186D02*
D03*
X033135Y006786D02*
D03*
X033335D02*
D03*
X033135Y006386D02*
D03*
X033335D02*
D03*
X033135Y005986D02*
D03*
X033335D02*
D03*
X033135Y005586D02*
D03*
X033335D02*
D03*
X033135Y005186D02*
D03*
X033335D02*
D03*
X033135Y004786D02*
D03*
X033335D02*
D03*
X033135Y004386D02*
D03*
X033335Y004386D02*
D03*
X033135Y003986D02*
D03*
X033335Y003986D02*
D03*
D107*
X018865Y003776D02*
D03*
X019185Y003676D02*
D03*
D108*
X019895Y004956D02*
D03*
X032855Y003186D02*
D03*
Y003386D02*
D03*
X025335Y006666D02*
D03*
X019285Y004856D02*
D03*
D109*
X024105Y002896D02*
D03*
X024215D02*
D03*
X024105Y002696D02*
D03*
X024215D02*
D03*
X024105Y002496D02*
D03*
X024215D02*
D03*
X020555Y004466D02*
D03*
X020405Y004566D02*
D03*
X020895Y004046D02*
D03*
X020815Y004216D02*
D03*
X021149Y003970D02*
D03*
X020995Y004046D02*
D03*
X022655Y005446D02*
D03*
X021215Y004016D02*
D03*
X024215Y003086D02*
D03*
X024105D02*
D03*
X023075Y003196D02*
D03*
X023485Y003796D02*
D03*
X022955Y003346D02*
D03*
X023145Y003196D02*
D03*
X023705Y003796D02*
D03*
X023015Y003196D02*
D03*
Y003346D02*
D03*
X023075D02*
D03*
X024925Y006406D02*
D03*
X024525D02*
D03*
X024725Y005456D02*
D03*
X024525D02*
D03*
X020185Y004506D02*
D03*
X020085Y005106D02*
D03*
X020955Y006456D02*
D03*
X020185Y004916D02*
D03*
X020285Y006616D02*
D03*
X020995Y005826D02*
D03*
Y005686D02*
D03*
X020465Y005716D02*
D03*
X020485Y005506D02*
D03*
X021965Y004016D02*
D03*
X021015Y004746D02*
D03*
X020925Y004606D02*
D03*
X021325Y003226D02*
D03*
Y003296D02*
D03*
X021255Y003226D02*
D03*
Y003296D02*
D03*
X019075Y004726D02*
D03*
X019075Y004816D02*
D03*
Y004896D02*
D03*
X019092Y005603D02*
D03*
X021635Y003336D02*
D03*
Y003276D02*
D03*
X021575Y003336D02*
D03*
Y003276D02*
D03*
X019475Y005616D02*
D03*
X019575Y005456D02*
D03*
X019645D02*
D03*
X019575Y005526D02*
D03*
X019645D02*
D03*
X022565Y003945D02*
D03*
X024025Y004212D02*
D03*
X020865Y003864D02*
D03*
X020445Y004996D02*
D03*
X020585Y004266D02*
D03*
X020675Y004056D02*
D03*
X020755D02*
D03*
X020675Y003996D02*
D03*
Y006416D02*
D03*
X021295Y004606D02*
D03*
X022855Y006209D02*
D03*
X022065Y006169D02*
D03*
X021045Y004398D02*
D03*
X023165Y006796D02*
D03*
X021575Y006169D02*
D03*
X022725Y003296D02*
D03*
X020385Y003586D02*
D03*
X020755Y003996D02*
D03*
X021666Y003537D02*
D03*
X022010Y005918D02*
D03*
X023005Y005126D02*
D03*
X022195Y005456D02*
D03*
X021765Y004016D02*
D03*
X020675Y006316D02*
D03*
X020225Y005577D02*
D03*
X022795Y003556D02*
D03*
X023685Y004996D02*
D03*
X023505D02*
D03*
X023695Y004796D02*
D03*
X023585Y004756D02*
D03*
X023635Y004596D02*
D03*
X023155Y004836D02*
D03*
X023155Y004716D02*
D03*
X023495Y004596D02*
D03*
X022405Y004406D02*
D03*
X022395Y004966D02*
D03*
X022745Y004116D02*
D03*
X022785Y004246D02*
D03*
X021695Y004341D02*
D03*
X021985Y004986D02*
D03*
X022189Y005046D02*
D03*
X021985Y004396D02*
D03*
X022235Y006056D02*
D03*
X021353Y005747D02*
D03*
X023696Y006000D02*
D03*
X021345Y005656D02*
D03*
X023185Y005996D02*
D03*
X022335Y006066D02*
D03*
X021115Y005956D02*
D03*
X020535Y005888D02*
D03*
X021408Y005871D02*
D03*
X021341Y005929D02*
D03*
X020955Y006106D02*
D03*
X021025Y006044D02*
D03*
X021335Y002516D02*
D03*
Y002396D02*
D03*
X021265Y004466D02*
D03*
X021135D02*
D03*
X023075Y004902D02*
D03*
X022993D02*
D03*
X023689Y005393D02*
D03*
X023135Y005316D02*
D03*
X022525Y005446D02*
D03*
X022435D02*
D03*
X022695Y005656D02*
D03*
X022585Y005686D02*
D03*
X022603Y005774D02*
D03*
X022585Y005856D02*
D03*
X022465Y005976D02*
D03*
X022427Y006106D02*
D03*
X022255Y005290D02*
D03*
X022334Y005357D02*
D03*
X021895Y006816D02*
D03*
X021915Y006726D02*
D03*
X021855Y006556D02*
D03*
X021775Y006536D02*
D03*
X021585Y006686D02*
D03*
X021625Y006536D02*
D03*
X021605Y006456D02*
D03*
X020405Y005466D02*
D03*
X020292Y005460D02*
D03*
X020145Y005476D02*
D03*
X020205Y005306D02*
D03*
X020325Y005196D02*
D03*
X020315Y005116D02*
D03*
X020517Y004855D02*
D03*
X022465Y006596D02*
D03*
X022345Y006846D02*
D03*
X022265D02*
D03*
X022175Y006786D02*
D03*
X022195Y006666D02*
D03*
X022205Y006546D02*
D03*
X022085Y006546D02*
D03*
X022035Y006686D02*
D03*
X021874Y004016D02*
D03*
X022745Y003926D02*
D03*
X022137Y005106D02*
D03*
X022545D02*
D03*
X022025Y005166D02*
D03*
X021925Y005276D02*
D03*
X022085D02*
D03*
X020325Y004876D02*
D03*
X020315Y004756D02*
D03*
X021895Y003896D02*
D03*
X022655Y006108D02*
D03*
X022763Y003796D02*
D03*
X022045D02*
D03*
X022665Y003856D02*
D03*
X022045Y003876D02*
D03*
X022585Y003146D02*
D03*
X022485Y002876D02*
D03*
X022665Y003146D02*
D03*
X022815Y002796D02*
D03*
X022265Y004326D02*
D03*
X022569Y002691D02*
D03*
X022825Y002596D02*
D03*
X022185Y004332D02*
D03*
X022455Y002396D02*
D03*
X021355Y004406D02*
D03*
X022815Y002396D02*
D03*
X021345Y004506D02*
D03*
X023150Y005796D02*
D03*
X022525Y005916D02*
D03*
X024035Y005796D02*
D03*
X022414Y005876D02*
D03*
X020457Y004788D02*
D03*
X020875Y003716D02*
D03*
Y003406D02*
D03*
X020555Y004706D02*
D03*
X020775Y003276D02*
D03*
X020015Y005446D02*
D03*
X021945Y004866D02*
D03*
X018815Y006336D02*
D03*
X018965Y006416D02*
D03*
X020775Y002496D02*
D03*
Y002416D02*
D03*
X020935Y003256D02*
D03*
X021325Y004016D02*
D03*
X020365Y006226D02*
D03*
X020893Y005724D02*
D03*
X021594Y006958D02*
D03*
X023675Y006826D02*
D03*
X021595Y006876D02*
D03*
X024025Y006596D02*
D03*
Y005593D02*
D03*
X023147D02*
D03*
X019224Y006437D02*
D03*
D110*
X023485Y003996D02*
D03*
X023495Y003596D02*
D03*
X022865Y002196D02*
D03*
X023098Y002196D02*
D03*
X023705Y003596D02*
D03*
Y003996D02*
D03*
X021695Y004696D02*
D03*
X022105D02*
D03*
X022515Y004686D02*
D03*
X023155Y004106D02*
D03*
X023055Y005456D02*
D03*
X022465Y003945D02*
D03*
X023165Y003576D02*
D03*
X023495Y005196D02*
D03*
X023685D02*
D03*
X022505Y003736D02*
D03*
X018685Y006316D02*
D03*
X019285Y006126D02*
D03*
X019195D02*
D03*
X019375D02*
D03*
X021675Y006169D02*
D03*
X020455Y005626D02*
D03*
X021915Y005836D02*
D03*
X021785Y003736D02*
D03*
X020925Y004398D02*
D03*
X019685Y004826D02*
D03*
X021655Y005366D02*
D03*
X020075Y005206D02*
D03*
X021135Y003676D02*
D03*
X021035Y003256D02*
D03*
X024035Y007011D02*
D03*
X020085Y005556D02*
D03*
X023181Y006579D02*
D03*
X021665Y004016D02*
D03*
X020555Y005046D02*
D03*
X021695Y002266D02*
D03*
X021245Y002326D02*
D03*
X021225Y003056D02*
D03*
X021055Y006736D02*
D03*
X020485Y003486D02*
D03*
X022655Y005106D02*
D03*
X023035Y005736D02*
D03*
X023165Y006196D02*
D03*
X019625Y004446D02*
D03*
X021045Y006169D02*
D03*
X020675Y006516D02*
D03*
X021375Y004746D02*
D03*
X022045Y004016D02*
D03*
X022315Y003296D02*
D03*
X022154Y006168D02*
D03*
X019825Y006216D02*
D03*
D111*
X019285Y005936D02*
D03*
M02*
